<svg width="507" height="381" viewBox="0 0 507 381" fill="none" xmlns="http://www.w3.org/2000/svg">
<path d="M423.356 259L371.356 74.33H385.186L440.856 262.83L423.356 259Z" fill="#BED7EC"/>
<path d="M420.356 196.56H376.686L385.186 216.33H426.796L420.356 196.56Z" fill="white" stroke="#32557F" stroke-width="2.83" stroke-miterlimit="10"/>
<path d="M438.126 248.42H396.516L388.606 228.64H431.686L438.126 248.42Z" fill="white" stroke="#32557F" stroke-width="2.83" stroke-miterlimit="10"/>
<path d="M396.126 83.89H390.456L387.236 71.89H26.3565L78.0265 259H87.1965L89.8665 267.67H446.866L396.146 83.89H396.126ZM81.0165 255.67L30.6865 75.17H384.356L435.356 255.67H81.0165Z" fill="#32557F"/>
<path d="M450.336 342.43C457.246 342.43 462.846 336.829 462.846 329.92C462.846 323.011 457.246 317.41 450.336 317.41C443.427 317.41 437.826 323.011 437.826 329.92C437.826 336.829 443.427 342.43 450.336 342.43Z" fill="white"/>
<path d="M458.216 320.21C460.676 331.41 450.716 341.64 438.576 334.14C440.316 338.96 444.916 342.42 450.336 342.42C457.246 342.42 462.846 336.82 462.846 329.91C462.846 325.99 461.046 322.5 458.226 320.2L458.216 320.21Z" fill="#BEDAEB"/>
<path d="M450.336 336.28C453.849 336.28 456.696 333.433 456.696 329.92C456.696 326.408 453.849 323.56 450.336 323.56C446.824 323.56 443.976 326.408 443.976 329.92C443.976 333.433 446.824 336.28 450.336 336.28Z" fill="#66CBE4"/>
<path d="M462.23 331.475C463.049 324.826 458.322 318.772 451.673 317.953C445.024 317.134 438.971 321.861 438.152 328.51C437.333 335.159 442.06 341.213 448.709 342.031C455.358 342.85 461.411 338.124 462.23 331.475Z" stroke="#32557F" stroke-width="2.83" stroke-miterlimit="10"/>
<path d="M430.576 312.39C440.948 312.39 449.356 303.982 449.356 293.61C449.356 283.238 440.948 274.83 430.576 274.83C420.205 274.83 411.796 283.238 411.796 293.61C411.796 303.982 420.205 312.39 430.576 312.39Z" fill="white"/>
<path d="M442.406 279.04C446.106 295.86 431.136 311.21 412.916 299.96C415.526 307.2 422.426 312.39 430.566 312.39C440.936 312.39 449.346 303.98 449.346 293.61C449.346 287.73 446.636 282.48 442.406 279.04Z" fill="#BEDAEB"/>
<path d="M430.576 303.17C435.856 303.17 440.136 298.89 440.136 293.61C440.136 288.33 435.856 284.05 430.576 284.05C425.297 284.05 421.016 288.33 421.016 293.61C421.016 298.89 425.297 303.17 430.576 303.17Z" fill="#66CBE4"/>
<path d="M430.576 312.39C440.948 312.39 449.356 303.982 449.356 293.61C449.356 283.238 440.948 274.83 430.576 274.83C420.205 274.83 411.796 283.238 411.796 293.61C411.796 303.982 420.205 312.39 430.576 312.39Z" stroke="#32557F" stroke-width="2.83" stroke-miterlimit="10"/>
<path d="M396.766 209.58C398.838 209.58 400.516 207.901 400.516 205.83C400.516 203.759 398.838 202.08 396.766 202.08C394.695 202.08 393.016 203.759 393.016 205.83C393.016 207.901 394.695 209.58 396.766 209.58Z" fill="#BED7EC"/>
<path d="M411.996 209.58C414.068 209.58 415.746 207.901 415.746 205.83C415.746 203.759 414.068 202.08 411.996 202.08C409.925 202.08 408.246 203.759 408.246 205.83C408.246 207.901 409.925 209.58 411.996 209.58Z" fill="#BED7EC"/>
<path d="M405.546 242.31C407.618 242.31 409.296 240.631 409.296 238.56C409.296 236.489 407.618 234.81 405.546 234.81C403.475 234.81 401.796 236.489 401.796 238.56C401.796 240.631 403.475 242.31 405.546 242.31Z" fill="#BED7EC"/>
<path d="M420.766 242.31C422.838 242.31 424.516 240.631 424.516 238.56C424.516 236.489 422.838 234.81 420.766 234.81C418.695 234.81 417.016 236.489 417.016 238.56C417.016 240.631 418.695 242.31 420.766 242.31Z" fill="#BED7EC"/>
</svg>
