<svg width="217" height="180" viewBox="0 0 217 180" fill="none" xmlns="http://www.w3.org/2000/svg">
<path fill-rule="evenodd" clip-rule="evenodd" d="M14.1675 176.227H207.578C207.578 176.227 214.266 134.08 213.552 90.978C213.835 26.8815 206.656 3.53954 206.656 3.53954H14.1675C14.1675 3.53954 3.08936 0.76647 3.08936 88.7515C3.08936 176.737 14.1675 176.227 14.1675 176.227Z" fill="white"/>
<path fill-rule="evenodd" clip-rule="evenodd" d="M12.4305 66.3203C14.0229 66.3203 15.3098 76.9705 15.3098 90.107C15.3098 103.244 14.0201 113.894 12.4305 113.894C10.8409 113.894 9.55127 103.244 9.55127 90.107C9.55127 76.9705 10.8409 66.3203 12.4305 66.3203Z" fill="black"/>
<path d="M12.7603 4.24095L13.5673 5.03402L14.0063 4.81967L13.7227 4.2597V4.88665C13.8236 4.88665 13.9272 4.85986 14.0063 4.81967L13.7227 4.2597V4.88665V4.49012L13.3874 4.77412C13.3874 4.77412 13.4828 4.88665 13.7227 4.88665V4.49012L13.3874 4.77412C13.7391 5.0233 15.9531 10.1461 18.3307 43.4737C20.1793 67.5444 20.4547 82.8753 20.4547 88.7831C20.4547 89.7021 20.4465 90.3907 20.4383 90.8515C20.4356 91.0792 20.4301 91.2507 20.4247 91.3606C20.4247 91.4142 20.422 91.4543 20.4192 91.4704L20.5338 91.4785L20.4192 91.4651V91.4704L20.5338 91.4785L20.4192 91.4651L21.0218 91.5401L20.4329 91.3981C20.422 91.4436 20.422 91.4543 20.4192 91.4651L21.0218 91.5401L20.4329 91.3981L21.0845 91.5562L20.4792 91.2695C20.4438 91.3445 20.441 91.374 20.4329 91.3981L21.0845 91.5562L20.4792 91.2695L21.0927 91.5588V90.8917C20.5501 90.956 20.5228 91.2373 20.4792 91.2695L21.0927 91.5588L21.7416 91.3552C21.6707 91.3499 21.8425 91.0551 21.0927 90.889V91.5562L21.7416 91.3525L21.2072 91.5186L21.7716 91.4892C21.7634 91.4731 21.7771 91.4892 21.7444 91.3525L21.2099 91.5186L21.7743 91.4892C21.7743 91.4704 21.7716 91.3633 21.7716 91.2079C21.7716 91.1516 21.7716 91.09 21.7716 91.0176L20.4083 91.0069C19.9421 130.754 17.1828 153.804 15.5659 165.711V165.719V165.727C15.0806 170.121 14.4507 172.508 13.9709 173.757C13.7309 174.381 13.5292 174.718 13.4119 174.877C13.3519 174.957 13.3165 174.994 13.3056 175.002L13.5128 175.22L13.3628 174.965C13.3138 174.994 13.3056 175.002 13.3056 175.002L13.5128 175.22L13.3628 174.965L13.2865 175.008L12.7603 175.525L13.7255 176.473L14.1863 176.021L13.7037 175.546L14.0445 176.128C14.4289 175.844 15.9095 174.788 16.9183 165.874L16.2421 165.802L16.9183 165.89C18.5406 153.951 21.3054 130.824 21.7716 91.023L20.4083 91.0123C20.4083 91.0846 20.4083 91.1516 20.4083 91.2105C20.4083 91.3311 20.4083 91.4222 20.4083 91.4892C20.4083 91.524 20.4083 91.5508 20.4111 91.583C20.4111 91.6017 20.4111 91.6151 20.4192 91.6526C20.422 91.674 20.4247 91.6955 20.4438 91.7598C20.5147 91.7651 20.3456 92.0625 21.0954 92.2287C21.638 92.1617 21.6653 91.883 21.7116 91.8482C21.8507 91.3954 21.7525 91.6071 21.7907 91.3927C21.8043 91.0176 21.818 90.1522 21.818 88.7831C21.818 82.8378 21.5426 67.4747 19.6912 43.3746C18.3007 24.274 17.0383 14.4571 16.084 9.38249C14.9988 4.35348 14.8297 3.89264 13.7227 3.54701C13.5946 3.54701 13.4773 3.58184 13.401 3.61935L13.7037 4.21951L14.1863 3.74528L13.7255 3.29248L12.7603 4.24095Z" fill="black"/>
<path d="M14.1672 176.227V176.897H208.259V176.227L208.27 176.219C208.627 173.934 214.288 137.04 214.288 97.5312C214.288 95.3502 214.271 93.1613 214.233 90.9669L213.551 90.9776H214.233C214.239 89.7425 214.241 88.5208 214.241 87.3151C214.241 25.9434 207.332 3.42934 207.308 3.34896L207.16 2.87205H14.1672V3.54187L14.3362 2.89348C14.2872 2.88008 14.1917 2.86133 14.0554 2.86133C12.8693 2.93099 10.0828 3.96519 7.47343 14.9529C4.8559 26.005 2.41016 47.3401 2.41016 88.7512C2.41016 132.271 5.11493 154.171 7.87423 165.266C10.6199 176.299 13.4665 176.843 14.1672 176.897H14.1781L14.1699 176.227L14.1617 175.557V175.855L14.1645 175.557H14.1617V175.855L14.1645 175.557C14.1645 175.557 14.1645 175.584 13.96 175.458C12.2586 174.673 3.69165 164.8 3.77072 88.7512C3.77072 47.3964 6.22465 26.1229 8.79855 15.2557C11.3806 4.32422 14.05 4.21437 14.0527 4.20097V3.97323L13.9954 4.19025L14.0527 4.20097V3.97323L13.9954 4.19025L14.0772 4.21169H206.651V3.54187H205.969C206.01 3.88749 212.856 25.93 212.873 87.3151C212.873 88.5208 212.873 89.7398 212.864 90.975V90.9884C212.9 93.172 212.919 95.3556 212.919 97.5285C212.916 138.243 206.907 176.015 206.893 176.224H207.575V175.555H14.159L14.1672 176.224V176.227Z" fill="black"/>
<line x1="18" y1="33.5" x2="211" y2="33.5" stroke="black"/>
</svg>
