<svg width="46" height="14" viewBox="0 0 46 14" fill="none" xmlns="http://www.w3.org/2000/svg">
<g clip-path="url(#clip0_7084_10656)">
<path d="M39.8617 4.50912H37.6834L24.2796 4.31779H20.795L7.37705 4.50912H5.19876C4.57146 4.50912 3.66501 4.02139 3.64776 3.14945C3.63051 2.2775 4.04923 1.07623 5.05918 1.07623H7.86478L20.7589 1.05898H24.4882L37.1941 1.07623H39.9997C41.0097 1.07623 41.4284 2.27907 41.4112 3.14945C41.3939 4.02139 40.4875 4.50912 39.8602 4.50912H39.8617ZM18.728 4.50912C18.7296 4.98587 15.7186 13.3603 15.7186 13.3603C15.7186 13.3603 18.9068 13.3776 19.6909 13.3086L22.3224 4.35229L18.8206 4.37895L18.7296 4.50912H18.728ZM0.268188 13.2552C0.779437 13.2882 2.76641 13.2615 4.06962 13.2333L7.03204 7.69893C7.03204 7.69893 8.40425 5.35284 8.62695 4.57342L5.26462 4.62046C3.39371 7.79303 0.668092 12.4586 0.268188 13.2552ZM22.8729 4.42914L25.3915 13.3446L29.458 13.3195C29.458 13.3195 26.2776 4.82904 26.2791 4.38993L22.8745 4.42914H22.8729ZM39.7974 4.62046L36.4743 4.52323C36.5276 5.42811 37.3808 6.18087 37.983 7.51545L38.179 7.86831L40.9924 13.2333C42.2957 13.2615 44.2826 13.2882 44.7923 13.2552C44.3924 12.4586 41.6668 7.79146 39.7959 4.6189L39.7974 4.62046Z" fill="#A37640"/>
<path d="M22.7239 1.17032C22.6596 1.20796 22.5953 1.2456 22.5326 1.28794C22.5828 1.24873 22.6329 1.20953 22.6847 1.17032H22.7239ZM41.1226 10.6363C40.558 10.1532 40.0279 9.61847 39.6406 8.9849C39.2532 8.35133 39.0149 7.60798 39.0744 6.86776C39.1168 6.32515 39.3175 5.8092 39.5873 5.34029C39.6469 5.23679 39.857 5.00469 39.926 4.83375C39.8837 4.76161 39.8413 4.68947 39.799 4.6189H39.3881C39.3881 4.6189 39.374 4.62517 39.3693 4.62987C39.3207 4.67065 39.2862 4.72554 39.2532 4.78043C38.9521 5.26815 38.6432 5.77626 38.5648 6.34397C38.513 6.72505 38.5695 7.11398 38.6463 7.49036C38.7341 7.92319 38.8502 8.35289 39.0525 8.74496C39.2595 9.14799 39.5543 9.50242 39.879 9.8192C40.547 10.47 41.3468 10.9703 42.0526 11.5803C42.5936 12.0493 43.0907 12.6138 43.3652 13.2662C43.3871 13.2662 43.4091 13.2662 43.4295 13.2662C43.2805 12.8083 43.0076 12.3849 42.683 12.0226C42.2172 11.5035 41.6526 11.0863 41.1226 10.6331V10.6363ZM41.259 2.61468C41.2261 2.42806 41.1759 2.23673 41.1006 2.05481C40.5282 1.91838 39.9872 1.75057 39.4618 1.45417C39.316 1.37262 39.1764 1.28167 39.0384 1.18757H38.8157C39.4069 1.72862 40.1032 2.15048 40.8419 2.46726C40.9313 2.50647 41.0944 2.57233 41.2622 2.61468H41.259ZM40.8858 6.46786C40.7885 6.30319 40.6929 6.1401 40.5988 5.97857C40.5455 6.03973 40.4984 6.10716 40.4608 6.1793C40.3259 6.44434 40.3008 6.75171 40.3087 7.04968C40.3259 7.70834 40.4937 8.35446 40.7101 8.97549C40.8105 9.26561 40.925 9.55417 41.0896 9.81293C41.546 10.5265 42.3395 10.9327 43.0437 11.4047C43.5126 11.7184 43.9533 12.0728 44.361 12.4617C44.1948 12.1653 43.9909 11.8077 43.7604 11.4063C43.6239 11.3153 43.4875 11.2228 43.3495 11.135C42.6297 10.6817 41.8503 10.2395 41.4237 9.50399C41.2245 9.15897 41.1163 8.77162 41.0097 8.38739C40.8356 7.75853 40.6694 7.06066 40.8858 6.46472V6.46786ZM4.03197 9.81293C4.1982 9.55417 4.31111 9.26561 4.41148 8.97549C4.6279 8.35289 4.7957 7.70678 4.81295 7.04968C4.82079 6.75171 4.7957 6.44434 4.66083 6.1793C4.61692 6.09148 4.55576 6.00993 4.48676 5.93936C4.3958 6.09462 4.30484 6.24987 4.21231 6.4067C4.46323 7.01675 4.29229 7.73971 4.11195 8.39053C4.00531 8.77318 3.8971 9.16211 3.69793 9.50712C3.27137 10.2426 2.49195 10.6849 1.77212 11.1381C1.60118 11.2463 1.43338 11.3592 1.26558 11.4721C1.01466 11.9097 0.796671 12.2923 0.625732 12.5981C1.07111 12.1559 1.5557 11.756 2.07636 11.4063C2.7805 10.9358 3.57404 10.5281 4.0304 9.8145L4.03197 9.81293ZM22.5326 1.28794C22.3742 1.39458 22.2236 1.5122 22.0778 1.63766C22.1044 1.61727 22.1342 1.60002 22.1609 1.57963C22.2864 1.48554 22.4087 1.38674 22.5326 1.28794ZM6.30906 1.18757H6.08637C5.94836 1.28167 5.80879 1.37262 5.66294 1.45417C5.11719 1.76312 4.55419 1.93092 3.95669 2.0705C3.88298 2.25241 3.83437 2.44374 3.803 2.62879C3.99119 2.58958 4.18409 2.51117 4.28445 2.46883C5.02153 2.15204 5.71783 1.73019 6.31063 1.18914L6.30906 1.18757ZM5.86838 4.78199C5.83545 4.72711 5.80095 4.67222 5.75233 4.63144C5.74763 4.62674 5.73979 4.6236 5.73351 4.62046H5.26304C5.23481 4.66908 5.20501 4.71926 5.17522 4.76788C5.20345 4.93882 5.46691 5.22267 5.53435 5.34029C5.80565 5.80763 6.00482 6.32515 6.04716 6.86776C6.10519 7.60798 5.86838 8.35133 5.48103 8.9849C5.09367 9.61847 4.56203 10.1517 3.99903 10.6363C3.47053 11.0895 2.9044 11.5082 2.43863 12.0257C2.114 12.388 1.84112 12.8099 1.69214 13.2693C1.7141 13.2693 1.73448 13.2693 1.75644 13.2693C2.03088 12.617 2.52645 12.054 3.06906 11.5851C3.77477 10.9734 4.57458 10.4747 5.24265 9.82391C5.56728 9.50712 5.86211 9.1527 6.06912 8.74966C6.27142 8.3576 6.38747 7.92633 6.47529 7.49506C6.55214 7.11711 6.6086 6.72976 6.55527 6.34867C6.47843 5.7794 6.16949 5.27286 5.86681 4.78513L5.86838 4.78199ZM7.64991 2.03756C7.96042 1.95444 8.23487 1.77253 8.52813 1.63923C9.24325 1.3146 10.054 1.28637 10.8193 1.10759C10.4837 1.13896 10.1466 1.06682 9.80782 1.07152C9.15229 1.07936 8.46697 1.36635 7.87574 1.65177C7.80203 1.68784 7.7393 1.72234 7.67657 1.76155C7.45702 1.87603 7.24687 2.01561 7.043 2.15361C6.52548 2.5049 6.00796 2.85462 5.49044 3.20591C5.28499 3.34548 5.07799 3.48505 4.84902 3.58229C4.5636 3.70304 4.25466 3.74852 3.94571 3.73597C4.07588 3.93357 4.2625 4.0904 4.46794 4.20017C4.58556 4.1594 4.70161 4.11078 4.81452 4.0606C5.17679 3.89907 5.52964 3.71088 5.83859 3.45996C6.09107 3.25609 6.30906 3.01301 6.55371 2.79973C6.83913 2.55195 7.15748 2.34494 7.47427 2.13793C7.51191 2.11441 7.54954 2.08931 7.58718 2.06579L7.64991 2.03599V2.03756ZM17.5032 2.57704C17.6726 2.63506 17.8498 2.66643 18.027 2.69779C18.3344 2.75268 18.6402 2.806 18.9476 2.86089C19.1891 2.90323 19.4306 2.94715 19.6752 2.94715C19.8838 2.94715 20.0908 2.91735 20.2963 2.88755C20.4594 2.86403 20.5989 2.9048 20.7401 2.82325C20.7683 2.80757 20.795 2.78405 20.8216 2.75896C20.8749 2.71818 20.9283 2.67897 20.98 2.63663C21.358 2.32298 21.7045 1.95758 22.0778 1.63766C21.6889 1.91994 21.2733 2.16459 20.8546 2.40296L20.8326 2.40924C20.4139 2.64761 19.9136 2.69623 19.4322 2.69309C18.968 2.68995 18.5006 2.64291 18.0552 2.50804C17.2711 2.27123 16.5952 1.77723 15.866 1.40399C15.6574 1.29735 15.441 1.19855 15.2136 1.14523C14.8529 1.05898 14.4765 1.08564 14.108 1.1123C15.1524 1.2158 16.0698 1.8133 16.9857 2.32769C17.1535 2.42178 17.3229 2.51431 17.5032 2.57547V2.57704ZM11.5643 3.09456C10.7237 3.11024 9.87996 3.35332 9.19464 3.83948C9.02526 3.96023 8.8653 4.09353 8.68182 4.1939C8.3321 4.38366 7.92592 4.43071 7.53073 4.47619L7.87731 4.48716C8.10941 4.45266 8.34778 4.54205 8.57675 4.49187C8.91706 4.41816 9.11936 4.07471 9.41105 3.88496C9.54906 3.79557 9.70745 3.74068 9.86584 3.69363C11.2945 3.27334 12.891 3.46153 14.1817 4.20017C14.2538 4.24252 14.3275 4.28643 14.4075 4.30838C14.4922 4.33191 14.5831 4.33191 14.671 4.33191C15.0536 4.33191 15.4363 4.33034 15.8189 4.32877C15.1744 4.24252 14.602 3.88966 14.0076 3.62463C13.2407 3.28118 12.4033 3.07888 11.5627 3.09456H11.5643ZM19.9497 6.56195C20.163 6.38631 20.3872 6.22165 20.5613 6.00836C20.933 5.55357 21.0929 4.84943 21.0976 4.27388C20.7103 4.22997 20.7213 4.3915 20.7432 4.69888C20.7636 4.99057 20.7024 5.28854 20.5629 5.54573C20.4154 5.81861 20.188 6.03973 19.9607 6.24987C19.7364 6.45688 19.5074 6.66075 19.2753 6.85679C18.8127 7.24885 18.3312 7.62209 17.9251 8.07218C17.3856 8.67125 16.9904 9.40205 16.7865 10.1815C17.1786 9.69218 17.5706 9.20288 17.9643 8.71516C18.5759 7.95142 19.1953 7.18298 19.9512 6.56195H19.9497ZM21.0804 8.47678C21.1792 8.26821 21.2623 8.05336 21.3235 7.8291L21.0804 8.47678ZM17.7808 12.791C17.9392 12.4601 18.1368 12.1528 18.3579 11.8611C18.3312 11.8893 18.3046 11.9175 18.2795 11.9473C18.0709 12.1998 17.9251 12.4962 17.7808 12.791ZM18.3579 11.8611C18.5053 11.7011 18.6716 11.56 18.8394 11.4188C19.4227 10.9295 19.9999 10.4324 20.5723 9.92898C20.6366 9.87253 20.7009 9.81607 20.7479 9.7455C20.8059 9.66081 20.8357 9.56201 20.8655 9.46478C20.9549 9.17622 21.0443 8.88296 21.0412 8.58029L21.0804 8.47678C20.7432 9.18406 20.21 9.80352 19.669 10.3822C19.2204 10.8621 18.7515 11.3373 18.3579 11.8611ZM25.2158 6.44434C25.4087 6.93363 25.7522 7.36019 26.1866 7.65502C26.3654 7.77578 26.5583 7.87301 26.7386 7.99063C27.0617 8.20234 27.344 8.47835 27.5619 8.79828C27.6952 8.99274 27.8066 9.20602 27.9728 9.37225C27.9117 9.14172 27.8489 8.91276 27.7878 8.68223C27.769 8.61322 27.7501 8.54265 27.7109 8.48149C27.6451 8.37955 27.5337 8.31839 27.4286 8.26037C26.9268 7.98279 26.4469 7.65659 26.0517 7.24101C25.6581 6.82542 25.3539 6.31104 25.2488 5.74803C25.2143 5.56612 25.2017 5.38106 25.1657 5.20072C25.1155 4.94196 25.0135 4.55773 24.8332 4.35229C24.6183 4.10922 24.2984 4.3272 24.0475 4.23468C24.4537 4.38523 24.714 4.78827 24.8567 5.19758C24.9994 5.60689 25.0559 6.04287 25.2143 6.4459L25.2158 6.44434ZM26.6853 11.7356C26.2666 11.5223 25.8729 11.2589 25.517 10.9515C25.1578 10.641 24.8881 10.2724 24.5713 9.92741C24.5666 10.2144 24.5885 10.6598 24.7171 10.9185C24.8395 11.1663 25.1076 11.3028 25.357 11.4251C26.058 11.7701 26.748 12.1402 27.3879 12.5872C27.6655 12.7816 27.9477 13.009 28.0512 13.3305C28.2786 13.3587 28.5045 13.387 28.7319 13.4168C28.6331 13.1157 28.459 12.8381 28.2316 12.617C27.8035 12.2014 27.2169 12.0038 26.6837 11.734L26.6853 11.7356ZM25.3586 3.84889C25.1641 3.66697 24.9571 3.4976 24.7391 3.34391C24.6481 3.27961 24.3564 3.01615 24.2263 3.05065C24.2263 3.0381 24.2263 3.02869 24.2263 3.01928C23.8719 2.91421 23.508 2.83894 23.1379 2.8405C22.5373 2.84364 21.9508 3.05849 21.4317 3.36116C21.2701 3.45526 21.1164 3.56033 20.9659 3.66854C20.1928 3.99003 19.3694 4.1939 18.5351 4.26918L18.8252 4.31779C19.0385 4.36014 19.2596 4.357 19.4714 4.30995C19.589 4.28329 19.7035 4.24252 19.8195 4.21429C20.1426 4.13588 20.4939 4.14372 20.7824 3.98219C20.8279 3.9571 20.8702 3.9273 20.911 3.89593C20.911 3.91005 20.911 3.92103 20.911 3.93514C20.9894 3.87868 21.0678 3.82223 21.1478 3.77047C21.7124 3.3988 22.382 3.17454 23.0579 3.19493C23.4641 3.20747 23.8703 3.31412 24.2279 3.50701C24.2279 3.4929 24.2279 3.48035 24.2279 3.46623C24.3031 3.59954 24.4207 3.65756 24.5713 3.72343C24.8395 3.84261 25.1186 3.94925 25.346 4.13744C25.4009 4.18292 25.4558 4.23468 25.5217 4.26134C25.5875 4.288 25.6597 4.288 25.7287 4.288C25.8996 4.288 26.0705 4.28956 26.243 4.29113C26.0439 4.27545 25.851 4.23154 25.6832 4.12647C25.5624 4.05119 25.4605 3.94925 25.357 3.85202L25.3586 3.84889ZM37.8434 2.26496C38.0943 2.42962 38.3421 2.60213 38.5695 2.79973C38.8141 3.01301 39.0321 3.25609 39.2846 3.45996C39.592 3.70931 39.9464 3.8975 40.3087 4.05903C40.4106 4.10451 40.5141 4.14842 40.6192 4.18606C40.8152 4.07628 40.9924 3.92573 41.1179 3.73597C40.8293 3.74068 40.5408 3.6952 40.2742 3.58229C40.0452 3.48505 39.8382 3.34548 39.6327 3.20591C39.1152 2.85462 38.5977 2.5049 38.0802 2.15361C37.8371 1.98895 37.5893 1.82428 37.3243 1.69882C37.3243 1.7098 37.3243 1.71921 37.3243 1.73019C37.1345 1.63139 36.9291 1.55925 36.7221 1.50593C36.2798 1.39301 35.8235 1.35851 35.3765 1.26598C34.9766 1.18287 34.5846 1.05427 34.1768 1.02604C33.8647 1.00409 33.5511 1.04329 33.2374 1.06211C32.8846 1.08407 32.5302 1.0825 32.1773 1.08093C32.7309 1.27539 33.3315 1.26285 33.9165 1.28323C34.1658 1.29264 34.4152 1.30676 34.6645 1.32871C35.5757 1.40869 36.4915 1.57807 37.329 1.94347C37.329 1.94347 37.329 1.94504 37.329 1.9466C37.4388 2.00149 37.5438 2.0705 37.6473 2.13636C37.7101 2.17714 37.7728 2.21791 37.834 2.25868L37.8402 2.26496H37.8434ZM35.7106 3.74695C35.4204 3.57601 35.1005 3.46153 34.7759 3.369C33.6703 3.05379 32.5098 2.98478 31.3602 2.99576C30.6436 3.00203 29.9159 3.04124 29.2415 3.27961C28.7977 3.43644 28.3868 3.67324 27.9524 3.85516C27.4804 4.05276 26.9848 4.18136 26.4846 4.28956C26.4046 4.28956 26.3246 4.28956 26.2446 4.28956C26.3136 4.29584 26.3842 4.29741 26.4532 4.29741C26.3889 4.31152 26.323 4.32563 26.2587 4.33975C26.7998 4.25506 27.3706 4.40718 27.8897 4.23311C28.0356 4.18449 28.172 4.11078 28.31 4.04178C30.0413 3.17454 32.0644 2.98635 33.9761 3.29216C34.7524 3.41605 35.5726 3.65442 36.0571 4.27388C36.1105 4.34289 36.1638 4.41816 36.2422 4.4558C36.3128 4.48873 36.3943 4.48716 36.4712 4.48403C36.537 4.48246 36.7033 4.4605 36.8711 4.44796C36.7299 4.40248 36.5951 4.33348 36.4853 4.26918C36.2155 4.11235 35.9772 3.90691 35.709 3.74852L35.7106 3.74695ZM36.8711 4.44639C37.0169 4.49344 37.169 4.51696 37.3039 4.48246C37.2647 4.42914 37.0671 4.43228 36.8711 4.44639Z" fill="#CC9D54"/>
<path d="M7.37861 4.50912H5.20031C4.57301 4.50912 3.66657 4.02139 3.64932 3.14945C3.63207 2.2775 4.04922 1.07623 5.06074 1.07623H7.86633L20.7605 1.05898H24.4898L37.1957 1.07623C37.1957 1.07623 38.9898 1.07623 40.0013 1.07623C41.0128 1.07623 41.43 2.27907 41.4127 3.14945C41.3955 4.02139 40.489 4.50912 39.8617 4.50912C39.2344 4.50912 37.6834 4.50912 37.6834 4.50912L24.2796 4.31779H20.795L7.37704 4.50912H7.37861Z" stroke="#1A2752" stroke-width="0.222691" stroke-miterlimit="10"/>
<path d="M5.20024 4.50913C5.20024 4.50913 0.042279 13.2568 0.111282 13.3431C0.180285 13.4293 4.13697 13.3431 4.13697 13.3431L7.09939 7.57505L8.7241 4.49658" stroke="#1A2752" stroke-width="0.222691" stroke-miterlimit="10"/>
<path d="M18.8236 4.38837C18.8236 4.38837 15.5961 13.2568 15.6855 13.3431C15.7749 13.4293 19.7112 13.3431 19.7112 13.3431L21.3689 7.57505L22.349 4.34917" stroke="#1A2752" stroke-width="0.222691" stroke-miterlimit="10"/>
<path d="M26.2775 4.38837C26.2775 4.38837 29.5049 13.2568 29.4156 13.3431C29.3262 13.4293 25.3899 13.3431 25.3899 13.3431L23.7322 7.57505L22.7521 4.34917" stroke="#1A2752" stroke-width="0.222691" stroke-miterlimit="10"/>
<path d="M39.8617 4.50912C39.8617 4.50912 45.0197 13.2568 44.9491 13.3431C44.8786 13.4293 40.9235 13.3431 40.9235 13.3431L38.0834 7.74442L36.3693 4.51069" stroke="#1A2752" stroke-width="0.222691" stroke-miterlimit="10"/>
</g>
<defs>
<clipPath id="clip0_7084_10656">
<rect width="45.062" height="12.546" fill="white" transform="translate(0 0.947632)"/>
</clipPath>
</defs>
</svg>
