<svg width="9" height="171" viewBox="0 0 9 171" fill="none" xmlns="http://www.w3.org/2000/svg">
<path d="M0.770822 1.23272C0.838987 1.74715 1.31614 2.10885 1.83965 2.04187C2.36315 1.97489 2.73124 1.50601 2.66307 0.991588C2.59491 0.477165 2.11776 0.115462 1.59426 0.179765C1.07075 0.246747 0.702658 0.715622 0.770822 1.23004V1.23272ZM2.17774 5.79019C2.42859 5.79019 2.67398 5.69105 2.85121 5.5169C3.02844 5.34275 3.13205 5.10161 3.13205 4.85244C3.13205 4.60326 3.03116 4.36481 2.85121 4.19065C2.67398 4.0165 2.42859 3.91469 2.17774 3.91469C1.9269 3.91469 1.6815 4.0165 1.50155 4.19065C1.32432 4.36481 1.22071 4.60594 1.22071 4.85244C1.22071 5.09893 1.32159 5.34007 1.50155 5.5169C1.67877 5.69105 1.92417 5.79019 2.17774 5.79019ZM2.61127 9.52511C2.86211 9.52511 3.10751 9.42597 3.28474 9.25182C3.46196 9.07767 3.56557 8.83653 3.56557 8.58736C3.56557 8.33819 3.46469 8.09973 3.28474 7.9229C3.10751 7.74874 2.86211 7.64961 2.61127 7.64961C2.36042 7.64961 2.11503 7.74874 1.93508 7.9229C1.75785 8.09705 1.65696 8.33819 1.65696 8.58736C1.65696 8.83653 1.75785 9.07499 1.93508 9.25182C2.11231 9.42597 2.3577 9.52511 2.61127 9.52511ZM3.02571 13.26C3.27656 13.26 3.52195 13.1609 3.69918 12.9867C3.87641 12.8126 3.98002 12.5715 3.98002 12.3223C3.98002 12.0731 3.87914 11.8347 3.69918 11.6578C3.52195 11.4837 3.27656 11.3845 3.02571 11.3845C2.77487 11.3845 2.52947 11.4837 2.34952 11.6578C2.17229 11.832 2.07141 12.0731 2.07141 12.3223C2.07141 12.5715 2.17229 12.8099 2.34952 12.9867C2.52675 13.1609 2.77214 13.26 3.02571 13.26ZM3.42379 16.995C3.67464 16.995 3.92004 16.8958 4.09999 16.7217C4.27722 16.5475 4.3781 16.3064 4.3781 16.0572C4.3781 15.808 4.27722 15.5696 4.09999 15.3927C3.92276 15.2186 3.67737 15.1195 3.42379 15.1195C3.17022 15.1195 2.92755 15.2186 2.7476 15.3927C2.57037 15.5669 2.46949 15.808 2.46949 16.0572C2.46949 16.3064 2.57037 16.5448 2.7476 16.7217C2.92483 16.8958 3.17022 16.995 3.42379 16.995ZM3.80551 20.7326C4.05636 20.7326 4.30175 20.6307 4.47898 20.4566C4.65621 20.2824 4.75982 20.0413 4.75982 19.7948C4.75982 19.5483 4.65894 19.3072 4.47898 19.1303C4.30175 18.9562 4.05636 18.8571 3.80551 18.8571C3.55467 18.8571 3.30927 18.9562 3.12932 19.1303C2.95209 19.3045 2.85121 19.5456 2.85121 19.7948C2.85121 20.044 2.95209 20.2824 3.12932 20.4566C3.30655 20.6307 3.55194 20.7326 3.80551 20.7326ZM4.1736 24.4702C4.42445 24.4702 4.66984 24.3683 4.84707 24.1942C5.0243 24.02 5.12791 23.7789 5.12791 23.5324C5.12791 23.2859 5.02703 23.0448 4.84707 22.8679C4.66984 22.6938 4.42445 22.592 4.1736 22.592C3.92276 22.592 3.67736 22.6911 3.49741 22.8679C3.32018 23.0421 3.21657 23.2832 3.21657 23.5324C3.21657 23.7816 3.31745 24.02 3.49741 24.1942C3.67464 24.3683 3.92003 24.4702 4.1736 24.4702ZM4.52534 28.2104C4.77618 28.2104 5.02157 28.1113 5.20153 27.9345C5.37875 27.7603 5.47964 27.5192 5.47964 27.2727C5.47964 27.0262 5.37875 26.7851 5.20153 26.6082C5.0243 26.4341 4.77891 26.3323 4.52534 26.3323C4.27176 26.3323 4.0291 26.4314 3.84914 26.6082C3.67191 26.7824 3.57103 27.0235 3.57103 27.2727C3.57103 27.5219 3.67191 27.7603 3.84914 27.9345C4.02637 28.1086 4.27176 28.2104 4.52534 28.2104ZM4.86343 31.9507C5.11428 31.9507 5.35967 31.8516 5.5369 31.6774C5.71413 31.5033 5.81774 31.2621 5.81774 31.013C5.81774 30.7638 5.71685 30.5253 5.5369 30.3485C5.35967 30.1744 5.11428 30.0752 4.86343 30.0752C4.61259 30.0752 4.36719 30.1744 4.18723 30.3485C4.01001 30.5227 3.90913 30.7638 3.90913 31.013C3.90913 31.2621 4.01001 31.5006 4.18723 31.6774C4.36446 31.8516 4.60986 31.9507 4.86343 31.9507ZM5.18517 35.6937C5.43601 35.6937 5.68141 35.5945 5.86136 35.4177C6.03859 35.2436 6.13947 35.0024 6.13947 34.7559C6.13947 34.5094 6.03859 34.2683 5.86136 34.0915C5.68413 33.9173 5.43874 33.8182 5.18517 33.8182C4.93159 33.8182 4.68893 33.9173 4.50898 34.0915C4.32902 34.2656 4.23086 34.5068 4.23086 34.7559C4.23086 35.0051 4.33175 35.2436 4.50898 35.4177C4.68621 35.5919 4.93159 35.6937 5.18517 35.6937ZM5.49327 39.4366C5.74412 39.4366 5.98951 39.3375 6.16674 39.1607C6.34397 38.9865 6.44758 38.7454 6.44758 38.4989C6.44758 38.2524 6.34669 38.0113 6.16674 37.8344C5.98951 37.6603 5.74412 37.5611 5.49327 37.5611C5.24243 37.5611 4.99703 37.6603 4.81708 37.8344C4.63985 38.0086 4.53897 38.2497 4.53897 38.4989C4.53897 38.7481 4.63985 38.9865 4.81708 39.1607C4.9943 39.3348 5.2397 39.4366 5.49327 39.4366ZM5.78502 43.1796C6.03586 43.1796 6.28125 43.0805 6.46121 42.9063C6.63843 42.7322 6.74204 42.491 6.74204 42.2419C6.74204 41.9927 6.64116 41.7542 6.46121 41.5774C6.28398 41.4032 6.03859 41.3041 5.78502 41.3041C5.53145 41.3041 5.28878 41.4032 5.11155 41.5774C4.93432 41.7515 4.83071 41.9927 4.83071 42.2419C4.83071 42.491 4.9316 42.7295 5.11155 42.9063C5.28878 43.0805 5.53417 43.1796 5.78502 43.1796ZM6.0604 46.9252C6.31124 46.9252 6.55664 46.8261 6.73387 46.6493C6.91109 46.4751 7.0147 46.234 7.0147 45.9875C7.0147 45.741 6.91382 45.4999 6.73387 45.323C6.55664 45.1489 6.31124 45.0497 6.0604 45.0497C5.80955 45.0497 5.56416 45.1489 5.38421 45.323C5.20426 45.4972 5.10609 45.7383 5.10609 45.9875C5.10609 46.2367 5.20698 46.4751 5.38421 46.6493C5.56144 46.8234 5.80683 46.9252 6.0604 46.9252ZM6.31943 50.6709C6.57027 50.6709 6.81567 50.5717 6.99562 50.3949C7.17285 50.2208 7.27373 49.9796 7.27373 49.7304C7.27373 49.4813 7.17285 49.2428 6.99562 49.0687C6.8184 48.8945 6.573 48.7927 6.31943 48.7927C6.06585 48.7927 5.82319 48.8918 5.64323 49.0687C5.466 49.2428 5.36512 49.484 5.36512 49.7304C5.36512 49.9769 5.466 50.2181 5.64323 50.3949C5.82046 50.5691 6.06585 50.6709 6.31943 50.6709ZM6.5621 54.4165C6.81294 54.4165 7.05833 54.3147 7.23829 54.1406C7.41551 53.9664 7.5164 53.7253 7.5164 53.4788C7.5164 53.2323 7.41551 52.9911 7.23829 52.8143C7.06106 52.6375 6.81567 52.5383 6.5621 52.5383C6.30853 52.5383 6.06586 52.6375 5.88863 52.8143C5.7114 52.9885 5.60779 53.2296 5.60779 53.4788C5.60779 53.7279 5.70868 53.9664 5.88863 54.1406C6.06586 54.3147 6.31125 54.4165 6.5621 54.4165ZM6.7884 58.1648C7.03925 58.1648 7.28464 58.0657 7.4646 57.8889C7.64182 57.7147 7.74543 57.4736 7.74543 57.2271C7.74543 56.9806 7.64455 56.7395 7.4646 56.5626C7.28737 56.3885 7.04197 56.2893 6.7884 56.2893C6.53483 56.2893 6.29216 56.3885 6.11493 56.5626C5.93771 56.7368 5.8341 56.9779 5.8341 57.2271C5.8341 57.4763 5.93771 57.7147 6.11493 57.8889C6.29216 58.063 6.53755 58.1648 6.7884 58.1648ZM6.99834 61.9132C7.24919 61.9132 7.49458 61.814 7.67181 61.6399C7.84904 61.4657 7.95265 61.2246 7.95265 60.9754C7.95265 60.7262 7.85177 60.4878 7.67181 60.3109C7.49458 60.1368 7.24919 60.0377 6.99834 60.0377C6.7475 60.0377 6.50211 60.1368 6.32216 60.3109C6.14493 60.4851 6.04404 60.7262 6.04404 60.9754C6.04404 61.2246 6.14493 61.463 6.32216 61.6399C6.49938 61.814 6.74477 61.9132 6.99834 61.9132ZM7.18921 65.6615C7.44005 65.6615 7.68545 65.5623 7.86268 65.3855C8.0399 65.2114 8.14351 64.9702 8.14351 64.7237C8.14351 64.4772 8.04263 64.2361 7.86268 64.0593C7.68545 63.8851 7.44005 63.7833 7.18921 63.7833C6.93836 63.7833 6.69297 63.8851 6.51301 64.0593C6.33306 64.2334 6.23217 64.4746 6.23217 64.7237C6.23217 64.9729 6.33306 65.2114 6.51301 65.3855C6.69297 65.5597 6.93564 65.6615 7.18921 65.6615ZM7.36099 69.4098C7.61183 69.4098 7.85722 69.3107 8.03717 69.1365C8.21713 68.9624 8.31529 68.7212 8.31529 68.472C8.31529 68.2229 8.2144 67.9844 8.03717 67.8076C7.85995 67.6334 7.61456 67.5343 7.36099 67.5343C7.10741 67.5343 6.86474 67.6334 6.68479 67.8076C6.50756 67.9817 6.40668 68.2229 6.40668 68.472C6.40668 68.7212 6.50756 68.9597 6.68479 69.1365C6.86202 69.3107 7.10741 69.4098 7.36099 69.4098ZM7.51367 73.1608C7.76452 73.1608 8.00991 73.0617 8.18714 72.8848C8.36437 72.7107 8.46798 72.4695 8.46798 72.2204C8.46798 71.9712 8.36437 71.7327 8.18714 71.5586C8.00991 71.3844 7.76452 71.2826 7.51367 71.2826C7.26283 71.2826 7.01743 71.3844 6.83748 71.5586C6.66025 71.7327 6.55937 71.9739 6.55937 72.2204C6.55937 72.4669 6.66025 72.708 6.83748 72.8848C7.01471 73.059 7.2601 73.1608 7.51367 73.1608ZM7.64455 76.9118C7.8954 76.9118 8.14079 76.8127 8.32074 76.6358C8.49797 76.4617 8.59886 76.2205 8.59886 75.974C8.59886 75.7276 8.49797 75.4864 8.32074 75.3096C8.14351 75.1354 7.89813 75.0363 7.64455 75.0363C7.39098 75.0363 7.14831 75.1354 6.96836 75.3096C6.79113 75.4837 6.69025 75.7249 6.69025 75.974C6.69025 76.2232 6.79113 76.4617 6.96836 76.6358C7.14558 76.81 7.39098 76.9118 7.64455 76.9118ZM7.75361 80.6574C8.00446 80.6574 8.24985 80.5583 8.4298 80.3815C8.60703 80.2073 8.70792 79.9662 8.70792 79.717C8.70792 79.4678 8.60703 79.2294 8.4298 79.0552C8.25257 78.8811 8.00719 78.7793 7.75361 78.7793C7.50004 78.7793 7.25737 78.8784 7.07742 79.0552C6.90019 79.2294 6.79931 79.4705 6.79931 79.717C6.79931 79.9635 6.90019 80.2046 7.07742 80.3815C7.25465 80.5556 7.50004 80.6574 7.75361 80.6574ZM7.84086 84.4084C8.0917 84.4084 8.3371 84.3093 8.51706 84.1325C8.69428 83.9583 8.79516 83.7172 8.79516 83.4707C8.79516 83.2242 8.69428 82.9831 8.51706 82.8062C8.33983 82.6321 8.09443 82.5303 7.84086 82.5303C7.58729 82.5303 7.34463 82.6294 7.16467 82.8062C6.98744 82.9804 6.88655 83.2215 6.88655 83.4707C6.88655 83.7199 6.98744 83.9583 7.16467 84.1325C7.3419 84.3066 7.58729 84.4084 7.84086 84.4084ZM7.90357 88.1621C8.15442 88.1621 8.39981 88.063 8.57977 87.8888C8.757 87.7147 8.85788 87.4735 8.85788 87.2244C8.85788 86.9752 8.757 86.7367 8.57977 86.5626C8.40254 86.3884 8.15715 86.2866 7.90357 86.2866C7.65 86.2866 7.40733 86.3857 7.22738 86.5626C7.05015 86.7367 6.94927 86.9779 6.94927 87.2244C6.94927 87.4709 7.05015 87.712 7.22738 87.8888C7.4046 88.063 7.65 88.1621 7.90357 88.1621ZM7.93902 91.9185C8.18987 91.9185 8.43526 91.8193 8.61249 91.6425C8.78972 91.4684 8.89332 91.2272 8.89332 90.9807C8.89332 90.7342 8.79244 90.4931 8.61249 90.3163C8.43526 90.1421 8.18987 90.0403 7.93902 90.0403C7.68817 90.0403 7.44278 90.1394 7.26282 90.3163C7.0856 90.4904 6.98199 90.7315 6.98199 90.9807C6.98199 91.2299 7.08287 91.4684 7.26282 91.6425C7.44005 91.8167 7.68545 91.9185 7.93902 91.9185ZM7.9472 95.6721C8.19805 95.6721 8.44344 95.573 8.6234 95.3989C8.80062 95.2247 8.90423 94.9836 8.90423 94.7344C8.90423 94.4852 8.80335 94.2468 8.6234 94.0699C8.44617 93.8958 8.20077 93.7966 7.9472 93.7966C7.69363 93.7966 7.45096 93.8958 7.27373 94.0699C7.0965 94.2441 6.99289 94.4852 6.99289 94.7344C6.99289 94.9836 7.09378 95.222 7.27373 95.3989C7.45096 95.573 7.69635 95.6721 7.9472 95.6721ZM7.92266 99.4258C8.17351 99.4258 8.4189 99.3267 8.59886 99.1499C8.77609 98.9757 8.87697 98.7346 8.87697 98.4881C8.87697 98.2416 8.77609 98.0004 8.59886 97.8236C8.42163 97.6495 8.17623 97.5503 7.92266 97.5503C7.66909 97.5503 7.42642 97.6495 7.24646 97.8236C7.06924 97.9978 6.96836 98.2389 6.96836 98.4881C6.96836 98.7372 7.06924 98.9757 7.24646 99.1499C7.42369 99.324 7.66909 99.4258 7.92266 99.4258ZM7.86541 103.18C8.11625 103.18 8.36164 103.08 8.54159 102.906C8.71882 102.732 8.81971 102.491 8.81971 102.242C8.81971 101.993 8.71882 101.754 8.54159 101.577C8.36437 101.403 8.11898 101.304 7.86541 101.304C7.61183 101.304 7.36916 101.403 7.18921 101.577C7.01198 101.751 6.9111 101.993 6.9111 102.242C6.9111 102.491 7.01198 102.729 7.18921 102.906C7.36644 103.08 7.61183 103.18 7.86541 103.18ZM7.77542 106.933C8.02627 106.933 8.27167 106.834 8.45162 106.657C8.62885 106.483 8.72973 106.242 8.72973 105.993C8.72973 105.744 8.62885 105.505 8.45162 105.331C8.27439 105.157 8.029 105.055 7.77542 105.055C7.52185 105.055 7.27919 105.157 7.09924 105.331C6.92201 105.505 6.82112 105.746 6.82112 105.993C6.82112 106.239 6.92201 106.48 7.09924 106.657C7.27646 106.831 7.52185 106.933 7.77542 106.933ZM7.65545 110.684C7.9063 110.684 8.15169 110.585 8.32892 110.411C8.50615 110.237 8.60976 109.996 8.60976 109.746C8.60976 109.497 8.50887 109.259 8.32892 109.082C8.15169 108.908 7.9063 108.809 7.65545 108.809C7.40461 108.809 7.15922 108.908 6.97926 109.082C6.80204 109.256 6.69843 109.497 6.69843 109.746C6.69843 109.996 6.79931 110.234 6.97926 110.411C7.15649 110.585 7.40188 110.684 7.65545 110.684ZM7.50549 114.435C7.75634 114.435 8.00173 114.336 8.18168 114.162C8.35891 113.988 8.4598 113.747 8.4598 113.497C8.4598 113.248 8.35891 113.01 8.18168 112.836C8.00445 112.661 7.75907 112.56 7.50549 112.56C7.25192 112.56 7.00925 112.659 6.8293 112.836C6.65207 113.01 6.55119 113.251 6.55119 113.497C6.55119 113.744 6.65207 113.985 6.8293 114.162C7.00653 114.336 7.25192 114.435 7.50549 114.435ZM7.32827 118.186C7.57911 118.186 7.82451 118.087 8.00173 117.913C8.17896 117.739 8.28257 117.498 8.28257 117.248C8.28257 116.999 8.18169 116.761 8.00173 116.584C7.82451 116.41 7.57911 116.311 7.32827 116.311C7.07742 116.311 6.83203 116.41 6.65207 116.584C6.47484 116.758 6.37396 116.999 6.37396 117.248C6.37396 117.498 6.47484 117.736 6.65207 117.913C6.8293 118.087 7.0747 118.186 7.32827 118.186ZM7.12377 121.934C7.37462 121.934 7.62001 121.835 7.79996 121.659C7.97719 121.484 8.07808 121.243 8.07808 120.994C8.07808 120.745 7.97719 120.506 7.79996 120.332C7.62273 120.158 7.37735 120.056 7.12377 120.056C6.8702 120.056 6.62753 120.155 6.44758 120.332C6.27035 120.506 6.16947 120.748 6.16947 120.994C6.16947 121.241 6.27035 121.482 6.44758 121.659C6.62481 121.833 6.8702 121.934 7.12377 121.934ZM6.89201 125.68C7.14286 125.68 7.38825 125.581 7.5682 125.407C7.74543 125.233 7.84632 124.992 7.84632 124.742C7.84632 124.493 7.74543 124.255 7.5682 124.078C7.39097 123.904 7.14558 123.805 6.89201 123.805C6.63844 123.805 6.39577 123.904 6.21582 124.078C6.03859 124.252 5.93771 124.493 5.93771 124.742C5.93771 124.992 6.03859 125.23 6.21582 125.407C6.39304 125.581 6.63844 125.68 6.89201 125.68ZM6.63571 129.426C6.88656 129.426 7.13195 129.327 7.31191 129.15C7.48914 128.976 7.59002 128.735 7.59002 128.488C7.59002 128.242 7.48914 128 7.31191 127.824C7.13468 127.649 6.88928 127.548 6.63571 127.548C6.38214 127.548 6.13947 127.647 5.95952 127.824C5.78229 127.998 5.68141 128.239 5.68141 128.488C5.68141 128.737 5.78229 128.976 5.95952 129.15C6.13674 129.324 6.38214 129.426 6.63571 129.426ZM6.35487 133.169C6.60572 133.169 6.85112 133.07 7.03107 132.895C7.2083 132.721 7.30918 132.48 7.30918 132.231C7.30918 131.982 7.2083 131.743 7.03107 131.569C6.85384 131.395 6.60845 131.293 6.35487 131.293C6.1013 131.293 5.85863 131.392 5.68141 131.569C5.50418 131.743 5.40057 131.984 5.40057 132.231C5.40057 132.477 5.50145 132.719 5.68141 132.895C5.85863 133.07 6.10403 133.169 6.35487 133.169ZM6.0495 136.912C6.30034 136.912 6.54574 136.813 6.72296 136.636C6.90019 136.462 7.0038 136.22 7.0038 135.974C7.0038 135.727 6.90292 135.486 6.72296 135.309C6.54574 135.135 6.30034 135.036 6.0495 135.036C5.79865 135.036 5.55326 135.135 5.3733 135.309C5.19335 135.484 5.09519 135.725 5.09519 135.974C5.09519 136.223 5.19607 136.462 5.3733 136.636C5.55053 136.81 5.79593 136.912 6.0495 136.912ZM5.7223 140.652C5.97315 140.652 6.21855 140.553 6.3985 140.379C6.57573 140.205 6.67934 139.963 6.67934 139.714C6.67934 139.465 6.57846 139.227 6.3985 139.05C6.22127 138.876 5.97588 138.776 5.7223 138.776C5.46873 138.776 5.22607 138.876 5.04884 139.05C4.87161 139.224 4.768 139.465 4.768 139.714C4.768 139.963 4.86888 140.202 5.04884 140.379C5.22607 140.553 5.47146 140.652 5.7223 140.652ZM5.37057 144.39C5.62142 144.39 5.86681 144.29 6.04677 144.114C6.224 143.939 6.32488 143.698 6.32488 143.452C6.32488 143.205 6.224 142.964 6.04677 142.787C5.86954 142.613 5.62414 142.514 5.37057 142.514C5.117 142.514 4.87434 142.613 4.69438 142.787C4.51716 142.962 4.41627 143.203 4.41627 143.452C4.41627 143.701 4.51716 143.939 4.69438 144.114C4.87161 144.288 5.117 144.39 5.37057 144.39ZM4.99703 148.124C5.24788 148.124 5.49327 148.025 5.6705 147.851C5.84773 147.677 5.95134 147.436 5.95134 147.187C5.95134 146.938 5.84773 146.699 5.6705 146.525C5.49327 146.351 5.24788 146.249 4.99703 146.249C4.74619 146.249 4.5008 146.348 4.32084 146.525C4.14361 146.699 4.04 146.94 4.04 147.187C4.04 147.433 4.14089 147.674 4.32084 147.851C4.49807 148.025 4.74346 148.124 4.99703 148.124ZM4.59895 151.859C4.8498 151.859 5.09519 151.76 5.27515 151.586C5.45238 151.412 5.55326 151.171 5.55326 150.922C5.55326 150.672 5.45238 150.434 5.27515 150.257C5.09792 150.083 4.85252 149.984 4.59895 149.984C4.34538 149.984 4.10271 150.083 3.92276 150.257C3.74553 150.431 3.64465 150.672 3.64465 150.922C3.64465 151.171 3.74553 151.409 3.92276 151.586C4.09998 151.76 4.34538 151.859 4.59895 151.859ZM4.17906 155.592C4.4299 155.592 4.67529 155.493 4.85252 155.318C5.02975 155.144 5.13336 154.903 5.13336 154.654C5.13336 154.405 5.03248 154.166 4.85252 153.989C4.67529 153.815 4.4299 153.716 4.17906 153.716C3.92821 153.716 3.68282 153.815 3.50287 153.989C3.32564 154.164 3.22203 154.405 3.22203 154.654C3.22203 154.903 3.32291 155.142 3.50287 155.318C3.6801 155.493 3.92548 155.592 4.17906 155.592ZM3.73462 159.321C3.98547 159.321 4.23086 159.222 4.40809 159.048C4.58532 158.874 4.68893 158.633 4.68893 158.383C4.68893 158.134 4.58804 157.896 4.40809 157.722C4.23086 157.548 3.98547 157.446 3.73462 157.446C3.48377 157.446 3.23839 157.545 3.05843 157.722C2.8812 157.896 2.77759 158.137 2.77759 158.383C2.77759 158.63 2.87848 158.871 3.05843 159.048C3.23566 159.222 3.48105 159.321 3.73462 159.321ZM3.26565 163.048C3.51649 163.048 3.76189 162.949 3.93911 162.775C4.11634 162.601 4.21995 162.36 4.21995 162.11C4.21995 161.861 4.11907 161.623 3.93911 161.449C3.76189 161.274 3.51649 161.173 3.26565 161.173C3.0148 161.173 2.76941 161.272 2.58946 161.449C2.41223 161.623 2.30862 161.864 2.30862 162.11C2.30862 162.357 2.4095 162.598 2.58946 162.775C2.76669 162.949 3.01207 163.048 3.26565 163.048ZM2.77214 166.772C3.02298 166.772 3.26838 166.673 3.44833 166.496C3.62556 166.322 3.72644 166.081 3.72644 165.835C3.72644 165.588 3.62556 165.347 3.44833 165.17C3.2711 164.996 3.02571 164.894 2.77214 164.894C2.51856 164.894 2.2759 164.996 2.09595 165.17C1.91599 165.344 1.81783 165.585 1.81783 165.835C1.81783 166.084 1.91872 166.322 2.09595 166.496C2.27318 166.671 2.51856 166.772 2.77214 166.772ZM2.24864 170.494C2.49948 170.494 2.74487 170.395 2.92482 170.221C3.10205 170.046 3.20294 169.805 3.20294 169.556C3.20294 169.307 3.10205 169.068 2.92482 168.894C2.7476 168.72 2.50221 168.618 2.24864 168.618C1.99506 168.618 1.7524 168.717 1.57517 168.894C1.39794 169.068 1.29433 169.31 1.29433 169.556C1.29433 169.803 1.39521 170.044 1.57517 170.221C1.7524 170.395 1.99779 170.494 2.24864 170.494Z" fill="#6C6964"/>
</svg>
