<svg width="46" height="71" viewBox="0 0 46 71" fill="none" xmlns="http://www.w3.org/2000/svg">
<g clip-path="url(#clip0_1557_11110)">
<path d="M22.488 40.028C20.4373 40.0774 18.7962 41.664 18.633 43.5319C18.4714 45.4014 18.3224 48.7078 22.6119 49.2616C26.8889 48.9907 26.8638 44.6021 26.5532 43.0156C26.2425 41.429 24.5386 39.9786 22.488 40.028Z" fill="#1A2752"/>
<path d="M22.5319 41.1985C21.1057 41.2344 19.9635 42.3974 19.8521 43.7669C19.7407 45.1365 19.6356 47.5612 22.6182 47.9669C25.5929 47.7693 25.5757 44.5512 25.3592 43.3883C25.1427 42.2253 23.9581 41.1626 22.5319 41.1985Z" fill="#2EC1DD"/>
<path d="M31.759 43.6367C31.7841 43.6367 31.806 43.6158 31.806 43.5903V42.6369C31.806 42.6114 31.7856 42.5905 31.759 42.5905H29.1545C29.1294 42.5905 29.1074 42.6114 29.1074 42.6369V43.5903C29.1074 43.6158 29.1278 43.6367 29.1545 43.6367H31.759Z" fill="#2EC1DD"/>
<path d="M19.1304 46.2126C19.2794 45.6843 19.5289 45.6588 19.5524 45.34C19.576 45.0212 19.6513 43.4586 19.7015 43.0904C19.7517 42.7222 19.7643 42.5366 19.7643 42.5366C19.7643 42.5366 19.2543 42.598 19.0676 43.0036C18.8809 43.4092 18.9688 45.5122 19.0174 45.819C19.0676 46.1258 19.1288 46.2126 19.1288 46.2126H19.1304Z" fill="white"/>
<path d="M19.2434 42.5246C19.5666 42.3031 19.8161 42.3031 19.9886 42.1923C20.1612 42.0816 20.5488 41.405 21.6172 40.9994C22.6857 40.5938 24.1291 41.1715 24.1291 41.1715C24.1291 41.1715 24.6516 40.8512 24.6014 40.7779C24.5512 40.7046 23.147 39.8439 21.4054 40.4576C19.6654 41.0728 19.2418 42.5231 19.2418 42.5231L19.2434 42.5246Z" fill="white"/>
<path d="M19.0065 45.4388C18.9876 45.8504 19.0818 46.7844 19.485 47.3876C19.8898 47.9908 20.2303 48.1435 20.1126 48.0028C19.9949 47.8621 19.361 46.9386 19.3422 46.3983C19.3234 45.8579 19.4473 45.7038 19.4724 45.5616C19.4975 45.4194 19.3046 45.1679 19.2355 45.1679C19.1665 45.1679 19.0049 45.4388 19.0049 45.4388H19.0065Z" fill="white"/>
<path d="M24.5088 40.8467C24.3598 40.9874 24.4272 41.1296 24.5716 41.3137C24.7144 41.4978 25.0752 41.8421 25.138 41.9783C25.2007 42.1145 25.207 42.1998 25.138 42.1325C25.0689 42.0651 24.7034 41.6894 24.4476 41.4499C24.1935 41.2105 24.0319 41.1611 23.6208 40.9949C23.2097 40.8288 23.7887 40.7554 24.0805 40.7854C24.3723 40.8153 24.5088 40.8467 24.5088 40.8467Z" fill="white"/>
<path d="M39.8736 61.303H37.8575C37.8057 60.3825 37.8041 59.7239 37.8041 59.6506V59.5982L37.3633 59.2734L37.3303 59.257C37.3303 59.257 37.3256 59.257 37.3225 59.254H37.346C37.346 59.2031 37.3366 58.8034 37.3193 58.2392H40.0132C40.3019 58.2392 40.5545 58.3424 40.7648 58.546C41.1868 58.9561 41.3249 59.6446 41.3139 60.1101C41.2982 60.878 40.4526 61.303 39.8736 61.303ZM20.8092 58.2227C20.7809 59.013 20.7464 59.6341 20.737 59.7973C20.806 59.8272 20.8468 59.8452 20.8499 59.8467L20.9174 59.8751V59.9455C20.9174 59.9619 20.9111 60.4334 20.9127 61.1204H24.2311C24.2326 60.4334 24.2279 59.9619 24.2279 59.9455V59.8751L24.2938 59.8467C24.2954 59.8467 24.3299 59.8317 24.3864 59.8063C24.3785 59.6551 24.3425 59.025 24.3142 58.2227H20.8076H20.8092ZM7.80402 58.2392H5.0552C4.76651 58.2392 4.51391 58.3424 4.30367 58.546C3.88162 58.9561 3.74355 59.6446 3.75453 60.1101C3.77022 60.878 4.61589 61.303 5.19484 61.303H7.28627C7.33804 60.3825 7.33961 59.7239 7.33961 59.6506V59.5982L7.81344 59.257C7.81344 59.257 7.81814 59.257 7.81971 59.254H7.77735C7.77735 59.2031 7.78677 58.8034 7.80402 58.2392ZM0.262024 69.7568C0.773506 69.7882 2.76138 69.7627 4.06519 69.7358L6.96934 64.34C7.13251 63.3581 7.22508 62.3463 7.27528 61.5141H5.26074C3.38896 64.542 0.663678 68.9949 0.262024 69.7568ZM21.0257 65.1348L22.2071 61.3315H20.9143C20.919 62.4331 20.9425 63.9748 21.0257 65.1348ZM24.1134 65.2201C24.2012 64.0511 24.2263 62.46 24.2311 61.3315H22.877L24.1134 65.2201ZM39.8108 61.5141H37.87C37.9234 62.3777 38.0191 63.4329 38.1948 64.4477L41.0064 69.7343C42.3102 69.7613 44.2981 69.7867 44.808 69.7553C44.4079 68.9949 41.681 64.5405 39.8093 61.5126L39.8108 61.5141Z" fill="#A37640"/>
<path d="M22.6872 58.2212C22.637 58.2586 22.5852 58.296 22.535 58.3334C22.5978 58.293 22.6621 58.2571 22.7264 58.2212H22.6872Z" fill="#CC9D54"/>
<path d="M24.2279 59.9844C23.8734 59.8841 23.5094 59.8122 23.1391 59.8137C22.5382 59.8167 21.9514 60.0218 21.432 60.3107C21.2516 60.411 21.0806 60.5232 20.9127 60.64C20.9127 60.7088 20.9127 60.7822 20.9127 60.8585C20.9912 60.8046 21.0696 60.7507 21.1496 60.7013C21.7129 60.3466 22.3844 60.1326 23.0606 60.152C23.467 60.164 23.8734 60.2658 24.2311 60.4499C24.2311 60.2194 24.2295 60.0577 24.2279 59.9859V59.9844Z" fill="#CC9D54"/>
<path d="M39.2946 60.4065C39.6022 60.6445 39.9567 60.8241 40.3192 60.9797C40.4212 61.0231 40.5247 61.065 40.6298 61.101C40.8259 60.9962 41.0032 60.8525 41.1288 60.6714C40.8401 60.6759 40.5514 60.6325 40.2847 60.5247C40.0556 60.4319 39.8485 60.2987 39.6429 60.1655C39.1252 59.8302 38.6074 59.4964 38.0897 59.1612C37.8465 59.004 37.5986 58.8468 37.3334 58.7271C37.335 58.8154 37.3381 58.8962 37.3397 58.9636C37.4495 59.016 37.5547 59.0818 37.6582 59.1447C37.9751 59.3408 38.2936 59.5383 38.5792 59.7763C38.8239 59.9799 39.042 60.2119 39.2946 60.4065Z" fill="#CC9D54"/>
<path d="M42.6946 68.5818C42.2286 68.0864 41.6638 67.6882 41.1335 67.2557C40.5687 66.7947 40.0384 66.2843 39.6508 65.6796C39.2633 65.0749 39.0248 64.3654 39.0844 63.6589C39.1268 63.1411 39.3276 62.6486 39.5975 62.2011C39.6571 62.1023 39.8674 61.8808 39.9364 61.7176C39.894 61.6488 39.8517 61.5799 39.8093 61.5126H39.3982C39.3982 61.5126 39.3841 61.5186 39.3794 61.5231C39.3308 61.562 39.2962 61.6144 39.2633 61.6667C38.9621 62.1322 38.653 62.6172 38.5745 63.159C38.5228 63.5227 38.5792 63.8939 38.6545 64.2532C38.7424 64.6663 38.8585 65.0764 39.0609 65.4506C39.268 65.8352 39.563 66.1735 39.8877 66.4759C40.5561 67.097 41.3563 67.5745 42.0623 68.1567C42.6036 68.6042 43.101 69.1431 43.3755 69.7657C43.3975 69.7657 43.4195 69.7657 43.4399 69.7657C43.2908 69.3287 43.0178 68.9246 42.693 68.5788L42.6946 68.5818Z" fill="#CC9D54"/>
<path d="M41.27 59.5998C41.2371 59.4216 41.1868 59.239 41.1115 59.0654C40.5389 58.9352 39.9976 58.775 39.472 58.4922C39.3261 58.4143 39.1864 58.3275 39.0484 58.2377H38.8256C39.4171 58.7541 40.1137 59.1567 40.8527 59.4591C40.9421 59.4965 41.1053 59.5593 41.2731 59.5998H41.27Z" fill="#CC9D54"/>
<path d="M43.774 67.9921C43.6375 67.9053 43.501 67.817 43.363 67.7331C42.6428 67.3006 41.863 66.8785 41.4363 66.1765C41.237 65.8472 41.1288 65.4775 41.0221 65.1108C40.8479 64.5106 40.6816 63.8445 40.8981 63.2758C40.8009 63.1186 40.7051 62.9629 40.611 62.8088C40.5577 62.8672 40.5106 62.9315 40.4729 63.0004C40.338 63.2533 40.3129 63.5467 40.3208 63.8311C40.338 64.4597 40.5059 65.0764 40.7224 65.6691C40.8228 65.946 40.9374 66.2214 41.1021 66.4684C41.5587 67.1494 42.3526 67.5371 43.057 67.9876C43.5261 68.2869 43.967 68.6252 44.3749 68.9964C44.2086 68.7135 44.0047 68.3723 43.774 67.9891V67.9921Z" fill="#CC9D54"/>
<path d="M4.02754 66.4699C4.19385 66.2229 4.30681 65.9475 4.40722 65.6706C4.62374 65.0764 4.79162 64.4597 4.80888 63.8326C4.81672 63.5482 4.79162 63.2548 4.65669 63.0019C4.61276 62.918 4.55157 62.8402 4.48253 62.7729C4.39154 62.921 4.30054 63.0692 4.20797 63.2189C4.459 63.8011 4.28798 64.4911 4.10755 65.1123C4.00086 65.479 3.89261 65.8487 3.69335 66.178C3.26659 66.88 2.48682 67.3021 1.76666 67.7346C1.59565 67.8379 1.42777 67.9457 1.25989 68.0535C1.00885 68.471 0.790768 68.8363 0.619751 69.1281C1.06534 68.706 1.55015 68.3244 2.07104 67.9906C2.7755 67.5416 3.5694 67.1524 4.02597 66.4714L4.02754 66.4699Z" fill="#CC9D54"/>
<path d="M22.5366 58.3335C22.3781 58.4352 22.2275 58.5475 22.0816 58.6672C22.1083 58.6478 22.1381 58.6313 22.1648 58.6118C22.2903 58.522 22.4127 58.4277 22.5366 58.3335Z" fill="#CC9D54"/>
<path d="M3.79846 59.6132C3.98674 59.5758 4.17972 59.501 4.28013 59.4606C5.01755 59.1582 5.71416 58.7556 6.30723 58.2392H6.08444C5.94637 58.329 5.80673 58.4158 5.66082 58.4936C5.11482 58.7885 4.55156 58.9487 3.95379 59.0819C3.88005 59.2555 3.83141 59.4366 3.80003 59.6147L3.79846 59.6132Z" fill="#CC9D54"/>
<path d="M5.1729 61.6563C5.20114 61.8194 5.46472 62.0903 5.53219 62.2026C5.80362 62.6486 6.00288 63.1426 6.04524 63.6604C6.10329 64.3669 5.86638 65.0764 5.47884 65.6811C5.09131 66.2858 4.55943 66.7947 3.99618 67.2572C3.46744 67.6897 2.90104 68.0894 2.43506 68.5833C2.11028 68.9291 1.83728 69.3317 1.68823 69.7702C1.7102 69.7702 1.73059 69.7702 1.75256 69.7702C2.02713 69.1476 2.52292 68.6102 3.06578 68.1627C3.77181 67.579 4.57198 67.103 5.24036 66.4818C5.56514 66.1795 5.8601 65.8412 6.0672 65.4566C6.2696 65.0824 6.3857 64.6708 6.47357 64.2591C6.55045 63.8984 6.60693 63.5287 6.55358 63.165C6.4767 62.6217 6.16762 62.1382 5.86481 61.6727C5.83186 61.6203 5.79734 61.568 5.74871 61.529C5.744 61.5246 5.73615 61.5216 5.72988 61.5186H5.25919C5.23095 61.565 5.20114 61.6129 5.17133 61.6593L5.1729 61.6563Z" fill="#CC9D54"/>
<path d="M22.08 58.6672C21.6595 58.9591 21.2077 59.2076 20.7558 59.453C20.748 59.6177 20.7401 59.7374 20.737 59.7958C20.7386 59.7958 20.7401 59.7958 20.7417 59.7988C20.8233 59.7404 20.9033 59.6835 20.9818 59.6207C21.3599 59.3213 21.7066 58.9726 22.08 58.6672Z" fill="#CC9D54"/>
<path d="M7.03992 59.1612C6.52216 59.4964 6.00441 59.8302 5.48665 60.1655C5.28112 60.2987 5.07401 60.4319 4.84494 60.5247C4.55939 60.64 4.25031 60.6834 3.94122 60.6714C4.07145 60.86 4.25815 61.0097 4.46369 61.1144C4.58136 61.0755 4.69746 61.0291 4.81043 60.9812C5.17286 60.8271 5.52587 60.6474 5.83496 60.408C6.08756 60.2134 6.30565 59.9814 6.55041 59.7778C6.83596 59.5413 7.15446 59.3438 7.47139 59.1462C7.57337 59.0833 7.67692 59.0205 7.78361 58.9666C7.78518 58.8977 7.78675 58.8184 7.78989 58.7286C7.52787 58.8468 7.27997 59.004 7.03835 59.1597L7.03992 59.1612Z" fill="#CC9D54"/>
<path d="M34.9753 38.5327L35.0083 38.5791C34.194 38.5642 32.818 38.5387 31.1251 38.5148C32.2453 37.6676 37.2629 33.4542 37.1154 26.0407C37.1154 26.0317 37.1154 26.0213 37.1154 26.0123C37.5986 26.0467 39.7104 26.3251 40.3553 27.1708C39.6414 35.3506 35.0208 38.4998 34.9738 38.5327H34.9753ZM37.834 0.657081C37.4778 0.227509 36.913 0.19458 36.5662 0.223019C41.7909 14.9257 40.6581 23.0996 40.6063 23.4408C40.6032 23.4633 40.5922 23.4813 40.5781 23.4962C40.6691 24.4512 40.6895 25.433 40.633 26.4374C40.5483 27.9521 40.3302 29.3037 40.0289 30.5086C40.3631 30.5265 40.702 30.4038 41.0174 30.1479C41.6858 29.603 42.8374 27.9641 43.0461 23.1026C43.2908 17.3849 38.4129 1.35158 37.834 0.655584V0.657081ZM36.2681 13.9573C36.2838 13.9738 36.3011 13.9888 36.3168 14.0052C38.5541 16.2564 39.974 19.2245 40.4683 22.5877C40.6377 20.1584 40.691 12.4711 36.3419 0.251457C36.3058 0.257444 36.2807 0.263431 36.2681 0.266425L34.5297 1.04325C34.6866 2.02063 36.243 11.7272 36.2744 13.9169C36.2744 13.9304 36.2713 13.9439 36.2666 13.9573H36.2681ZM37.1122 25.8012C37.5923 25.8267 39.5394 26.0677 40.3788 26.8729C40.3898 26.7247 40.4024 26.5796 40.4118 26.4284C40.6848 21.5474 39.1739 17.1889 36.1567 14.1534C33.0408 11.0177 28.3606 9.35329 22.6197 9.33533C16.8789 9.35329 12.2003 11.0177 9.08274 14.1534C6.06562 17.1889 4.55471 21.5474 4.82771 26.4284C4.83399 26.5541 4.84654 26.6754 4.85439 26.7996C5.22309 26.5152 6.188 25.9509 8.16176 25.8027C8.1649 25.8027 8.16803 25.8027 8.17117 25.8027C8.25746 19.7693 10.9812 16.8221 11.9806 16.4285C12.7117 16.1411 17.028 15.1308 22.5868 15.1173C22.5868 15.1173 22.5884 15.1173 22.5899 15.1173C22.6072 15.1173 22.6244 15.1173 22.6417 15.1173C22.659 15.1173 22.6762 15.1173 22.6935 15.1173C22.6935 15.1173 22.6951 15.1173 22.6966 15.1173C28.257 15.1308 32.5732 16.1411 33.3028 16.4285C34.3022 16.8221 37.0244 19.7678 37.1122 25.8012ZM4.77123 22.5892C5.26545 19.2245 6.68536 16.2579 8.9227 14.0067C8.93839 13.9903 8.95565 13.9753 8.97291 13.9588C8.9682 13.9469 8.96507 13.9334 8.96507 13.9199C8.99645 11.7302 10.5529 2.02363 10.7098 1.04624L8.97134 0.269418C8.95879 0.266425 8.93369 0.260438 8.8976 0.254451C4.54844 12.474 4.60178 20.1614 4.77123 22.5907V22.5892ZM4.64728 27.0076C4.63159 26.819 4.6159 26.632 4.60649 26.4389C4.55001 25.4345 4.5704 24.4512 4.6614 23.4977C4.64728 23.4828 4.6363 23.4648 4.63316 23.4423C4.58139 23.1011 3.4486 14.9257 8.67324 0.224515C8.3265 0.196077 7.76324 0.229006 7.40552 0.658577C6.82657 1.35457 1.95024 17.3894 2.19343 23.1056C2.40053 27.9671 3.55372 29.606 4.22209 30.1508C4.53589 30.4068 4.87635 30.5295 5.21054 30.5116C4.95166 29.4758 4.75554 28.3308 4.65199 27.069C4.64414 27.0495 4.64258 27.0301 4.64728 27.0091V27.0076ZM8.16803 26.0392C8.16803 26.0303 8.16803 26.0228 8.16803 26.0138C5.94952 26.1829 5.05364 26.8999 4.87478 27.066C5.55885 35.3312 10.2171 38.5013 10.2642 38.5327L10.2312 38.5791C11.0534 38.5627 12.445 38.5387 14.1583 38.5148C13.0365 37.6661 8.02055 33.4527 8.16803 26.0392Z" fill="#BEE4EF"/>
<path d="M33.3043 16.427C33.171 16.3746 32.9168 16.2983 32.5607 16.2085C32.5607 16.2025 32.5607 16.1995 32.5607 16.1995C33.4722 16.2983 34.5501 16.445 35.1306 16.9045C35.7111 17.364 37.517 20.347 37.8983 23.0517C38.1164 24.6038 38.1399 25.469 38.1179 25.9345C37.6692 25.8476 37.2895 25.8087 37.1122 25.7997C37.0259 19.7663 34.3022 16.8192 33.3028 16.427H33.3043ZM30.3343 10.5582C30.1915 11.2886 29.8009 13.1596 29.4949 13.4619C29.1136 13.8391 26.1467 13.3137 26.0793 13.2494C26.0244 13.194 25.4376 10.389 25.2446 9.46255C25.0108 9.4401 24.7755 9.42064 24.5386 9.40418C24.8257 10.3486 25.549 13.4784 25.731 13.643C25.9302 13.8226 27.7534 14.0531 28.3668 14.119C28.9803 14.1848 29.5765 14.0037 29.7601 13.9873C29.9044 13.9738 30.8254 11.784 31.1957 10.889C30.9132 10.7722 30.6261 10.663 30.3327 10.5597L30.3343 10.5582ZM36.2697 13.9558C36.2854 13.9723 36.3026 13.9873 36.3183 14.0037C38.1022 15.7984 39.3637 18.0495 40.054 20.5925C40.0446 19.7319 39.9505 16.647 39.1346 12.01C38.165 6.50195 36.1002 0.69899 36.1002 0.69899C36.1002 0.69899 34.9878 0.893569 34.5407 1.10012C34.7399 2.34394 36.2462 11.7646 36.276 13.9169C36.276 13.9304 36.2728 13.9439 36.2681 13.9573L36.2697 13.9558ZM41.7454 15.035C41.3468 13.4619 40.3192 11.5924 40.3192 11.5924C40.3192 11.5924 41.0817 15.4945 41.1805 18.97C41.2762 22.3048 41.1272 24.0231 40.6612 25.1711C40.6643 25.5887 40.6565 26.0108 40.633 26.4374C40.5482 27.9521 40.3302 29.3037 40.0289 30.5086C40.3631 30.5265 40.702 30.4038 41.0174 30.1479C41.6434 29.6375 42.6946 28.1661 42.9958 23.9827C42.999 20.4608 42.0733 16.3342 41.7454 15.035ZM40.3584 27.1693C39.7136 26.3236 37.6002 26.0452 37.1185 26.0108C37.1185 26.0198 37.1185 26.0302 37.1185 26.0392C37.266 33.4527 32.2484 37.6661 31.1282 38.5133C31.5032 38.5193 31.8625 38.5238 32.2045 38.5297C37.4762 34.9255 37.9061 26.8879 37.9061 26.8879C37.9061 26.8879 38.8161 26.7173 40.3113 27.6512C40.3286 27.4911 40.3474 27.3339 40.3615 27.1693H40.3584ZM8.97132 13.9573C8.96661 13.9454 8.96347 13.9319 8.96347 13.9184C8.99485 11.7721 10.4901 2.4053 10.6972 1.11509C10.2688 0.904047 9.11252 0.701983 9.11252 0.701983C9.11252 0.701983 7.04934 6.50494 6.07815 12.013C5.22777 16.8461 5.16188 19.9938 5.15717 20.6928C5.84124 18.1094 7.11367 15.8238 8.91954 14.0067C8.93523 13.9903 8.95249 13.9753 8.96975 13.9588L8.97132 13.9573ZM8.16801 26.0392C8.16801 26.0302 8.16801 26.0228 8.16801 26.0138C5.9495 26.1829 5.05362 26.8999 4.87476 27.066C4.89045 27.2606 4.91084 27.4492 4.93124 27.6378C6.41077 26.7218 7.30979 26.8894 7.30979 26.8894C7.30979 26.8894 7.73811 34.9285 13.0114 38.5312C13.3738 38.5252 13.7566 38.5193 14.1583 38.5148C13.0365 37.6661 8.02053 33.4527 8.16801 26.0392ZM7.31449 23.0532C7.09641 24.6053 7.07287 25.4705 7.09484 25.936C7.41334 25.8776 7.76635 25.8312 8.1633 25.8012C8.16644 25.8012 8.16958 25.8012 8.17272 25.8012C8.25901 19.7678 10.9827 16.8207 11.9822 16.427C12.1061 16.3776 12.3367 16.3073 12.6568 16.2249C12.6537 16.2085 12.6521 16.1995 12.6521 16.1995C11.7405 16.2983 10.6627 16.445 10.0821 16.9045C9.50163 17.364 7.69575 20.347 7.31449 23.0517V23.0532ZM19.1335 13.2494C19.0676 13.3152 16.0991 13.8391 15.7179 13.4619C15.4135 13.1611 15.0244 11.3036 14.88 10.5672C14.5882 10.6704 14.3011 10.7812 14.0202 10.8979C14.3936 11.799 15.3084 13.9738 15.4527 13.9873C15.6347 14.0037 16.2325 14.1834 16.8459 14.119C17.4594 14.0546 19.2825 13.8241 19.4818 13.643C19.6638 13.4784 20.3855 10.3531 20.6726 9.40567C20.4357 9.42214 20.2004 9.4416 19.9666 9.46554C19.7736 10.395 19.1884 13.194 19.1335 13.2494ZM4.65197 27.066C4.64412 27.0466 4.64255 27.0271 4.64726 27.0061C4.63157 26.8175 4.61588 26.6305 4.60647 26.4374C4.5845 26.0332 4.57666 25.6321 4.57822 25.2355C4.09185 24.0874 3.93495 22.3677 4.03223 18.97C4.13107 15.4945 4.89359 11.5924 4.89359 11.5924C4.89359 11.5924 3.86592 13.4619 3.4674 15.035C3.15047 16.2893 2.27656 20.1779 2.21851 23.613C2.48209 28.0793 3.57566 29.6225 4.2205 30.1479C4.53429 30.4038 4.87162 30.525 5.20581 30.5086C5.20424 30.4966 5.20267 30.4831 5.19953 30.4697C4.94536 29.4444 4.75238 28.3128 4.6504 27.0645L4.65197 27.066Z" fill="#2EC1DD"/>
<path d="M22.8629 38.7932C25.8157 38.7932 28.7795 38.8231 31.1831 38.856C31.1863 38.8531 31.1894 38.8486 31.1925 38.8471C31.2584 38.8037 37.7681 34.3493 37.597 25.7294C37.5798 18.7844 34.376 16.0588 33.7452 15.8103C32.9874 15.511 28.4829 14.4528 22.6684 14.4453C16.8522 14.4513 12.3493 15.5095 11.5915 15.8103C10.9608 16.0588 7.75853 18.7859 7.7397 25.7279C7.56868 34.3493 14.0783 38.8037 14.1442 38.8471C14.1473 38.8501 14.1505 38.8531 14.1536 38.856C16.5494 38.8231 19.4928 38.7947 22.4283 38.7947H22.8629V38.7932Z" fill="white"/>
<path d="M29.1466 43.8418H29.953V47.9489C29.7004 47.9669 29.4494 47.9968 29.2031 48.0432C26.2456 48.4324 24.0553 49.9695 23.9408 51.1041C23.8827 51.6684 24.1542 52.083 24.3911 52.3314C24.6233 52.5754 24.9026 52.7416 25.0704 52.7954C24.6813 53.2834 24.4444 53.7593 24.3785 54.1485C24.3785 54.1515 24.3785 54.156 24.377 54.159H22.6323V49.3155C24.8978 49.314 26.7414 47.5553 26.7414 45.3924V43.8373C26.7414 41.7104 24.9559 39.9741 22.7405 39.9173V38.66C25.2336 38.66 27.7628 38.6839 29.9232 38.7109V42.3839H29.1466C28.9975 42.3839 28.8752 42.5007 28.8752 42.6429V43.5843C28.8752 43.7265 28.9975 43.8433 29.1466 43.8433V43.8418ZM35.7472 38.8052C35.3346 38.7962 33.1067 38.7513 30.146 38.7124V42.3824H31.7338C31.8829 42.3824 32.0052 42.4992 32.0052 42.6414V43.5828C32.0052 43.725 31.8829 43.8418 31.7338 43.8418H30.1758V47.9369C30.2355 47.9354 30.2935 47.9324 30.3531 47.9309C30.805 47.2799 31.544 47.0808 31.7856 47.0314C31.8028 46.9565 31.8327 46.8248 31.875 46.6497L31.8938 46.5764L31.9723 46.5689C34.2426 46.3593 36.2744 46.6303 37.04 46.732C37.0667 46.735 37.0934 46.7395 37.1201 46.7425C36.949 44.674 36.516 40.4022 35.7457 38.8067L35.7472 38.8052ZM8.04877 46.7365C8.06289 46.735 8.07544 46.7335 8.08956 46.7305C8.85521 46.6288 10.8886 46.3578 13.1573 46.5674L13.2358 46.5749L13.2546 46.6482C13.2985 46.8248 13.3283 46.9565 13.344 47.0299C13.5856 47.0793 14.3246 47.2784 14.7765 47.9294C15.1656 47.9324 15.55 47.9714 15.9265 48.0402C18.884 48.4294 21.0743 49.9665 21.1888 51.1011C21.2469 51.6654 20.9754 52.08 20.7385 52.3284C20.5048 52.5739 20.2239 52.7401 20.0576 52.7939C20.4451 53.2819 20.682 53.7579 20.7479 54.1455C20.7479 54.1485 20.7479 54.153 20.7495 54.156H22.4095V49.308C20.2427 49.1987 18.5169 47.4834 18.5169 45.3909V43.8358C18.5169 41.7089 20.3024 39.9726 22.5177 39.9158V38.6585C16.4804 38.6615 10.2171 38.7887 9.49535 38.8037C8.56496 40.721 8.12408 45.7711 8.04877 46.735V46.7365Z" fill="#1455A2"/>
<path d="M14.2383 47.9309L14.2195 50.0982C14.0626 50.0938 13.9057 50.0908 13.7441 50.0938C12.343 50.1192 11.2871 50.4156 10.4901 50.8347L10.487 50.8182C10.0116 50.8826 8.81601 51.0412 8.46613 51.0697C8.45515 51.0098 8.44103 50.9514 8.42063 50.902C8.37042 50.7763 8.29354 50.6955 8.19313 50.664C7.91699 50.5757 6.51277 50.8676 6.2335 50.9275L6.18486 50.9379L6.15975 50.9783C6.1472 50.9993 6.13779 51.0218 6.12994 51.0457C5.91343 50.9215 5.79419 50.7883 5.75496 50.5188C5.71574 50.2389 6.57553 49.1074 6.70889 48.9682C7.47141 48.8006 9.61147 48.7227 10.8965 48.6763C11.8363 48.6419 11.9728 48.6344 12.0214 48.6135C12.1406 48.5626 12.889 47.8426 13.3236 47.4175L13.355 47.3861V47.2544C13.5935 47.3128 14.1222 47.4879 14.4925 47.9309H14.2321H14.2383ZM12.8577 46.7575C12.569 46.735 12.2866 46.7215 12.0104 46.7126C11.717 46.8278 11.3766 47.1272 11.193 47.2888C11.091 47.3786 11.0596 47.4056 11.0267 47.419C10.9671 47.443 10.6423 47.4595 10.3724 47.4595C10.2124 47.4595 10.0727 47.4535 10.0163 47.4415C9.95351 47.428 9.91114 47.3786 9.90801 47.3188C9.90016 47.19 10.1543 46.9236 10.4163 46.726C10.3034 46.732 10.192 46.7365 10.0837 46.744C9.73699 46.9146 9.49694 47.1421 9.3369 47.2948C9.25845 47.3711 9.2004 47.425 9.14863 47.455C9.07489 47.4969 8.81444 47.5283 8.57753 47.5283C8.38297 47.5283 8.20411 47.5073 8.15547 47.4565L8.09429 47.3921L8.1492 47.3098C8.17744 47.2724 8.35944 47.0688 8.56968 46.8847C8.39239 46.9056 8.23863 46.9266 8.11782 46.9431C7.89973 46.9715 7.82285 46.982 7.77579 46.9805C7.69891 47.0059 7.49808 47.1885 7.30353 47.3741C7.30353 47.3771 7.30353 47.3801 7.30196 47.3831C7.28941 47.4116 7.2643 47.431 7.23606 47.44C7.12937 47.5433 7.03053 47.6421 6.96306 47.7109C6.88618 47.7887 6.82029 47.8546 6.77322 47.898C6.76381 47.907 6.7591 47.919 6.75282 47.9309C8.24334 47.7214 11.3938 47.6031 11.7704 47.5897L12.8577 46.759V46.7575ZM9.03566 47.2724C9.06233 47.2574 9.12039 47.202 9.18001 47.1451C9.28042 47.0493 9.4232 46.9131 9.61147 46.7784C9.39025 46.7964 9.18628 46.8158 8.99958 46.8353C8.8113 46.9401 8.57753 47.1661 8.43789 47.3128C8.63715 47.3218 8.96663 47.3083 9.03566 47.2724ZM10.1747 47.2454C10.396 47.2559 10.8384 47.2394 10.9372 47.223C10.9576 47.2065 11.0031 47.1676 11.0424 47.1317C11.1695 47.0194 11.3671 46.8458 11.5821 46.7036C11.3311 46.7021 11.0879 46.7036 10.8525 46.7111C10.6297 46.7979 10.2955 47.0898 10.1732 47.2454H10.1747ZM6.77008 48.7377C7.62987 48.5805 9.6554 48.5072 10.8933 48.4623C11.2589 48.4488 11.6088 48.4368 11.8017 48.4249L11.6966 47.8007C11.0659 47.8247 8.07703 47.9444 6.70889 48.148C6.70575 48.3111 6.73556 48.5087 6.75439 48.6284C6.76067 48.6703 6.76537 48.7048 6.77008 48.7362V48.7377ZM12.0151 48.356C12.2144 48.1869 12.6992 47.7274 13.1385 47.2993V47.1332C13.1322 47.1047 13.1118 47.0104 13.0773 46.8622L11.9131 47.7513L12.0151 48.356ZM20.0655 49.8588C19.9478 49.9351 19.7187 50.1072 19.6089 50.3542H19.6042C19.7987 50.7718 19.8003 51.134 19.7689 51.36C19.7187 51.7178 19.5603 51.9782 19.4081 52.1084C19.6152 52.297 19.8003 52.4886 19.9635 52.6817V52.6053C20.0984 52.5904 21.0633 52.065 20.9692 51.125C20.9331 50.7658 20.6209 50.3078 20.067 49.8588H20.0655ZM18.5451 49.4457C17.9176 48.9472 17.1535 48.5745 16.336 48.359C16.0991 48.7616 15.9877 49.8573 16.096 50.3452C16.096 50.3512 16.096 50.3587 16.096 50.3647C16.664 50.5099 17.1864 50.7059 17.6602 50.9364C17.7889 50.5114 18.2062 49.7181 18.5467 49.4472L18.5451 49.4457ZM18.8385 49.6941C18.7977 49.6567 18.757 49.6223 18.7146 49.5864C18.4526 49.7555 17.9787 50.5892 17.8611 51.0382C18.3882 51.3136 18.8511 51.6324 19.2433 51.9662C19.3484 51.8884 19.5006 51.6728 19.5493 51.3331C19.5948 51.0098 19.5634 50.3662 18.8401 49.6956L18.8385 49.6941ZM19.4818 50.1267C19.6026 49.9396 19.7674 49.8019 19.885 49.7196C19.5242 49.4531 19.077 49.1957 18.5514 48.9682C18.4981 48.9996 18.4573 49.0505 18.4337 49.0909C18.6299 49.2301 18.8181 49.3798 18.9923 49.543C19.2072 49.742 19.3641 49.9396 19.4802 50.1282L19.4818 50.1267ZM18.3255 48.8724C18.1341 48.7961 17.9348 48.7242 17.7246 48.6569C17.9066 48.7512 18.0823 48.8544 18.2517 48.9652C18.2706 48.9368 18.2941 48.9053 18.3255 48.8724ZM16.1164 48.3021C15.6583 48.1989 15.186 48.1435 14.7137 48.1435H14.458L14.4407 50.1012H14.2368C14.811 50.1192 15.3539 50.1925 15.8622 50.3063C15.7712 49.76 15.8795 48.7661 16.1148 48.3021H16.1164ZM8.21196 50.9709C8.19784 50.9379 8.16803 50.8796 8.1241 50.8646C7.98289 50.8197 7.11682 50.9589 6.34019 51.122C6.31979 51.1969 6.33234 51.3196 6.3747 51.4513C6.43432 51.6384 6.52532 51.7612 6.55984 51.7761C6.70732 51.7881 8.04565 51.622 8.24177 51.5307C8.26844 51.4498 8.29041 51.1595 8.21039 50.9724L8.21196 50.9709ZM8.43004 51.6489C8.3312 51.8135 7.25803 51.9243 6.76694 51.9662C6.7387 52.4167 7.07603 52.8718 7.28627 53.1067C7.62046 53.4824 8.00485 53.7324 8.13665 53.7489C8.27785 53.1861 8.72658 51.9662 10.0555 51.0891C9.55342 51.155 8.7862 51.2553 8.48653 51.2792C8.48966 51.4349 8.46927 51.58 8.42847 51.6474L8.43004 51.6489ZM34.1908 47.2245C34.2897 47.2409 34.7321 47.2559 34.9533 47.2469C34.831 47.0912 34.4968 46.7979 34.274 46.7126C34.0386 46.7066 33.7955 46.7036 33.5444 46.7051C33.7594 46.8488 33.9571 47.0224 34.0841 47.1332C34.1234 47.1691 34.1689 47.208 34.1893 47.2245H34.1908ZM36.094 47.2739C36.163 47.3083 36.4925 47.3218 36.6918 47.3128C36.5537 47.1661 36.3183 46.9401 36.1301 46.8353C35.9434 46.8158 35.7394 46.7964 35.5182 46.7784C35.7049 46.9131 35.8492 47.0493 35.9496 47.1451C36.0093 47.202 36.0673 47.2574 36.094 47.2724V47.2739ZM37.2001 47.8052L37.4245 47.8247C37.779 47.8561 38.1054 47.892 38.3768 47.9294C38.3705 47.9175 38.3643 47.9055 38.3564 47.8965C38.3109 47.8531 38.245 47.7857 38.1666 47.7094C38.0975 47.6406 37.9987 47.5418 37.8936 47.4385C37.8653 47.4295 37.8402 47.4101 37.8277 47.3816C37.8277 47.3786 37.8277 47.3756 37.8261 47.3726C37.641 47.1945 37.4496 47.0224 37.3664 46.985C37.3664 46.985 37.062 46.9476 37.0118 46.9416C36.8926 46.9251 36.7388 46.9057 36.5615 46.8832C36.7733 47.0673 36.9538 47.2709 36.982 47.3083L37.0369 47.3786L36.9757 47.4565C36.9271 47.5073 36.7482 47.5283 36.5537 47.5283C36.3168 47.5283 36.0563 47.4984 35.9826 47.455C35.9308 47.425 35.8743 47.3711 35.7943 47.2948C35.6343 47.1421 35.3958 46.9146 35.0475 46.744C34.9392 46.738 34.8278 46.732 34.7149 46.726C34.9769 46.9236 35.2311 47.1885 35.2232 47.3188C35.2201 47.3801 35.1777 47.428 35.1149 47.4415C35.06 47.4535 34.9188 47.4595 34.7588 47.4595C34.4889 47.4595 34.1642 47.443 34.103 47.419C34.07 47.4056 34.0386 47.3786 33.9367 47.2888C33.7531 47.1272 33.4126 46.8278 33.1208 46.7141C32.8447 46.7215 32.5607 46.7365 32.2736 46.7575L33.3608 47.5882C33.6558 47.5987 35.6374 47.6735 37.2032 47.8052H37.2001ZM33.3279 48.4279C33.5209 48.4383 33.8708 48.4518 34.2363 48.4653C35.4742 48.5102 37.4998 48.5835 38.3596 48.7407C38.3643 48.7093 38.369 48.6748 38.3752 48.6329C38.3941 48.5132 38.4223 48.3156 38.4207 48.1525C37.0526 47.9489 34.0637 47.8277 33.433 47.8052L33.3279 48.4294V48.4279ZM33.1145 48.3575L33.2165 47.7528L32.0523 46.8637C32.0178 47.0119 31.9958 47.1062 31.9911 47.1347V47.3008C32.4305 47.7289 32.9153 48.1884 33.1145 48.3575ZM38.4129 48.9667C37.6473 48.8006 35.5119 48.7227 34.2285 48.6763C33.2887 48.6419 33.1522 48.6344 33.1035 48.6135C32.9843 48.5626 32.2359 47.8426 31.8013 47.4175L31.7699 47.3861V47.2544C31.5314 47.3128 31.0027 47.4879 30.6324 47.9309H30.8929L30.9117 50.0982C31.067 50.0938 31.2224 50.0908 31.3824 50.0938C32.7866 50.1192 33.8425 50.4171 34.6396 50.8362L34.6427 50.8182C35.1181 50.8826 36.3136 51.0412 36.6635 51.0697C36.6745 51.0098 36.6886 50.9514 36.709 50.902C36.7592 50.7763 36.8361 50.6955 36.9365 50.664C37.2126 50.5757 38.6169 50.8676 38.8961 50.9275L38.9448 50.9379L38.9699 50.9783C38.9824 50.9993 38.9919 51.0218 38.9997 51.0457C39.2162 50.9215 39.3355 50.7883 39.3747 50.5188C39.4139 50.2434 38.5776 49.1388 38.4176 48.9667H38.4129ZM36.6996 51.6504C36.6588 51.583 36.6384 51.4379 36.6415 51.2822C36.3419 51.2567 35.5699 51.158 35.0679 51.0906C36.3999 51.9677 36.8471 53.1891 36.9883 53.7519C37.1169 53.7399 37.506 53.4884 37.8434 53.1082C38.052 52.8733 38.3909 52.4182 38.3627 51.9677C37.8716 51.9258 36.7984 51.815 36.6996 51.6504ZM37.0055 50.8661C36.9632 50.8796 36.9318 50.9379 36.9177 50.9724C36.8392 51.1595 36.8596 51.4513 36.8863 51.5307C37.0824 51.622 38.427 51.7896 38.5792 51.7746C38.6027 51.7612 38.6937 51.6384 38.7549 51.4513C38.7973 51.3196 38.8099 51.1984 38.7895 51.122C38.0128 50.9589 37.1468 50.8197 37.0055 50.8646V50.8661ZM30.6716 48.1435H30.4159C29.9436 48.1435 29.4714 48.1989 29.0133 48.3021C29.2486 48.7661 29.3569 49.7585 29.2659 50.3048C29.7742 50.191 30.3155 50.1177 30.8897 50.0982H30.6873L30.6701 48.142L30.6716 48.1435ZM27.4051 48.6569C27.1948 48.7242 26.9956 48.7961 26.8042 48.8724C26.834 48.9038 26.8591 48.9368 26.8779 48.9652C27.0473 48.8544 27.2231 48.7512 27.4051 48.6569ZM25.6494 50.1267C25.7655 49.9366 25.924 49.7405 26.1373 49.5415C26.3131 49.3798 26.4998 49.2301 26.6959 49.0894C26.6724 49.0505 26.6316 48.9981 26.5782 48.9667C26.0526 49.1942 25.6055 49.4531 25.2446 49.7181C25.3623 49.8004 25.527 49.9381 25.6478 50.1252L25.6494 50.1267ZM25.527 50.3512H25.5223C25.4109 50.1042 25.1834 49.9336 25.0657 49.8573C24.5119 50.3063 24.1997 50.7643 24.1636 51.1235C24.0679 52.0635 25.0328 52.5889 25.1724 52.6038V52.6727C25.3325 52.4826 25.516 52.2925 25.7231 52.1054C25.571 51.9737 25.4141 51.7133 25.3638 51.3585C25.3325 51.1325 25.3325 50.7703 25.5286 50.3512H25.527ZM26.4166 49.5849C26.3758 49.6208 26.3335 49.6567 26.2927 49.6926C25.5678 50.3632 25.5364 51.0068 25.5835 51.3301C25.6306 51.6684 25.7828 51.8824 25.8863 51.9617C26.2786 51.6279 26.7414 51.3106 27.2701 51.0352C27.1525 50.5862 26.6786 49.754 26.4166 49.5849ZM26.5861 49.4442C26.9265 49.7166 27.3423 50.5084 27.471 50.9334C27.9448 50.7029 28.4673 50.5069 29.0352 50.3617C29.0352 50.3557 29.0352 50.3497 29.0352 50.3422C29.1435 49.8543 29.0321 48.7586 28.7952 48.356C27.9777 48.5716 27.2137 48.9442 26.5861 49.4427V49.4442Z" fill="#2F68AF"/>
<path d="M27.1666 50.242C27.3016 50.4934 27.413 50.7479 27.4694 50.9335C27.9433 50.703 28.4657 50.5069 29.0337 50.3617C29.0337 50.3557 29.0337 50.3497 29.0337 50.3422C29.0745 50.1551 29.0839 49.8797 29.0666 49.5879C28.4532 49.7016 27.7722 49.8917 27.209 50.2135C27.1949 50.2225 27.1807 50.23 27.1666 50.239V50.242Z" fill="#243C78"/>
<path d="M25.8848 51.9632C26.277 51.6294 26.7398 51.3121 27.2686 51.0367C27.2199 50.8511 27.1101 50.5997 26.9799 50.3572C26.0699 50.9409 25.7985 51.5127 25.6761 51.6699C25.7404 51.8165 25.822 51.9153 25.8848 51.9632Z" fill="#243C78"/>
<path d="M39.37 50.5174C39.3778 50.4665 39.3543 50.3856 39.3104 50.2884C39.2884 50.3123 39.2727 50.3333 39.2727 50.3333C34.6176 49.4681 31.4106 49.6343 31.1141 49.6013C30.9415 49.5819 30.94 49.5175 30.9039 49.4711L30.9086 50.0998C31.0639 50.0953 31.2192 50.0923 31.3793 50.0953C32.7835 50.1207 33.8394 50.4186 34.6364 50.8377L34.6396 50.8197C35.115 50.8841 36.3105 51.0427 36.6604 51.0712C36.6714 51.0113 36.6855 50.9529 36.7059 50.9035C36.7561 50.7778 36.833 50.697 36.9334 50.6655C37.2095 50.5772 38.6137 50.8691 38.893 50.929L38.9417 50.9394L38.9668 50.9799C38.9793 51.0008 38.9887 51.0233 38.9966 51.0472C39.2131 50.923 39.3323 50.7898 39.3716 50.5203L39.37 50.5174Z" fill="#243C78"/>
<path d="M29.2659 50.3063C29.7742 50.1926 30.3155 50.1192 30.8897 50.0998H30.6873L30.6811 49.4187C30.4991 49.4277 29.9483 49.4457 29.2862 49.5519C29.3051 49.8318 29.2988 50.0998 29.2643 50.3063H29.2659Z" fill="#243C78"/>
<path d="M38.2827 52.4078C38.1023 52.2865 36.9554 52.077 35.9795 51.8764C36.6212 52.5934 36.8848 53.3447 36.9868 53.7504C37.1154 53.7384 37.5045 53.4869 37.8419 53.1068C37.9815 52.9496 38.1776 52.6937 38.2843 52.4078H38.2827Z" fill="#243C78"/>
<path d="M25.72 52.1069C25.5679 51.9752 25.411 51.7148 25.3607 51.36C25.3545 51.3121 25.3498 51.2553 25.3466 51.1954C25.1552 51.4169 24.7002 51.9707 24.6328 52.2641C24.865 52.4811 25.1066 52.5994 25.1693 52.6053V52.6742C25.3294 52.4841 25.5129 52.294 25.72 52.1069Z" fill="#243C78"/>
<path d="M16.096 50.3437C16.096 50.3437 16.096 50.3572 16.096 50.3632C16.664 50.5084 17.1864 50.7044 17.6603 50.9349C17.7152 50.7508 17.825 50.4979 17.9599 50.2494C17.9411 50.239 17.9254 50.227 17.9066 50.2165C17.3496 49.8962 16.6749 49.7061 16.0646 49.5923C16.0474 49.8827 16.0568 50.1581 16.0976 50.3437H16.096Z" fill="#243C78"/>
<path d="M19.7815 51.2104C19.7784 51.2642 19.7752 51.3151 19.7689 51.3585C19.7187 51.7163 19.5603 51.9767 19.4081 52.1069C19.6152 52.2955 19.8003 52.4871 19.9635 52.6802V52.6038C20.0247 52.5979 20.2585 52.4826 20.486 52.2746C20.4295 51.9917 19.9839 51.4453 19.7831 51.2104H19.7815Z" fill="#243C78"/>
<path d="M6.18801 50.9379L6.23665 50.9275C6.51592 50.8676 7.92015 50.5757 8.19628 50.664C8.2967 50.6955 8.37358 50.7763 8.42378 50.902C8.44418 50.9514 8.4583 51.0083 8.46928 51.0697C8.81916 51.0412 10.0147 50.8826 10.4901 50.8182L10.4932 50.8347C11.2903 50.4156 12.3462 50.1192 13.7473 50.0938C13.9089 50.0908 14.0658 50.0938 14.2227 50.0983L14.2274 49.4532C14.174 49.5011 14.196 49.5789 14.0014 49.5998C13.7049 49.6328 10.498 49.4666 5.84284 50.3318C5.84284 50.3318 5.83186 50.3168 5.81617 50.2988C5.77694 50.3901 5.75498 50.468 5.76125 50.5174C5.80048 50.7868 5.91972 50.92 6.13624 51.0442C6.14408 51.0203 6.15349 50.9978 6.16605 50.9769L6.19115 50.9364L6.18801 50.9379Z" fill="#243C78"/>
<path d="M15.8418 49.5549C15.1907 49.4501 14.6463 49.4292 14.4486 49.4202L14.4423 50.1012H14.2383C14.8126 50.1192 15.3554 50.1925 15.8638 50.3063C15.8293 50.1012 15.8246 49.8333 15.8418 49.5549Z" fill="#243C78"/>
<path d="M19.2433 51.9632C19.3061 51.9168 19.3845 51.821 19.4473 51.6803C19.3312 51.5426 19.0692 50.9589 18.145 50.3632C18.0164 50.6042 17.9081 50.8526 17.8595 51.0367C18.3867 51.3121 18.8495 51.6309 19.2418 51.9647L19.2433 51.9632Z" fill="#243C78"/>
<path d="M9.14709 51.8734C8.18532 52.071 7.05409 52.2776 6.84229 52.4003C6.94897 52.6892 7.14509 52.9481 7.2863 53.1068C7.62049 53.4825 8.00489 53.7324 8.13668 53.7489C8.23866 53.3418 8.50382 52.5904 9.14552 51.8734H9.14709Z" fill="#243C78"/>
<path d="M42.4028 50.7883C42.2663 52.2715 41.2213 53.4899 39.803 53.8207C38.5227 54.1186 37.3177 53.9958 37.0338 53.9614C37.0338 53.9599 37.0338 53.9584 37.0338 53.9569C37.266 53.9165 37.6833 53.6171 38.0128 53.2459C38.2403 52.9915 38.6027 52.4991 38.5855 51.9842C38.5949 51.9842 38.6012 51.9842 38.6027 51.9842C38.6984 51.9737 38.791 51.8869 38.8757 51.7267C38.9463 51.595 39.0012 51.4304 39.0154 51.2777C39.337 51.1116 39.5347 50.9349 39.5896 50.5458C39.6445 50.1566 38.7832 49.055 38.5729 48.823C38.5745 48.7886 38.5855 48.7197 38.5949 48.6613C38.6545 48.2767 38.6922 47.916 38.5133 47.7453C38.4678 47.7019 38.4035 47.6376 38.3282 47.5612C38.2607 47.4939 38.1979 47.4325 38.1399 47.3741C39.4515 46.949 40.9515 47.8232 41.1146 47.9639C41.1366 47.9818 41.1633 47.9908 41.1899 47.9908C41.2198 47.9908 41.2496 47.9788 41.2715 47.9564C41.3123 47.913 41.3092 47.8456 41.2637 47.8067C41.0754 47.6435 39.4233 46.6632 37.9689 47.208C37.6049 46.8607 37.4511 46.756 37.3491 46.7664C37.1875 44.7698 36.778 40.6551 36.0281 38.886C36.7812 38.8231 39.2601 38.7737 40.6832 40.6477C42.4341 42.9527 42.5377 49.3588 42.4059 50.7868L42.4028 50.7883ZM7.1623 47.2095C7.53101 46.8577 7.68633 46.7545 7.78989 46.7679C7.79459 46.7679 7.80714 46.7679 7.82283 46.7664C7.88716 45.9238 8.29509 41.0189 9.21137 38.8979C8.62614 38.8366 5.94949 38.6749 4.45114 40.6492C2.70017 42.9542 2.59662 49.3603 2.72841 50.7883C2.86491 52.2715 3.90984 53.4914 5.32818 53.8207C6.60218 54.1171 7.7993 53.9973 8.0927 53.9614C8.0927 53.9599 8.0927 53.9569 8.0927 53.9554C7.85892 53.912 7.44628 53.6141 7.1168 53.2444C6.8893 52.99 6.52687 52.4976 6.54413 51.9827C6.53472 51.9827 6.52844 51.9827 6.52687 51.9827C6.43116 51.9722 6.3386 51.8854 6.25387 51.7252C6.18327 51.5935 6.12836 51.4289 6.11423 51.2762C5.7926 51.1101 5.59491 50.9334 5.53999 50.5443C5.48508 50.1551 6.34644 49.0535 6.55668 48.8215C6.55511 48.7871 6.54413 48.7182 6.53472 48.6599C6.4751 48.2752 6.43744 47.9145 6.6163 47.7438C6.6618 47.7004 6.72613 47.6361 6.80144 47.5597C6.86891 47.4924 6.93166 47.431 6.98972 47.3726C5.67806 46.9461 4.17814 47.8217 4.01496 47.9624C3.993 47.9803 3.96633 47.9893 3.93965 47.9893C3.90984 47.9893 3.88003 47.9773 3.85807 47.9549C3.81727 47.9115 3.82041 47.8441 3.86591 47.8052C4.05419 47.6421 5.7063 46.6617 7.1623 47.2065V47.2095Z" fill="#0478B8"/>
<path d="M11.7719 47.5882C11.3954 47.6016 8.24488 47.7199 6.75436 47.9294C6.76064 47.9175 6.76692 47.904 6.77476 47.8965C6.82026 47.8531 6.88616 47.7872 6.96461 47.7094C7.03364 47.6406 7.13249 47.5418 7.23761 47.4385C7.26585 47.4295 7.29095 47.4101 7.3035 47.3816C7.3035 47.3786 7.3035 47.3756 7.30507 47.3726C7.49962 47.187 7.70045 47.0044 7.77733 46.979C7.8244 46.979 7.90128 46.97 8.11936 46.9416C8.2386 46.9251 8.39236 46.9056 8.57122 46.8832C8.35941 47.0673 8.17898 47.2709 8.15074 47.3083L8.09583 47.3906L8.15702 47.455C8.20565 47.5058 8.38452 47.5268 8.57907 47.5268C8.81598 47.5268 9.07643 47.4969 9.15017 47.4535C9.20195 47.4235 9.25843 47.3696 9.33845 47.2933C9.49848 47.1406 9.73696 46.9131 10.0853 46.7425C10.1935 46.7365 10.3049 46.7305 10.4179 46.7245C10.1559 46.9221 9.9017 47.187 9.90955 47.3173C9.91269 47.3786 9.95505 47.4265 10.0178 47.44C10.0727 47.452 10.2139 47.458 10.374 47.458C10.6438 47.458 10.9686 47.4415 11.0282 47.4175C11.0612 47.4041 11.0925 47.3771 11.1945 47.2873C11.3781 47.1257 11.7186 46.8263 12.012 46.7111C12.2881 46.7185 12.5721 46.7335 12.8592 46.7545L11.7719 47.5852V47.5882ZM9.0372 47.2738C9.06388 47.2589 9.12193 47.2035 9.18155 47.1466C9.28196 47.0508 9.42474 46.9146 9.61301 46.7799C9.39179 46.7979 9.18782 46.8173 9.00112 46.8368C8.81284 46.9416 8.57907 47.1676 8.43943 47.3143C8.63869 47.3232 8.96817 47.3098 9.0372 47.2738ZM10.1763 47.2469C10.3975 47.2574 10.8399 47.2409 10.9388 47.2245C10.9592 47.208 11.0047 47.1691 11.0439 47.1332C11.171 47.0209 11.3687 46.8473 11.5836 46.7051C11.3326 46.7036 11.0894 46.7051 10.8541 46.7126C10.6313 46.7994 10.2971 47.0912 10.1747 47.2469H10.1763ZM6.71043 48.151C6.7073 48.3141 6.73711 48.5117 6.75593 48.6314C6.76221 48.6733 6.76692 48.7078 6.77162 48.7392C7.63141 48.582 9.65694 48.5087 10.8949 48.4638C11.2604 48.4503 11.6103 48.4383 11.8033 48.4264L11.6982 47.8022C11.0674 47.8262 8.07857 47.9459 6.71043 48.1495V48.151ZM11.9131 47.7513L12.0151 48.356C12.2144 48.1869 12.6992 47.7274 13.1385 47.2993V47.1332C13.1322 47.1047 13.1118 47.0104 13.0773 46.8622L11.9131 47.7513ZM34.1908 47.2245C34.2896 47.2409 34.7321 47.2559 34.9533 47.2469C34.8309 47.0912 34.4967 46.7979 34.274 46.7126C34.0386 46.7066 33.7954 46.7036 33.5444 46.7051C33.7593 46.8488 33.957 47.0224 34.0841 47.1332C34.1233 47.1691 34.1688 47.208 34.1892 47.2245H34.1908ZM36.094 47.2738C36.163 47.3083 36.4925 47.3217 36.6917 47.3128C36.5537 47.1661 36.3183 46.9401 36.13 46.8353C35.9433 46.8158 35.7394 46.7964 35.5181 46.7784C35.7048 46.9131 35.8492 47.0493 35.9496 47.1451C36.0092 47.202 36.0673 47.2574 36.094 47.2724V47.2738ZM37.2001 47.8052L37.4244 47.8247C37.779 47.8561 38.1054 47.892 38.3768 47.9294C38.3705 47.9175 38.3642 47.9055 38.3564 47.8965C38.3109 47.8531 38.245 47.7857 38.1665 47.7094C38.0975 47.6406 37.9987 47.5418 37.8935 47.4385C37.8653 47.4295 37.8402 47.4101 37.8277 47.3816C37.8277 47.3786 37.8277 47.3756 37.8261 47.3726C37.6409 47.1945 37.4495 47.0224 37.3664 46.985C37.3664 46.985 37.062 46.9476 37.0118 46.9416C36.8925 46.9251 36.7388 46.9056 36.5615 46.8832C36.7733 47.0673 36.9537 47.2709 36.982 47.3083L37.0369 47.3786L36.9757 47.4565C36.9271 47.5073 36.7482 47.5283 36.5537 47.5283C36.3167 47.5283 36.0563 47.4984 35.9826 47.455C35.9308 47.425 35.8743 47.3711 35.7943 47.2948C35.6342 47.1421 35.3958 46.9146 35.0475 46.744C34.9392 46.738 34.8278 46.732 34.7148 46.726C34.9768 46.9236 35.231 47.1885 35.2232 47.3188C35.22 47.3801 35.1777 47.428 35.1149 47.4415C35.06 47.4535 34.9188 47.4594 34.7588 47.4594C34.4889 47.4594 34.1641 47.443 34.1029 47.419C34.07 47.4056 34.0386 47.3786 33.9366 47.2888C33.7531 47.1272 33.4126 46.8278 33.1208 46.7141C32.8446 46.7215 32.5606 46.7365 32.2735 46.7575L33.3608 47.5882C33.6558 47.5986 35.6374 47.6735 37.2032 47.8052H37.2001ZM33.433 47.8037L33.3279 48.4279C33.5209 48.4383 33.8707 48.4518 34.2363 48.4653C35.4742 48.5102 37.4997 48.5835 38.3595 48.7407C38.3642 48.7092 38.3689 48.6748 38.3752 48.6329C38.394 48.5132 38.4223 48.3156 38.4207 48.1524C37.0526 47.9489 34.0637 47.8277 33.433 47.8052V47.8037ZM31.9911 47.1347V47.3008C32.4304 47.7289 32.9152 48.1884 33.1145 48.3575L33.2165 47.7528L32.0523 46.8637C32.0178 47.0119 31.9958 47.1062 31.9911 47.1347Z" fill="#2EC1DD"/>
<path d="M13.8633 48.4683C13.8524 48.4593 13.8351 48.4578 13.821 48.4563C13.5998 48.4338 13.377 48.4114 13.1542 48.4099C13.0334 48.4099 12.8765 48.4129 12.7886 48.5027C12.6913 48.6 12.6396 48.7212 12.5172 48.8035C12.2614 48.9757 11.899 48.9413 11.6448 49.1149C11.7421 49.1747 11.8629 49.1867 11.979 49.1927C12.1657 49.2032 12.3524 49.2032 12.5391 49.2017C12.8608 49.2017 13.1808 49.2017 13.5025 49.2017C13.5998 49.2017 13.7049 49.1987 13.7833 49.1448C13.8916 49.07 13.9104 48.9233 13.9073 48.7961C13.9057 48.7033 13.8979 48.609 13.8837 48.5177C13.8806 48.4997 13.8775 48.4802 13.8618 48.4683H13.8633Z" fill="white"/>
<path d="M15.6614 49.0296C15.5249 48.9697 15.4151 48.8574 15.3602 48.7242C15.3445 48.6868 15.3319 48.6449 15.2958 48.6224C15.2739 48.609 15.2472 48.6045 15.2205 48.6015C15.0919 48.5835 14.7812 48.5147 14.6651 48.591C14.56 48.6614 14.6165 48.9412 14.6165 49.049C14.6165 49.061 14.6165 49.0745 14.6259 49.0849C14.6337 49.0939 14.6463 49.0969 14.6573 49.0999C14.9664 49.1688 15.288 49.1897 15.6033 49.1598C15.6316 49.1568 15.6614 49.1538 15.6849 49.1388C15.7085 49.1239 15.7242 49.0924 15.7116 49.0685C15.7022 49.0505 15.6802 49.04 15.6598 49.0326L15.6614 49.0296Z" fill="white"/>
<path d="M17.1519 49.1089C16.9589 49.0101 16.7549 48.9308 16.5431 48.8739C16.3533 48.823 16.3219 48.9427 16.2842 49.0954C16.2764 49.1298 16.2685 49.1658 16.2795 49.2002C16.2874 49.2271 16.3046 49.2496 16.325 49.2705C16.4647 49.4172 16.689 49.4501 16.8946 49.4741C16.9589 49.4816 17.0232 49.4891 17.0875 49.4965C17.0954 49.4965 17.1048 49.498 17.1126 49.495C17.1205 49.4906 17.1252 49.4816 17.1283 49.4726C17.1597 49.3918 17.1848 49.3079 17.2036 49.2241C17.2099 49.1987 17.2146 49.1717 17.2005 49.1493C17.1895 49.1313 17.1691 49.1194 17.1503 49.1104L17.1519 49.1089Z" fill="white"/>
<path d="M18.8871 50.2704C18.862 50.203 18.8354 50.1357 18.7899 50.0788C18.5734 49.8079 18.4384 50.227 18.418 50.3946C18.6236 50.447 18.7632 50.6595 18.975 50.682C18.9891 50.5413 18.9374 50.4036 18.8871 50.2704Z" fill="white"/>
<path d="M7.62987 46.9101C7.57339 46.9341 7.51847 46.9655 7.47141 47.0044C7.4212 47.0463 7.37884 47.0972 7.33804 47.1481C7.2643 47.2394 7.19056 47.3307 7.11839 47.4205C7.05249 47.5029 6.96306 47.5897 6.91442 47.6825C6.85794 47.7902 7.04622 47.7528 7.11054 47.7498C7.14192 47.7498 7.1733 47.7453 7.20154 47.7319C7.23135 47.7154 7.25175 47.687 7.27215 47.66C7.43532 47.44 7.64556 47.2574 7.84796 47.0703C7.90287 47.0194 7.96249 46.9595 7.96406 46.8862C7.85894 46.8413 7.73499 46.8637 7.62987 46.9086V46.9101Z" fill="white"/>
<path d="M9.16433 46.7215C9.10157 46.6781 9.01371 46.6871 8.94467 46.7171C8.87564 46.7485 8.81759 46.7994 8.7564 46.8428C8.68579 46.8922 8.60578 46.9356 8.55557 47.0044C8.49595 47.0868 8.37357 47.2948 8.52576 47.3472C8.61362 47.3786 8.67795 47.2843 8.73443 47.2319C8.80346 47.1676 8.8725 47.1032 8.9384 47.0374C9.01214 46.964 9.08588 46.8907 9.15648 46.8143C9.17531 46.7949 9.1957 46.7679 9.18315 46.7425C9.17845 46.7335 9.1706 46.7275 9.16276 46.7215H9.16433Z" fill="white"/>
<path d="M10.8196 46.6093C10.7521 46.6287 10.6956 46.6707 10.6376 46.7081C10.5732 46.7485 10.5058 46.7844 10.4493 46.8338C10.4006 46.8742 10.3614 46.9221 10.3206 46.97C10.2861 47.0104 10.2516 47.0523 10.2218 47.0957C10.1982 47.1287 10.1418 47.193 10.1449 47.2349C10.1496 47.3187 10.363 47.2768 10.4148 47.2514C10.4493 47.2334 10.4791 47.208 10.5073 47.184C10.5921 47.1107 10.6768 47.0374 10.7615 46.9625C10.8117 46.9191 10.8635 46.8742 10.909 46.8263C10.9498 46.7829 10.9859 46.7365 11.0188 46.6871C11.022 46.6811 11.0251 46.6766 11.0267 46.6707C11.0267 46.6632 11.0219 46.6557 11.0157 46.6497C10.9702 46.6003 10.8886 46.5928 10.8211 46.6123L10.8196 46.6093Z" fill="white"/>
<path d="M31.2553 48.4683C31.2663 48.4593 31.2835 48.4578 31.2977 48.4563C31.5189 48.4338 31.7417 48.4114 31.9645 48.4099C32.0853 48.4099 32.2422 48.4129 32.33 48.5027C32.4273 48.6 32.4791 48.7212 32.6015 48.8035C32.8572 48.9757 33.2196 48.9413 33.4738 49.1149C33.3765 49.1747 33.2557 49.1867 33.1396 49.1927C32.9529 49.2032 32.7662 49.2032 32.5795 49.2017C32.2579 49.2017 31.9378 49.2017 31.6162 49.2017C31.5189 49.2017 31.4138 49.1987 31.3353 49.1448C31.2271 49.07 31.2082 48.9233 31.2114 48.7961C31.2129 48.7033 31.2208 48.609 31.2349 48.5177C31.238 48.4997 31.2412 48.4802 31.2569 48.4683H31.2553Z" fill="white"/>
<path d="M29.4572 49.0296C29.5937 48.9697 29.7036 48.8574 29.7585 48.7242C29.7742 48.6868 29.7867 48.6449 29.8228 48.6224C29.8448 48.609 29.8714 48.6045 29.8981 48.6015C30.0268 48.5835 30.3374 48.5147 30.4535 48.591C30.5586 48.6614 30.5022 48.9412 30.5022 49.049C30.5022 49.061 30.5022 49.0745 30.4928 49.0849C30.4849 49.0939 30.4724 49.0969 30.4614 49.0999C30.1523 49.1688 29.8306 49.1897 29.5153 49.1598C29.487 49.1568 29.4572 49.1538 29.4337 49.1388C29.4102 49.1239 29.3945 49.0924 29.407 49.0685C29.4164 49.0505 29.4384 49.04 29.4588 49.0326L29.4572 49.0296Z" fill="white"/>
<path d="M27.9683 49.1089C28.1613 49.0101 28.3653 48.9308 28.5771 48.8739C28.7669 48.823 28.7983 48.9427 28.836 49.0954C28.8438 49.1298 28.8517 49.1658 28.8407 49.2002C28.8328 49.2271 28.8156 49.2496 28.7952 49.2705C28.6555 49.4172 28.4312 49.4501 28.2256 49.4741C28.1613 49.4816 28.097 49.4891 28.0327 49.4965C28.0248 49.4965 28.0154 49.498 28.0076 49.495C27.9997 49.4906 27.995 49.4816 27.9919 49.4726C27.9605 49.3918 27.9354 49.3079 27.9166 49.2241C27.9103 49.1987 27.9056 49.1717 27.9197 49.1493C27.9307 49.1313 27.9511 49.1194 27.9699 49.1104L27.9683 49.1089Z" fill="white"/>
<path d="M26.233 50.2704C26.2581 50.203 26.2848 50.1357 26.3303 50.0788C26.5468 49.8079 26.6818 50.227 26.7022 50.3946C26.4966 50.447 26.357 50.6595 26.1452 50.682C26.1311 50.5413 26.1828 50.4036 26.233 50.2704Z" fill="white"/>
<path d="M37.4903 46.9101C37.5468 46.9341 37.6017 46.9655 37.6488 47.0044C37.699 47.0463 37.7413 47.0972 37.7821 47.1481C37.8559 47.2394 37.9296 47.3307 38.0018 47.4205C38.0677 47.5029 38.1571 47.5897 38.2058 47.6825C38.2622 47.7902 38.074 47.7528 38.0096 47.7498C37.9783 47.7498 37.9469 47.7453 37.9186 47.7319C37.8888 47.7154 37.8684 47.687 37.848 47.66C37.6849 47.44 37.4746 47.2574 37.2722 47.0703C37.2173 47.0194 37.1577 46.9595 37.1561 46.8862C37.2612 46.8413 37.3852 46.8637 37.4903 46.9086V46.9101Z" fill="white"/>
<path d="M35.9543 46.7215C36.0171 46.6781 36.105 46.6871 36.174 46.7171C36.243 46.7485 36.3011 46.7994 36.3623 46.8428C36.4329 46.8922 36.5129 46.9356 36.5631 47.0044C36.6227 47.0868 36.7451 47.2948 36.5929 47.3472C36.505 47.3786 36.4407 47.2843 36.3842 47.2319C36.3152 47.1676 36.2462 47.1032 36.1803 47.0374C36.1065 46.964 36.0328 46.8907 35.9622 46.8143C35.9434 46.7949 35.923 46.7679 35.9355 46.7425C35.9402 46.7335 35.9481 46.7275 35.9559 46.7215H35.9543Z" fill="white"/>
<path d="M34.2991 46.6093C34.3665 46.6287 34.423 46.6707 34.4811 46.7081C34.5454 46.7485 34.6129 46.7844 34.6694 46.8338C34.718 46.8742 34.7572 46.9221 34.798 46.97C34.8325 47.0104 34.867 47.0523 34.8969 47.0957C34.9204 47.1287 34.9769 47.193 34.9737 47.2349C34.969 47.3187 34.7557 47.2768 34.7039 47.2514C34.6694 47.2334 34.6396 47.208 34.6113 47.184C34.5266 47.1107 34.4419 47.0374 34.3571 46.9625C34.3069 46.9191 34.2552 46.8742 34.2097 46.8263C34.1689 46.7829 34.1328 46.7365 34.0998 46.6871C34.0967 46.6811 34.0935 46.6766 34.092 46.6707C34.092 46.6632 34.0967 46.6557 34.103 46.6497C34.1485 46.6003 34.2301 46.5928 34.2975 46.6123L34.2991 46.6093Z" fill="white"/>
<path d="M36.811 53.9854C37.0244 55.1409 37.1091 58.6283 37.1217 59.1806C36.4455 58.9232 34.2615 57.9877 32.5764 56.0629L32.5434 56.0254H29.5938L29.5609 56.0599C29.5452 56.0748 28.0295 57.6255 26.8261 58.4577C25.9742 59.0459 25.0673 59.495 24.6061 59.709C24.5684 59.0175 24.388 55.4267 24.5982 54.1844C24.8336 52.7924 27.3721 50.239 31.3761 50.3078C35.9183 50.3901 36.7012 53.3867 36.8126 53.9869L36.811 53.9854ZM13.7489 50.3063C9.20671 50.3886 8.42379 53.3852 8.3124 53.9854C8.09745 55.1454 8.01273 58.6613 8.00174 59.1896C8.65286 58.9441 10.8651 58.0087 12.5674 56.0629L12.6004 56.0254H15.55L15.583 56.0599C15.5987 56.0748 17.1143 57.6255 18.3177 58.4577C19.1571 59.0384 20.0514 59.4815 20.5189 59.7C20.5566 58.989 20.7354 55.4223 20.5268 54.1844C20.2914 52.7924 17.7575 50.2345 13.7489 50.3078V50.3063ZM7.12626 54.2323C6.92387 54.2323 6.69794 54.2248 6.45789 54.2069C6.45945 54.4973 6.48142 56.021 6.68068 56.8457C6.85483 57.5581 7.54361 57.8769 7.8119 57.9757C7.85112 56.7933 7.92643 55.0915 8.05509 54.1814C7.87937 54.2024 7.54831 54.2323 7.12469 54.2323H7.12626ZM20.7778 54.373C20.8782 55.2426 20.8578 56.7843 20.817 58.0102H24.308C24.2672 56.7843 24.2452 55.2426 24.3472 54.373H20.7778ZM38.0034 54.2323C37.5751 54.2323 37.2425 54.2024 37.0683 54.1814C37.1954 55.078 37.2707 56.7454 37.31 57.9248C37.6002 57.8096 38.2294 57.4878 38.3941 56.8113C38.5871 56.018 38.6138 54.5766 38.6169 54.2114C38.3972 54.2263 38.1901 54.2323 38.0019 54.2323H38.0034Z" fill="#2EC1DD"/>
<path d="M27.3188 51.2448C25.7059 52.0994 24.7378 53.3492 24.5966 54.1829C24.388 55.4252 24.5668 59.016 24.6045 59.7075C24.832 59.6027 25.1662 59.4396 25.549 59.233C25.5411 58.1988 25.618 56.5463 25.618 54.6155C25.618 53.0304 26.5343 51.9123 27.3188 51.2448Z" fill="#0478B8"/>
<path d="M37.0683 54.1799C37.0981 54.3865 37.1232 54.6349 37.1483 54.9074C37.561 54.9223 38.0677 54.8969 38.6043 54.7981C38.6137 54.5347 38.6169 54.3221 38.6184 54.2099C38.3988 54.2248 38.1917 54.2308 38.0034 54.2308C37.5751 54.2308 37.2425 54.2009 37.0683 54.1799Z" fill="#0478B8"/>
<path d="M7.97821 54.8984C8.00174 54.6305 8.02842 54.385 8.05666 54.1814C7.88093 54.2024 7.54988 54.2323 7.12626 54.2323C6.92387 54.2323 6.69794 54.2248 6.45789 54.2069C6.45789 54.3012 6.46102 54.5302 6.47201 54.822C7.03997 54.9148 7.56714 54.9268 7.97821 54.8999V54.8984Z" fill="#0478B8"/>
<path d="M24.3079 58.0102C24.2671 56.7843 24.2452 55.2426 24.3472 54.373H20.7778C20.8782 55.2426 20.8578 56.7843 20.817 58.0102H24.3079Z" fill="#0478B8"/>
<path d="M19.5524 54.9897C19.5524 55.988 19.4473 57.838 19.4285 59.1402C19.8694 59.3857 20.2616 59.5773 20.5205 59.6985C20.5581 58.9875 20.737 55.4208 20.5283 54.1829C20.3526 53.1382 18.8809 51.4364 16.4631 50.6835C18.826 51.7911 19.554 53.4555 19.554 54.9897H19.5524Z" fill="#0478B8"/>
<path d="M21.0445 66.7153C21.4006 67.2108 22.1396 68.8557 22.0314 69.8975H5.54628L5.2168 68.8752C5.28112 68.721 5.59335 68.0235 6.3135 67.2781C6.31507 67.2766 6.31821 67.2751 6.31978 67.2736C6.31978 67.2736 6.32292 67.2691 6.32762 67.2646C6.33233 67.2602 6.33704 67.2557 6.34174 67.2512L6.36057 67.2257C6.60219 66.9294 7.92483 65.3563 9.63029 64.4028C11.4001 63.406 13.3236 63.5197 13.344 63.5212C13.4083 63.5242 13.4586 63.4808 13.4633 63.4225C13.468 63.3641 13.4209 63.3132 13.3597 63.3087C13.2781 63.3042 11.3483 63.1875 9.51889 64.2187C8.27784 64.9132 7.23605 65.9265 6.65083 66.5612C6.88617 65.9206 7.0619 65.1677 7.19212 64.3968L7.1984 64.3864H7.19526C7.53729 62.3463 7.56553 60.1909 7.5671 59.7045L7.90757 59.453C8.15076 59.3707 10.7505 58.4532 12.7102 56.238H15.4605C15.6912 56.4715 17.0734 57.8545 18.1937 58.6298C19.259 59.3662 20.4122 59.8871 20.6993 60.0128C20.693 60.6055 20.6664 64.4717 20.908 66.1166C19.6073 64.4343 17.4986 63.4718 14.8832 63.391C14.8832 63.391 14.8816 63.391 14.88 63.391C14.8204 63.391 14.7702 63.4359 14.7686 63.4943C14.7671 63.5527 14.8141 63.6021 14.8769 63.6036C17.6336 63.6889 19.8097 64.7755 21.0288 66.6659C21.0319 66.6749 21.0351 66.6869 21.0382 66.6959L21.0508 66.7183L21.0445 66.7153ZM38.8036 67.2497L38.7847 67.2242C38.7847 67.2242 38.7816 67.2182 38.78 67.2168C38.5243 66.9039 37.2079 65.3488 35.5166 64.4013C33.7468 63.4045 31.8217 63.5182 31.8029 63.5197C31.737 63.5227 31.6883 63.4793 31.6836 63.421C31.6789 63.3626 31.726 63.3117 31.7872 63.3072C31.8688 63.3027 33.7986 63.186 35.6296 64.2172C36.8675 64.9102 37.9077 65.9206 38.4929 66.5552C37.6347 64.2202 37.5829 60.3735 37.5798 59.7015L37.2393 59.45C36.9946 59.3677 34.3964 58.4502 32.4367 56.235H29.6863C29.4557 56.4685 28.0734 57.8515 26.9532 58.6268C25.8879 59.3632 24.7347 59.8841 24.4476 60.0098C24.4538 60.604 24.4805 64.4762 24.2373 66.1181C25.5364 64.4328 27.6467 63.4689 30.2653 63.388H30.2684C30.328 63.388 30.3782 63.4329 30.3798 63.4913C30.3814 63.5497 30.3343 63.5991 30.2731 63.6006C27.5117 63.6859 25.3325 64.777 24.1149 66.6719C24.1118 66.6779 24.1102 66.6869 24.1071 66.6929L24.0945 66.7153C23.7384 67.2108 22.9994 68.8557 23.1077 69.8975H39.5943L39.9238 68.8752C39.8595 68.7195 39.5394 68.0055 38.8004 67.2497H38.8036Z" fill="#243C78"/>
<path d="M6.96776 66.3411C6.96776 66.3411 7.12937 66.0463 7.22821 65.5045C7.32705 64.9641 7.58907 63.3656 7.61417 63.0707C7.63928 62.7759 7.96248 62.7878 8.03623 62.4555C8.11154 62.1233 8.18528 60.5382 8.17273 60.3032C8.17273 60.0817 8.49436 59.8751 8.55869 60.143C8.60733 60.3481 8.49593 61.9017 8.44729 62.3568C8.39709 62.8118 8.02524 63.0947 7.98759 63.18C7.94993 63.2653 7.50278 65.8487 7.36628 66.0448C7.22978 66.2409 6.96776 66.3397 6.96776 66.3397V66.3411ZM12.2144 63.8131C11.4691 63.8625 10.2249 64.2562 8.6999 65.3054C7.17487 66.3546 6.5614 67.567 6.5614 67.567C6.5614 67.567 8.50064 65.9774 9.84367 65.5673C11.1867 65.1572 12.4795 64.6663 12.7117 64.3055C12.9439 63.9448 12.9596 63.7652 12.2144 63.8131ZM14.9663 63.9927C14.1207 63.8939 13.6406 64.1723 14.287 64.3205C14.9334 64.4687 16.0772 64.5166 15.8449 64.337C15.6127 64.1574 14.9663 63.9927 14.9663 63.9927ZM20.2584 63.2174C20.2082 62.9585 20.0843 61.0037 20.0466 60.7343C20.009 60.4633 19.6732 60.6355 19.6732 60.6355C19.6732 60.6355 19.7485 62.7624 19.885 63.0333C20.0215 63.3042 20.3071 63.4763 20.2584 63.2174ZM14.8377 56.7619C15.1734 56.7738 15.2111 56.3802 15.2111 56.3802L12.787 56.4041C12.787 56.4041 12.6631 56.687 13.0726 56.7723C13.4821 56.8576 14.5019 56.7484 14.8377 56.7604V56.7619Z" fill="white"/>
<path d="M37.779 66.0463C37.6425 65.8502 37.1954 63.2683 37.1577 63.1815C37.1201 63.0946 36.7482 62.8133 36.698 62.3582C36.6478 61.9032 36.538 60.3496 36.5866 60.1445C36.6509 59.8751 36.9726 60.0832 36.9726 60.3047C36.96 60.5382 37.0353 62.1247 37.1091 62.457C37.1844 62.7893 37.5076 62.7773 37.5311 63.0722C37.5562 63.3671 37.8167 64.9656 37.9171 65.5059C38.0159 66.0463 38.1775 66.3426 38.1775 66.3426C38.1775 66.3426 37.9171 66.2438 37.779 66.0478V66.0463ZM32.4336 64.304C32.6658 64.6648 33.9586 65.1572 35.3016 65.5658C36.6447 65.9759 38.5839 67.5655 38.5839 67.5655C38.5839 67.5655 37.9704 66.3531 36.4454 65.3039C34.9204 64.2546 33.6778 63.861 32.9309 63.8116C32.1841 63.7622 32.2014 63.9433 32.4336 64.304ZM29.3004 64.337C29.0682 64.5166 30.2119 64.4687 30.8583 64.3205C31.5047 64.1723 31.0246 63.8939 30.179 63.9927C30.179 63.9927 29.5326 64.1573 29.3004 64.337ZM25.2603 63.0333C25.3968 62.7624 25.4721 60.6355 25.4721 60.6355C25.4721 60.6355 25.1363 60.4633 25.0987 60.7342C25.061 61.0052 24.9371 62.9599 24.8869 63.2174C24.8367 63.4763 25.1238 63.3027 25.2603 63.0333ZM32.0727 56.7753C32.4822 56.69 32.3583 56.4071 32.3583 56.4071L29.9342 56.3831C29.9342 56.3831 29.9719 56.7768 30.3076 56.7648C30.6434 56.7528 31.6632 56.8636 32.0727 56.7768V56.7753Z" fill="white"/>
<g filter="url(#filter0_d_1557_11110)">
<path d="M22.6747 41.0563C21.192 41.0563 19.9855 42.2492 19.9855 43.716V44.7054C19.9855 45.2607 20.1596 45.7771 20.4546 46.2037C20.85 46.4207 21.3458 46.5824 21.9733 46.6632C24.9638 46.4746 25.1066 43.5589 24.9183 42.2552C24.4366 41.5353 23.6113 41.0578 22.6747 41.0578V41.0563Z" fill="#70CDE0"/>
</g>
<path d="M21.7129 42.6054C21.1402 42.9168 20.9033 43.6652 20.7166 43.5289C20.5299 43.3912 20.9284 42.0202 22.1114 41.7448C22.1114 41.7448 22.6339 41.5951 22.7468 41.8571C22.8582 42.119 22.2856 42.2941 21.7145 42.6054H21.7129ZM20.6805 44.2773C20.3071 44.2773 20.2945 45.2876 20.7056 45.2383C21.1167 45.1889 21.0539 44.2773 20.6805 44.2773Z" fill="white"/>
<path d="M19.7658 45.3161C19.7658 46.8219 21.0492 48.0462 22.6276 48.0462C24.206 48.0462 25.4894 46.8219 25.4894 45.3161V43.7325C25.4894 42.2268 24.206 41.0024 22.6276 41.0024C21.0492 41.0024 19.7658 42.2268 19.7658 43.7325V45.3161ZM22.6276 47.8337C21.1716 47.8337 19.9886 46.7036 19.9886 45.3161V45.2577C20.2161 46.4522 21.3112 47.3607 22.6276 47.3607C23.9439 47.3607 25.0391 46.4522 25.2666 45.2577V45.3161C25.2666 46.7051 24.0836 47.8337 22.6276 47.8337ZM22.6276 41.3976C23.9847 41.3976 25.0893 42.4513 25.0893 43.746V44.7997C25.0893 46.0944 23.9847 47.1482 22.6276 47.1482C21.2704 47.1482 20.1659 46.0944 20.1659 44.7997V43.746C20.1659 42.4513 21.2704 41.3976 22.6276 41.3976ZM17.5551 41.6984C17.6587 40.5025 18.4557 40.1358 18.4887 40.1193C18.5436 40.0939 18.611 40.1178 18.6361 40.1702C18.6628 40.2226 18.6377 40.2855 18.5828 40.3109C18.5498 40.3259 17.8689 40.6492 17.7764 41.7149C17.7716 41.7703 17.723 41.8122 17.665 41.8122C17.6618 41.8122 17.6587 41.8122 17.6555 41.8122C17.5944 41.8077 17.5488 41.7568 17.5536 41.6984H17.5551ZM26.6143 40.3124C26.5594 40.287 26.5359 40.2241 26.561 40.1717C26.5876 40.1193 26.6535 40.0969 26.7084 40.1208C26.743 40.1358 27.5384 40.5025 27.642 41.6984C27.6467 41.7568 27.6012 41.8077 27.54 41.8122C27.5369 41.8122 27.5337 41.8122 27.5306 41.8122C27.4725 41.8122 27.4255 41.7703 27.4192 41.7149C27.3266 40.6477 26.6426 40.3244 26.6127 40.3109L26.6143 40.3124ZM42.5408 65.5404C41.4661 63.7817 40.3757 62.0125 40.0603 61.5021C40.7099 61.4213 41.5194 60.9364 41.5367 60.1146C41.5477 59.6087 41.3924 58.8559 40.9232 58.3978C40.6706 58.1524 40.3647 58.0266 40.0132 58.0266H37.608C37.9752 57.8396 38.46 57.4758 38.6106 56.8592C38.8146 56.018 38.8381 54.5302 38.8397 54.1919C39.1597 54.1605 39.5033 54.1096 39.8532 54.0288C41.3641 53.677 42.4765 52.3823 42.6224 50.8092C42.7558 49.3649 42.646 42.8794 40.8589 40.5265C39.3229 38.5043 36.6227 38.6196 35.9308 38.6854C35.9261 38.6765 35.9214 38.666 35.9167 38.657L35.8869 38.5986H35.8194C35.8084 38.5971 35.6139 38.5926 35.2687 38.5867C35.9638 38.0493 38.6812 35.6829 39.9772 30.7211C40.0164 30.7241 40.0556 30.7271 40.0948 30.7271C40.4604 30.7271 40.8275 30.5849 41.1617 30.3125C42.3635 29.3336 43.1119 26.7772 43.2673 23.1146C43.4085 19.7933 41.885 13.417 40.9625 9.91311C39.7198 5.18782 38.3297 0.914552 38.0065 0.52689C37.3711 -0.236461 36.2477 0.0539115 36.1991 0.0673824L34.2834 0.922036L34.2959 0.999867C34.3132 1.10314 35.9371 11.1449 36.0453 13.7433C32.9058 10.7498 28.3072 9.15724 22.7076 9.12282C22.6778 9.12132 22.648 9.12282 22.6166 9.12282C22.5868 9.12282 22.557 9.12282 22.5256 9.12282C16.926 9.15874 12.3273 10.7513 9.18785 13.7448C9.29611 11.1449 10.92 1.10464 10.9372 1.00136L10.9498 0.923532L9.05606 0.070376L9.0388 0.0643889C8.99173 0.050918 7.86679 -0.239455 7.23136 0.523896C6.90815 0.911558 5.51805 5.18482 4.27543 9.91011C3.35445 13.414 1.82942 19.7903 1.97063 23.1116C2.12752 26.7742 2.87435 29.3307 4.07618 30.3095C4.41193 30.5834 4.7775 30.7241 5.14307 30.7241C5.18229 30.7241 5.22152 30.7211 5.26074 30.7182C6.5567 35.6799 9.27415 38.0463 9.9692 38.5837C9.62402 38.5911 9.42947 38.5941 9.41692 38.5956H9.34946L9.31965 38.6555C9.31337 38.6675 9.30709 38.6824 9.30082 38.6959C8.85209 38.642 5.90088 38.3726 4.26602 40.525C2.47897 42.8779 2.36914 49.3634 2.50251 50.8077C2.64685 52.3823 3.76081 53.6755 5.27172 54.0288C5.60277 54.1066 5.92755 54.156 6.2335 54.1874C6.2335 54.4254 6.24919 56.0135 6.46257 56.8936C6.60377 57.4758 7.04465 57.8321 7.4008 58.0281H5.05364C4.70219 58.0281 4.39624 58.1524 4.14364 58.3993C3.67452 58.8559 3.51919 59.6102 3.53018 60.1161C3.54744 60.9379 4.35702 61.4228 5.00657 61.5036C4.69121 62.014 3.59921 63.7847 2.52604 65.5419C-0.0721593 69.7972 -0.0486251 69.8256 0.0188403 69.9065C0.0470816 69.9394 0.0847366 69.9843 1.32735 69.9843C1.9314 69.9843 2.82258 69.9738 4.13423 69.9454H4.20012L6.83441 65.051C6.67124 65.8308 6.45472 66.5552 6.1676 67.1105C6.16289 67.1165 6.15819 67.1225 6.15348 67.127C5.3031 68.0041 5.005 68.8019 4.99245 68.8363L4.9799 68.8692L5.37841 70.11H22.2244L22.2385 70.0202C22.3969 69.0189 21.7474 67.4144 21.3097 66.7229C21.3081 66.7094 21.3034 66.6974 21.2955 66.6854C21.272 66.6465 21.2453 66.6106 21.2218 66.5732C21.1606 66.3936 21.112 66.0942 21.0727 65.72L22.4346 61.333H22.6417L24.0475 65.7574L24.0616 65.7529C24.0224 66.1182 23.9737 66.4085 23.9126 66.5822C23.8906 66.6166 23.8655 66.6495 23.8435 66.6854C23.8372 66.6944 23.8357 66.7034 23.8341 66.7139C23.3964 67.4009 22.7405 69.0144 22.899 70.0217L22.9131 70.1115H39.7591L40.1592 68.8707L40.1466 68.8378C40.1341 68.8049 39.8391 68.0161 39.0013 67.1464C38.9997 67.1434 38.9871 67.1285 38.9667 67.1045C38.6985 66.5837 38.4929 65.9131 38.3329 65.1902L40.8621 69.9454H40.9279C42.2412 69.9738 43.1308 69.9843 43.7348 69.9843C44.9774 69.9843 45.0167 69.9394 45.0433 69.9065C45.1108 69.8256 45.1343 69.7972 42.533 65.5404H42.5408ZM40.7632 58.546C41.1853 58.9561 41.3233 59.6446 41.3123 60.1101C41.2967 60.878 40.451 61.3031 39.872 61.3031H37.8559C37.8041 60.3826 37.8026 59.724 37.8026 59.6506V59.5982L37.3617 59.2735L37.3288 59.257C37.3288 59.257 37.324 59.257 37.3209 59.254H37.3444C37.3444 59.2031 37.335 58.8035 37.3178 58.2392H40.0117C40.3004 58.2392 40.553 58.3425 40.7632 58.546ZM24.2264 59.944C24.2264 59.9605 24.2311 60.4319 24.2295 61.119H20.9111C20.9096 60.4319 20.9143 59.9605 20.9143 59.944V59.8737L20.8484 59.8452C20.8468 59.8452 20.8044 59.8273 20.7354 59.7958C20.7448 59.6327 20.7793 59.01 20.8076 58.2212H24.3142C24.3425 59.0235 24.3785 59.6536 24.3864 59.8048C24.3299 59.8302 24.2954 59.8437 24.2938 59.8452L24.2264 59.8737V59.944ZM6.2335 50.9275L6.18486 50.938L6.15976 50.9784C6.1472 50.9993 6.13779 51.0218 6.12995 51.0457C5.91343 50.9215 5.79419 50.7883 5.75496 50.5189C5.71574 50.239 6.57553 49.1074 6.70889 48.9682C7.47141 48.8006 9.61147 48.7227 10.8965 48.6763C11.8363 48.6419 11.9728 48.6344 12.0214 48.6135C12.1406 48.5626 12.889 47.8426 13.3236 47.4176L13.355 47.3861V47.2544C13.5935 47.3128 14.1222 47.4879 14.4925 47.931H14.2321L14.2132 50.0983C14.0563 50.0938 13.8994 50.0908 13.7378 50.0938C12.3368 50.1192 11.2808 50.4156 10.4838 50.8347L10.4807 50.8182C10.0053 50.8826 8.80973 51.0412 8.45985 51.0697C8.44887 51.0098 8.43475 50.9514 8.41435 50.902C8.36415 50.7763 8.28727 50.6955 8.18686 50.6641C7.91072 50.5757 6.5065 50.8676 6.22722 50.9275H6.2335ZM7.2345 47.4385C7.26274 47.4295 7.28784 47.4101 7.30039 47.3816C7.30039 47.3787 7.30039 47.3757 7.30196 47.3727C7.49651 47.1871 7.69734 47.0045 7.77422 46.979C7.82129 46.979 7.89817 46.97 8.11625 46.9416C8.23549 46.9251 8.38925 46.9057 8.56811 46.8832C8.3563 47.0673 8.17587 47.2709 8.14763 47.3083L8.09272 47.3906L8.15391 47.455C8.20255 47.5059 8.38141 47.5268 8.57596 47.5268C8.81287 47.5268 9.07332 47.4969 9.14706 47.4535C9.19884 47.4236 9.25532 47.3697 9.33533 47.2933C9.49537 47.1407 9.73385 46.9132 10.0822 46.7425C10.1904 46.7365 10.3018 46.7306 10.4148 46.7246C10.1528 46.9221 9.89859 47.1871 9.90644 47.3173C9.90957 47.3787 9.95194 47.4266 10.0147 47.44C10.0696 47.452 10.2108 47.458 10.3708 47.458C10.6407 47.458 10.9655 47.4415 11.0251 47.4176C11.0581 47.4041 11.0894 47.3772 11.1914 47.2873C11.375 47.1257 11.7155 46.8263 12.0088 46.7111C12.285 46.7186 12.569 46.7335 12.8561 46.7545L11.7688 47.5852C11.3922 47.5987 8.24177 47.7169 6.75125 47.9265C6.75753 47.9145 6.76381 47.901 6.77165 47.8935C6.81715 47.8501 6.88305 47.7843 6.9615 47.7064C7.03053 47.6376 7.12937 47.5388 7.2345 47.4355V47.4385ZM8.99644 46.8353C9.18315 46.8159 9.38711 46.7964 9.60833 46.7785C9.42163 46.9132 9.27728 47.0494 9.17687 47.1452C9.11725 47.202 9.0592 47.2574 9.03253 47.2724C8.96349 47.3068 8.63401 47.3218 8.43475 47.3128C8.57282 47.1661 8.80816 46.9416 8.99644 46.8353ZM11.5805 46.7051C11.3656 46.8488 11.1679 47.0224 11.0408 47.1332C11.0016 47.1691 10.9561 47.208 10.9357 47.2245C10.8368 47.241 10.3944 47.2559 10.1732 47.2469C10.2955 47.0913 10.6297 46.7979 10.8525 46.7126C11.0879 46.7066 11.3311 46.7036 11.5821 46.7051H11.5805ZM6.76851 48.7392C6.76381 48.7078 6.7591 48.6734 6.75282 48.6314C6.734 48.5117 6.70576 48.3141 6.70732 48.151C8.07546 47.9474 11.0643 47.8262 11.6951 47.8037L11.8002 48.4279C11.6072 48.4384 11.2573 48.4518 10.8917 48.4653C9.65383 48.5102 7.6283 48.5836 6.76851 48.7407V48.7392ZM12.0136 48.3575L11.9116 47.7528L13.0757 46.8638C13.1103 47.0119 13.1322 47.1062 13.1369 47.1347V47.3008C12.6976 47.7289 12.2128 48.1884 12.0136 48.3575ZM19.9603 52.6817C19.7987 52.4901 19.6136 52.2985 19.4049 52.1084C19.5571 51.9782 19.7156 51.7163 19.7658 51.3601C19.7972 51.134 19.7972 50.7718 19.6011 50.3527H19.6058C19.7156 50.1073 19.9431 49.9366 20.0623 49.8588C20.6162 50.3078 20.9268 50.7658 20.9645 51.1251C21.0602 52.065 20.0953 52.5904 19.9588 52.6054V52.6817H19.9603ZM16.0944 50.3632C16.0944 50.3632 16.0944 50.3512 16.0944 50.3437C15.9862 49.8558 16.0976 48.7602 16.3345 48.3575C17.1519 48.5731 17.916 48.9458 18.5436 49.4442C18.2031 49.7166 17.7858 50.5084 17.6571 50.9335C17.1833 50.703 16.6608 50.5069 16.0929 50.3617L16.0944 50.3632ZM18.713 49.5849C18.7538 49.6208 18.7962 49.6567 18.837 49.6927C19.5618 50.3632 19.5932 51.0068 19.5461 51.3301C19.4975 51.6699 19.3453 51.8854 19.2402 51.9632C18.8479 51.6295 18.3851 51.3122 17.8579 51.0353C17.9756 50.5862 18.4494 49.7525 18.7115 49.5834L18.713 49.5849ZM19.4802 50.1267C19.3641 49.9366 19.2057 49.7405 18.9923 49.5415C18.8166 49.3798 18.6299 49.2302 18.4337 49.0895C18.4573 49.049 18.4996 48.9982 18.5514 48.9667C19.077 49.1942 19.5242 49.4532 19.885 49.7181C19.7674 49.8004 19.6026 49.9381 19.4818 50.1252L19.4802 50.1267ZM18.2517 48.9652C18.0823 48.8545 17.9066 48.7512 17.7246 48.6569C17.9348 48.7242 18.1341 48.7961 18.3255 48.8724C18.2957 48.9039 18.2706 48.9368 18.2517 48.9652ZM16.1148 48.3022C15.8795 48.7662 15.7712 49.7585 15.8622 50.3063C15.3539 50.1911 14.811 50.1192 14.2368 50.0998H14.4407L14.458 48.145H14.7137C15.186 48.145 15.6583 48.2004 16.1164 48.3037L16.1148 48.3022ZM6.33862 51.1221C7.11525 50.9589 7.98132 50.8212 8.12253 50.8646C8.16489 50.8781 8.19627 50.9365 8.21039 50.9709C8.28884 51.1595 8.26844 51.4499 8.24177 51.5292C8.04565 51.6205 6.70576 51.7881 6.55984 51.7747C6.52532 51.7582 6.43432 51.637 6.3747 51.4499C6.33234 51.3181 6.31979 51.1969 6.34019 51.1206L6.33862 51.1221ZM6.76694 51.9662C7.25803 51.9243 8.3312 51.8136 8.43004 51.6489C8.47084 51.5816 8.49123 51.4364 8.4881 51.2807C8.78777 51.2553 9.55499 51.1565 10.0571 51.0906C8.72815 51.9677 8.27942 53.1876 8.13822 53.7504C8.00642 53.7339 7.62203 53.484 7.28784 53.1083C7.07917 52.8733 6.74027 52.4183 6.76851 51.9677L6.76694 51.9662ZM8.3108 53.9839C8.4222 53.3837 9.20511 50.3872 13.7473 50.3048C17.756 50.2315 20.2914 52.7895 20.5252 54.1815C20.7338 55.4178 20.5565 58.9846 20.5173 59.697C20.0498 59.48 19.1555 59.0355 18.3161 58.4547C17.1127 57.624 15.5971 56.0719 15.5814 56.0569L15.5484 56.0225H12.5988L12.5658 56.0599C10.8619 58.0057 8.6497 58.9412 8.00015 59.1866C8.01113 58.6583 8.09586 55.1439 8.3108 53.9824V53.9839ZM22.626 40.1268C24.7708 40.1268 26.5155 41.7912 26.5155 43.8373V45.3924C26.5155 47.4385 24.7708 49.1029 22.626 49.1029C20.4812 49.1029 18.7366 47.4385 18.7366 45.3924V43.8373C18.7366 41.7912 20.4812 40.1268 22.626 40.1268ZM22.6291 49.317C24.8947 49.3155 26.7383 47.5568 26.7383 45.3939V43.8388C26.7383 41.7119 24.9528 39.9757 22.7374 39.9188V38.6615C25.2305 38.6615 27.7597 38.6854 29.9201 38.7124V42.3854H29.1435C28.9944 42.3854 28.872 42.5022 28.872 42.6444V43.5858C28.872 43.728 28.9944 43.8448 29.1435 43.8448H29.9499V47.9519C29.6973 47.9699 29.4463 47.9998 29.2 48.0462C26.2425 48.4354 24.0522 49.9725 23.9377 51.1071C23.8796 51.6714 24.151 52.086 24.388 52.3344C24.6202 52.5784 24.8994 52.7446 25.0673 52.7984C24.6782 53.2864 24.4413 53.7624 24.3754 54.1515C24.3754 54.1545 24.3754 54.159 24.3738 54.162H22.6291V49.3185V49.317ZM29.1435 43.6308C29.1168 43.6308 29.0948 43.6098 29.0948 43.5844V42.6429C29.0948 42.6174 29.1168 42.5965 29.1435 42.5965H31.7307C31.7574 42.5965 31.7793 42.6174 31.7793 42.6429V43.5844C31.7793 43.6098 31.7574 43.6308 31.7307 43.6308H29.1435ZM34.2724 46.7126C34.4952 46.7979 34.8294 47.0913 34.9518 47.2469C34.7305 47.2559 34.2881 47.241 34.1893 47.2245C34.1689 47.208 34.1234 47.1691 34.0841 47.1332C33.9571 47.0209 33.7594 46.8473 33.5444 46.7051C33.7954 46.7036 34.0386 46.7051 34.274 46.7126H34.2724ZM36.1269 46.8368C36.3152 46.9416 36.549 47.1676 36.6886 47.3143C36.4894 47.3233 36.1599 47.3098 36.0908 47.2754C36.0626 47.2589 36.0061 47.205 35.9465 47.1482C35.8461 47.0524 35.7033 46.9162 35.515 46.7814C35.7363 46.7994 35.9402 46.8189 36.1269 46.8383V46.8368ZM37.197 47.8052C35.6311 47.6735 33.6495 47.5987 33.3546 47.5882L32.2673 46.7575C32.556 46.735 32.8384 46.7216 33.1145 46.7126C33.4079 46.8278 33.7484 47.1272 33.9304 47.2888C34.0339 47.3801 34.0637 47.4056 34.0967 47.4191C34.1563 47.443 34.4811 47.4595 34.7525 47.4595C34.9125 47.4595 35.0522 47.4535 35.1087 47.4415C35.1714 47.428 35.2138 47.3787 35.2169 47.3188C35.2248 47.1901 34.9706 46.9236 34.7086 46.7261C34.8215 46.732 34.9329 46.7365 35.0412 46.744C35.3879 46.9147 35.628 47.1422 35.788 47.2948C35.8665 47.3712 35.9245 47.4251 35.9763 47.455C36.05 47.4969 36.3105 47.5283 36.5474 47.5283C36.742 47.5283 36.9208 47.5074 36.9695 47.4565L37.0306 47.3787L36.9757 47.3083C36.9475 47.2709 36.7655 47.0673 36.5553 46.8832C36.7325 46.9042 36.8863 46.9251 37.0055 46.9416C37.0558 46.9476 37.3601 46.985 37.3601 46.985C37.4433 47.0224 37.6347 47.1945 37.8198 47.3727C37.8198 47.3757 37.8198 47.3787 37.8214 47.3816C37.834 47.4101 37.8591 47.4295 37.8873 47.4385C37.994 47.5418 38.0928 47.6406 38.1603 47.7094C38.2372 47.7873 38.3031 47.8531 38.3501 47.8965C38.3596 47.904 38.3643 47.9175 38.3705 47.9295C38.0991 47.8905 37.7728 47.8561 37.4182 47.8247L37.1938 47.8052H37.197ZM34.2332 48.4638C33.8676 48.4503 33.5177 48.4384 33.3248 48.4264L33.4299 47.8022C34.0606 47.8262 37.0495 47.9459 38.4176 48.1495C38.4207 48.3126 38.3909 48.5102 38.3721 48.6299C38.3658 48.6719 38.3611 48.7063 38.3564 48.7377C37.4966 48.5806 35.4711 48.5072 34.2332 48.4623V48.4638ZM31.988 47.1347C31.9943 47.1062 32.0147 47.0119 32.0492 46.8638L33.2134 47.7528L33.1114 48.3575C32.9121 48.1884 32.4273 47.7289 31.988 47.3008V47.1347ZM31.7966 47.4191C32.2312 47.8441 32.9796 48.5641 33.0988 48.615C33.149 48.6359 33.2855 48.6434 34.2238 48.6778C35.5072 48.7242 37.6425 48.8021 38.4082 48.9682C38.5698 49.1389 39.4045 50.2435 39.3653 50.5204C39.326 50.7898 39.2068 50.923 38.9903 51.0472C38.9824 51.0233 38.973 51.0008 38.9605 50.9799L38.9354 50.9395L38.8867 50.929C38.6075 50.8691 37.2032 50.5772 36.9271 50.6656C36.8267 50.697 36.7498 50.7778 36.6996 50.9035C36.6792 50.9529 36.6651 51.0098 36.6541 51.0712C36.3042 51.0427 35.1087 50.8841 34.6333 50.8197L34.6301 50.8377C33.8331 50.4171 32.7756 50.1207 31.373 50.0953C31.2129 50.0923 31.0576 50.0953 30.9023 50.0998L30.8835 47.9325H30.623C30.9933 47.4894 31.5205 47.3143 31.7605 47.2559V47.3876L31.7919 47.4191H31.7966ZM37.8387 53.1098C37.5013 53.4884 37.1122 53.7399 36.9836 53.7534C36.8424 53.1906 36.3952 51.9692 35.0632 51.0921C35.5652 51.158 36.3372 51.2583 36.6368 51.2837C36.6337 51.4394 36.6541 51.5846 36.6949 51.6519C36.7937 51.8166 37.8669 51.9273 38.358 51.9692C38.3862 52.4198 38.0489 52.8748 37.8387 53.1098ZM38.5745 51.7762C38.4223 51.7911 37.0793 51.6235 36.8816 51.5322C36.8549 51.4514 36.8345 51.161 36.913 50.9739C36.9271 50.941 36.9569 50.8826 37.0008 50.8676C37.142 50.8227 38.0081 50.9604 38.7847 51.1251C38.8051 51.1999 38.7926 51.3226 38.7502 51.4543C38.6906 51.6414 38.5996 51.7642 38.5745 51.7776V51.7762ZM30.4724 48.1465H30.6654L30.6826 50.1043H30.885C30.3108 50.1222 29.7695 50.1956 29.2611 50.3093C29.3521 49.763 29.2439 48.7691 29.0085 48.3066C29.4667 48.2034 29.9389 48.148 30.4112 48.148H30.474L30.4724 48.1465ZM26.8716 48.9682C26.8528 48.9398 26.8293 48.9083 26.7979 48.8754C26.9893 48.7991 27.1886 48.7272 27.3988 48.6599C27.2168 48.7542 27.0411 48.8575 26.8716 48.9682ZM26.5719 48.9697C26.6253 49.0011 26.6661 49.052 26.6896 49.0924C26.4935 49.2316 26.3052 49.3813 26.1311 49.5445C25.9161 49.7435 25.7592 49.9411 25.6431 50.1297C25.5223 49.9426 25.3576 49.8049 25.2399 49.7226C25.6008 49.4562 26.0479 49.1987 26.5735 48.9712L26.5719 48.9697ZM25.0595 49.8603C25.1771 49.9366 25.4046 50.1073 25.516 50.3557H25.5207C25.3262 50.7733 25.3246 51.1355 25.356 51.3615C25.4062 51.7178 25.5647 51.9782 25.7153 52.1084C25.5098 52.2955 25.3246 52.4856 25.1646 52.6757V52.6069C25.0281 52.5919 24.0616 52.065 24.1573 51.1266C24.1934 50.7673 24.5056 50.3093 25.0595 49.8603ZM25.88 51.9647C25.7749 51.8854 25.6243 51.6714 25.5772 51.3331C25.5317 51.0098 25.5631 50.3662 26.2864 49.6956C26.3272 49.6582 26.368 49.6238 26.4103 49.5879C26.6724 49.757 27.1462 50.5892 27.2639 51.0382C26.7351 51.3136 26.2723 51.631 25.88 51.9647ZM27.4647 50.935C27.336 50.5099 26.9187 49.7181 26.5798 49.4457C27.2074 48.9473 27.9715 48.5746 28.7889 48.359C29.0258 48.7617 29.1372 49.8573 29.0289 50.3452C29.0289 50.3512 29.0289 50.3572 29.0289 50.3647C28.461 50.5099 27.9385 50.7045 27.4647 50.9365V50.935ZM24.3425 54.373C24.242 55.2427 24.2624 56.7843 24.3032 58.0102H20.8123C20.8531 56.7843 20.875 55.2427 20.7731 54.373H24.3425ZM24.6013 59.7075C24.5637 59.016 24.3832 55.4253 24.5935 54.1829C24.8288 52.791 27.3674 50.2375 31.3714 50.3063C35.9135 50.3886 36.6965 53.3852 36.8079 53.9854C37.0212 55.1409 37.106 58.6283 37.1185 59.1807C36.4423 58.9232 34.2583 57.9877 32.5732 56.0629L32.5403 56.0255H29.5906L29.5577 56.0599C29.542 56.0749 28.0264 57.6255 26.823 58.4577C25.971 59.0459 25.0642 59.495 24.6029 59.709L24.6013 59.7075ZM38.3909 56.8113C38.2262 57.4878 37.5955 57.8096 37.3068 57.9249C37.2676 56.7454 37.1922 55.078 37.0652 54.1815C37.2393 54.2024 37.5719 54.2323 38.0003 54.2323C38.1885 54.2323 38.3956 54.2264 38.6153 54.2114C38.6122 54.5781 38.5855 56.018 38.3925 56.8113H38.3909ZM40.6753 40.6507C42.4263 42.9557 42.5299 49.3619 42.3981 50.7898C42.2616 52.2731 41.2166 53.4914 39.7983 53.8222C38.518 54.1201 37.3131 53.9974 37.0291 53.9629C37.0291 53.9614 37.0291 53.9599 37.0291 53.9584C37.2613 53.918 37.6786 53.6187 38.0081 53.2475C38.2356 52.993 38.598 52.5006 38.5808 51.9857C38.5902 51.9857 38.5965 51.9857 38.598 51.9857C38.6937 51.9752 38.7863 51.8884 38.871 51.7283C38.9416 51.5965 38.9966 51.4319 39.0107 51.2792C39.3323 51.1131 39.53 50.9365 39.5849 50.5473C39.6398 50.1581 38.7785 49.0565 38.5682 48.8245C38.5698 48.7901 38.5808 48.7213 38.5902 48.6629C38.6498 48.2782 38.6875 47.9175 38.5086 47.7469C38.4631 47.7035 38.3988 47.6391 38.3235 47.5628C38.256 47.4954 38.1932 47.434 38.1352 47.3757C39.4468 46.9506 40.9468 47.8247 41.1099 47.9654C41.1319 47.9833 41.1586 47.9923 41.1853 47.9923C41.2151 47.9923 41.2449 47.9804 41.2668 47.9579C41.3076 47.9145 41.3045 47.8471 41.259 47.8082C41.0707 47.6451 39.4186 46.6647 37.9642 47.2095C37.6002 46.8623 37.4464 46.7575 37.3444 46.768C37.1828 44.7713 36.7733 40.6567 36.0234 38.8875C36.7765 38.8246 39.2554 38.7752 40.6785 40.6492L40.6753 40.6507ZM37.1154 46.744C37.0887 46.741 37.0636 46.7365 37.0354 46.7336C36.2697 46.6318 34.2379 46.3609 31.9676 46.5704L31.8892 46.5779L31.8703 46.6512C31.8264 46.8278 31.7966 46.9596 31.7809 47.0329C31.5393 47.0823 30.8003 47.2814 30.3484 47.9325C30.2888 47.9325 30.2292 47.9355 30.1711 47.9384V43.8433H31.7291C31.8782 43.8433 32.0006 43.7265 32.0006 43.5844V42.6429C32.0006 42.5007 31.8782 42.3839 31.7291 42.3839H30.1413V38.7139C33.102 38.7513 35.3299 38.7977 35.7425 38.8067C36.5113 40.4022 36.9459 44.674 37.1169 46.7425L37.1154 46.744ZM34.9706 38.5343L35.0035 38.5807C34.1893 38.5657 32.8133 38.5402 31.1204 38.5163C32.2406 37.6691 37.2581 33.4557 37.1107 26.0423C37.1107 26.0333 37.1107 26.0228 37.1107 26.0138C37.5939 26.0482 39.7057 26.3266 40.3506 27.1723C39.6367 35.3521 35.0161 38.5013 34.969 38.5343H34.9706ZM37.834 0.657108C38.4129 1.3531 43.2892 17.388 43.046 23.1041C42.8389 27.9656 41.6858 29.6046 41.0174 30.1494C40.7036 30.4053 40.3631 30.5281 40.0289 30.5101C40.3302 29.3052 40.5483 27.9536 40.633 26.4389C40.6895 25.4346 40.6691 24.4512 40.5781 23.4978C40.5922 23.4828 40.6032 23.4648 40.6063 23.4424C40.6581 23.1011 41.7909 14.9258 36.5662 0.224543C36.913 0.196104 37.4762 0.229033 37.834 0.658605V0.657108ZM34.5313 1.04477L36.2697 0.267949C36.2823 0.264955 36.3074 0.258968 36.3434 0.252981C40.6926 12.4726 40.6393 20.16 40.4698 22.5892C39.9756 19.2245 38.5557 16.2579 36.3183 14.0068C36.3026 13.9903 36.2854 13.9753 36.2697 13.9589C36.2744 13.9469 36.2775 13.9334 36.2775 13.9185C36.2462 11.7287 34.6898 2.02216 34.5329 1.04477H34.5313ZM22.6197 9.33386C28.3606 9.35182 33.0392 11.0162 36.1567 14.1519C39.1738 17.1874 40.6848 21.546 40.4118 26.4269C40.4039 26.5781 40.3898 26.7233 40.3788 26.8715C39.5394 26.0662 37.5923 25.8267 37.1122 25.7998C37.0259 19.7663 34.3022 16.8192 33.3028 16.427C32.5717 16.1397 28.257 15.1293 22.6966 15.1159C22.6966 15.1159 22.695 15.1159 22.6935 15.1159C22.6762 15.1159 22.659 15.1159 22.6417 15.1159C22.6244 15.1159 22.6072 15.1159 22.5899 15.1159C22.5899 15.1159 22.5884 15.1159 22.5868 15.1159C17.0264 15.1293 12.7102 16.1397 11.9806 16.427C10.9812 16.8207 8.25746 19.7678 8.17117 25.8013C8.16803 25.8013 8.16489 25.8013 8.16175 25.8013C6.188 25.9495 5.22309 26.5137 4.85438 26.7981C4.84497 26.6739 4.83398 26.5527 4.82771 26.4269C4.55471 21.546 6.06562 17.1874 9.08273 14.1519C12.1987 11.0162 16.8789 9.35182 22.6197 9.33386ZM10.7097 1.04477C10.5528 2.02216 8.99644 11.7287 8.96506 13.9185C8.96506 13.9319 8.9682 13.9454 8.9729 13.9574C8.95722 13.9738 8.93996 13.9888 8.9227 14.0053C6.68536 16.2564 5.26545 19.2245 4.77123 22.5877C4.60178 20.1585 4.54843 12.4711 8.89759 0.251485C8.93368 0.257472 8.95878 0.263459 8.97134 0.266452L10.7097 1.04327V1.04477ZM4.22366 30.1494C3.55528 29.6046 2.40366 27.9656 2.19499 23.1041C1.95023 17.3865 6.82657 1.3531 7.40551 0.657108C7.76167 0.227536 8.32649 0.194608 8.67323 0.223046C3.44859 14.9258 4.58138 23.0996 4.63316 23.4409C4.63629 23.4633 4.64728 23.4813 4.6614 23.4963C4.5704 24.4512 4.55 25.4331 4.60648 26.4374C4.61747 26.6305 4.63316 26.8191 4.64728 27.0062C4.64257 27.0256 4.64414 27.0466 4.65198 27.066C4.75554 28.3293 4.95166 29.4743 5.21053 30.5086C4.87635 30.5266 4.53745 30.4038 4.22209 30.1479L4.22366 30.1494ZM4.87635 27.0645C5.05521 26.8999 5.95265 26.183 8.1696 26.0123C8.1696 26.0213 8.1696 26.0288 8.1696 26.0378C8.02211 33.4512 13.0381 37.6646 14.1599 38.5133C12.4466 38.5373 11.0533 38.5627 10.2328 38.5777L10.2657 38.5313C10.2171 38.4998 5.56041 35.3297 4.87635 27.0645ZM9.49537 38.8052C10.2171 38.7902 16.4804 38.663 22.5178 38.66V39.9173C20.3008 39.9742 18.5169 41.7104 18.5169 43.8373V45.3924C18.5169 47.4849 20.2443 49.2002 22.4095 49.3095V54.1575H20.7495C20.7495 54.1575 20.7495 54.15 20.748 54.147C20.6821 53.7579 20.4452 53.2819 20.0576 52.7955C20.2255 52.7416 20.5048 52.5754 20.7385 52.33C20.9755 52.0815 21.2453 51.6669 21.1888 51.1026C21.0743 49.9666 18.884 48.4309 15.9265 48.0417C15.55 47.9729 15.1656 47.934 14.7765 47.931C14.3246 47.2799 13.5857 47.0808 13.344 47.0314C13.3268 46.9566 13.297 46.8249 13.2546 46.6497L13.2358 46.5764L13.1573 46.5689C10.887 46.3594 8.85523 46.6303 8.08958 46.7321C8.07546 46.7335 8.06134 46.735 8.04879 46.738C8.12567 45.7741 8.56497 40.724 9.49537 38.8067V38.8052ZM2.72844 50.7883C2.59664 49.3604 2.7002 42.9542 4.45116 40.6492C5.95109 38.675 8.62616 38.8366 9.21139 38.898C8.29354 41.0189 7.88718 45.9238 7.82286 46.7665C7.80717 46.768 7.79618 46.7695 7.78991 46.768C7.68793 46.7545 7.53103 46.8578 7.16232 47.2095C5.70633 46.6647 4.05421 47.6451 3.86593 47.8082C3.82043 47.8471 3.8173 47.9145 3.85809 47.9579C3.88006 47.9804 3.90987 47.9923 3.93968 47.9923C3.96635 47.9923 3.99302 47.9833 4.01499 47.9654C4.17816 47.8232 5.67808 46.9491 6.98974 47.3757C6.93169 47.4325 6.86893 47.4954 6.80146 47.5628C6.72615 47.6391 6.66182 47.7035 6.61632 47.7469C6.43746 47.9175 6.47512 48.2767 6.53474 48.6629C6.54415 48.7198 6.55357 48.7886 6.5567 48.8245C6.34646 49.0565 5.48353 50.1596 5.54002 50.5473C5.59493 50.9365 5.79419 51.1131 6.11426 51.2792C6.12838 51.4319 6.18329 51.5965 6.25389 51.7283C6.34019 51.8884 6.43119 51.9752 6.52689 51.9857C6.52689 51.9857 6.53631 51.9857 6.54415 51.9857C6.52689 52.5006 6.88932 52.9915 7.11682 53.2475C7.44474 53.6172 7.85894 53.915 8.09272 53.9584C8.09272 53.9599 8.09272 53.9629 8.09272 53.9644C7.80089 54.0003 6.6022 54.1201 5.32821 53.8237C3.90987 53.4929 2.86494 52.2746 2.72844 50.7913V50.7883ZM6.68379 56.8442C6.48296 56.0195 6.46257 54.4958 6.461 54.2054C6.70105 54.2234 6.92541 54.2308 7.12937 54.2308C7.55299 54.2308 7.88405 54.2009 8.05977 54.18C7.93111 55.09 7.8558 56.7918 7.81658 57.9743C7.54829 57.8755 6.85794 57.5567 6.68536 56.8442H6.68379ZM3.75768 60.1086C3.74826 59.6432 3.88633 58.9546 4.30681 58.5445C4.51548 58.341 4.76966 58.2377 5.05835 58.2377H7.80717C7.78991 58.802 7.78206 59.2016 7.78049 59.2525H7.82286L7.81658 59.2555L7.34275 59.5968V59.6491C7.34275 59.724 7.34118 60.3811 7.28941 61.3016H5.19798C4.61904 61.3016 3.77337 60.8765 3.75768 60.1086ZM4.06519 69.7343C2.76139 69.7613 0.77508 69.7867 0.262029 69.7553C0.662115 68.9949 3.38897 64.5406 5.26074 61.5126H7.27529C7.22351 62.3448 7.13251 63.3566 6.96934 64.3385L4.06519 69.7343ZM14.8722 63.5991C17.6289 63.6844 19.805 64.7711 21.0241 66.6615C21.0272 66.6705 21.0304 66.6824 21.0335 66.6914L21.0461 66.7139C21.4022 67.2093 22.1412 68.8542 22.0329 69.896H5.54629L5.21681 68.8737C5.28114 68.7195 5.59336 68.022 6.31351 67.2767C6.31508 67.2752 6.31822 67.2737 6.31979 67.2722C6.31979 67.2722 6.32293 67.2677 6.32764 67.2632C6.33234 67.2587 6.33705 67.2542 6.34176 67.2497L6.36058 67.2243C6.6022 66.9279 7.92484 65.3548 9.6303 64.4014C11.4001 63.4045 13.3236 63.5183 13.344 63.5198C13.4084 63.5228 13.4586 63.4794 13.4633 63.421C13.468 63.3626 13.4209 63.3117 13.3597 63.3072C13.2781 63.3027 11.3483 63.186 9.5189 64.2173C8.27785 64.9118 7.23606 65.9251 6.65084 66.5597C6.88619 65.9191 7.06191 65.1662 7.19213 64.3954L7.19841 64.3849H7.19527C7.5373 62.3448 7.56555 60.1895 7.56711 59.703L7.90758 59.4516C8.15077 59.3692 10.7505 58.4517 12.7102 56.2365H15.4606C15.6912 56.47 17.0735 57.853 18.1937 58.6283C19.259 59.3648 20.4122 59.8856 20.6993 60.0114C20.693 60.6041 20.6664 64.4702 20.908 66.1152C19.6073 64.4328 17.4986 63.4704 14.8832 63.3896C14.8832 63.3896 14.8816 63.3896 14.88 63.3896C14.8204 63.3896 14.7702 63.4345 14.7686 63.4928C14.7671 63.5512 14.8141 63.6006 14.8769 63.6021L14.8722 63.5991ZM21.0272 65.1333C20.9441 63.9733 20.9205 62.4316 20.9158 61.33H22.2087L21.0272 65.1333ZM22.8802 61.33H24.2342C24.2295 62.4586 24.2044 64.0496 24.1165 65.2186L22.8802 61.33ZM31.8076 63.5183C31.8264 63.5168 33.7515 63.403 35.5213 64.3999C37.2142 65.3473 38.529 66.901 38.7847 67.2153C38.7847 67.2183 38.7879 67.2213 38.7895 67.2228L38.8083 67.2482C39.5488 68.0041 39.8673 68.718 39.9317 68.8737L39.6022 69.896H23.1155C23.0073 68.8542 23.7478 67.2093 24.1024 66.7139L24.115 66.6914C24.115 66.6914 24.1197 66.6765 24.1228 66.6705C25.3403 64.7756 27.5196 63.6844 30.281 63.5991C30.3422 63.5976 30.3908 63.5482 30.3877 63.4898C30.3861 63.433 30.3359 63.3866 30.2763 63.3866H30.2731C27.6545 63.4674 25.5443 64.4328 24.2452 66.1167C24.4884 64.4747 24.4601 60.6026 24.4554 60.0084C24.7425 59.8826 25.8957 59.3603 26.9611 58.6254C28.0813 57.8515 29.4635 56.467 29.6942 56.2335H32.4446C34.4042 58.4472 37.0024 59.3648 37.2472 59.4486L37.5876 59.7C37.5892 60.3721 37.641 64.2188 38.5008 66.5537C37.9155 65.9191 36.8769 64.9088 35.6374 64.2158C33.8064 63.1845 31.8782 63.2998 31.795 63.3057C31.7338 63.3102 31.6883 63.3611 31.6915 63.4195C31.6946 63.4779 31.7432 63.5213 31.8107 63.5183H31.8076ZM41.008 69.7343L38.1964 64.4478C38.0222 63.433 37.925 62.3762 37.8716 61.5141H39.8124C41.6842 64.5421 44.411 68.9949 44.8111 69.7568C44.2996 69.7882 42.3118 69.7628 41.0095 69.7358L41.008 69.7343ZM7.61575 42.7402H4.03381C4.03381 42.7402 4.13893 42.0921 4.42605 41.5547C4.71317 41.0189 5.75967 39.335 8.20411 39.5461C8.20411 39.5461 7.15762 39.4967 6.09857 40.2076C5.03952 40.9186 4.5955 42.3031 4.65983 42.3151C4.72573 42.3271 7.61418 42.7387 7.61418 42.7387L7.61575 42.7402ZM3.31366 47.2559C3.31366 47.2559 3.18344 46.7575 3.20854 46.2336C3.23521 45.7098 3.40466 44.4255 4.09814 43.8882C4.79162 43.3524 5.915 43.526 5.915 43.526C5.915 43.526 5.15719 43.5634 4.43704 44.0992C3.52233 44.9973 3.75768 46.6692 3.75768 46.6692C3.75768 46.6692 4.08402 46.5195 5.18229 46.3698C6.28057 46.2202 6.8297 46.2321 6.8297 46.2321L7.43062 44.1486C7.43062 44.1486 7.2345 46.5689 7.19527 46.5809C7.15605 46.5928 6.67281 46.4192 5.54786 46.6063C4.42292 46.7934 3.31209 47.2544 3.31209 47.2544L3.31366 47.2559ZM6.8046 53.1801C4.5955 53.2804 3.34033 52.2566 3.28699 51.2343C3.23521 50.0998 3.84868 48.154 6.15034 47.7169C6.15034 47.7169 3.80945 48.7647 3.80945 51.1101C3.86123 51.5711 4.18914 52.6443 6.80303 53.1801H6.8046ZM36.833 39.5476C39.2774 39.335 40.3239 41.0189 40.611 41.5562C40.8981 42.0921 41.0033 42.7417 41.0033 42.7417H37.4213C37.4213 42.7417 40.3113 42.3301 40.3757 42.3181C40.44 42.3061 39.996 40.9216 38.9369 40.2106C37.8779 39.4997 36.8314 39.5491 36.8314 39.5491L36.833 39.5476ZM40.9389 43.8882C41.6324 44.424 41.8019 45.7098 41.8285 46.2336C41.8552 46.7575 41.7234 47.2559 41.7234 47.2559C41.7234 47.2559 40.6126 46.7949 39.4876 46.6078C38.3627 46.4207 37.8795 46.5958 37.8402 46.5824C37.801 46.5704 37.6049 44.1501 37.6049 44.1501L38.2058 46.2336C38.2058 46.2336 38.7549 46.2217 39.8532 46.3713C40.9515 46.521 41.2778 46.6707 41.2778 46.6707C41.2778 46.6707 41.5132 44.9988 40.5985 44.1007C39.8799 43.5649 39.1205 43.5275 39.1205 43.5275C39.1205 43.5275 40.2455 43.3524 40.9374 43.8897L40.9389 43.8882ZM41.7501 51.2343C41.6983 52.2566 40.4431 53.2804 38.2325 53.1801C40.8479 52.6443 41.1743 51.5711 41.2261 51.1101C41.2261 48.7647 38.8852 47.7169 38.8852 47.7169C41.1868 48.154 41.8003 50.0998 41.7485 51.2343H41.7501Z" fill="#1A2752"/>
<path d="M26.2754 37.3892C25.8942 37.033 25.196 36.9088 24.2421 36.9088C23.4905 36.9088 21.8776 36.9088 21.1559 36.9088C20.202 36.9088 19.5038 37.0345 19.1225 37.3892C18.7413 37.7454 18.6252 38.3172 18.6252 38.3172C18.7413 38.3456 19.0739 38.2963 19.0974 38.3172C19.1225 38.3382 19.3375 37.9819 19.3799 37.9819C19.4222 37.9819 19.4709 37.9475 19.4709 38.0164C19.4709 38.0852 19.3469 38.3022 19.3469 38.3232C19.3469 38.3442 19.8772 38.3232 19.8772 38.3232C19.8772 38.3232 20.2428 37.7859 20.566 37.7305C20.8437 37.6826 22.5617 37.7305 22.5617 37.7305H22.6574C22.6574 37.7305 24.5512 37.6826 24.832 37.7305C25.1552 37.7859 25.5208 38.3232 25.5208 38.3232C25.5208 38.3232 26.0511 38.3442 26.0511 38.3232C26.0511 38.3022 25.9271 38.0867 25.9271 38.0164C25.9271 37.946 25.9773 37.9819 26.0181 37.9819C26.0589 37.9819 26.2754 38.3382 26.3005 38.3172C26.3256 38.2963 26.6567 38.3456 26.7728 38.3172C26.7728 38.3172 26.6567 37.7454 26.2754 37.3892Z" fill="#1455A2"/>
<path d="M22.102 69.1835C22.102 69.1835 22.2071 69.6445 22.2071 69.7568C22.2071 69.869 22.1161 70.0307 22.1161 70.0307C22.1161 70.0307 5.62946 70.0427 5.52434 69.9933C5.41922 69.9439 5.17133 68.9336 5.17133 68.9336C5.32822 69.1207 5.66869 69.1835 6.28215 69.1835H22.102ZM38.9118 69.1835C38.2968 69.1835 23.092 69.1835 23.092 69.1835C23.092 69.1835 22.9869 69.6445 22.9869 69.7568C22.9869 69.869 23.0779 70.0307 23.0779 70.0307C23.0779 70.0307 39.5645 70.0427 39.6697 69.9933C39.7748 69.9439 40.0227 68.9336 40.0227 68.9336C39.8658 69.1207 39.5253 69.1835 38.9118 69.1835Z" fill="#1A2752"/>
<path d="M14.8234 19.116C15.5237 18.6592 15.8313 17.9261 15.5105 17.4784C15.1897 17.0308 14.3619 17.0381 13.6616 17.4949C12.9613 17.9516 12.6537 18.6848 12.9745 19.1324C13.2953 19.5801 14.1231 19.5727 14.8234 19.116Z" fill="white"/>
<path d="M11.9508 21.1567C12.242 20.8363 12.2961 20.426 12.0715 20.2403C11.847 20.0545 11.4289 20.1637 11.1377 20.4841C10.8464 20.8044 10.7924 21.2147 11.0169 21.4005C11.2415 21.5863 11.6596 21.4771 11.9508 21.1567Z" fill="white"/>
<g filter="url(#filter1_d_1557_11110)">
<path d="M13.2076 27.0915C14.5663 27.2875 17.8658 27.0915 17.8658 27.0915C17.8658 27.0915 18.2471 22.4036 15.346 22.3707C12.1971 22.3213 13.2076 27.0915 13.2076 27.0915Z" fill="#72CCDE"/>
<path d="M32.1826 27.0915C30.8239 27.2875 27.5243 27.0915 27.5243 27.0915C27.5243 27.0915 27.1431 22.4036 30.0441 22.3707C33.193 22.3213 32.1826 27.0915 32.1826 27.0915Z" fill="#72CCDE"/>
<path d="M25.3953 31.6596H19.8506C19.6748 31.6596 19.5336 31.5189 19.5336 31.3453C19.5336 31.1717 19.6764 31.031 19.8506 31.031H25.3953C25.571 31.031 25.7122 31.1717 25.7122 31.3453C25.7122 31.5189 25.5694 31.6596 25.3953 31.6596Z" fill="#72CCDE"/>
</g>
<path d="M15.7618 13.6789C17.006 13.878 19.1225 13.3541 19.1225 13.3541C19.1225 13.3541 20.0812 8.86384 20.0561 8.53904C20.031 8.21425 18.6001 7.79066 17.006 8.04062C15.4119 8.29058 14.6541 9.05094 14.629 9.35029C14.6039 9.64965 15.1891 13.3796 15.7618 13.6789Z" fill="#BEE4EF"/>
<path d="M16.4176 13.8301C16.1792 13.8301 15.9501 13.8166 15.743 13.7837L15.7085 13.7717C15.0417 13.423 14.5035 9.52691 14.5192 9.34281C14.5474 8.99407 15.3241 8.19779 16.9887 7.93735C18.2878 7.73379 19.5681 7.96429 20.0074 8.29508C20.1063 8.36991 20.1596 8.44924 20.1675 8.53306C20.1926 8.86235 19.3296 12.9156 19.2324 13.3766L19.2182 13.441L19.1508 13.4574C19.0786 13.4754 17.6257 13.8301 16.4192 13.8301H16.4176ZM15.7995 13.5772C16.8868 13.7433 18.6597 13.3526 19.0253 13.2673C19.4096 11.4667 19.9604 8.77105 19.9431 8.54653C19.9431 8.53456 19.9258 8.50313 19.8678 8.45972C19.5163 8.19629 18.3318 7.93885 17.0217 8.1439C15.4888 8.38339 14.7577 9.1183 14.7373 9.35778C14.709 9.69455 15.3131 13.2598 15.7979 13.5757L15.7995 13.5772Z" fill="#1A2752"/>
<path d="M29.3286 13.6789C28.0844 13.878 25.9679 13.3541 25.9679 13.3541C25.9679 13.3541 25.0093 8.86384 25.0344 8.53904C25.0595 8.21425 26.4904 7.79066 28.0844 8.04062C29.6769 8.29058 30.4363 9.05094 30.4614 9.35029C30.4865 9.64965 29.9013 13.3796 29.3286 13.6789Z" fill="#BEE4EF"/>
<path d="M28.6712 13.8301C27.4647 13.8301 26.0118 13.4754 25.9396 13.4574L25.8722 13.441L25.8581 13.3766C25.7592 12.9156 24.8979 8.86235 24.923 8.53306C24.9292 8.45074 24.9826 8.36991 25.083 8.29508C25.5223 7.96429 26.8026 7.73379 28.1017 7.93735C29.7663 8.19779 30.543 8.99407 30.5712 9.34281C30.5869 9.52841 30.0472 13.4245 29.382 13.7717L29.3474 13.7837C29.1403 13.8166 28.9113 13.8301 28.6728 13.8301H28.6712ZM26.062 13.2673C26.4276 13.3526 28.2021 13.7433 29.2894 13.5772C29.7742 13.2613 30.3782 9.69605 30.35 9.35928C30.3296 9.12129 29.5969 8.38638 28.0656 8.1454C26.7555 7.94034 25.5709 8.19629 25.2195 8.46122C25.1614 8.50462 25.1458 8.53606 25.1442 8.54803C25.1269 8.77254 25.6776 11.4682 26.062 13.2688V13.2673Z" fill="#1A2752"/>
<path d="M4.49667 48.1345C4.02441 48.609 3.58824 49.1104 3.20228 49.6507C3.19443 49.6612 3.18502 49.6732 3.17247 49.6777C3.14736 49.6851 3.12697 49.6612 3.11284 49.6402C3.04224 49.5325 2.9685 49.4202 2.95281 49.2945C2.91516 49.0221 3.14109 48.7871 3.35446 48.6C3.57726 48.4039 3.81103 48.2093 4.08246 48.0776C4.2472 47.9983 4.81517 47.8172 4.49824 48.136L4.49667 48.1345ZM5.12582 48.6254C4.97206 48.7721 4.81203 48.9248 4.68024 49.0909C4.6567 49.1209 4.39469 49.5639 4.46529 49.5729C4.7477 49.6103 5.02855 49.6477 5.31096 49.6851C5.34077 49.6896 5.37372 49.6926 5.40039 49.6792C5.42706 49.6657 5.44118 49.6387 5.45531 49.6133C5.61534 49.3289 6.61477 48.6105 6.33706 48.2453C6.07191 47.898 5.32037 48.4413 5.12739 48.6239L5.12582 48.6254ZM4.80575 46.1393C4.82772 46.1333 4.84969 46.1258 4.86538 46.1094C4.8842 46.0884 4.88734 46.0585 4.88734 46.03C4.90931 45.4822 5.03953 44.9389 5.2686 44.4345C5.44903 44.0393 4.76967 44.0977 4.55315 44.2414C4.2425 44.448 4.1766 44.9643 4.12326 45.2847C4.07619 45.5735 4.05422 45.8654 4.05893 46.1573C4.30369 46.2127 4.56257 46.2052 4.80419 46.1378L4.80575 46.1393ZM6.53632 40.1507C6.07661 40.257 5.62632 40.712 5.37372 41.0713C5.16348 41.3676 5.016 41.7224 5.05679 42.0786C5.30468 42.1968 5.57611 42.2717 5.85225 42.2971C5.87736 42.0621 5.94168 41.8316 6.04367 41.6176C6.15506 41.3796 6.31039 41.1626 6.46572 40.947C6.54887 40.8303 6.63203 40.715 6.71518 40.5998C6.76853 40.5264 6.92542 40.3768 6.92228 40.284C6.91758 40.1223 6.65242 40.1238 6.53632 40.1507Z" fill="white"/>
<path d="M41.0111 48.0267C41.2825 48.1584 41.5163 48.353 41.7391 48.5491C41.9509 48.7347 42.1768 48.9697 42.1407 49.2436C42.1235 49.3693 42.0513 49.4816 41.9807 49.5894C41.9666 49.6103 41.9462 49.6343 41.9211 49.6268C41.907 49.6238 41.8991 49.6118 41.8913 49.5998C41.5053 49.0595 41.0676 48.5581 40.5969 48.0836C40.2799 47.7648 40.8479 47.9459 41.0126 48.0252L41.0111 48.0267ZM38.7581 48.1974C38.4803 48.5611 39.4798 49.281 39.6398 49.5654C39.6539 49.5908 39.668 49.6178 39.6947 49.6313C39.7214 49.6447 39.7543 49.6417 39.7842 49.6373C40.0666 49.5998 40.3474 49.5624 40.6298 49.525C40.6989 49.516 40.4384 49.073 40.4149 49.043C40.2831 48.8769 40.123 48.7242 39.9693 48.5775C39.7763 48.3949 39.0248 47.8516 38.7596 48.1989L38.7581 48.1974ZM41.0315 46.1094C41.0362 45.8175 41.0142 45.5256 40.9671 45.2368C40.9138 44.9165 40.8479 44.3986 40.5373 44.1935C40.3207 44.0498 39.6414 43.9914 39.8218 44.3866C40.0509 44.8895 40.1811 45.4328 40.2031 45.9821C40.2031 46.0106 40.2062 46.0405 40.225 46.0615C40.2407 46.0779 40.2627 46.0854 40.2847 46.0914C40.5263 46.1588 40.7852 46.1663 41.0299 46.1109L41.0315 46.1094ZM38.1697 40.2346C38.1681 40.3274 38.3234 40.477 38.3768 40.5504C38.4599 40.6656 38.5431 40.7824 38.6263 40.8976C38.78 41.1132 38.9353 41.3302 39.0483 41.5682C39.1503 41.7837 39.2146 42.0142 39.2397 42.2477C39.5159 42.2223 39.7873 42.1474 40.0352 42.0292C40.076 41.673 39.9269 41.3182 39.7183 41.0219C39.4641 40.6626 39.0138 40.2076 38.5557 40.1014C38.4396 40.0744 38.1744 40.0729 38.1697 40.2346Z" fill="white"/>
</g>
<defs>
<filter id="filter0_d_1557_11110" x="9.90547" y="30.9763" width="25.1478" height="25.7669" filterUnits="userSpaceOnUse" color-interpolation-filters="sRGB">
<feFlood flood-opacity="0" result="BackgroundImageFix"/>
<feColorMatrix in="SourceAlpha" type="matrix" values="0 0 0 0 0 0 0 0 0 0 0 0 0 0 0 0 0 0 127 0" result="hardAlpha"/>
<feOffset/>
<feGaussianBlur stdDeviation="5.04"/>
<feColorMatrix type="matrix" values="0 0 0 0 0.180392 0 0 0 0 0.760784 0 0 0 0 0.862745 0 0 0 1 0"/>
<feBlend mode="normal" in2="BackgroundImageFix" result="effect1_dropShadow_1557_11110"/>
<feBlend mode="normal" in="SourceGraphic" in2="effect1_dropShadow_1557_11110" result="shape"/>
</filter>
<filter id="filter1_d_1557_11110" x="5.85316" y="15.1703" width="33.6838" height="23.6893" filterUnits="userSpaceOnUse" color-interpolation-filters="sRGB">
<feFlood flood-opacity="0" result="BackgroundImageFix"/>
<feColorMatrix in="SourceAlpha" type="matrix" values="0 0 0 0 0 0 0 0 0 0 0 0 0 0 0 0 0 0 127 0" result="hardAlpha"/>
<feOffset/>
<feGaussianBlur stdDeviation="3.6"/>
<feColorMatrix type="matrix" values="0 0 0 0 0.180392 0 0 0 0 0.760784 0 0 0 0 0.862745 0 0 0 1 0"/>
<feBlend mode="normal" in2="BackgroundImageFix" result="effect1_dropShadow_1557_11110"/>
<feBlend mode="normal" in="SourceGraphic" in2="effect1_dropShadow_1557_11110" result="shape"/>
</filter>
<clipPath id="clip0_1557_11110">
<rect width="45.07" height="70.11" fill="white"/>
</clipPath>
</defs>
</svg>
