<svg width="46" height="88" viewBox="0 0 46 88" fill="none" xmlns="http://www.w3.org/2000/svg">
<g clip-path="url(#clip0_9016_11625)">
<path d="M42.54 62.08C40.9271 63.1389 38.4367 64.2853 38.4122 64.2956L38.3893 64.2339C38.422 64.664 38.4547 65.0906 38.489 65.5053C38.7962 69.3111 38.4187 75.1833 38.4122 75.2896L38.7227 75.5466V75.6066C38.7227 75.855 38.7374 81.6948 39.9417 84.3165C39.963 84.3456 39.9744 84.3627 39.9777 84.3662C40.8519 85.3823 41.1591 86.3024 41.1722 86.3419L41.1853 86.3813L40.7686 87.8292H23.2033L23.1886 87.7264C23.0219 86.5509 23.7066 84.6643 24.1625 83.8624C24.1658 83.8504 24.1674 83.8384 24.174 83.8281C24.1969 83.787 24.2214 83.7476 24.2459 83.7064C24.6332 82.4521 24.5711 76.0178 24.5711 75.951V75.8705L24.6381 75.8379C24.6397 75.8379 24.6626 75.8259 24.7034 75.8071C24.6659 75.4678 24.4779 73.7971 24.2704 72.7107C24.0939 71.7786 23.1641 70.8618 22.7899 70.526C22.517 70.7607 21.4973 71.6963 21.3044 72.7107C21.0985 73.7971 20.909 75.4678 20.8714 75.8071C20.9123 75.8276 20.9351 75.8379 20.9368 75.8379L21.0054 75.8705V75.951C21.0054 76.0161 20.9417 82.4179 21.3257 83.6962C21.3502 83.7407 21.378 83.7818 21.4025 83.8281C21.4107 83.8418 21.4156 83.8572 21.4172 83.8727C21.8731 84.6814 22.5497 86.5561 22.3846 87.7264L22.3699 87.8292H4.80463L4.38792 86.3813L4.401 86.3419C4.41407 86.3024 4.72619 85.3703 5.61189 84.3456C5.61515 84.3405 5.62169 84.3336 5.62659 84.325C6.83422 81.7068 6.84892 75.855 6.84892 75.6066V75.5466L7.16268 75.293H7.15941C7.15614 75.2347 6.77375 69.3282 7.08097 65.507C7.11529 65.0924 7.14797 64.6657 7.18065 64.2356L7.15777 64.2973C7.13326 64.2853 4.64285 63.1389 3.02996 62.0817C1.18176 60.8702 -0.444204 57.9829 0.1784 55.0202C0.840223 51.8725 4.8128 49.0349 6.11847 48.1027L6.14625 48.0821C7.36531 47.2905 8.36867 46.8895 8.66608 46.7781C8.74615 46.5228 8.82949 46.2949 8.9161 46.1013L8.94551 46.0362H9.01251C9.02395 46.0345 9.22985 46.0293 9.5959 46.0208C8.87525 45.3988 6.03513 42.6331 4.68043 36.826C4.63794 36.8294 4.59546 36.8345 4.55297 36.8345C4.16241 36.8345 3.77185 36.6597 3.41398 36.3222C2.17858 35.157 1.41053 32.1806 1.24876 27.9413C1.10005 24.0602 2.69169 16.6097 3.65256 12.5144C4.94843 6.99167 6.39954 1.99844 6.73617 1.54436C7.39636 0.656747 8.56476 0.994312 8.61378 1.00973L8.63013 1.01659L10.6074 2.00701L10.5944 2.09783C10.5764 2.21949 8.87525 13.9897 8.76903 17.0038C12.0455 13.4979 16.84 11.6319 22.6902 11.5925C22.7212 11.5908 22.7523 11.5925 22.785 11.5925C22.816 11.5925 22.8471 11.5925 22.8798 11.5925C28.7299 11.6336 33.5245 13.4997 36.8009 17.0055C36.6931 13.9914 34.9936 2.2212 34.9756 2.09954L34.9625 2.00872L36.9578 1.01145C37.0068 0.996026 38.1752 0.65846 38.8354 1.54607C39.172 2.00015 40.6231 6.99338 41.919 12.5144C42.8799 16.6097 44.4715 24.0584 44.3228 27.9413C44.161 32.1823 43.3914 35.1587 42.1576 36.3222C41.7997 36.6597 41.4092 36.8345 41.0186 36.8345C40.9761 36.8345 40.9336 36.8311 40.8911 36.826C39.5365 42.6348 36.6963 45.3988 35.9757 46.0208C36.3417 46.0293 36.5476 46.0345 36.5591 46.0345H36.6261L36.6555 46.1013C36.7437 46.2949 36.8271 46.5211 36.9055 46.7781C37.2029 46.8895 38.2063 47.2905 39.4204 48.0787L39.4515 48.101C40.7571 49.0331 44.7297 51.8708 45.3915 55.0202C46.0141 57.9829 44.3882 60.8702 42.54 62.0817V62.08Z" fill="#2EC1DD"/>
<path d="M37.3304 1.18971C42.7818 18.3696 41.6003 27.9242 41.5464 28.3235C41.5431 28.3492 41.5317 28.3715 41.5154 28.3886C41.6101 29.5041 41.6314 30.6522 41.5726 31.8242C41.4843 33.596 41.2555 35.1759 40.9418 36.5844C41.3029 36.6084 41.6722 36.4559 42.0121 36.1355C42.7001 35.486 43.8865 33.5583 44.1006 27.9276C44.3555 21.2466 39.2668 2.51084 38.6622 1.69692C38.2847 1.18971 37.6915 1.15201 37.3287 1.188L37.3304 1.18971ZM41.2964 32.6827C40.6166 31.6837 38.3958 31.3616 37.9039 31.3256C37.9039 31.3376 37.9039 31.3496 37.9039 31.3616C38.0575 40.0269 32.8185 44.9516 31.6534 45.9369C33.428 45.9643 34.8645 45.9951 35.7142 46.014L35.6799 45.9591C35.7305 45.9214 40.5512 42.2408 41.2964 32.6827ZM37.0264 17.1958C37.0264 17.2129 37.0231 17.2284 37.0182 17.2438C37.0901 17.3243 37.1637 17.4049 37.2356 17.4888C39.4858 20.1071 40.9124 23.529 41.4091 27.393C41.5889 24.6257 41.6804 15.6142 37.1065 1.2257C37.0656 1.23426 37.0362 1.24112 37.0231 1.24455L35.2076 2.15443C35.371 3.29393 36.9954 14.6392 37.028 17.1975L37.0264 17.1958ZM8.49447 17.655C5.45662 21.19 3.93852 26.2175 4.21795 31.8139C4.22612 31.9647 4.23756 32.1087 4.24737 32.2577C4.62485 31.9287 5.62821 31.2605 7.70356 31.0857C7.70846 31.0857 7.71336 31.0874 7.71826 31.0874C7.80651 24.0362 10.6483 20.5903 11.6908 20.1311C12.4523 19.7952 16.9544 18.6146 22.7539 18.5992C22.7539 18.5992 22.7555 18.5992 22.7572 18.5992C22.7752 18.5992 22.7931 18.5992 22.8111 18.5992C22.8291 18.5992 22.847 18.5992 22.865 18.5992C22.865 18.5992 22.8667 18.5992 22.8683 18.5992C28.6678 18.6146 33.1699 19.7952 33.9314 20.1311C34.9739 20.5903 37.8124 24.0328 37.9039 31.084C38.3925 31.1148 40.4483 31.3907 41.3225 32.3451C41.334 32.1686 41.3487 31.9939 41.3569 31.8122C41.6363 26.2158 40.1166 21.1883 37.0803 17.6533C33.8251 13.8664 28.8852 11.8564 22.7899 11.8359C16.6945 11.8564 11.7546 13.8664 8.49938 17.6533L8.49447 17.655ZM8.46343 1.22398C3.89113 15.6125 3.98264 24.624 4.16076 27.3913C4.65754 23.529 6.08413 20.1054 8.33433 17.4871C8.40623 17.4049 8.47813 17.3243 8.55167 17.2421C8.54677 17.2266 8.5435 17.2112 8.5435 17.1941C8.57618 14.6358 10.2005 3.2905 10.3639 2.151L8.5484 1.24112C8.53533 1.23769 8.50591 1.23084 8.46506 1.22227L8.46343 1.22398ZM4.62812 36.5861C4.35849 35.3764 4.15422 34.0398 4.04474 32.5645C4.03657 32.5405 4.03493 32.5165 4.03983 32.4908C4.02349 32.2715 4.00715 32.0521 3.99735 31.8259C3.93852 30.6539 3.95976 29.5058 4.05454 28.3903C4.03983 28.3732 4.02676 28.3509 4.02349 28.3252C3.9712 27.9259 2.78809 18.3713 8.23955 1.19143C7.87677 1.15716 7.28195 1.19485 6.9061 1.70034C6.30147 2.51427 1.21442 21.25 1.46935 27.9311C1.68342 33.56 2.8698 35.4895 3.55776 36.1389C3.89766 36.4593 4.26698 36.6118 4.62812 36.5878V36.5861ZM9.89002 45.9591L9.85734 46.014C10.7136 45.9951 12.168 45.9643 13.9639 45.9369C12.7955 44.9482 7.55975 40.0252 7.71336 31.3598C7.71336 31.3479 7.71336 31.3376 7.71336 31.3273C5.38963 31.5243 4.45163 32.3657 4.26534 32.5593C4.97946 42.2185 9.83937 45.9231 9.89002 45.9608V45.9591Z" fill="#BEE4EF"/>
<path d="M36.3843 16.5755C36.5249 16.8 36.6736 17.009 36.8305 17.1958C39.8128 20.7651 40.9795 25.306 40.9795 25.306C40.9795 25.306 41.0318 21.4505 40.0203 15.0539C39.0088 8.65729 36.8566 1.91626 36.8566 1.91626C36.8566 1.91626 35.5346 2.17329 35.1457 2.43032C35.1457 2.43032 35.0999 2.43889 35.028 2.45259C35.314 4.44886 36.7063 14.2845 36.8027 17.0022C36.667 16.8565 36.5265 16.7143 36.3843 16.5738V16.5755Z" fill="#2EC1DD"/>
<path d="M42.7411 18.5665C42.326 16.7382 41.254 14.5688 41.254 14.5688C41.254 14.5688 42.0499 19.0994 42.1528 23.1365C42.2558 27.1736 42.0842 29.1716 41.5482 30.5047C41.5482 30.5047 41.6135 31.3512 41.4583 32.6055C40.8994 31.819 39.7882 31.4985 38.9532 31.3803C38.9859 30.8851 38.9826 29.8655 38.7309 27.8778C38.3338 24.7369 36.4497 21.2705 35.8434 20.7376C35.2388 20.2047 34.1145 20.0333 33.1635 19.9185C33.1635 19.9185 32.6454 23.3079 32.9036 24.4491C33.1635 25.592 36.0493 31.418 36.3092 31.6082C36.4383 31.7024 37.0821 31.7641 37.6965 31.7967C37.2243 33.1761 36.1359 37.2594 35.5575 39.5007C34.858 42.2132 25.4275 50.2668 31.8316 46.4971C38.2358 42.7273 38.7326 32.3313 38.7326 32.3313C38.7326 32.3313 39.731 32.1188 41.3635 33.3029C41.174 34.7183 40.8864 36.8225 40.8864 36.8225C40.9288 36.8259 40.9713 36.831 41.0138 36.831C41.4044 36.831 41.7949 36.6563 42.1528 36.3187C42.7509 35.7549 43.2395 34.7645 43.6039 33.4108C43.6954 32.8505 43.7918 32.1925 43.8964 31.4163C44.4847 27.0365 43.1529 20.3931 42.7378 18.5648L42.7411 18.5665Z" fill="#2EC1DD"/>
<path d="M29.9671 16.7398C29.57 17.1785 26.4749 16.5684 26.4063 16.493C26.3377 16.4177 25.4732 11.7517 25.4732 11.7517L24.7297 11.7894C24.9552 12.4183 25.836 16.7398 26.0435 16.9488C26.2511 17.1579 28.1532 17.4252 28.7921 17.5006C29.4311 17.576 30.0537 17.3669 30.2449 17.3481C30.4148 17.331 31.5996 14.1404 31.8545 13.4464C31.5424 13.3007 31.2237 13.1637 30.9002 13.0369C30.8675 13.2322 30.3527 16.3148 29.9687 16.7398H29.9671Z" fill="#2EC1DD"/>
<path d="M9.18591 16.5755C9.04537 16.8 8.89667 17.009 8.73979 17.1958C5.7575 20.7651 4.59073 25.306 4.59073 25.306C4.59073 25.306 4.53844 21.4505 5.54997 15.0539C6.56313 8.65729 8.71528 1.91797 8.71528 1.91797C8.71528 1.91797 10.0373 2.175 10.4262 2.43203C10.4262 2.43203 10.472 2.4406 10.5439 2.4543C10.2579 4.45057 8.86562 14.2862 8.7692 17.0039C8.90484 16.8582 9.04537 16.716 9.18754 16.5755H9.18591Z" fill="#2EC1DD"/>
<path d="M2.82917 18.5665C3.24423 16.7382 4.31622 14.5688 4.31622 14.5688C4.31622 14.5688 3.5204 19.0994 3.41745 23.1365C3.3145 27.1736 3.48609 29.1716 4.02208 30.5047C4.02208 30.5047 3.95672 31.3512 4.11196 32.6055C4.67083 31.819 5.78204 31.4985 6.61708 31.3803C6.5844 30.8851 6.58767 29.8655 6.83932 27.8778C7.23642 24.7369 9.12057 21.2705 9.72683 20.7376C10.3315 20.2047 11.4557 20.0333 12.4068 19.9185C12.4068 19.9185 12.9248 23.3079 12.6666 24.4491C12.4068 25.592 9.52093 31.418 9.26111 31.6082C9.13201 31.7024 8.48816 31.7641 7.87373 31.7967C8.34599 33.1761 9.43432 37.2594 10.0128 39.5007C10.7122 42.2132 20.1428 50.2668 13.7386 46.4971C7.33447 42.7273 6.83769 32.3313 6.83769 32.3313C6.83769 32.3313 5.83923 32.1188 4.20674 33.3029C4.3963 34.7183 4.6839 36.8225 4.6839 36.8225C4.64142 36.8259 4.59893 36.831 4.55644 36.831C4.16588 36.831 3.77533 36.6563 3.41745 36.3187C2.81936 35.7549 2.33075 34.7645 1.96634 33.4108C1.87483 32.8505 1.77842 32.1925 1.67383 31.4163C1.08555 27.0365 2.41736 20.3931 2.83243 18.5648L2.82917 18.5665Z" fill="#2EC1DD"/>
<path d="M15.6032 16.7398C16.0003 17.1785 19.0953 16.5684 19.164 16.493C19.2326 16.4177 20.097 11.7517 20.097 11.7517L20.8406 11.7894C20.6151 12.4183 19.7343 16.7398 19.5267 16.9488C19.3192 17.1579 17.4171 17.4252 16.7781 17.5006C16.1392 17.576 15.5166 17.3669 15.3254 17.3481C15.1554 17.331 13.9707 14.1404 13.7158 13.4464C14.0279 13.3007 14.3465 13.1637 14.6701 13.0369C14.7028 13.2322 15.2175 16.3148 15.6015 16.7398H15.6032Z" fill="#2EC1DD"/>
<path d="M23.0105 46.3172C26.0908 46.3172 29.181 46.3515 31.6877 46.3892C31.691 46.3858 31.6943 46.3806 31.6975 46.3789C31.7662 46.3275 38.5543 41.1561 38.3762 31.1439C38.3582 23.0783 35.0164 19.9117 34.3595 19.6238C33.5686 19.276 28.8737 18.0474 22.8078 18.0388C16.7436 18.0457 12.0471 19.2743 11.2562 19.6238C10.5993 19.9134 7.25909 23.08 7.24112 31.1422C7.063 41.1561 13.8512 46.3275 13.9198 46.3789C13.9231 46.3823 13.9263 46.3858 13.9296 46.3892C16.4282 46.3515 19.4971 46.3172 22.5578 46.3172H23.0121H23.0105Z" fill="white"/>
<path d="M24.2688 72.7106C24.4747 73.797 24.6643 75.4677 24.7018 75.8069C24.661 75.8275 24.6381 75.8378 24.6365 75.8378L24.5678 75.8703V75.9509C24.5678 75.9646 24.5711 76.2559 24.5727 76.7151C24.6152 76.7459 24.6561 76.7665 24.6953 76.7682C25.4225 76.8111 26.4585 75.9406 26.4585 75.9406C26.0173 73.9409 25.6545 71.5711 26.0696 70.4573C26.4847 69.3435 29.9327 67.2016 30.8413 66.9446C31.7482 66.6875 31.8267 66.6018 31.8267 66.6018C31.8267 66.6018 30.271 66.631 27.8851 67.887C25.4993 69.143 25.0842 70.0289 24.6953 70.2859C24.4355 70.4573 23.7018 69.9672 23.2426 69.6228V62.318C23.2426 62.318 31.9035 62.0319 32.629 61.804C33.3546 61.5761 34.5475 59.8625 35.4806 59.3485C36.4137 58.8344 36.9333 58.3203 36.9333 58.3203C36.9333 58.3203 37.0886 59.2337 37.2438 61.1185C37.399 63.0034 37.9187 73.1698 37.3467 76.0263C37.3467 76.0263 37.4742 78.0174 38.8028 78.0414C38.7227 76.7082 38.7194 75.7076 38.7194 75.6082V75.5482L38.4089 75.2912C38.4155 75.1866 38.793 69.3127 38.4857 65.5069C38.4514 65.0922 38.4187 64.6656 38.3861 64.2355L38.4089 64.2971C38.4334 64.2852 40.9239 63.1388 42.5367 62.0816C44.3849 60.8701 46.0109 57.9828 45.3883 55.0201C44.7265 51.8723 40.7539 49.0347 39.4482 48.1009L39.4172 48.0786C38.2014 47.2904 37.198 46.8877 36.9023 46.778C36.8222 46.5227 36.7388 46.2948 36.6522 46.1012L36.6375 46.0686C36.5133 46.0994 36.3924 46.1234 36.2764 46.1354C34.2713 46.3633 37.1147 55.4365 36.2846 55.5496C35.4544 55.6644 22.7883 60.1761 22.7883 60.1761V70.5241C23.1625 70.8617 24.0907 71.7767 24.2688 72.7089V72.7106Z" fill="#0478B8"/>
<path d="M3.03156 62.0798C4.60196 63.1097 7.0025 64.2235 7.1512 64.292L7.17245 64.2337C7.17245 64.244 7.17245 64.2543 7.17081 64.2646L7.18225 64.2337C7.14957 64.6638 7.11689 65.0905 7.08257 65.5052C6.77372 69.3264 7.15611 75.2329 7.16101 75.2912H7.16428L6.85052 75.5448V75.6047C6.85052 75.7041 6.84889 76.7065 6.76718 78.038C8.08593 78.0037 8.21502 76.0228 8.21502 76.0228C7.64471 73.1664 8.16273 63 8.31797 61.1151C8.47322 59.2302 8.62846 58.3169 8.62846 58.3169C8.62846 58.3169 9.14648 58.831 10.0812 59.345C11.0143 59.8591 12.2072 61.5726 12.9328 61.8005C13.6583 62.0284 22.3192 62.3146 22.3192 62.3146V69.6194C21.86 69.9638 21.1279 70.4556 20.8665 70.2825C20.4775 70.0255 20.0625 69.1396 17.6766 67.8836C15.2908 66.6275 13.7351 66.5984 13.7351 66.5984C13.7351 66.5984 13.8136 66.6841 14.7205 66.9411C15.6274 67.1982 19.0771 69.3401 19.4922 70.4539C19.9072 71.5677 19.5445 73.9375 19.1032 75.9372C19.1032 75.9372 20.1393 76.8076 20.8665 76.7648C20.9057 76.7631 20.9465 76.7425 20.989 76.7117C20.989 76.2525 20.9923 75.9611 20.9923 75.9474V75.8669L20.9253 75.8343C20.9237 75.8343 20.9008 75.8224 20.8599 75.8035C20.8975 75.4642 21.0854 73.7935 21.293 72.7072C21.4695 71.775 22.3993 70.8583 22.7735 70.5224V60.1744C22.7735 60.1744 10.1073 55.6627 9.27721 55.5479C8.44707 55.4331 11.2905 46.3616 9.28538 46.1337C9.17262 46.12 9.05333 46.0977 8.93241 46.0686L8.91933 46.0994C8.83109 46.2931 8.74775 46.5193 8.66931 46.7763C8.3719 46.8877 7.36854 47.2886 6.14948 48.0803L6.1217 48.1009C4.81603 49.033 0.843458 51.8706 0.181635 55.0184C-0.440969 57.9811 1.18499 60.8684 3.03319 62.0798H3.03156Z" fill="#0478B8"/>
<path d="M44.3391 57.2838C44.2999 57.9384 44.13 58.5964 43.7721 59.119C43.7084 59.2115 43.6381 59.3006 43.5466 59.3572C43.4551 59.4137 43.3374 59.4326 43.2443 59.3794C43.4551 58.6992 43.5155 57.9624 43.4158 57.2512C43.3636 56.8708 43.643 56.6926 43.8767 56.4596C44.1349 56.2009 44.2656 56.5967 44.3228 56.8777C44.3506 57.0096 44.3473 57.1484 44.3391 57.2838ZM43.3113 53.6083C43.2851 53.5106 43.2312 53.4249 43.174 53.3444C42.7475 52.7241 42.2197 52.1895 41.6232 51.7714C41.4663 51.6617 41.1281 51.4355 40.9646 51.6291C40.8274 51.7919 40.8225 52.2734 40.7947 52.4859C40.7849 52.5596 40.7767 52.6367 40.798 52.7087C40.8225 52.7858 40.878 52.8423 40.9336 52.8954C41.5072 53.4369 42.2703 53.7248 42.7638 54.3537C42.7998 54.3999 42.8406 54.4496 42.8946 54.453C42.9517 54.4565 42.9991 54.4068 43.0367 54.3605C43.2083 54.1515 43.3799 53.8807 43.3096 53.61L43.3113 53.6083ZM2.13115 57.2512C2.18344 56.8708 1.90401 56.6926 1.67033 56.4596C1.41213 56.2009 1.2814 56.5967 1.22421 56.8777C1.19643 57.0096 1.1997 57.1484 1.20787 57.2838C1.24709 57.9384 1.41703 58.5964 1.77491 59.119C1.83864 59.2115 1.90891 59.3006 2.00042 59.3572C2.09193 59.4137 2.20959 59.4326 2.30273 59.3794C2.09193 58.6992 2.03147 57.9624 2.13115 57.2512ZM4.58071 51.6291C4.4173 51.4355 4.07903 51.6617 3.92216 51.7714C3.32733 52.1895 2.79951 52.7258 2.37137 53.3444C2.31581 53.4249 2.26025 53.5106 2.2341 53.6083C2.16383 53.879 2.33542 54.1498 2.507 54.3588C2.54459 54.4051 2.59197 54.4565 2.64917 54.4513C2.7031 54.4479 2.74395 54.3965 2.7799 54.3519C3.27341 53.7214 4.03655 53.4352 4.61013 52.8937C4.66569 52.8406 4.72125 52.7824 4.74576 52.707C4.767 52.6367 4.75883 52.5596 4.74903 52.4842C4.72125 52.2734 4.71635 51.7902 4.57908 51.6274L4.58071 51.6291Z" fill="white"/>
<path d="M38.0003 56.7595C37.966 56.7492 37.9284 56.7543 37.9006 56.7818C37.8957 56.7852 37.8941 56.7903 37.8908 56.7955C37.4366 56.8606 36.3515 57.1073 35.1782 58.0223C33.8022 59.0933 32.3446 60.4419 32.1158 60.656H30.6141V52.1604H32.3021C32.4508 52.1604 32.5717 52.0267 32.5717 51.8639V50.757C32.5717 50.5942 32.4508 50.4605 32.3021 50.4605H30.6304V46.1647C33.7434 46.2093 36.0655 46.2641 36.4839 46.2744C37.4774 48.5791 37.935 55.6765 38.0003 56.7595ZM22.5692 46.1047C16.2141 46.1047 9.80993 46.2572 9.08764 46.2744C8.09409 48.5791 7.63653 55.6765 7.57117 56.7595C7.60548 56.7492 7.64307 56.7543 7.67085 56.7818C7.67575 56.7852 7.67739 56.7903 7.68065 56.7955C8.13494 56.8606 9.22001 57.1073 10.3933 58.0223C11.7693 59.0933 13.2269 60.4419 13.4557 60.656H30.3918V52.1604H29.5845C29.4358 52.1604 29.3149 52.0267 29.3149 51.8639V50.757C29.3149 50.5942 29.4358 50.4605 29.5845 50.4605H30.4082V46.1613C28.189 46.1304 25.5907 46.1047 23.0006 46.1047H22.5676H22.5692Z" fill="#1455A2"/>
<path d="M22.633 47.7257C20.4939 47.7823 18.783 49.6243 18.6146 51.7954C18.4463 53.9664 18.2911 57.8064 22.7637 58.449C27.2232 58.1354 27.1971 53.0377 26.8735 51.1957C26.55 49.3536 24.7737 47.6692 22.6346 47.7257H22.633Z" fill="#1A2752"/>
<path d="M22.6723 48.7281C21.1133 48.7693 19.8664 50.1127 19.7439 51.6925C19.6213 53.2741 19.5069 56.0723 22.767 56.5401C26.0157 56.3105 25.9977 52.5973 25.7608 51.2556C25.5238 49.9139 24.2312 48.6853 22.6723 48.7281Z" fill="#2EC1DD"/>
<path d="M32.3022 51.917C32.3283 51.917 32.3512 51.893 32.3512 51.8639V50.757C32.3512 50.7278 32.3299 50.7039 32.3022 50.7039H29.5862C29.5601 50.7039 29.5372 50.7278 29.5372 50.757V51.8639C29.5372 51.893 29.5584 51.917 29.5862 51.917H32.3022Z" fill="#2EC1DD"/>
<path d="M19.1328 54.9088C19.288 54.2953 19.5479 54.2662 19.574 53.8944C19.6002 53.5225 19.677 51.7096 19.7293 51.2812C19.7816 50.8529 19.7946 50.6387 19.7946 50.6387C19.7946 50.6387 19.2635 50.7106 19.0691 51.1819C18.8746 51.6531 18.9661 54.0949 19.0168 54.4513C19.0674 54.8077 19.1328 54.9088 19.1328 54.9088Z" fill="white"/>
<path d="M19.2505 50.6251C19.5871 50.3681 19.8469 50.3681 20.0283 50.2396C20.2097 50.1111 20.6117 49.3263 21.7262 48.855C22.8407 48.3838 24.3457 49.0555 24.3457 49.0555C24.3457 49.0555 24.8899 48.6837 24.8376 48.598C24.7853 48.5123 23.3211 47.5134 21.5056 48.2262C19.6901 48.939 19.2505 50.6251 19.2505 50.6251Z" fill="white"/>
<path d="M19.0037 54.0091C18.9841 54.4872 19.0821 55.5736 19.5021 56.2727C19.9221 56.9718 20.2799 57.1518 20.1574 56.9873C20.0348 56.8228 19.373 55.7518 19.3534 55.1229C19.3338 54.4941 19.4629 54.3159 19.489 54.1514C19.5152 53.9869 19.3142 53.6938 19.2423 53.6938C19.1704 53.6938 19.0021 54.0074 19.0021 54.0074L19.0037 54.0091Z" fill="white"/>
<path d="M24.7395 48.6751C24.5843 48.8396 24.6546 49.0041 24.8049 49.2183C24.9552 49.4325 25.3295 49.8317 25.3948 49.9894C25.4602 50.147 25.4667 50.2464 25.3948 50.1676C25.3229 50.0888 24.9405 49.6535 24.6758 49.3742C24.4111 49.0949 24.2411 49.0384 23.813 48.8465C23.3848 48.6545 23.9878 48.5672 24.2934 48.6031C24.599 48.6391 24.7412 48.6751 24.7412 48.6751H24.7395Z" fill="white"/>
<path d="M21.1475 83.8658C21.4547 84.3455 22.0365 85.7489 22.1639 86.909C20.6197 86.909 5.90596 86.9175 5.74091 86.909C5.58567 86.9004 5.00065 86.921 4.69834 86.6537L4.62317 86.3898C4.69017 86.2099 5.01373 85.3959 5.76869 84.522C5.76869 84.5203 5.77196 84.5186 5.7736 84.5169C5.7736 84.5169 5.77687 84.5135 5.78013 84.5083C5.78504 84.5015 5.78994 84.4963 5.79648 84.4895L5.81445 84.4603C6.06774 84.1125 7.44858 82.2756 9.22815 81.1601C11.0764 79.9932 13.0863 80.1268 13.1076 80.1285C13.1713 80.1337 13.2203 80.0823 13.2252 80.0154C13.2301 79.9486 13.1827 79.8904 13.1223 79.8869C13.0373 79.8801 11.0273 79.7464 9.11866 80.9493C7.81136 81.7684 6.71486 82.9696 6.10859 83.7081C7.0139 80.9819 7.06783 76.4582 7.0711 75.6699L7.42734 75.3752C7.67409 75.281 10.3917 74.21 12.4392 71.6174H15.3153C15.5506 71.8847 16.9968 73.5057 18.1685 74.4139C19.2813 75.2758 20.4873 75.8858 20.7831 76.0315C20.7766 76.7255 20.7488 81.2732 21.0037 83.1838C19.649 81.2081 17.4446 80.0754 14.709 79.9812C14.709 79.9812 14.7074 79.9812 14.7058 79.9812C14.6469 79.9812 14.5979 80.0326 14.5963 80.0994C14.5946 80.1662 14.642 80.2228 14.7025 80.2245C17.5818 80.3239 19.8533 81.5953 21.1263 83.8041C21.1295 83.8161 21.1328 83.8298 21.1377 83.84L21.1508 83.8658H21.1475ZM39.7766 84.4895L39.7586 84.4603C39.7586 84.4603 39.7554 84.4535 39.7537 84.4501C39.4857 84.0834 38.113 82.2653 36.3466 81.1601C34.4984 79.9932 32.4884 80.1268 32.4671 80.1285C32.4018 80.132 32.3544 80.0823 32.3495 80.0154C32.3446 79.9486 32.392 79.8904 32.4524 79.8869C32.5374 79.8818 34.5474 79.7464 36.456 80.9493C37.7601 81.7667 38.8533 82.9627 39.4612 83.703C38.5575 80.9767 38.5036 76.4582 38.502 75.6699L38.1457 75.3752C37.899 75.281 35.1814 74.21 33.1339 71.6174H30.2578C30.0225 71.8847 28.5763 73.5057 27.4046 74.4139C26.2917 75.2758 25.0858 75.8858 24.79 76.0315C24.7965 76.7255 24.8243 81.2817 24.5694 83.1906C25.9224 81.2115 28.1285 80.0771 30.8673 79.9829C30.8673 79.9829 30.8689 79.9829 30.8706 79.9829C30.9294 79.9829 30.9784 80.0343 30.9801 80.1011C30.9817 80.168 30.9343 80.2245 30.8738 80.2262C27.9896 80.3256 25.7149 81.6005 24.4435 83.8161C24.4403 83.8246 24.4386 83.8349 24.4354 83.8418L24.4223 83.8675C24.1151 84.3473 23.5333 85.7506 23.4059 86.9107C25.0661 86.9107 39.6426 86.9193 39.806 86.9107C39.9678 86.9021 40.5871 86.9261 40.8796 86.628L40.9483 86.3915C40.8813 86.2081 40.5479 85.3754 39.775 84.4912L39.7766 84.4895Z" fill="#243C78"/>
<path d="M6.51881 83.3244C6.51881 83.3244 6.68712 82.9817 6.79171 82.3528C6.89466 81.7239 7.16756 79.8682 7.1937 79.5255C7.21985 79.1828 7.55648 79.1965 7.63492 78.811C7.71336 78.4254 7.79016 76.5834 7.77709 76.3126C7.77709 76.0556 8.11208 75.814 8.17908 76.1276C8.22974 76.3657 8.11372 78.1701 8.06306 78.6979C8.01077 79.2256 7.62185 79.5546 7.58263 79.654C7.54341 79.7534 7.07768 82.7521 6.93388 82.9817C6.79171 83.2096 6.51881 83.3244 6.51881 83.3244ZM11.9899 80.3874C11.212 80.4439 9.91617 80.9015 8.32452 82.1198C6.73451 83.3381 6.09393 84.7466 6.09393 84.7466C6.09393 84.7466 8.11699 82.8994 9.5158 82.4231C10.9163 81.9467 12.2644 81.3761 12.5063 80.9563C12.7481 80.5382 12.7661 80.3274 11.9882 80.3857L11.9899 80.3874ZM14.8594 80.5964C13.9786 80.4816 13.4769 80.8055 14.1502 80.9769C14.8251 81.1482 16.0164 81.2048 15.7745 80.9957C15.5327 80.7867 14.8578 80.5964 14.8578 80.5964H14.8594ZM20.3779 79.6968C20.3256 79.397 20.1965 77.1265 20.1573 76.813C20.118 76.4994 19.7683 76.6982 19.7683 76.6982C19.7683 76.6982 19.8468 79.1691 19.989 79.4827C20.1311 79.7962 20.4302 79.9967 20.3779 79.6968ZM14.7254 72.2001C15.0751 72.2139 15.1143 71.7581 15.1143 71.7581L12.5863 71.7872C12.5863 71.7872 12.4572 72.1162 12.8837 72.2156C13.3103 72.315 14.3741 72.1864 14.7254 72.2019V72.2001Z" fill="white"/>
<path d="M38.6458 82.9817C38.5036 82.7538 38.0363 79.7551 37.997 79.654C37.9578 79.5546 37.5689 79.2256 37.5166 78.6979C37.4643 78.1701 37.3483 76.3657 37.4006 76.1276C37.4676 75.8157 37.8026 76.0556 37.8026 76.3126C37.7895 76.5834 37.8679 78.4254 37.9447 78.811C38.0215 79.1965 38.3598 79.1828 38.386 79.5255C38.4121 79.8682 38.6834 81.724 38.788 82.3528C38.8909 82.9817 39.0609 83.3244 39.0609 83.3244C39.0609 83.3244 38.788 83.2096 38.6458 82.9817ZM33.0718 80.958C33.3136 81.3761 34.6618 81.9484 36.0622 82.4248C37.4627 82.9012 39.4841 84.7483 39.4841 84.7483C39.4841 84.7483 38.8451 83.3398 37.2535 82.1215C35.6635 80.9032 34.366 80.4457 33.5882 80.3891C32.8103 80.3326 32.8283 80.5416 33.0701 80.9597L33.0718 80.958ZM29.8051 80.9957C29.5633 81.2048 30.7562 81.1482 31.4295 80.9769C32.1044 80.8055 31.6027 80.4816 30.7202 80.5965C30.7202 80.5965 30.0454 80.7867 29.8035 80.9957H29.8051ZM25.5923 79.4827C25.7345 79.1691 25.813 76.6982 25.813 76.6982C25.813 76.6982 25.4632 76.4977 25.424 76.813C25.3848 77.1266 25.2557 79.397 25.2034 79.6968C25.1511 79.9967 25.4502 79.7962 25.5923 79.4827ZM32.6975 72.2139C33.1257 72.1145 32.995 71.7855 32.995 71.7855L30.467 71.7563C30.467 71.7563 30.5062 72.2139 30.8559 72.1984C31.2056 72.1847 32.2694 72.3132 32.6975 72.2121V72.2139Z" fill="white"/>
<path d="M22.8307 47.7395V45.9832" stroke="#1A2752" stroke-width="0.262533" stroke-miterlimit="10"/>
<path d="M22.8306 60.7915V58.0361" stroke="#1A2752" stroke-width="0.262533" stroke-miterlimit="10"/>
<path d="M23.0023 45.8615C25.9454 45.8615 28.8982 45.894 31.2922 45.93C31.2955 45.9266 31.2971 45.9232 31.302 45.9197C31.3674 45.8718 37.8533 40.9282 37.6833 31.3633C37.6653 23.6576 34.4739 20.6315 33.8464 20.3556C33.0914 20.0232 28.6041 18.8494 22.8095 18.8408C17.0148 18.8477 12.5275 20.0214 11.7725 20.3556C11.145 20.6315 7.95357 23.6576 7.93559 31.3616C7.76564 40.9299 14.2515 45.8718 14.3169 45.9215C14.3201 45.9249 14.3218 45.9283 14.325 45.9317C16.7125 45.8958 19.6458 45.8632 22.5692 45.8632H23.0023V45.8615Z" fill="#1A2752"/>
<path d="M12.8527 66.3107C16.2533 66.8813 18.6359 67.9642 20.1393 69.6195C20.1818 69.6675 20.1818 69.7446 20.1393 69.7909C20.1181 69.8148 20.0903 69.8268 20.0609 69.8268C20.0315 69.8268 20.0053 69.8148 19.9824 69.7909C18.5134 68.1733 16.17 67.1126 12.8184 66.5506C12.7579 66.5403 12.7171 66.4786 12.7253 66.4118C12.7351 66.3449 12.7906 66.2987 12.8511 66.3107H12.8527ZM25.4551 69.8268C25.4829 69.8268 25.5107 69.8148 25.5336 69.7909C27.0027 68.1733 29.346 67.1126 32.6976 66.5506C32.7581 66.5403 32.7989 66.4786 32.7908 66.4118C32.7826 66.3449 32.7254 66.3004 32.6649 66.3107C29.2643 66.8813 26.8817 67.9642 25.3783 69.6195C25.3358 69.6675 25.3358 69.7446 25.3783 69.7909C25.3996 69.8148 25.4274 69.8268 25.4568 69.8268H25.4551ZM42.54 62.08C40.9271 63.1389 38.4367 64.2853 38.4122 64.2956L38.3893 64.2339C38.422 64.664 38.4547 65.0906 38.489 65.5053C38.7962 69.3111 38.4187 75.1833 38.4122 75.2896L38.7227 75.5466V75.6066C38.7227 75.855 38.7374 81.6948 39.9417 84.3165C39.963 84.3456 39.9744 84.3627 39.9777 84.3662C40.8519 85.3823 41.1591 86.3024 41.1722 86.3419L41.1853 86.3813L40.7686 87.8292H23.2033L23.1886 87.7264C23.0219 86.5509 23.7066 84.6643 24.1625 83.8624C24.1658 83.8504 24.1674 83.8384 24.174 83.8281C24.1969 83.787 24.2214 83.7476 24.2459 83.7064C24.6332 82.4521 24.5711 76.0178 24.5711 75.951V75.8705L24.6381 75.8379C24.6397 75.8379 24.6626 75.8259 24.7034 75.8071C24.6659 75.4678 24.4779 73.7971 24.2704 72.7107C24.0939 71.7786 23.1641 70.8618 22.7899 70.526C22.517 70.7607 21.4973 71.6963 21.3044 72.7107C21.0985 73.7971 20.909 75.4678 20.8714 75.8071C20.9123 75.8276 20.9351 75.8379 20.9368 75.8379L21.0054 75.8705V75.951C21.0054 76.0161 20.9417 82.4179 21.3257 83.6962C21.3502 83.7407 21.378 83.7818 21.4025 83.8281C21.4107 83.8418 21.4156 83.8572 21.4172 83.8727C21.8731 84.6814 22.5497 86.5561 22.3846 87.7264L22.3699 87.8292H4.80463L4.38792 86.3813L4.401 86.3419C4.41407 86.3024 4.72619 85.3703 5.61189 84.3456C5.61515 84.3405 5.62169 84.3336 5.62659 84.325C6.83422 81.7068 6.84892 75.855 6.84892 75.6066V75.5466L7.16268 75.293H7.15941C7.15614 75.2347 6.77375 69.3282 7.08097 65.507C7.11529 65.0924 7.14797 64.6657 7.18065 64.2356L7.15777 64.2973C7.13326 64.2853 4.64285 63.1389 3.02996 62.0817C1.18176 60.8702 -0.444204 57.9829 0.1784 55.0202C0.840223 51.8725 4.8128 49.0349 6.11847 48.1027L6.14625 48.0821C7.36531 47.2905 8.36867 46.8895 8.66608 46.7781C8.74615 46.5228 8.82949 46.2949 8.9161 46.1013L8.94551 46.0362H9.01251C9.02395 46.0345 9.22985 46.0293 9.5959 46.0208C8.87525 45.3988 6.03513 42.6331 4.68043 36.826C4.63794 36.8294 4.59546 36.8345 4.55297 36.8345C4.16241 36.8345 3.77185 36.6597 3.41398 36.3222C2.17858 35.157 1.41053 32.1806 1.24876 27.9413C1.10005 24.0602 2.69169 16.6097 3.65256 12.5144C4.94843 6.99167 6.39954 1.99844 6.73617 1.54436C7.39636 0.656747 8.56476 0.994312 8.61378 1.00973L8.63013 1.01659L10.6074 2.00701L10.5944 2.09783C10.5764 2.21949 8.87525 13.9897 8.76903 17.0038C12.0455 13.4979 16.84 11.6319 22.6902 11.5925C22.7212 11.5908 22.7523 11.5925 22.785 11.5925C22.816 11.5925 22.8471 11.5925 22.8798 11.5925C28.7299 11.6336 33.5245 13.4997 36.8009 17.0055C36.6931 13.9914 34.9936 2.2212 34.9756 2.09954L34.9625 2.00872L36.9578 1.01145C37.0068 0.996026 38.1752 0.65846 38.8354 1.54607C39.172 2.00015 40.6231 6.99338 41.919 12.5144C42.8799 16.6097 44.4715 24.0584 44.3228 27.9413C44.161 32.1823 43.3914 35.1587 42.1576 36.3222C41.7997 36.6597 41.4092 36.8345 41.0186 36.8345C40.9761 36.8345 40.9336 36.8311 40.8911 36.826C39.5365 42.6348 36.6963 45.3988 35.9757 46.0208C36.3417 46.0293 36.5476 46.0345 36.5591 46.0345H36.6261L36.6555 46.1013C36.7437 46.2949 36.8271 46.5211 36.9055 46.7781C37.2029 46.8895 38.2063 47.2905 39.4204 48.0787L39.4515 48.101C40.7571 49.0331 44.7297 51.8708 45.3915 55.0202C46.0141 57.9829 44.3882 60.8702 42.54 62.0817V62.08ZM40.128 48.8824C40.1917 49.7768 40.3274 53.6049 38.1965 55.9678C38.1899 55.9747 38.1818 55.9798 38.1736 55.9849C38.2079 56.4921 38.2259 56.8211 38.2291 56.8845L38.2357 57.0062C38.5723 57.378 38.9792 57.6933 39.3224 57.9281C39.3256 57.9281 39.3273 57.9247 39.3306 57.9247C42.9534 57.39 44.362 54.5027 44.5712 53.5329C44.5712 53.5277 44.5761 53.5226 44.5777 53.5175C43.5107 51.5743 41.4467 49.8694 40.128 48.8824ZM36.9888 47.066C37.6392 49.405 38.0036 53.5946 38.1507 55.6662C40.3584 53.0599 39.8976 48.7641 39.8927 48.7196C39.8927 48.7161 39.8927 48.7127 39.8927 48.7076C39.6754 48.5482 39.4842 48.4111 39.3306 48.3015L39.3028 48.2826C38.2684 47.6109 37.3925 47.2271 36.9888 47.066ZM30.6304 46.163V50.4588H32.3022C32.4509 50.4588 32.5718 50.5925 32.5718 50.7552V51.8622C32.5718 52.025 32.4509 52.1586 32.3022 52.1586H30.6141V60.6543H32.1159C32.3446 60.4401 33.8023 59.0916 35.1782 58.0206C36.3532 57.1056 37.4366 56.8606 37.8909 56.7937C37.8941 56.7886 37.8958 56.7835 37.9007 56.78C37.9301 56.7526 37.9677 56.7475 38.0004 56.7577C37.935 55.6748 37.4774 48.5791 36.4839 46.2727C36.0656 46.2624 33.7435 46.2075 30.6304 46.163ZM32.3022 51.9153C32.3283 51.9153 32.3512 51.8913 32.3512 51.8622V50.7552C32.3512 50.7261 32.3299 50.7021 32.3022 50.7021H29.5862C29.5601 50.7021 29.5372 50.7261 29.5372 50.7552V51.8622C29.5372 51.8913 29.5584 51.9153 29.5862 51.9153H32.3022ZM41.2964 32.6809C40.6166 31.6819 38.3958 31.3598 37.904 31.3238C37.904 31.3358 37.904 31.3478 37.904 31.3598C38.0576 40.0251 32.8185 44.9498 31.6534 45.9351C33.4281 45.9625 34.8645 45.9933 35.7142 46.0122L35.6799 45.9574C35.7306 45.9197 40.5512 42.239 41.2964 32.6809ZM37.3304 1.18965C42.7818 18.3695 41.6004 27.9242 41.5464 28.3234C41.5432 28.3491 41.5317 28.3714 41.5154 28.3885C41.6102 29.504 41.6314 30.6521 41.5726 31.8242C41.4843 33.596 41.2556 35.1758 40.9418 36.5843C41.3029 36.6083 41.6723 36.4558 42.0122 36.1354C42.7001 35.486 43.8865 33.5583 44.1006 27.9276C44.3555 21.2465 39.2668 2.51079 38.6622 1.69686C38.2847 1.18965 37.6915 1.15196 37.3287 1.18794L37.3304 1.18965ZM37.0281 17.194C37.0281 17.2112 37.0248 17.2266 37.0199 17.242C37.0918 17.3225 37.1653 17.4031 37.2372 17.487C39.4874 20.1053 40.914 23.5272 41.4108 27.3913C41.5906 24.6239 41.6821 15.6124 37.1081 1.22393C37.0673 1.23249 37.0379 1.23935 37.0248 1.24277L35.2093 2.15266C35.3727 3.29216 36.997 14.6374 37.0297 17.1957L37.0281 17.194ZM8.49613 17.6533C5.45828 21.1883 3.94017 26.2158 4.21961 31.8122C4.22778 31.963 4.23922 32.1069 4.24902 32.256C4.62651 31.927 5.62986 31.2587 7.70521 31.0839C7.71011 31.0839 7.71501 31.0856 7.71992 31.0856C7.80816 24.0344 10.6499 20.5885 11.6925 20.1293C12.454 19.7935 16.956 18.6128 22.7556 18.5974C22.7556 18.5974 22.7572 18.5974 22.7588 18.5974C22.7768 18.5974 22.7948 18.5974 22.8128 18.5974C22.8307 18.5974 22.8487 18.5974 22.8667 18.5974C22.8667 18.5974 22.8683 18.5974 22.8699 18.5974C28.6695 18.6128 33.1715 19.7935 33.933 20.1293C34.9756 20.5885 37.8141 24.031 37.9056 31.0822C38.3942 31.113 40.4499 31.3889 41.3242 32.3434C41.3356 32.1669 41.3503 31.9921 41.3585 31.8105C41.6379 26.2141 40.1182 21.1866 37.082 17.6515C33.8268 13.8646 28.8868 11.8547 22.7915 11.8341C16.6962 11.8547 11.7562 13.8646 8.50103 17.6515L8.49613 17.6533ZM8.46508 1.22221C3.89278 15.6107 3.98429 24.6222 4.16241 27.3895C4.65919 23.5272 6.08578 20.1036 8.33598 17.4853C8.40788 17.4031 8.47979 17.3225 8.55332 17.2403C8.54842 17.2249 8.54515 17.2095 8.54515 17.1923C8.57783 14.634 10.2022 3.28873 10.3656 2.14923L8.55005 1.23935C8.53698 1.23592 8.50757 1.22907 8.46671 1.2205L8.46508 1.22221ZM4.62977 36.5843C4.36014 35.3746 4.15588 34.038 4.04639 32.5627C4.03822 32.5387 4.03658 32.5147 4.04149 32.489C4.02514 32.2697 4.0088 32.0503 3.999 31.8242C3.94017 30.6521 3.96141 29.504 4.05619 28.3885C4.04149 28.3714 4.02841 28.3491 4.02515 28.3234C3.97285 27.9242 2.78974 18.3695 8.2412 1.18965C7.87843 1.15538 7.2836 1.19308 6.90775 1.69857C6.30312 2.5125 1.21607 21.2482 1.471 27.9293C1.68507 33.5583 2.87145 35.4877 3.55942 36.1371C3.89932 36.4575 4.26863 36.6101 4.62977 36.5861V36.5843ZM9.89168 45.9574L9.85899 46.0122C10.7153 45.9933 12.1697 45.9625 13.9656 45.9351C12.7972 44.9464 7.5614 40.0234 7.71501 31.3581C7.71501 31.3461 7.71501 31.3358 7.71501 31.3255C5.39128 31.5226 4.45329 32.3639 4.267 32.5576C4.98111 42.2167 9.84102 45.9214 9.89168 45.9591V45.9574ZM5.70503 48.7196C5.70013 48.7624 5.24257 53.0291 7.42414 55.6388C7.57284 53.5586 7.93562 49.393 8.58437 47.066C8.17911 47.2288 7.30158 47.6143 6.26554 48.286L6.24266 48.3032C6.09559 48.4077 5.91257 48.5396 5.7034 48.6922C5.7034 48.7007 5.70667 48.711 5.70503 48.7213V48.7196ZM1.01017 53.4918C1.01834 53.5038 1.02325 53.5175 1.02651 53.5329C1.23405 54.501 2.64104 57.3849 6.25737 57.9229C6.5989 57.6899 7.00253 57.3746 7.33753 57.0062L7.34407 56.8863C7.34733 56.8229 7.36531 56.487 7.40126 55.9695C5.25401 53.5877 5.40762 49.7203 5.47135 48.8652C4.16078 49.8437 2.08707 51.5486 1.01017 53.4935V53.4918ZM7.54343 58.8071C7.54997 58.7968 7.55814 58.79 7.56467 58.7831C7.62187 57.9075 7.66109 57.2735 7.67416 57.0422C7.65292 57.0388 7.63494 57.0371 7.61697 57.0336C6.862 57.9504 5.67398 58.5587 5.62332 58.5844C5.60862 58.5912 5.59228 58.5947 5.57757 58.5947C5.53672 58.5947 5.49586 58.5689 5.47789 58.5244C5.45174 58.4627 5.47789 58.3907 5.53181 58.3633C5.53672 58.3616 5.7083 58.2725 5.95832 58.1183C2.62143 57.498 1.18993 54.8986 0.861467 53.7779C0.650664 54.2012 0.488885 54.6364 0.397374 55.0751C-0.22523 58.036 1.44485 60.5429 2.82406 61.6379C2.8355 61.6327 2.84857 61.6276 2.86164 61.6276C5.75732 61.4888 7.17902 59.4343 7.54506 58.8088L7.54343 58.8071ZM7.19863 64.0505C7.32772 62.3336 7.44702 60.5789 7.53526 59.2424C6.97639 60.0614 5.59064 61.6362 3.11657 61.8521C3.12637 61.8589 3.13618 61.8658 3.14598 61.8726C4.62487 62.8425 6.85219 63.8895 7.19863 64.0522V64.0505ZM20.7832 76.0298C20.4874 75.8859 19.283 75.2742 18.1686 74.4123C16.9969 73.5058 15.5507 71.8831 15.3154 71.6158H12.4393C10.3917 74.2083 7.67579 75.2793 7.42741 75.3736L7.07117 75.6683C7.06953 76.4565 7.01397 80.9802 6.10866 83.7064C6.71492 82.9679 7.80979 81.7667 9.11873 80.9477C11.0274 79.7448 13.0374 79.8784 13.1224 79.8853C13.1828 79.8904 13.2286 79.947 13.2253 80.0138C13.2204 80.0806 13.1714 80.1303 13.1076 80.1269C13.088 80.1252 11.0764 79.9915 9.22822 81.1584C7.44865 82.2739 6.06781 84.1108 5.81452 84.4587L5.79654 84.4878C5.79654 84.4878 5.78674 84.4998 5.7802 84.5067C5.77693 84.5118 5.7753 84.5152 5.77367 84.5152C5.77367 84.5169 5.7704 84.5187 5.76876 84.5204C5.01543 85.3943 4.69024 86.2082 4.62324 86.3881L4.69841 86.652C5.00236 86.9193 5.58574 86.8988 5.74098 86.9073C5.9044 86.9159 20.6197 86.9073 22.164 86.9073C22.0382 85.7473 21.4564 84.3439 21.1476 83.8641L21.1345 83.8384C21.1312 83.8281 21.128 83.8144 21.1231 83.8024C19.8501 81.5937 17.5786 80.3222 14.6993 80.2228C14.6388 80.2211 14.5914 80.1646 14.5931 80.0977C14.5947 80.0326 14.6437 79.9795 14.7026 79.9795C14.7026 79.9795 14.7042 79.9795 14.7058 79.9795C17.4414 80.0738 19.6458 81.2064 21.0005 83.1821C20.7456 81.2715 20.7734 76.7221 20.7799 76.0298H20.7832ZM22.682 60.8976H13.3773L13.3462 60.8685C13.3299 60.8531 11.7513 59.3726 10.2692 58.2194C9.31483 57.4774 8.41115 57.1913 7.89477 57.0816C7.84738 57.8493 7.58592 62.0594 7.30648 65.5276C7.02541 69.0078 7.32119 74.234 7.37511 75.1371C7.68887 75.0171 10.3264 73.9479 12.3069 71.4153L12.3396 71.3725H15.4101L15.4428 71.4101C15.4592 71.429 17.041 73.2402 18.296 74.2118C19.216 74.9246 20.1965 75.4609 20.6622 75.6991C20.7145 75.2313 20.8943 73.6874 21.0887 72.6576C21.3077 71.5078 22.4418 70.5071 22.682 70.3066V60.8942V60.8976ZM23.0039 45.8614C25.947 45.8614 28.8999 45.894 31.2939 45.9299C31.2972 45.9265 31.2988 45.9231 31.3037 45.9197C31.3691 45.8717 37.8549 40.9282 37.685 31.3632C37.667 23.6575 34.4755 20.6314 33.848 20.3555C33.0931 20.0231 28.6057 18.8493 22.8111 18.8407C17.0165 18.8476 12.5292 20.0214 11.7742 20.3555C11.1467 20.6314 7.95523 23.6575 7.93725 31.3615C7.7673 40.9299 14.2532 45.8717 14.3185 45.9214C14.3218 45.9248 14.3234 45.9282 14.3267 45.9317C16.7142 45.8957 19.6474 45.8631 22.5709 45.8631H23.0039V45.8614ZM22.5709 46.1047C16.2158 46.1047 9.8116 46.2572 9.08932 46.2744C8.09577 48.5791 7.63821 55.6765 7.57284 56.7595C7.60716 56.7492 7.64475 56.7543 7.67253 56.7817C7.67743 56.7852 7.67906 56.7903 7.68233 56.7954C8.13662 56.8606 9.22168 57.1073 10.395 58.0223C11.7709 59.0933 13.2286 60.4418 13.4574 60.656H30.3935V52.1603H29.5862C29.4375 52.1603 29.3166 52.0267 29.3166 51.8639V50.757C29.3166 50.5942 29.4375 50.4605 29.5862 50.4605H30.4098V46.1613C28.1907 46.1304 25.5924 46.1047 23.0023 46.1047H22.5693H22.5709ZM24.9142 75.7025C25.38 75.4644 26.3605 74.9263 27.2805 74.2152C28.5355 73.2436 30.1173 71.4307 30.1337 71.4136L30.1663 71.3759H33.2369L33.2696 71.4187C35.2485 73.9513 37.8876 75.0188 38.2014 75.1405C38.2569 74.2375 38.5511 69.0112 38.27 65.531C37.9906 62.0628 37.7291 57.8527 37.6817 57.085C37.1653 57.1947 36.26 57.4809 35.3073 58.2228C33.8252 59.3777 32.245 60.8565 32.2303 60.8719L32.1992 60.9011H22.9043V70.3152C23.2736 70.6442 24.2916 71.6295 24.4877 72.6627C24.6838 73.6909 24.862 75.2347 24.9142 75.7043V75.7025ZM38.1474 75.3753C37.9007 75.281 35.1831 74.2101 33.1356 71.6175H30.2595C30.0242 71.8848 28.578 73.5058 27.4063 74.414C26.2935 75.2759 25.0875 75.8859 24.7917 76.0315C24.7982 76.7255 24.826 81.2818 24.5711 83.1907C25.9241 81.2115 28.1302 80.0772 30.869 79.9829C30.869 79.9829 30.8707 79.9829 30.8723 79.9829C30.9311 79.9829 30.9801 80.0344 30.9818 80.1012C30.9834 80.168 30.936 80.2245 30.8756 80.2263C27.9913 80.3256 25.7166 81.6005 24.4452 83.8161C24.442 83.8247 24.4403 83.835 24.4371 83.8418L24.424 83.8675C24.1168 84.3473 23.535 85.7507 23.4076 86.9108C25.0679 86.9108 39.6443 86.9193 39.8077 86.9108C39.9695 86.9022 40.5888 86.9262 40.8813 86.628L40.95 86.3915C40.883 86.2082 40.5496 85.3754 39.7767 84.4912L39.7587 84.4621C39.7587 84.4621 39.7554 84.4553 39.7538 84.4518C39.4858 84.0851 38.1131 82.2671 36.3466 81.1619C34.4984 79.9949 32.4884 80.1286 32.4672 80.1303C32.4018 80.1337 32.3544 80.084 32.3495 80.0172C32.3446 79.9504 32.392 79.8921 32.4525 79.8887C32.5375 79.8836 34.5474 79.7482 36.4561 80.9511C37.7602 81.7684 38.8534 82.9645 39.4613 83.7047C38.5576 80.9785 38.5037 76.4599 38.502 75.6717L38.1458 75.377L38.1474 75.3753ZM42.4615 61.8521C39.9597 61.6259 38.5772 60.0083 38.038 59.2047C38.1262 60.5464 38.2455 62.3199 38.3779 64.054C38.7243 63.8929 40.9516 62.8459 42.4305 61.8744C42.4403 61.8675 42.4517 61.8589 42.4615 61.8521ZM45.1791 55.0751C45.0892 54.6467 44.9324 54.2234 44.7297 53.8088C44.3817 54.95 42.9403 57.5134 39.6214 58.1217C39.8682 58.2742 40.0381 58.3616 40.043 58.3633C40.0986 58.3907 40.1231 58.4627 40.097 58.5244C40.079 58.5689 40.0381 58.5947 39.9973 58.5947C39.9826 58.5947 39.9662 58.5912 39.9515 58.5844C39.8992 58.5587 38.7128 57.9504 37.9579 57.0336C37.9399 57.0353 37.9219 57.0388 37.9007 57.0422C37.9154 57.2718 37.953 57.9007 38.0102 58.766C38.0281 58.7746 38.0461 58.7883 38.0576 58.8088C38.4236 59.4343 39.8453 61.4888 42.741 61.6276C42.7475 61.6276 42.7541 61.631 42.759 61.6327C44.1365 60.5361 45.8017 58.0309 45.1791 55.0751ZM27.0501 47.8165C26.9945 47.7891 26.9291 47.8165 26.9046 47.8765C26.8801 47.9382 26.9046 48.0102 26.9602 48.0376C26.9683 48.041 27.7053 48.4231 27.8034 49.6791C27.8083 49.7425 27.8557 49.7905 27.9129 49.7905C27.9161 49.7905 27.9194 49.7905 27.9227 49.7905C27.9831 49.7854 28.0289 49.7254 28.024 49.6586C27.9161 48.2621 27.0876 47.8337 27.0517 47.8165H27.0501ZM18.5722 48.0376C18.6277 48.0102 18.6523 47.9382 18.6277 47.8765C18.6032 47.8148 18.5379 47.7874 18.4823 47.8165C18.4464 47.8337 17.6178 48.2621 17.51 49.6586C17.5051 49.7254 17.5492 49.7837 17.6113 49.7905C17.6146 49.7905 17.6178 49.7905 17.6211 49.7905C17.6783 49.7905 17.7257 49.7425 17.7306 49.6791C17.827 48.4317 18.5411 48.053 18.5738 48.0376H18.5722ZM26.0892 52.0421V53.8773C26.0892 55.877 24.6119 57.5031 22.7964 57.5031C20.9809 57.5031 19.5036 55.877 19.5036 53.8773V52.0421C19.5036 50.0424 20.9809 48.4146 22.7964 48.4146C24.6119 48.4146 26.0892 50.0407 26.0892 52.0421ZM25.6414 52.0541C25.6414 50.3269 24.3652 48.9201 22.7964 48.9201C21.2276 48.9201 19.9514 50.3251 19.9514 52.0541V53.2193C19.9514 54.9465 21.2276 56.3534 22.7964 56.3534C24.3652 56.3534 25.6414 54.9483 25.6414 53.2193V52.0541ZM19.1866 58.7403C18.7193 58.557 18.18 57.9418 18.1016 57.1656C18.095 57.0987 18.0395 57.049 17.9806 57.0576C17.9202 57.0645 17.876 57.1244 17.8826 57.1913C17.9708 58.0755 18.5689 58.754 19.1131 58.9682C19.1262 58.9733 19.1376 58.9751 19.1507 58.9751C19.1964 58.9751 19.2389 58.9442 19.2536 58.8945C19.2749 58.8311 19.2438 58.7626 19.1866 58.7386V58.7403ZM27.0811 53.8379C27.0811 56.4407 25.1594 58.557 22.7964 58.557C20.4335 58.557 18.5117 56.4407 18.5117 53.8379V52.2957C18.5117 49.6929 20.4335 47.5766 22.7964 47.5766C25.1594 47.5766 27.0811 49.6929 27.0811 52.2957V53.8379ZM26.8605 52.2957C26.8605 49.8265 25.0368 47.8183 22.7964 47.8183C20.556 47.8183 18.7323 49.8265 18.7323 52.2957V53.8379C18.7323 56.3071 20.556 58.3153 22.7964 58.3153C25.0368 58.3153 26.8605 56.3071 26.8605 53.8379V52.2957ZM27.5534 57.0593C27.4945 57.0508 27.439 57.1005 27.4324 57.1673C27.354 57.9435 26.8147 58.557 26.3474 58.742C26.2902 58.7643 26.2608 58.8345 26.2804 58.8979C26.2967 58.9476 26.3392 58.9785 26.3833 58.9785C26.3964 58.9785 26.4078 58.9768 26.4209 58.9716C26.9651 58.7574 27.5632 58.0789 27.6514 57.1947C27.658 57.1279 27.6138 57.0679 27.5534 57.061V57.0593Z" fill="#1A2752"/>
<path d="M14.827 22.7345C15.5564 22.2116 15.8768 21.3723 15.5427 20.8598C15.2085 20.3473 14.3464 20.3557 13.617 20.8786C12.8876 21.4015 12.5672 22.2409 12.9013 22.7534C13.2355 23.2659 14.0976 23.2574 14.827 22.7345Z" fill="white"/>
<path d="M11.8363 25.0718C12.1396 24.705 12.1959 24.2353 11.9621 24.0226C11.7282 23.81 11.2927 23.9349 10.9894 24.3017C10.6861 24.6685 10.6298 25.1382 10.8637 25.3509C11.0975 25.5635 11.533 25.4386 11.8363 25.0718Z" fill="white"/>
<path d="M39.3321 53.8516C40.0838 51.9805 40.0969 49.2542 40.0969 49.2542C40.0969 49.2542 40.5512 49.525 41.2506 50.1247C41.95 50.7244 43.9992 52.9812 43.9992 52.9812C43.9992 52.9812 44.2966 53.5244 44.1806 53.8088C44.0646 54.095 43.2214 55.1368 43.2214 55.1368C43.2214 55.1368 43.9208 54.0658 43.8178 53.6374C43.7149 53.2091 40.9663 50.4537 40.7849 50.6525C40.6068 50.8495 39.94 54.693 38.2961 55.7365C38.4481 55.608 38.7945 55.1916 39.3338 53.8516H39.3321ZM38.2945 55.7365C38.2651 55.7554 38.234 55.7759 38.2046 55.7931C38.2046 55.7931 38.2356 55.7879 38.2945 55.7365ZM38.8779 49.124C39.1115 49.4667 39.0854 49.5661 39.1115 50.6953C39.1377 51.8228 38.7357 53.8088 38.7357 53.8088C38.7357 53.8088 38.8272 53.7094 39.203 52.5665C39.5789 51.4236 39.5135 49.2816 39.4498 49.0966C39.3844 48.9115 38.2438 47.868 37.0378 47.5681L37.1931 48.1387C37.1931 48.1387 38.6458 48.7813 38.8779 49.124ZM40.3567 57.8784C40.2309 57.8973 40.1051 57.911 39.976 57.9196C39.976 57.9196 39.9597 58.0224 40.3567 57.8784ZM44.5565 54.1686C44.5565 54.1686 44.0728 55.901 41.9974 57.0628C41.1346 57.546 40.6395 57.7756 40.3567 57.8784C42.736 57.5357 44.3032 55.5823 44.4355 55.6543C44.5744 55.7297 44.8849 56.8349 44.3489 58.4525C43.8129 60.07 43.0874 61.0228 43.0874 61.0228C43.0874 61.0228 44.4699 59.6331 44.9029 57.8424C45.3343 56.0535 44.5565 54.1686 44.5565 54.1686ZM39.0429 60.166C39.0429 60.166 38.5412 59.5954 38.6278 59.8421C38.7144 60.0889 40.3567 61.5934 40.4434 61.8418C40.53 62.0886 38.3696 63.2504 38.2487 63.2881C38.1278 63.3258 38.2667 63.8021 38.3517 63.8021C38.4366 63.8021 42.12 61.8607 42.1543 61.8024C42.1886 61.7442 40.2178 61.4409 39.0429 60.1643V60.166ZM7.2852 55.7348C7.34566 55.7862 7.37508 55.7914 7.37508 55.7914C7.34403 55.7742 7.31461 55.7537 7.2852 55.7348ZM2.35829 55.1351C2.35829 55.1351 1.65889 54.0641 1.76184 53.6357C1.86479 53.2073 4.61339 50.452 4.79478 50.6508C4.97617 50.8495 5.63963 54.6913 7.28357 55.7348C7.13159 55.6063 6.78516 55.1899 6.24589 53.8499C5.49419 51.9787 5.48112 49.2525 5.48112 49.2525C5.48112 49.2525 5.02683 49.5233 4.32742 50.123C3.62801 50.7227 1.57881 52.9795 1.57881 52.9795C1.57881 52.9795 1.2814 53.5226 1.39742 53.8071C1.51345 54.0915 2.35666 55.1351 2.35666 55.1351H2.35829ZM6.1315 49.0949C6.06614 49.2799 6.00241 51.4218 6.37826 52.5648C6.75411 53.7077 6.84562 53.8071 6.84562 53.8071C6.84562 53.8071 6.44362 51.8228 6.46977 50.6936C6.49591 49.5661 6.46977 49.465 6.70345 49.1223C6.93713 48.7796 8.38824 48.137 8.38824 48.137L8.54348 47.5664C7.33749 47.8663 6.19687 48.9081 6.1315 49.0949ZM5.60368 57.9196C5.47458 57.911 5.34712 57.8956 5.22293 57.8784C5.62165 58.0224 5.60368 57.9196 5.60368 57.9196ZM1.14413 55.6543C1.27486 55.5823 2.84363 57.5357 5.22293 57.8784C4.93859 57.7756 4.44508 57.546 3.58226 57.0628C1.50855 55.901 1.02321 54.1686 1.02321 54.1686C1.02321 54.1686 0.245362 56.0535 0.676773 57.8424C1.10818 59.6314 2.49229 61.0228 2.49229 61.0228C2.49229 61.0228 1.76674 60.07 1.23074 58.4525C0.694748 56.8349 1.00523 55.7297 1.14413 55.6543ZM7.33259 63.2898C7.21166 63.2521 5.05134 62.0903 5.13795 61.8435C5.22456 61.5968 6.86686 60.0923 6.95347 59.8439C7.04008 59.5971 6.5384 60.1677 6.5384 60.1677C5.36346 61.4426 3.3927 61.7476 3.42702 61.8058C3.46133 61.8624 7.14303 63.8055 7.22964 63.8055C7.31625 63.8055 7.45515 63.3292 7.33259 63.2915V63.2898Z" fill="#1A2752"/>
<path d="M26.527 44.1497C26.13 43.7418 25.4028 43.5996 24.4092 43.5996C23.6265 43.5996 21.9466 43.5996 21.1949 43.5996C20.2013 43.5996 19.4741 43.7435 19.077 44.1497C18.6799 44.5575 18.559 45.212 18.559 45.212C18.6799 45.2446 19.0264 45.1881 19.0509 45.212C19.077 45.236 19.3009 44.8282 19.345 44.8282C19.3892 44.8282 19.4398 44.7888 19.4398 44.8676C19.4398 44.9464 19.3107 45.1949 19.3107 45.2189C19.3107 45.2429 19.8631 45.2189 19.8631 45.2189C19.8631 45.2189 20.2438 44.6037 20.5804 44.5403C20.8697 44.4855 22.6591 44.5403 22.6591 44.5403H22.7587C22.7587 44.5403 24.7311 44.4855 25.0236 44.5403C25.3603 44.6037 25.741 45.2189 25.741 45.2189C25.741 45.2189 26.2934 45.2429 26.2934 45.2189C26.2934 45.1949 26.1643 44.9482 26.1643 44.8676C26.1643 44.7871 26.2166 44.8282 26.259 44.8282C26.3015 44.8282 26.527 45.236 26.5532 45.212C26.5793 45.1881 26.9241 45.2446 27.0451 45.212C27.0451 45.212 26.9241 44.5575 26.527 44.1497Z" fill="#1455A2"/>
<g filter="url(#filter0_d_9016_11625)">
<path d="M22.7931 48.9202C21.2243 48.9202 19.9481 50.3253 19.9481 52.0542V53.2194C19.9481 53.874 20.1311 54.4823 20.4448 54.9843C20.8632 55.2397 21.3877 55.4299 22.0512 55.5258C25.2149 55.3031 25.3668 51.8692 25.1675 50.3321C24.6576 49.4839 23.785 48.9219 22.7931 48.9219V48.9202Z" fill="#70CDE0"/>
</g>
<path d="M21.842 50.5821C21.2455 50.9385 20.9988 51.7953 20.8043 51.6394C20.6099 51.4817 21.0249 49.9121 22.2571 49.5968C22.2571 49.5968 22.8012 49.4255 22.9189 49.7254C23.0349 50.0252 22.4385 50.2257 21.8436 50.5821H21.842ZM20.7667 52.4961C20.3778 52.4961 20.3647 53.6528 20.7929 53.5962C21.221 53.5397 21.1557 52.4961 20.7667 52.4961Z" fill="white"/>
<path d="M20.0379 54.8129C20.3386 55.901 20.9971 57.1793 22.7457 57.2427C24.7507 57.2735 25.5825 55.3338 25.625 54.5764C25.2459 55.6337 24.2115 56.9377 22.7211 56.8914C20.8729 56.8126 20.0379 54.8146 20.0379 54.8146V54.8129Z" fill="#2EC1DD"/>
<g filter="url(#filter1_d_9016_11625)">
<path d="M12.9066 32.3895C14.3234 32.6174 17.7632 32.3895 17.7632 32.3895C17.7632 32.3895 18.1603 26.9439 15.1355 26.9062C11.8509 26.8496 12.905 32.3895 12.905 32.3895H12.9066Z" fill="#72CCDE"/>
<path d="M32.6927 32.3895C31.2759 32.6174 27.8361 32.3895 27.8361 32.3895C27.8361 32.3895 27.439 26.9439 30.4638 26.9062C33.7484 26.8496 32.6944 32.3895 32.6944 32.3895H32.6927Z" fill="#72CCDE"/>
<path d="M25.6153 37.6948H19.8338C19.6507 37.6948 19.5037 37.532 19.5037 37.3298C19.5037 37.1276 19.6524 36.9648 19.8338 36.9648H25.6153C25.7983 36.9648 25.9454 37.1276 25.9454 37.3298C25.9454 37.532 25.7967 37.6948 25.6153 37.6948Z" fill="#72CCDE"/>
</g>
<path d="M15.75 16.8531C17.0459 17.081 19.2503 16.4813 19.2503 16.4813C19.2503 16.4813 20.2488 11.3407 20.2226 10.9688C20.1965 10.597 18.7061 10.1121 17.0459 10.3982C15.3856 10.6844 14.5963 11.5549 14.5701 11.8976C14.544 12.2403 15.1535 16.5104 15.75 16.8531Z" fill="#BEE4EF" stroke="#1A2752" stroke-width="0.262533" stroke-miterlimit="10" stroke-linecap="round"/>
<path d="M29.8803 16.8531C28.5845 17.081 26.38 16.4813 26.38 16.4813C26.38 16.4813 25.3816 11.3407 25.4077 10.9688C25.4338 10.597 26.9242 10.1121 28.5844 10.3982C30.2431 10.6844 31.034 11.5549 31.0602 11.8976C31.0863 12.2403 30.4768 16.5104 29.8803 16.8531Z" fill="#BEE4EF" stroke="#1A2752" stroke-width="0.262533" stroke-miterlimit="10" stroke-linecap="round"/>
</g>
<defs>
<filter id="filter0_d_9016_11625" x="18.0844" y="47.0565" width="9.00479" height="10.3329" filterUnits="userSpaceOnUse" color-interpolation-filters="sRGB">
<feFlood flood-opacity="0" result="BackgroundImageFix"/>
<feColorMatrix in="SourceAlpha" type="matrix" values="0 0 0 0 0 0 0 0 0 0 0 0 0 0 0 0 0 0 127 0" result="hardAlpha"/>
<feOffset/>
<feGaussianBlur stdDeviation="0.931809"/>
<feColorMatrix type="matrix" values="0 0 0 0 0.180392 0 0 0 0 0.760784 0 0 0 0 0.862745 0 0 0 1 0"/>
<feBlend mode="normal" in2="BackgroundImageFix" result="effect1_dropShadow_9016_11625"/>
<feBlend mode="normal" in="SourceGraphic" in2="effect1_dropShadow_9016_11625" result="shape"/>
</filter>
<filter id="filter1_d_9016_11625" x="11.4127" y="25.5746" width="22.7738" height="13.4514" filterUnits="userSpaceOnUse" color-interpolation-filters="sRGB">
<feFlood flood-opacity="0" result="BackgroundImageFix"/>
<feColorMatrix in="SourceAlpha" type="matrix" values="0 0 0 0 0 0 0 0 0 0 0 0 0 0 0 0 0 0 127 0" result="hardAlpha"/>
<feOffset/>
<feGaussianBlur stdDeviation="0.665578"/>
<feColorMatrix type="matrix" values="0 0 0 0 0.180392 0 0 0 0 0.760784 0 0 0 0 0.862745 0 0 0 1 0"/>
<feBlend mode="normal" in2="BackgroundImageFix" result="effect1_dropShadow_9016_11625"/>
<feBlend mode="normal" in="SourceGraphic" in2="effect1_dropShadow_9016_11625" result="shape"/>
</filter>
<clipPath id="clip0_9016_11625">
<rect width="45.4811" height="86.8949" fill="white" transform="translate(0.0444336 0.934326)"/>
</clipPath>
</defs>
</svg>
