<svg width="99" height="13" viewBox="0 0 99 13" fill="none" xmlns="http://www.w3.org/2000/svg">
<g clip-path="url(#clip0_1546_10012)">
<path d="M99 1.84808C99 2.8792 98.1524 3.71995 97.1128 3.71995C97.1048 3.71995 97.0888 3.71995 97.0808 3.71995C96.0332 3.72789 95.1696 2.88713 95.1616 1.84808C95.1856 0.816965 96.0412 -0.00792833 97.0808 3.33221e-06C98.1204 -0.0237917 98.976 0.79317 99 1.82429C99 1.83222 99 1.84015 99 1.84808ZM95.6814 1.84808C95.6814 2.60952 96.3051 3.22819 97.0728 3.22819C97.8405 3.22819 98.4642 2.60952 98.4642 1.84808C98.4642 1.08664 97.8405 0.467972 97.0728 0.467972C96.3051 0.467972 95.6814 1.08664 95.6814 1.84808ZM96.8169 2.76815H96.3291V0.999393C96.577 0.959735 96.8249 0.943872 97.0728 0.943872C97.3047 0.920077 97.5366 0.967667 97.7365 1.07871C97.8645 1.16596 97.9444 1.30873 97.9364 1.46736C97.9045 1.67358 97.7445 1.84015 97.5366 1.87188C97.7285 1.94326 97.8645 2.11776 97.8805 2.32398C97.9045 2.47468 97.9524 2.61745 98.0084 2.75229H97.4646C97.4007 2.62538 97.3607 2.48261 97.3367 2.33984C97.3287 2.18121 97.1847 2.06224 97.0328 2.0781C97.0248 2.0781 97.0168 2.0781 97.0008 2.0781H96.8169V2.76815ZM96.8169 1.7529H97.0088C97.2167 1.7529 97.3687 1.67358 97.3687 1.52288C97.3687 1.37218 97.2487 1.277 97.0248 1.277H96.8169V1.7529Z" fill="#323C46"/>
<path d="M4.63013 12.4289L2.39903 8.93899H1.42342V12.4289H0V3.70409H3.11074C3.94241 3.64063 4.75808 3.90238 5.39782 4.4338C5.91761 4.93349 6.1975 5.63148 6.1735 6.34533C6.1975 6.95607 5.99758 7.55888 5.59774 8.03478C5.15792 8.50274 4.55816 8.79622 3.91842 8.87553L6.22948 12.4289H4.63013ZM1.42342 7.93166H3.02278C4.14233 7.93166 4.71809 7.43197 4.71809 6.42465C4.74208 6.0122 4.59015 5.60769 4.30226 5.30628C3.93441 5.01281 3.4706 4.86211 2.99879 4.90177H1.39943L1.42342 7.93166Z" fill="#323C46"/>
<path d="M8.14871 4.83038V7.47956H11.3954V8.5662H8.14871V11.2788H11.7712V12.4289H6.72528V3.70409H11.7712V4.83038H8.14871Z" fill="#323C46"/>
<path d="M17.8408 11.2947C17.6169 11.6754 17.289 11.9847 16.8972 12.183C16.4094 12.421 15.8736 12.532 15.3378 12.5162C14.786 12.5241 14.2422 12.421 13.7385 12.1989C13.2826 12.0085 12.8908 11.6992 12.5949 11.3105C12.315 10.9298 12.1471 10.4777 12.1151 10.0018H13.5945C13.6345 10.3746 13.8104 10.7236 14.0903 10.9774C14.4022 11.263 14.818 11.4057 15.2418 11.3899C15.6097 11.4137 15.9775 11.2868 16.2494 11.0409C16.4893 10.8029 16.6093 10.4857 16.6013 10.1525C16.6173 9.86699 16.5213 9.58145 16.3374 9.35936C16.1535 9.16107 15.9376 8.9945 15.6897 8.88346C15.4338 8.77242 15.0819 8.63758 14.6341 8.48688C14.1783 8.34411 13.7225 8.17754 13.2906 7.97132C12.9388 7.78096 12.6349 7.51128 12.411 7.17815C12.1551 6.79743 12.0271 6.34533 12.0511 5.88529C12.0351 5.44905 12.1551 5.02074 12.395 4.64795C12.6429 4.29102 12.9868 4.01342 13.3946 3.85478C13.8664 3.64856 14.3782 3.55338 14.89 3.56131C15.6577 3.52165 16.4174 3.74374 17.0331 4.20378C17.5609 4.61622 17.8888 5.22696 17.9368 5.88529H16.4334C16.3774 5.56802 16.2254 5.28248 15.9935 5.0604C15.7057 4.81451 15.3298 4.67968 14.946 4.70347C14.6021 4.68761 14.2582 4.79072 13.9863 5.00487C13.7305 5.21903 13.5785 5.54423 13.5945 5.87736C13.5785 6.14703 13.6665 6.40878 13.8424 6.615C14.0103 6.81329 14.2263 6.97193 14.4742 7.07504C14.73 7.18608 15.0739 7.31299 15.5137 7.46369C15.9855 7.60646 16.4414 7.78096 16.8812 7.98718C17.241 8.17754 17.5449 8.44722 17.7768 8.78035C18.0407 9.17693 18.1767 9.63697 18.1527 10.1129C18.1527 10.5253 18.0487 10.9378 17.8408 11.2947Z" fill="#323C46"/>
<path d="M20.0879 4.83038V7.47956H23.3266V8.5662H20.0879V11.2788H23.7024V12.4289H18.6645V3.70409H23.7024V4.83038H20.0879Z" fill="#323C46"/>
<path d="M29.9719 10.5332H26.2534L25.5897 12.4289H24.0703L27.301 3.82306H28.9003L32.099 12.4289H30.5797L29.9719 10.5332ZM29.5881 9.44661L28.1087 5.3618L26.6532 9.44661H29.5881Z" fill="#323C46"/>
<path d="M37.2889 12.4289L35.0978 8.93899H34.0822V12.4289H32.6588V3.70409H35.7696C36.6012 3.64063 37.4169 3.90238 38.0566 4.4338C38.5924 4.93349 38.8803 5.63941 38.8563 6.36913C38.8803 6.97986 38.6724 7.58267 38.2725 8.05064C37.8327 8.51861 37.233 8.81208 36.5932 8.8914L38.9043 12.4448L37.2889 12.4289ZM34.0902 7.93166H35.6896C36.8331 7.93166 37.4089 7.43197 37.4089 6.42465C37.4329 6.0122 37.2809 5.60769 36.9931 5.30628C36.6252 5.00488 36.1614 4.86211 35.6896 4.90177H34.0902V7.93166Z" fill="#323C46"/>
<path d="M46.0534 4.41793C46.7731 4.97315 47.2849 5.75838 47.5008 6.6388H45.9894C45.7975 6.12324 45.4536 5.687 44.9978 5.37766C44.502 5.0604 43.9263 4.90176 43.3345 4.91763C42.8387 4.9097 42.3509 5.04453 41.9271 5.29835C41.5032 5.56802 41.1674 5.94875 40.9515 6.39292C40.7115 6.91641 40.5916 7.48749 40.5996 8.05857C40.5916 8.62965 40.7115 9.1928 40.9515 9.70835C41.1674 10.1525 41.5032 10.5332 41.9271 10.8029C42.3509 11.0647 42.8387 11.1995 43.3345 11.1916C43.9263 11.2074 44.502 11.0488 44.9978 10.7236C45.4456 10.4301 45.7895 10.0098 45.9894 9.51799H47.5008C47.2849 10.3984 46.7731 11.1757 46.0534 11.7309C45.2697 12.2861 44.3181 12.5638 43.3585 12.5241C42.5828 12.54 41.8231 12.3496 41.1514 11.9609C40.5116 11.5882 39.9918 11.0329 39.664 10.3746C39.3041 9.66076 39.1202 8.8676 39.1362 8.0665C39.1202 7.2654 39.3041 6.47223 39.664 5.75838C39.9918 5.10006 40.5116 4.54484 41.1514 4.17205C41.8231 3.7834 42.5828 3.58511 43.3585 3.60097C44.3261 3.56924 45.2697 3.85478 46.0534 4.41793Z" fill="#323C46"/>
<path d="M55.2577 3.68823V12.4131H53.8183V8.50275H49.6759V12.4289H48.2525V3.7041H49.6759V7.35266H53.8183V3.68823H55.2577Z" fill="#323C46"/>
<path d="M76.0653 11.3264H79.112V12.4289H74.6498V3.70409H76.0653V11.3264Z" fill="#323C46"/>
<path d="M81.0313 6.60708V12.4289H79.6078V6.60708H81.0313ZM81.4071 4.759C81.4071 4.16413 80.9273 3.68029 80.3275 3.67236C79.7278 3.67236 79.24 4.14826 79.232 4.74314C79.232 5.33801 79.7118 5.82184 80.3116 5.82978C80.9113 5.82978 81.3911 5.35388 81.3991 4.759H81.4071Z" fill="#323C46"/>
<path d="M87.7645 8.67724C88.0924 9.0659 88.2683 9.55766 88.2603 10.0653C88.2923 10.7236 88.0204 11.3502 87.5246 11.7865C86.9169 12.2465 86.1572 12.4765 85.3895 12.4289H81.8789V3.70409H85.3255C86.0532 3.6565 86.7729 3.86272 87.3567 4.29103C87.8205 4.68762 88.0764 5.27456 88.0604 5.87737C88.0844 6.3612 87.9245 6.8371 87.6206 7.21782C87.3247 7.56681 86.9249 7.80476 86.4771 7.90787C86.9888 8.00305 87.4447 8.27273 87.7645 8.67724ZM83.3023 7.45577H85.0616C85.4695 7.49543 85.8773 7.37645 86.2052 7.1385C86.4771 6.89262 86.621 6.5357 86.597 6.17084C86.621 5.81391 86.4771 5.46492 86.2052 5.21904C85.8613 4.96523 85.4375 4.83832 85.0136 4.87005H83.3023V7.45577ZM86.3651 10.8981C86.669 10.6443 86.8289 10.2636 86.8049 9.87493C86.8209 9.48627 86.661 9.10555 86.3571 8.85174C85.9972 8.58207 85.5494 8.45516 85.0936 8.47895H83.3103V11.263H85.1096C85.5574 11.2947 86.0052 11.1599 86.3651 10.8981Z" fill="#323C46"/>
<path d="M94.3619 11.2947C94.138 11.6754 93.8101 11.9848 93.4183 12.183C92.9304 12.421 92.3947 12.532 91.8589 12.5162C91.3071 12.5162 90.7633 12.4131 90.2595 12.1989C89.8117 12.0006 89.4199 11.6992 89.124 11.3106C88.8441 10.9298 88.6762 10.4777 88.6362 10.0018H90.1636C90.2036 10.3746 90.3795 10.7157 90.6514 10.9774C90.9632 11.263 91.3871 11.4137 91.8109 11.3899C92.1788 11.4137 92.5386 11.2868 92.8105 11.0409C93.0504 10.8109 93.1863 10.4857 93.1704 10.1525C93.1863 9.867 93.0904 9.58146 92.9065 9.35937C92.7225 9.16108 92.5066 8.99451 92.2587 8.88347C92.0028 8.77243 91.643 8.63759 91.1952 8.48689C90.7393 8.34412 90.2915 8.16962 89.8597 7.97133C89.5078 7.78097 89.204 7.51129 88.98 7.17816C88.7162 6.79744 88.5882 6.34534 88.6122 5.8853C88.6042 5.44906 88.7242 5.01282 88.9641 4.64796C89.212 4.29104 89.5558 4.01343 89.9636 3.8548C90.4355 3.64857 90.9473 3.55339 91.459 3.56132C92.2267 3.52167 92.9864 3.75168 93.6022 4.20379C94.122 4.61624 94.4498 5.22697 94.5058 5.8853H92.9704C92.9145 5.5601 92.7465 5.26663 92.4986 5.04455C91.9149 4.59244 91.1072 4.56865 90.4994 4.98902C90.2515 5.21111 90.1156 5.52838 90.1396 5.86151C90.1236 6.13118 90.2115 6.39293 90.3875 6.59915C90.5554 6.79744 90.7713 6.95608 91.0192 7.05919C91.2671 7.17023 91.619 7.29714 92.0588 7.44784C92.5306 7.59061 92.9864 7.76511 93.4262 7.97133C93.7861 8.16169 94.09 8.43137 94.3219 8.7645C94.5858 9.16108 94.7137 9.62905 94.6897 10.097C94.6897 10.5174 94.5778 10.9298 94.3619 11.2947Z" fill="#323C46"/>
<path fill-rule="evenodd" clip-rule="evenodd" d="M63.1745 6.17877L63.7582 6.97194C63.7822 7.02746 63.7822 7.08298 63.7582 7.1385C63.7343 7.20989 63.6783 7.25748 63.6063 7.27334L63.2784 7.313C63.1985 7.32887 63.1345 7.37645 63.1025 7.44784C63.0865 7.49543 63.0865 7.53509 63.1025 7.58268C63.1185 7.67786 63.1425 7.76511 63.1745 7.85235C63.2145 7.89994 63.2145 7.97133 63.1745 8.01892H63.0785C63.0785 8.01892 63.2704 8.20928 62.9746 8.38378V8.9152C63.0305 9.19281 62.8386 9.46248 62.5587 9.518C62.4948 9.52594 62.4388 9.52594 62.3748 9.518L61.5751 9.43076C61.3592 9.40696 61.1513 9.53387 61.0873 9.74009C60.9434 10.1605 60.8394 10.5967 60.7755 11.0409C60.7515 11.5326 60.8314 12.0165 60.9994 12.4765C61.0713 12.6827 60.9594 12.9128 60.7515 12.9762C60.7115 12.9921 60.6715 13 60.6235 13H57.009C56.6491 13 56.3612 12.7145 56.3612 12.3575C56.3612 12.2465 56.3852 12.1434 56.4412 12.0482C56.8171 11.3661 57.2409 10.7078 57.7127 10.0812C58.0006 9.70836 58.1525 9.24833 58.1445 8.78036C58.1605 8.64552 58.1605 8.51861 58.1445 8.38378C58.0805 8.01099 56.993 6.3612 57.041 5.36181C57.1129 4.01343 58.1045 2.89506 59.44 2.64125C61.0473 2.3795 63.1745 3.96584 63.0865 5.38561C63.0945 5.48079 63.0945 5.5839 63.0865 5.67908C63.0385 5.85357 63.0705 6.036 63.1745 6.17877Z" fill="#FC4F00"/>
<path d="M73.3624 4.75901L72.1708 12.4844C72.1149 12.8255 71.787 13.0635 71.4431 13.0159L68.2444 12.532C67.9006 12.4765 67.6607 12.1592 67.7166 11.8182L67.9725 10.1525C68.0445 10.1843 68.1165 10.2001 68.1964 10.2001L67.9485 11.7865C67.9086 12.0244 68.0765 12.2465 68.3164 12.2862L71.4191 12.7541C71.651 12.7938 71.875 12.6351 71.9149 12.3972C71.9149 12.3972 71.9149 12.3972 71.9149 12.3893L73.1065 4.68762C73.1384 4.46553 72.9945 4.25138 72.7706 4.20379L72.1229 4.10861C72.0829 4.10068 72.0349 4.12447 72.0269 4.17206V4.3069C72.0109 4.38622 71.9389 4.43381 71.859 4.42588L70.5075 4.21965C70.4275 4.21965 70.3636 4.14827 70.3716 4.06895V4.05309V3.92618C70.3796 3.88652 70.3556 3.83893 70.3076 3.831L69.6519 3.73582C69.4199 3.69616 69.196 3.8548 69.1561 4.09275C69.1561 4.09275 69.1561 4.09275 69.1561 4.10068L68.7242 6.90849C68.6763 6.82124 68.6123 6.74192 68.5243 6.6864L68.9321 4.05309C68.9881 3.70409 69.308 3.46614 69.6599 3.52167L72.8586 4.0055C73.2024 4.06895 73.4343 4.40208 73.3624 4.75107V4.76694V4.75901Z" fill="#1E4F5B"/>
<path d="M63.5743 7.84442C63.6303 7.84442 63.6703 7.88408 63.6703 7.9396V8.85174C63.6703 8.90726 63.6303 8.94692 63.5743 8.94692C63.5183 8.94692 63.4783 8.90726 63.4783 8.85174V7.9396C63.4783 7.88408 63.5183 7.84442 63.5743 7.84442Z" fill="#00C3B6"/>
<path d="M63.8622 7.36852C63.9182 7.36852 63.9582 7.40817 63.9582 7.46369V9.31971C63.9582 9.37523 63.9182 9.41489 63.8622 9.41489C63.8062 9.41489 63.7662 9.37523 63.7662 9.31971V7.46369C63.7662 7.40817 63.8062 7.36852 63.8622 7.36852Z" fill="#00C3B6"/>
<path d="M64.1501 7.55095C64.2061 7.55095 64.246 7.59061 64.246 7.64613V9.14521C64.246 9.20074 64.2061 9.24039 64.1501 9.24039C64.0941 9.24039 64.0541 9.20074 64.0541 9.14521V7.64613C64.0541 7.59061 64.0941 7.55095 64.1501 7.55095Z" fill="#00C3B6"/>
<path d="M64.446 7.27333C64.5019 7.27333 64.5419 7.31299 64.5419 7.36851V9.42281C64.5419 9.47833 64.5019 9.51799 64.446 9.51799C64.39 9.51799 64.35 9.47833 64.35 9.42281V7.36851C64.35 7.31299 64.39 7.27333 64.446 7.27333Z" fill="#00C3B6"/>
<path d="M64.7338 7.06711C64.7898 7.06711 64.8298 7.10677 64.8298 7.16229V9.62904C64.8298 9.68456 64.7898 9.72422 64.7338 9.72422C64.6779 9.72422 64.6379 9.68456 64.6379 9.62904V7.16229C64.6379 7.10677 64.6779 7.06711 64.7338 7.06711Z" fill="#00C3B6"/>
<path d="M65.8934 7.55095C65.9494 7.55095 65.9893 7.59061 65.9893 7.64613V9.14521C65.9893 9.20074 65.9494 9.24039 65.8934 9.24039C65.8374 9.24039 65.7974 9.20074 65.7974 9.14521V7.64613C65.7974 7.59061 65.8374 7.55095 65.8934 7.55095Z" fill="#00C3B6"/>
<path d="M65.6055 7.27333C65.6615 7.27333 65.7014 7.31299 65.7014 7.36851V9.42281C65.7014 9.47833 65.6615 9.51799 65.6055 9.51799C65.5495 9.51799 65.5095 9.47833 65.5095 9.42281V7.36851C65.5095 7.31299 65.5495 7.27333 65.6055 7.27333Z" fill="#00C3B6"/>
<path d="M65.3096 7.06711C65.3656 7.06711 65.4056 7.10677 65.4056 7.16229V9.62904C65.4056 9.68456 65.3656 9.72422 65.3096 9.72422C65.2536 9.72422 65.2137 9.68456 65.2137 9.62904V7.16229C65.2137 7.10677 65.2536 7.06711 65.3096 7.06711Z" fill="#00C3B6"/>
<path d="M65.0217 6.78157C65.0777 6.78157 65.1177 6.82123 65.1177 6.87675V9.90665C65.1177 9.96217 65.0777 10.0018 65.0217 10.0018C64.9658 10.0018 64.9258 9.96217 64.9258 9.90665V6.87675C64.9258 6.82123 64.9658 6.78157 65.0217 6.78157Z" fill="#00C3B6"/>
<path d="M66.1813 7.70164C66.2372 7.70164 66.2772 7.7413 66.2772 7.79682V8.99451C66.2772 9.05003 66.2372 9.08969 66.1813 9.08969C66.1253 9.08969 66.0853 9.05003 66.0853 8.99451V7.79682C66.0853 7.7413 66.1253 7.70164 66.1813 7.70164Z" fill="#00C3B6"/>
<path d="M66.4771 7.70164C66.5331 7.70164 66.5731 7.7413 66.5731 7.79682V8.99451C66.5731 9.05003 66.5331 9.08969 66.4771 9.08969C66.4211 9.08969 66.3812 9.05003 66.3812 8.99451V7.79682C66.3812 7.7413 66.4211 7.70164 66.4771 7.70164Z" fill="#00C3B6"/>
<path d="M67.6367 7.55095C67.6926 7.55095 67.7326 7.59061 67.7326 7.64613V9.14521C67.7326 9.20074 67.6926 9.24039 67.6367 9.24039C67.5807 9.24039 67.5407 9.20074 67.5407 9.14521V7.64613C67.5407 7.59061 67.5807 7.55095 67.6367 7.55095Z" fill="#00C3B6"/>
<path d="M67.9245 7.27333C67.9805 7.27333 68.0205 7.31299 68.0205 7.36851V9.42281C68.0205 9.47833 67.9805 9.51799 67.9245 9.51799C67.8686 9.51799 67.8286 9.47833 67.8286 9.42281V7.36851C67.8286 7.31299 67.8686 7.27333 67.9245 7.27333Z" fill="#00C3B6"/>
<path d="M68.2204 7.06711C68.2764 7.06711 68.3164 7.10677 68.3164 7.16229V9.62904C68.3164 9.68456 68.2764 9.72422 68.2204 9.72422C68.1645 9.72422 68.1245 9.68456 68.1245 9.62904V7.16229C68.1245 7.10677 68.1645 7.06711 68.2204 7.06711Z" fill="#00C3B6"/>
<path d="M67.0529 7.70164C67.1089 7.70164 67.1489 7.7413 67.1489 7.79682V8.99451C67.1489 9.05003 67.1089 9.08969 67.0529 9.08969C66.9969 9.08969 66.9569 9.05003 66.9569 8.99451V7.79682C66.9569 7.7413 66.9969 7.70164 67.0529 7.70164Z" fill="#00C3B6"/>
<path d="M67.3488 7.70164C67.4048 7.70164 67.4447 7.7413 67.4447 7.79682V8.99451C67.4447 9.05003 67.4048 9.08969 67.3488 9.08969C67.2928 9.08969 67.2528 9.05003 67.2528 8.99451V7.79682C67.2528 7.7413 67.2928 7.70164 67.3488 7.70164Z" fill="#00C3B6"/>
<path d="M66.765 7.92374C66.821 7.92374 66.861 7.96339 66.861 8.01892V8.76449C66.861 8.82001 66.821 8.85967 66.765 8.85967C66.709 8.85967 66.6691 8.82001 66.6691 8.76449V8.01892C66.6691 7.96339 66.709 7.92374 66.765 7.92374Z" fill="#00C3B6"/>
<path d="M68.5083 7.55095C68.5643 7.55095 68.6043 7.59061 68.6043 7.64613V9.14521C68.6043 9.20074 68.5643 9.24039 68.5083 9.24039C68.4523 9.24039 68.4124 9.20074 68.4124 9.14521V7.64613C68.4124 7.59061 68.4523 7.55095 68.5083 7.55095Z" fill="#00C3B6"/>
<path d="M68.7962 7.70164C68.8522 7.70164 68.8922 7.7413 68.8922 7.79682V8.99451C68.8922 9.05003 68.8522 9.08969 68.7962 9.08969C68.7402 9.08969 68.7003 9.05003 68.7003 8.99451V7.79682C68.7003 7.7413 68.7402 7.70164 68.7962 7.70164Z" fill="#00C3B6"/>
<path d="M69.0841 7.70164C69.1401 7.70164 69.1801 7.7413 69.1801 7.79682V8.99451C69.1801 9.05003 69.1401 9.08969 69.0841 9.08969C69.0281 9.08969 68.9881 9.05003 68.9881 8.99451V7.79682C68.9881 7.7413 69.0281 7.70164 69.0841 7.70164Z" fill="#00C3B6"/>
<path d="M69.38 7.92374C69.4359 7.92374 69.4759 7.96339 69.4759 8.01892V8.76449C69.4759 8.82001 69.4359 8.85967 69.38 8.85967C69.324 8.85967 69.284 8.82001 69.284 8.76449V8.01892C69.284 7.96339 69.324 7.92374 69.38 7.92374Z" fill="#00C3B6"/>
</g>
<defs>
<clipPath id="clip0_1546_10012">
<rect width="99" height="13" fill="white"/>
</clipPath>
</defs>
</svg>
