<svg width="359" height="45" viewBox="0 0 359 45" fill="none" xmlns="http://www.w3.org/2000/svg">
<path d="M358.69 5.25C358.69 8.02 356.45 10.27 353.68 10.27C353.65 10.27 353.62 10.27 353.59 10.27C350.8 10.29 348.51 8.05 348.49 5.26C348.55 2.49 350.82 0.279996 353.59 0.309996C356.35 0.249996 358.63 2.44 358.69 5.2C358.69 5.22 358.69 5.24 358.69 5.27V5.25ZM349.87 5.25C349.87 7.29 351.53 8.95 353.57 8.95C355.61 8.95 357.27 7.29 357.27 5.25C357.27 3.21 355.61 1.55 353.57 1.55C351.53 1.55 349.87 3.21 349.87 5.25ZM352.89 7.71H351.59V2.97C352.24 2.87 352.9 2.82 353.57 2.82C354.18 2.76 354.8 2.89 355.33 3.18C355.68 3.41 355.88 3.81 355.86 4.22C355.78 4.78 355.35 5.22 354.8 5.3C355.31 5.5 355.66 5.97 355.71 6.51C355.78 6.9 355.89 7.29 356.05 7.66H354.61C354.44 7.31 354.33 6.94 354.27 6.56C354.24 6.14 353.88 5.82 353.45 5.85C353.42 5.85 353.4 5.85 353.37 5.85H352.88V7.7L352.89 7.71ZM352.89 4.99H353.4C353.95 4.99 354.36 4.78 354.36 4.37C354.36 3.96 354.04 3.71 353.45 3.71H352.9V4.98L352.89 4.99Z" fill="#C68FA6"/>
<path d="M17.0799 42.4L8.90989 29.52H5.33988V42.4H0.129883V10.2H11.5199C14.5499 9.97999 17.5599 10.94 19.8899 12.89C21.7899 14.74 22.8199 17.3 22.7299 19.94C22.8299 22.21 22.0799 24.43 20.6199 26.18C18.9999 27.9 16.8199 29 14.4699 29.28L22.9299 42.39H17.0799V42.4ZM5.33988 25.8H11.1899C15.2899 25.8 17.3999 23.96 17.3999 20.24C17.4799 18.71 16.9299 17.22 15.8799 16.11C14.5399 15.01 12.8299 14.48 11.1099 14.62H5.25989L5.34988 25.8H5.33988Z" fill="#C68FA6"/>
<path d="M29.96 14.36V24.14H41.85V28.15H29.96V38.16H43.22V42.4H24.75V10.2H43.22V14.36H29.96Z" fill="#C68FA6"/>
<path d="M65.4401 38.22C64.6301 39.63 63.4301 40.77 61.9901 41.5C60.2201 42.37 58.2601 42.79 56.2801 42.73C54.2701 42.77 52.2701 42.37 50.4301 41.56C48.7801 40.85 47.3301 39.72 46.2401 38.28C45.2101 36.87 44.6001 35.19 44.4801 33.45H49.9001C50.0401 34.83 50.6901 36.12 51.7101 37.05C52.8601 38.1 54.3701 38.64 55.9301 38.57C57.2801 38.65 58.6101 38.18 59.6201 37.28C60.4901 36.41 60.9501 35.23 60.9101 34C60.9701 32.94 60.6201 31.89 59.9401 31.07C59.2801 30.33 58.4701 29.73 57.5701 29.31C56.6301 28.9 55.3501 28.4 53.7101 27.85C52.0301 27.33 50.3801 26.7 48.7901 25.95C47.4901 25.25 46.3901 24.25 45.5701 23.02C44.6301 21.61 44.1701 19.94 44.2501 18.25C44.2101 16.64 44.6401 15.05 45.5101 13.68C46.4201 12.37 47.6901 11.35 49.1701 10.75C50.8901 10 52.7601 9.63 54.6401 9.67C57.4501 9.52 60.2301 10.35 62.4901 12.04C64.4101 13.56 65.6101 15.81 65.8001 18.25H60.3001C60.1001 17.09 59.5401 16.02 58.6901 15.21C57.6301 14.29 56.2601 13.82 54.8601 13.89C53.5901 13.83 52.3501 14.23 51.3501 15C50.4001 15.79 49.8701 16.98 49.9201 18.22C49.8701 19.21 50.2001 20.18 50.8301 20.94C51.4601 21.68 52.2501 22.26 53.1401 22.64C54.0801 23.05 55.3401 23.52 56.9501 24.07C58.6701 24.58 60.3401 25.23 61.9601 26C63.2801 26.69 64.4001 27.7 65.2401 28.93C66.2101 30.38 66.6901 32.1 66.6201 33.85C66.6201 35.38 66.2301 36.88 65.4801 38.21L65.4401 38.22Z" fill="#C68FA6"/>
<path d="M73.6597 14.36V24.14H85.5197V28.15H73.6597V38.16H86.8897V42.4H68.4497V10.2H86.8897V14.36H73.6597Z" fill="#C68FA6"/>
<path d="M109.85 35.41H96.24L93.81 42.41H88.25L100.08 10.65H105.93L117.64 42.41H112.08L109.86 35.41H109.85ZM108.44 31.4L103.02 16.32L97.69 31.4H108.43H108.44Z" fill="#C68FA6"/>
<path d="M136.63 42.4L128.61 29.52H124.89V42.4H119.68V10.2H131.07C134.1 9.97999 137.11 10.94 139.44 12.89C141.39 14.74 142.46 17.34 142.37 20.03C142.47 22.29 141.7 24.51 140.23 26.24C138.61 27.96 136.43 29.06 134.08 29.34L142.54 42.45L136.63 42.39V42.4ZM124.92 25.8H130.77C134.96 25.8 137.06 23.96 137.06 20.24C137.15 18.71 136.6 17.21 135.54 16.11C134.21 15.01 132.49 14.47 130.77 14.62H124.92V25.8Z" fill="#C68FA6"/>
<path d="M168.72 12.84C171.36 14.9 173.23 17.78 174.02 21.04H168.49C167.79 19.15 166.52 17.52 164.86 16.39C163.05 15.21 160.93 14.62 158.77 14.69C156.95 14.66 155.17 15.15 153.62 16.1C152.08 17.09 150.84 18.49 150.05 20.14C149.16 22.06 148.72 24.17 148.76 26.29C148.72 28.39 149.16 30.47 150.05 32.38C150.84 34.03 152.08 35.43 153.62 36.42C155.16 37.39 156.95 37.89 158.77 37.85C160.93 37.91 163.06 37.31 164.86 36.12C166.49 35.03 167.75 33.48 168.49 31.67H174.02C173.24 34.92 171.37 37.8 168.72 39.84C165.85 41.88 162.38 42.91 158.85 42.77C156.02 42.84 153.22 42.12 150.77 40.69C148.42 39.31 146.53 37.28 145.33 34.84C144.01 32.2 143.34 29.28 143.4 26.32C143.35 23.37 144.01 20.44 145.33 17.8C146.54 15.37 148.43 13.33 150.77 11.95C153.22 10.52 156.01 9.79 158.85 9.84C162.38 9.72 165.85 10.78 168.72 12.86V12.84Z" fill="#C68FA6"/>
<path d="M202.41 10.14V42.34H197.14V27.91H181.98V42.4H176.77V10.2H181.98V23.67H197.14V10.15H202.41V10.14Z" fill="#C68FA6"/>
<path d="M278.58 38.34H289.73V42.41H273.4V10.21H278.58V38.34Z" fill="#C68FA6"/>
<path d="M296.76 20.92V42.41H291.55V20.92H296.76ZM298.14 14.1C298.16 11.9 296.39 10.11 294.19 10.09C291.99 10.07 290.2 11.84 290.18 14.04C290.16 16.24 291.93 18.03 294.13 18.05C294.13 18.05 294.15 18.05 294.16 18.05C296.35 18.05 298.13 16.29 298.14 14.1Z" fill="#C68FA6"/>
<path d="M321.41 28.56C322.61 30 323.25 31.81 323.22 33.68C323.33 36.1 322.34 38.43 320.53 40.03C318.29 41.73 315.52 42.57 312.71 42.4H299.86V10.2H312.48C315.14 10.03 317.77 10.8 319.92 12.37C321.61 13.84 322.56 15.99 322.5 18.22C322.59 20.01 322.02 21.77 320.89 23.17C319.8 24.45 318.34 25.34 316.7 25.72C318.56 26.07 320.23 27.08 321.41 28.56ZM305.08 24.05H311.52C313.01 24.19 314.5 23.77 315.71 22.88C316.7 21.96 317.22 20.65 317.14 19.31C317.21 17.98 316.69 16.69 315.71 15.8C314.46 14.85 312.91 14.39 311.35 14.51H305.09V24.05H305.08ZM316.29 36.75C317.39 35.81 317.99 34.42 317.9 32.97C317.97 31.53 317.36 30.13 316.26 29.19C314.93 28.2 313.29 27.71 311.63 27.81H305.1V38.09H311.69C313.33 38.2 314.96 37.72 316.29 36.74V36.75Z" fill="#C68FA6"/>
<path d="M345.56 38.22C344.75 39.63 343.55 40.77 342.11 41.5C340.34 42.37 338.38 42.79 336.4 42.73C334.39 42.76 332.39 42.36 330.55 41.56C328.91 40.84 327.48 39.71 326.39 38.28C325.36 36.87 324.74 35.19 324.6 33.45H330.19C330.34 34.82 330.97 36.1 331.98 37.05C333.13 38.1 334.66 38.65 336.22 38.57C337.56 38.65 338.88 38.19 339.88 37.28C340.77 36.42 341.24 35.23 341.2 34C341.26 32.94 340.91 31.89 340.23 31.07C339.57 30.33 338.76 29.73 337.86 29.31C336.92 28.9 335.61 28.4 333.97 27.85C332.3 27.33 330.67 26.69 329.08 25.95C327.78 25.26 326.67 24.25 325.86 23.02C324.9 21.62 324.43 19.94 324.51 18.25C324.47 16.63 324.92 15.04 325.8 13.68C326.71 12.37 327.98 11.35 329.46 10.75C331.18 9.99 333.05 9.62 334.93 9.67C337.74 9.52 340.52 10.36 342.78 12.04C344.68 13.58 345.87 15.81 346.09 18.25H340.47C340.27 17.05 339.66 15.95 338.74 15.15C336.62 13.47 333.64 13.39 331.42 14.95C330.51 15.77 330.03 16.95 330.1 18.17C330.05 19.16 330.38 20.13 331.01 20.89C331.64 21.63 332.43 22.21 333.32 22.59C334.23 23 335.52 23.47 337.13 24.02C338.85 24.53 340.52 25.18 342.14 25.95C343.46 26.64 344.58 27.65 345.42 28.88C346.38 30.34 346.85 32.06 346.77 33.8C346.77 35.35 346.35 36.88 345.57 38.22H345.56Z" fill="#C68FA6"/>
<path fill-rule="evenodd" clip-rule="evenodd" d="M231.39 19.34L233.53 22.27C233.63 22.46 233.63 22.69 233.53 22.88C233.46 23.14 233.24 23.33 232.97 23.38L231.77 23.53C231.49 23.58 231.25 23.77 231.13 24.03C231.09 24.19 231.09 24.36 231.13 24.53C231.18 24.87 231.27 25.2 231.39 25.53C231.53 25.71 231.53 25.96 231.39 26.14H231.04C231.04 26.14 231.74 26.84 230.66 27.49V29.45C230.85 30.48 230.17 31.48 229.14 31.67C228.92 31.71 228.69 31.71 228.46 31.67L225.53 31.35C224.74 31.26 223.99 31.73 223.74 32.49C223.22 34.05 222.84 35.66 222.6 37.29C222.51 39.09 222.79 40.9 223.42 42.59C223.68 43.36 223.27 44.19 222.5 44.45C222.35 44.5 222.2 44.53 222.04 44.53H208.81C207.5 44.53 206.44 43.47 206.44 42.16C206.44 41.76 206.54 41.37 206.73 41.02C208.1 38.49 209.66 36.06 211.38 33.76C212.43 32.38 212.99 30.69 212.96 28.96C213.01 28.47 213.01 27.98 212.96 27.5C212.73 26.12 208.74 20.04 208.92 16.35C209.18 11.38 212.81 7.23 217.7 6.31C223.58 5.34 231.37 11.2 231.05 16.44C231.08 16.8 231.08 17.16 231.05 17.52C230.89 18.15 231.01 18.82 231.37 19.36L231.39 19.34Z" fill="#FC4F00"/>
<path d="M268.69 14.1L264.33 42.61C264.12 43.88 262.94 44.75 261.67 44.57L249.96 42.78C248.7 42.59 247.83 41.41 248.02 40.14C248.02 40.14 248.02 40.12 248.02 40.11L248.96 33.96C249.22 34.08 249.5 34.14 249.78 34.14L248.87 39.99C248.73 40.87 249.33 41.69 250.21 41.83L261.57 43.56C262.43 43.7 263.24 43.11 263.38 42.25C263.38 42.24 263.38 42.23 263.38 42.22L267.74 13.8C267.85 12.98 267.32 12.2 266.51 12.01L264.14 11.66C263.98 11.63 263.83 11.72 263.79 11.88C263.79 11.88 263.79 11.88 263.79 11.89V12.39C263.73 12.67 263.46 12.87 263.18 12.83L258.23 12.07C257.94 12.06 257.71 11.81 257.73 11.52C257.73 11.5 257.73 11.48 257.73 11.45V10.98C257.76 10.82 257.67 10.67 257.51 10.63C257.51 10.63 257.51 10.63 257.5 10.63L255.1 10.28C254.24 10.14 253.43 10.73 253.29 11.59C253.29 11.6 253.29 11.61 253.29 11.62L251.71 21.98C251.54 21.65 251.29 21.37 250.98 21.16L252.47 11.44C252.67 10.16 253.86 9.29 255.13 9.48L266.84 11.27C268.11 11.51 268.94 12.74 268.7 14.01C268.7 14.03 268.7 14.06 268.69 14.08V14.1Z" fill="#1E4F5B"/>
<path d="M232.86 25.48C233.05 25.48 233.21 25.64 233.21 25.83V29.2C233.21 29.39 233.05 29.55 232.86 29.55C232.67 29.55 232.51 29.39 232.51 29.2V25.83C232.51 25.64 232.67 25.48 232.86 25.48Z" fill="#00C3B6"/>
<path d="M233.91 23.73C234.1 23.73 234.26 23.89 234.26 24.08V30.93C234.26 31.12 234.1 31.28 233.91 31.28C233.72 31.28 233.56 31.12 233.56 30.93V24.08C233.56 23.89 233.72 23.73 233.91 23.73Z" fill="#00C3B6"/>
<path d="M234.96 24.4C235.15 24.4 235.31 24.56 235.31 24.75V30.28C235.31 30.47 235.15 30.63 234.96 30.63C234.77 30.63 234.61 30.47 234.61 30.28V24.75C234.61 24.56 234.77 24.4 234.96 24.4Z" fill="#00C3B6"/>
<path d="M236.05 23.38C236.24 23.38 236.4 23.54 236.4 23.73V31.31C236.4 31.5 236.24 31.66 236.05 31.66C235.86 31.66 235.7 31.5 235.7 31.31V23.73C235.7 23.54 235.86 23.38 236.05 23.38Z" fill="#00C3B6"/>
<path d="M237.1 22.62C237.29 22.62 237.45 22.78 237.45 22.97V32.07C237.45 32.26 237.29 32.42 237.1 32.42C236.91 32.42 236.75 32.26 236.75 32.07V22.97C236.75 22.78 236.91 22.62 237.1 22.62Z" fill="#00C3B6"/>
<path d="M241.34 24.4C241.53 24.4 241.69 24.56 241.69 24.75V30.28C241.69 30.47 241.53 30.63 241.34 30.63C241.15 30.63 240.99 30.47 240.99 30.28V24.75C240.99 24.56 241.15 24.4 241.34 24.4Z" fill="#00C3B6"/>
<path d="M240.29 23.38C240.48 23.38 240.64 23.54 240.64 23.73V31.31C240.64 31.5 240.48 31.66 240.29 31.66C240.1 31.66 239.94 31.5 239.94 31.31V23.73C239.94 23.54 240.1 23.38 240.29 23.38Z" fill="#00C3B6"/>
<path d="M239.21 22.62C239.4 22.62 239.56 22.78 239.56 22.97V32.07C239.56 32.26 239.4 32.42 239.21 32.42C239.02 32.42 238.86 32.26 238.86 32.07V22.97C238.86 22.78 239.02 22.62 239.21 22.62Z" fill="#00C3B6"/>
<path d="M238.15 21.56C238.34 21.56 238.5 21.72 238.5 21.91V33.09C238.5 33.28 238.34 33.44 238.15 33.44C237.96 33.44 237.8 33.28 237.8 33.09V21.91C237.8 21.72 237.96 21.56 238.15 21.56Z" fill="#00C3B6"/>
<path d="M242.4 24.96C242.59 24.96 242.75 25.12 242.75 25.31V29.73C242.75 29.92 242.59 30.08 242.4 30.08C242.21 30.08 242.05 29.92 242.05 29.73V25.31C242.05 25.12 242.21 24.96 242.4 24.96Z" fill="#00C3B6"/>
<path d="M243.48 24.96C243.67 24.96 243.83 25.12 243.83 25.31V29.73C243.83 29.92 243.67 30.08 243.48 30.08C243.29 30.08 243.13 29.92 243.13 29.73V25.31C243.13 25.12 243.29 24.96 243.48 24.96Z" fill="#00C3B6"/>
<path d="M247.73 24.4C247.92 24.4 248.08 24.56 248.08 24.75V30.28C248.08 30.47 247.92 30.63 247.73 30.63C247.54 30.63 247.38 30.47 247.38 30.28V24.75C247.38 24.56 247.54 24.4 247.73 24.4Z" fill="#00C3B6"/>
<path d="M248.78 23.38C248.97 23.38 249.13 23.54 249.13 23.73V31.31C249.13 31.5 248.97 31.66 248.78 31.66C248.59 31.66 248.43 31.5 248.43 31.31V23.73C248.43 23.54 248.59 23.38 248.78 23.38Z" fill="#00C3B6"/>
<path d="M249.86 22.62C250.05 22.62 250.21 22.78 250.21 22.97V32.07C250.21 32.26 250.05 32.42 249.86 32.42C249.67 32.42 249.51 32.26 249.51 32.07V22.97C249.51 22.78 249.67 22.62 249.86 22.62Z" fill="#00C3B6"/>
<path d="M245.59 24.96C245.78 24.96 245.94 25.12 245.94 25.31V29.73C245.94 29.92 245.78 30.08 245.59 30.08C245.4 30.08 245.24 29.92 245.24 29.73V25.31C245.24 25.12 245.4 24.96 245.59 24.96Z" fill="#00C3B6"/>
<path d="M246.67 24.96C246.86 24.96 247.02 25.12 247.02 25.31V29.73C247.02 29.92 246.86 30.08 246.67 30.08C246.48 30.08 246.32 29.92 246.32 29.73V25.31C246.32 25.12 246.48 24.96 246.67 24.96Z" fill="#00C3B6"/>
<path d="M244.54 25.78C244.73 25.78 244.89 25.94 244.89 26.13V28.88C244.89 29.07 244.73 29.23 244.54 29.23C244.35 29.23 244.19 29.07 244.19 28.88V26.13C244.19 25.94 244.35 25.78 244.54 25.78Z" fill="#00C3B6"/>
<path d="M250.92 24.4C251.11 24.4 251.27 24.56 251.27 24.75V30.28C251.27 30.47 251.11 30.63 250.92 30.63C250.73 30.63 250.57 30.47 250.57 30.28V24.75C250.57 24.56 250.73 24.4 250.92 24.4Z" fill="#00C3B6"/>
<path d="M251.97 24.96C252.16 24.96 252.32 25.12 252.32 25.31V29.73C252.32 29.92 252.16 30.08 251.97 30.08C251.78 30.08 251.62 29.92 251.62 29.73V25.31C251.62 25.12 251.78 24.96 251.97 24.96Z" fill="#00C3B6"/>
<path d="M253.02 24.96C253.21 24.96 253.37 25.12 253.37 25.31V29.73C253.37 29.92 253.21 30.08 253.02 30.08C252.83 30.08 252.67 29.92 252.67 29.73V25.31C252.67 25.12 252.83 24.96 253.02 24.96Z" fill="#00C3B6"/>
<path d="M254.11 25.78C254.3 25.78 254.46 25.94 254.46 26.13V28.88C254.46 29.07 254.3 29.23 254.11 29.23C253.92 29.23 253.76 29.07 253.76 28.88V26.13C253.76 25.94 253.92 25.78 254.11 25.78Z" fill="#00C3B6"/>
</svg>
