<svg width="117" height="57" viewBox="0 0 117 57" fill="none" xmlns="http://www.w3.org/2000/svg">
<path fill-rule="evenodd" clip-rule="evenodd" d="M104.503 10.4933C109.133 6.56331 118.503 13.1133 114.503 19.3233C113.706 20.5179 112.551 21.4294 111.203 21.927C109.856 22.4246 108.386 22.4828 107.003 22.0933L88.4633 50.0933L84.1233 47.0933L102.643 19.0933C101.884 17.6719 101.654 16.027 101.995 14.4519C102.336 12.8769 103.224 11.4739 104.503 10.4933Z" fill="#FDE897"/>
<path fill-rule="evenodd" clip-rule="evenodd" d="M105.103 13.0035C104.683 16.0735 108.203 16.1035 109.433 15.1635C110.983 14.1635 111.073 11.1035 108.593 10.7635C113.293 9.8435 115.753 15.4835 113.953 19.1635C113.723 19.6535 113.443 20.1635 113.133 20.7435C112.303 21.4582 111.308 21.9556 110.239 22.1912C109.169 22.4268 108.057 22.3933 107.003 22.0935L91.7233 45.1635L91.5233 45.2335C91.3126 45.3325 91.083 45.3848 90.8502 45.3871C90.6175 45.3893 90.3869 45.3413 90.1743 45.2464C89.9618 45.1515 89.7721 45.0119 89.6184 44.8371C89.4646 44.6623 89.3503 44.4564 89.2833 44.2335L106.133 19.2335C106.133 19.2335 103.423 16.1735 105.103 13.0035Z" fill="#C59D50"/>
<path d="M100.743 14.2135C100.406 15.8231 100.567 17.4971 101.203 19.0135L83.0634 46.4535L82.0634 47.9335L88.4434 52.3335L107.513 23.4935C109.034 23.7398 110.593 23.5492 112.009 22.9437C113.426 22.3382 114.641 21.3428 115.513 20.0735C115.988 19.3401 116.327 18.5271 116.513 17.6735C117.433 13.0135 113.513 9.2335 109.513 8.3435C108.495 8.07915 107.428 8.05817 106.399 8.28226C105.371 8.50636 104.41 8.96924 103.593 9.6335C102.167 10.8063 101.165 12.4156 100.743 14.2135ZM105.293 11.4435C105.821 11.0247 106.441 10.7373 107.102 10.6052C107.762 10.473 108.445 10.4999 109.093 10.6835C112.093 11.3535 114.773 14.3135 114.173 17.0635C114.043 17.6091 113.823 18.1294 113.523 18.6035C112.905 19.5398 112.019 20.269 110.982 20.6968C109.944 21.1247 108.802 21.2315 107.703 21.0035C107.601 20.9846 107.501 20.9579 107.403 20.9235L106.483 20.5935L88.4034 47.9335L86.1034 46.3435L104.103 19.1635L103.713 18.4935C103.147 17.3304 102.961 16.0181 103.183 14.7435C103.498 13.4384 104.241 12.2765 105.293 11.4435Z" fill="black"/>
<path fill-rule="evenodd" clip-rule="evenodd" d="M102.293 56.0633C99.5172 50.1564 95.117 45.1617 89.6071 41.6631C84.0971 38.1645 77.7052 36.3066 71.1784 36.3066C64.6515 36.3066 58.2596 38.1645 52.7496 41.6631C47.2397 45.1617 42.8395 50.1564 40.0634 56.0633H102.293Z" fill="white"/>
<path d="M42.4634 56.0633C45.1607 50.768 49.2699 46.3218 54.3368 43.2164C59.4036 40.111 65.2306 38.4674 71.1734 38.4674C77.1161 38.4674 82.9431 40.111 88.0099 43.2164C93.0768 46.3218 97.186 50.768 99.8834 56.0633H102.293C99.5172 50.1564 95.117 45.1617 89.6071 41.6631C84.0971 38.1645 77.7052 36.3066 71.1784 36.3066C64.6515 36.3066 58.2596 38.1645 52.7496 41.6631C47.2397 45.1617 42.8395 50.1564 40.0634 56.0633H42.4634Z" fill="black"/>
<path fill-rule="evenodd" clip-rule="evenodd" d="M90.8333 56.0635C88.565 52.9813 85.6038 50.4755 82.1887 48.7486C78.7735 47.0216 75.0002 46.1218 71.1733 46.1218C67.3464 46.1218 63.5731 47.0216 60.1579 48.7486C56.7428 50.4755 53.7816 52.9813 51.5133 56.0635H90.8333Z" fill="black"/>
<path d="M50 12.5455V23.8488C50 25.8072 51.7216 27.3943 53.8436 27.3943H83.0433L91 32.5771V18.4398L90.9944 18.445V12.5455C90.9944 10.5871 89.2728 9 87.1508 9H53.8436C51.7216 9 50 10.5871 50 12.5455Z" fill="#ABB4C7"/>
<path d="M58.838 19.37C58.838 19.2333 58.8169 19.1112 58.7745 19.0038C58.7355 18.8931 58.6622 18.7938 58.5548 18.7059C58.4506 18.6148 58.3025 18.5269 58.1105 18.4423C57.9217 18.3544 57.6775 18.2632 57.3781 18.1688C57.046 18.0647 56.7368 17.9475 56.4503 17.8173C56.1639 17.6871 55.9116 17.5357 55.6935 17.3632C55.4786 17.1906 55.311 16.9921 55.1906 16.7675C55.0701 16.5396 55.0099 16.2759 55.0099 15.9764C55.0099 15.6835 55.0717 15.4165 55.1954 15.1757C55.3224 14.9348 55.5014 14.7281 55.7325 14.5555C55.9637 14.3798 56.2355 14.2447 56.548 14.1503C56.8637 14.0559 57.212 14.0087 57.5929 14.0087C58.1202 14.0087 58.576 14.1047 58.9601 14.2968C59.3475 14.4888 59.6469 14.7492 59.8585 15.078C60.0701 15.4068 60.1759 15.7762 60.1759 16.1864H58.838C58.838 15.965 58.7908 15.7697 58.6964 15.6005C58.6053 15.4312 58.4653 15.2977 58.2765 15.2001C58.0909 15.1024 57.8566 15.0536 57.5734 15.0536C57.2999 15.0536 57.0721 15.0943 56.8898 15.1757C56.7107 15.257 56.5756 15.3677 56.4845 15.5077C56.3966 15.6477 56.3527 15.8039 56.3527 15.9764C56.3527 16.1066 56.3836 16.2238 56.4454 16.328C56.5073 16.4289 56.6001 16.5249 56.7238 16.6161C56.8475 16.704 57.0004 16.787 57.1827 16.8651C57.3683 16.94 57.5831 17.0149 57.8273 17.0897C58.2179 17.2069 58.5597 17.3371 58.8527 17.4803C59.1489 17.6236 59.3947 17.7863 59.59 17.9686C59.7885 18.1509 59.9366 18.356 60.0343 18.5839C60.1352 18.8117 60.1857 19.0705 60.1857 19.3602C60.1857 19.6662 60.1254 19.9397 60.005 20.1805C59.8846 20.4214 59.712 20.6265 59.4874 20.7958C59.2628 20.965 58.9926 21.0936 58.6769 21.1815C58.3644 21.2694 58.0144 21.3134 57.6271 21.3134C57.282 21.3134 56.9402 21.2678 56.6017 21.1766C56.2664 21.0822 55.962 20.9423 55.6886 20.7567C55.4152 20.5679 55.1971 20.3303 55.0343 20.0438C54.8715 19.7541 54.7902 19.4156 54.7902 19.0282H56.1378C56.1378 19.2528 56.1736 19.4449 56.2452 19.6044C56.3201 19.7606 56.4243 19.8892 56.5577 19.9901C56.6945 20.0878 56.854 20.1594 57.0363 20.205C57.2185 20.2505 57.4155 20.2733 57.6271 20.2733C57.9005 20.2733 58.1251 20.2359 58.3009 20.161C58.4799 20.0829 58.6134 19.9755 58.7013 19.8387C58.7924 19.702 58.838 19.5458 58.838 19.37ZM60.8937 18.6278V18.5253C60.8937 18.1379 60.949 17.7815 61.0597 17.4559C61.1704 17.1272 61.3315 16.8423 61.5431 16.6014C61.7547 16.3606 62.0135 16.1734 62.3195 16.0399C62.6254 15.9032 62.9738 15.8348 63.3644 15.8348C63.7615 15.8348 64.1131 15.9032 64.4191 16.0399C64.7283 16.1734 64.9887 16.3606 65.2003 16.6014C65.4119 16.8423 65.573 17.1272 65.6837 17.4559C65.7944 17.7815 65.8497 18.1379 65.8497 18.5253V18.6278C65.8497 19.0119 65.7944 19.3684 65.6837 19.6971C65.573 20.0227 65.4119 20.3075 65.2003 20.5516C64.9887 20.7925 64.7299 20.9797 64.424 21.1132C64.118 21.2466 63.768 21.3134 63.3741 21.3134C62.9835 21.3134 62.6336 21.2466 62.3243 21.1132C62.0151 20.9797 61.7547 20.7925 61.5431 20.5516C61.3315 20.3075 61.1704 20.0227 61.0597 19.6971C60.949 19.3684 60.8937 19.0119 60.8937 18.6278ZM62.1827 18.5253V18.6278C62.1827 18.8589 62.2055 19.0754 62.2511 19.2772C62.2967 19.479 62.3667 19.6565 62.4611 19.8094C62.5555 19.9624 62.6775 20.0829 62.8273 20.1708C62.9803 20.2554 63.1626 20.2977 63.3741 20.2977C63.5825 20.2977 63.7615 20.2554 63.9113 20.1708C64.061 20.0829 64.1831 19.9624 64.2775 19.8094C64.3751 19.6565 64.4467 19.479 64.4923 19.2772C64.5379 19.0754 64.5607 18.8589 64.5607 18.6278V18.5253C64.5607 18.2974 64.5379 18.0842 64.4923 17.8856C64.4467 17.6838 64.3751 17.5064 64.2775 17.3534C64.1831 17.1971 64.0594 17.0751 63.9064 16.9872C63.7566 16.896 63.576 16.8505 63.3644 16.8505C63.156 16.8505 62.977 16.896 62.8273 16.9872C62.6775 17.0751 62.5555 17.1971 62.4611 17.3534C62.3667 17.5064 62.2967 17.6838 62.2511 17.8856C62.2055 18.0842 62.1827 18.2974 62.1827 18.5253ZM68.0763 17.0116V21.2157H66.7872V15.9325H68.0079L68.0763 17.0116ZM69.6827 15.8983L69.6632 17.0995C69.5916 17.0865 69.5102 17.0767 69.4191 17.0702C69.3312 17.0637 69.2482 17.0604 69.17 17.0604C68.9715 17.0604 68.7973 17.0881 68.6476 17.1434C68.4978 17.1955 68.3725 17.272 68.2716 17.3729C68.174 17.4738 68.0991 17.5975 68.047 17.744C67.9949 17.8872 67.9656 18.05 67.9591 18.2323L67.6808 18.1981C67.6808 17.8628 67.715 17.552 67.7833 17.2655C67.8517 16.979 67.951 16.7284 68.0812 16.5135C68.2114 16.2987 68.3741 16.1327 68.5695 16.0155C68.768 15.8951 68.9959 15.8348 69.2531 15.8348C69.3247 15.8348 69.4012 15.8413 69.4825 15.8544C69.5672 15.8641 69.6339 15.8788 69.6827 15.8983ZM73.1349 15.9325V16.8602H70.1075V15.9325H73.1349ZM70.9181 14.6337H72.212V19.6923C72.212 19.8485 72.2332 19.969 72.2755 20.0536C72.3178 20.1382 72.3813 20.1952 72.4659 20.2245C72.5506 20.2538 72.6515 20.2684 72.7687 20.2684C72.8533 20.2684 72.9314 20.2635 73.0031 20.2538C73.0747 20.244 73.1349 20.2343 73.1837 20.2245L73.1886 21.1913C73.0812 21.2271 72.9591 21.2564 72.8224 21.2792C72.6889 21.302 72.5376 21.3134 72.3683 21.3134C72.0786 21.3134 71.8247 21.2645 71.6066 21.1669C71.3885 21.066 71.2192 20.9048 71.0988 20.6835C70.9783 20.4589 70.9181 20.1626 70.9181 19.7948V14.6337ZM76.3673 21.3134C75.9669 21.3134 75.6072 21.2483 75.2882 21.118C74.9692 20.9878 74.6974 20.8072 74.4728 20.576C74.2514 20.3417 74.0805 20.0699 73.9601 19.7606C73.8429 19.4481 73.7843 19.1128 73.7843 18.7548V18.5594C73.7843 18.1525 73.8429 17.7831 73.9601 17.451C74.0773 17.1158 74.2433 16.8277 74.4581 16.5868C74.673 16.3459 74.9301 16.1604 75.2296 16.0302C75.5291 15.8999 75.8595 15.8348 76.2208 15.8348C76.5952 15.8348 76.9256 15.8983 77.212 16.0253C77.4985 16.149 77.7378 16.3247 77.9298 16.5526C78.1219 16.7805 78.2667 17.0539 78.3644 17.3729C78.462 17.6887 78.5109 18.0386 78.5109 18.4227V18.9647H74.3702V18.076H77.2413V17.9784C77.2348 17.7733 77.1958 17.5861 77.1241 17.4169C77.0525 17.2443 76.9419 17.1076 76.7921 17.0067C76.6424 16.9025 76.4487 16.8505 76.2111 16.8505C76.019 16.8505 75.8514 16.8928 75.7081 16.9774C75.5682 17.0588 75.451 17.176 75.3566 17.329C75.2654 17.4787 75.1971 17.6578 75.1515 17.8661C75.1059 18.0744 75.0831 18.3055 75.0831 18.5594V18.7548C75.0831 18.9761 75.1124 19.1812 75.171 19.37C75.2329 19.5588 75.3224 19.7232 75.4396 19.8632C75.56 19.9999 75.7032 20.1073 75.8693 20.1854C76.0385 20.2603 76.2306 20.2977 76.4454 20.2977C76.7156 20.2977 76.9598 20.2456 77.1779 20.1415C77.3992 20.0341 77.5913 19.8762 77.754 19.6678L78.4034 20.3417C78.2928 20.5044 78.143 20.6607 77.9542 20.8104C77.7687 20.9602 77.5441 21.0822 77.2804 21.1766C77.0167 21.2678 76.7124 21.3134 76.3673 21.3134ZM82.5441 20.0927V13.7157H83.8429V21.2157H82.671L82.5441 20.0927ZM79.1505 18.6376V18.535C79.1505 18.1314 79.1961 17.7652 79.2872 17.4364C79.3816 17.1044 79.5184 16.8195 79.6974 16.5819C79.8764 16.3443 80.0929 16.1604 80.3468 16.0302C80.604 15.8999 80.8953 15.8348 81.2208 15.8348C81.5366 15.8348 81.8116 15.8983 82.046 16.0253C82.2837 16.1522 82.4855 16.3329 82.6515 16.5673C82.8208 16.8016 82.9559 17.08 83.0568 17.4022C83.1577 17.7212 83.2309 18.0728 83.2765 18.4569V18.7352C83.2309 19.1096 83.1577 19.453 83.0568 19.7655C82.9559 20.078 82.8208 20.3514 82.6515 20.5858C82.4855 20.8169 82.2837 20.996 82.046 21.1229C81.8084 21.2499 81.5301 21.3134 81.2111 21.3134C80.8888 21.3134 80.5991 21.2466 80.3419 21.1132C80.088 20.9797 79.8715 20.7925 79.6925 20.5516C79.5167 20.3108 79.3816 20.0275 79.2872 19.702C79.1961 19.3765 79.1505 19.0217 79.1505 18.6376ZM80.4445 18.535V18.6376C80.4445 18.8654 80.464 19.0787 80.5031 19.2772C80.5421 19.4758 80.6056 19.6516 80.6935 19.8046C80.7814 19.9543 80.8937 20.0715 81.0304 20.1561C81.1704 20.2408 81.3396 20.2831 81.5382 20.2831C81.7921 20.2831 82.0004 20.2277 82.1632 20.1171C82.3292 20.0031 82.4578 19.8485 82.549 19.6532C82.6401 19.4546 82.6987 19.2316 82.7247 18.9843V18.2177C82.7117 18.0223 82.6775 17.8417 82.6222 17.6757C82.5701 17.5096 82.4952 17.3664 82.3976 17.246C82.3032 17.1255 82.186 17.0311 82.046 16.9628C81.906 16.8944 81.74 16.8602 81.548 16.8602C81.3494 16.8602 81.1801 16.9042 81.0402 16.9921C80.9002 17.0767 80.7863 17.1955 80.6984 17.3485C80.6105 17.5015 80.5454 17.6789 80.5031 17.8807C80.464 18.0826 80.4445 18.3007 80.4445 18.535Z" fill="black"/>
</svg>
