<svg width="121" height="55" viewBox="0 0 121 55" fill="none" xmlns="http://www.w3.org/2000/svg">
<path fill-rule="evenodd" clip-rule="evenodd" d="M14.136 18.0036L32.666 46.0036L28.316 49.0036L9.77598 21.0036C9.77598 21.0036 5.51598 22.4936 2.22598 18.1636C-1.77402 11.9536 7.61598 5.41358 12.226 9.34358C13.5261 10.3211 14.4334 11.7316 14.7838 13.3201C15.1341 14.9085 14.9043 16.5699 14.136 18.0036Z" fill="#FDE897"/>
<path fill-rule="evenodd" clip-rule="evenodd" d="M10.616 18.1238L27.466 43.1238C27.3989 43.3467 27.2847 43.5526 27.1309 43.7274C26.9771 43.9022 26.7875 44.0418 26.5749 44.1367C26.3624 44.2316 26.1318 44.2796 25.899 44.2773C25.6663 44.2751 25.4367 44.2227 25.226 44.1238L25.026 44.0038L9.77596 20.9338C8.72135 21.246 7.60543 21.2897 6.52964 21.0609C5.45384 20.8321 4.45227 20.3381 3.61596 19.6238C3.31596 19.0638 3.03596 18.5338 2.79596 18.0438C1.02596 14.3638 3.46596 8.72377 8.16596 9.63377C5.67596 10.0038 5.76596 13.0038 7.32596 14.0038C8.55596 15.0038 12.066 14.9138 11.656 11.8538C13.326 15.0038 10.616 18.1238 10.616 18.1238Z" fill="#C59D50"/>
<path d="M13.026 8.39355C12.2095 7.73653 11.2516 7.27804 10.2278 7.05419C9.20395 6.83034 8.14214 6.84723 7.12595 7.10355C3.12595 8.00355 -0.754046 11.7835 0.125954 16.4335C0.307102 17.2919 0.646193 18.1091 1.12595 18.8435C1.99723 20.1147 3.21185 21.1121 4.62826 21.7194C6.04466 22.3266 7.6045 22.5188 9.12595 22.2735L28.296 51.1835L34.676 46.7835L33.676 45.3035L15.546 17.8635C16.1893 16.3458 16.3567 14.6685 16.026 13.0535C15.5797 11.2065 14.5226 9.56438 13.026 8.39355ZM13.576 13.5835C13.7979 14.8605 13.6162 16.1748 13.056 17.3435L12.666 18.0135L30.666 45.1935L28.356 46.7835L10.266 19.4335L9.35595 19.7735C9.25818 19.8079 9.15788 19.8347 9.05595 19.8535C7.95607 20.0805 6.81338 19.9722 5.77577 19.5425C4.73815 19.1129 3.85338 18.3817 3.23595 17.4435C2.92569 16.9738 2.70215 16.4522 2.57595 15.9035C2.02595 13.1635 4.63595 10.1935 7.65595 9.52355C8.30471 9.34478 8.98632 9.3204 9.64619 9.45238C10.3061 9.58435 10.9259 9.86901 11.456 10.2835C12.5198 11.1119 13.2737 12.2743 13.596 13.5835H13.576Z" fill="black"/>
<path fill-rule="evenodd" clip-rule="evenodd" d="M14.4659 54.9037C17.2421 48.9967 21.6423 44.002 27.1522 40.5034C32.6622 37.0048 39.0541 35.147 45.5809 35.147C52.1078 35.147 58.4997 37.0048 64.0097 40.5034C69.5196 44.002 73.9198 48.9967 76.6959 54.9037H14.4659Z" fill="white"/>
<path d="M74.2859 54.9037C71.5886 49.6083 67.4793 45.1621 62.4125 42.0567C57.3457 38.9513 51.5187 37.3078 45.5759 37.3078C39.6332 37.3078 33.8062 38.9513 28.7394 42.0567C23.6725 45.1621 19.5633 49.6083 16.8659 54.9037H14.4659C17.2421 48.9967 21.6423 44.002 27.1522 40.5034C32.6622 37.0048 39.0541 35.147 45.5809 35.147C52.1078 35.147 58.4997 37.0048 64.0097 40.5034C69.5196 44.002 73.9198 48.9967 76.6959 54.9037H74.2859Z" fill="black"/>
<path fill-rule="evenodd" clip-rule="evenodd" d="M25.9159 54.9037C28.1878 51.8251 31.1508 49.3229 34.5664 47.5985C37.982 45.8742 41.7547 44.9758 45.5809 44.9758C49.4071 44.9758 53.1798 45.8742 56.5954 47.5985C60.011 49.3229 62.974 51.8251 65.2459 54.9037H25.9159Z" fill="black"/>
<path d="M77.4454 11.059V24.0019C77.4454 26.2445 75.3272 28.0618 72.7163 28.0618H36.7898L27 33.9964V17.8083L27.0069 17.8143V11.059C27.0069 8.81649 29.1251 6.99915 31.736 6.99915H72.7163C75.3272 6.99915 77.4454 8.81649 77.4454 11.059Z" fill="#ABB4C7"/>
<path d="M35.8564 13.8158H37.1992V18.5375C37.1992 19.0811 37.082 19.5385 36.8477 19.9095C36.6133 20.2774 36.2943 20.5557 35.8906 20.7445C35.487 20.9301 35.028 21.0228 34.5137 21.0228C33.9928 21.0228 33.529 20.9301 33.1221 20.7445C32.7152 20.5557 32.3962 20.2774 32.165 19.9095C31.9339 19.5385 31.8184 19.0811 31.8184 18.5375V13.8158H33.1611V18.5375C33.1611 18.8695 33.2165 19.1413 33.3271 19.3529C33.4378 19.5612 33.5941 19.7159 33.7959 19.8168C33.9977 19.9177 34.237 19.9681 34.5137 19.9681C34.7936 19.9681 35.0329 19.9177 35.2314 19.8168C35.4333 19.7159 35.5879 19.5612 35.6953 19.3529C35.8027 19.1413 35.8564 18.8695 35.8564 18.5375V13.8158ZM39.6406 16.7699V20.9252H38.3516V15.642H39.5625L39.6406 16.7699ZM39.4355 18.0931H39.0547C39.0579 17.709 39.11 17.3607 39.2109 17.0482C39.3118 16.7357 39.4535 16.4672 39.6357 16.2426C39.8213 16.0179 40.041 15.8454 40.2949 15.725C40.5488 15.6045 40.832 15.5443 41.1445 15.5443C41.3984 15.5443 41.6279 15.5801 41.833 15.6517C42.0381 15.7233 42.2139 15.8373 42.3604 15.9935C42.5101 16.1498 42.624 16.3549 42.7021 16.6088C42.7835 16.8594 42.8242 17.1687 42.8242 17.5365V20.9252H41.5254V17.5267C41.5254 17.2858 41.4896 17.0954 41.418 16.9554C41.3496 16.8155 41.2487 16.7162 41.1152 16.6576C40.985 16.599 40.8239 16.5697 40.6318 16.5697C40.4333 16.5697 40.2591 16.6104 40.1094 16.6918C39.9629 16.7699 39.8392 16.8789 39.7383 17.0189C39.6406 17.1589 39.5658 17.32 39.5137 17.5023C39.4616 17.6846 39.4355 17.8816 39.4355 18.0931ZM46.8672 19.4799C46.8672 19.3692 46.8379 19.2699 46.7793 19.182C46.7207 19.0941 46.61 19.0144 46.4473 18.9427C46.2878 18.8679 46.0534 18.7979 45.7441 18.7328C45.4707 18.6742 45.2184 18.601 44.9873 18.5131C44.7562 18.4252 44.5576 18.3194 44.3916 18.1957C44.2256 18.0687 44.0954 17.9206 44.001 17.7513C43.9098 17.5788 43.8643 17.3802 43.8643 17.1556C43.8643 16.9375 43.9115 16.7325 44.0059 16.5404C44.1003 16.3451 44.237 16.1742 44.416 16.0277C44.5951 15.878 44.8132 15.7608 45.0703 15.6761C45.3275 15.5883 45.6172 15.5443 45.9395 15.5443C46.3887 15.5443 46.7744 15.6176 47.0967 15.764C47.4222 15.9105 47.6712 16.1123 47.8438 16.3695C48.0163 16.6234 48.1025 16.9099 48.1025 17.2289H46.8135C46.8135 17.0889 46.7809 16.962 46.7158 16.848C46.654 16.7341 46.5579 16.6429 46.4277 16.5746C46.2975 16.503 46.1331 16.4672 45.9346 16.4672C45.7555 16.4672 45.6042 16.4965 45.4805 16.5551C45.36 16.6136 45.2689 16.6901 45.207 16.7845C45.1452 16.8789 45.1143 16.9831 45.1143 17.097C45.1143 17.1817 45.1305 17.2582 45.1631 17.3265C45.1989 17.3916 45.2559 17.4519 45.334 17.5072C45.4121 17.5625 45.5179 17.613 45.6514 17.6586C45.7881 17.7041 45.9557 17.7481 46.1543 17.7904C46.5482 17.8685 46.8916 17.9727 47.1846 18.1029C47.4808 18.2299 47.7119 18.3991 47.8779 18.6107C48.0439 18.8223 48.127 19.0925 48.127 19.4213C48.127 19.6556 48.0765 19.8705 47.9756 20.0658C47.8747 20.2579 47.7282 20.4255 47.5361 20.5687C47.3441 20.712 47.1146 20.8243 46.8477 20.9056C46.5807 20.9838 46.2796 21.0228 45.9443 21.0228C45.4593 21.0228 45.0492 20.9366 44.7139 20.764C44.3786 20.5883 44.1247 20.3669 43.9521 20.1C43.7796 19.8298 43.6934 19.5498 43.6934 19.2601H44.9287C44.9385 19.4652 44.9938 19.6296 45.0947 19.7533C45.1956 19.877 45.3226 19.9665 45.4756 20.0219C45.6318 20.0739 45.7962 20.1 45.9688 20.1C46.1641 20.1 46.3285 20.0739 46.4619 20.0219C46.5954 19.9665 46.6963 19.8933 46.7646 19.8021C46.833 19.7077 46.8672 19.6003 46.8672 19.4799ZM48.8789 18.3373V18.2347C48.8789 17.8474 48.9342 17.4909 49.0449 17.1654C49.1556 16.8366 49.3167 16.5518 49.5283 16.3109C49.7399 16.07 49.9987 15.8829 50.3047 15.7494C50.6107 15.6127 50.959 15.5443 51.3496 15.5443C51.7467 15.5443 52.0983 15.6127 52.4043 15.7494C52.7135 15.8829 52.974 16.07 53.1855 16.3109C53.3971 16.5518 53.5583 16.8366 53.6689 17.1654C53.7796 17.4909 53.835 17.8474 53.835 18.2347V18.3373C53.835 18.7214 53.7796 19.0778 53.6689 19.4066C53.5583 19.7321 53.3971 20.017 53.1855 20.2611C52.974 20.502 52.7152 20.6892 52.4092 20.8226C52.1032 20.9561 51.7533 21.0228 51.3594 21.0228C50.9688 21.0228 50.6188 20.9561 50.3096 20.8226C50.0003 20.6892 49.7399 20.502 49.5283 20.2611C49.3167 20.017 49.1556 19.7321 49.0449 19.4066C48.9342 19.0778 48.8789 18.7214 48.8789 18.3373ZM50.168 18.2347V18.3373C50.168 18.5684 50.1908 18.7849 50.2363 18.9867C50.2819 19.1885 50.3519 19.3659 50.4463 19.5189C50.5407 19.6719 50.6628 19.7924 50.8125 19.8802C50.9655 19.9649 51.1478 20.0072 51.3594 20.0072C51.5677 20.0072 51.7467 19.9649 51.8965 19.8802C52.0462 19.7924 52.1683 19.6719 52.2627 19.5189C52.3604 19.3659 52.432 19.1885 52.4775 18.9867C52.5231 18.7849 52.5459 18.5684 52.5459 18.3373V18.2347C52.5459 18.0069 52.5231 17.7937 52.4775 17.5951C52.432 17.3933 52.3604 17.2159 52.2627 17.0629C52.1683 16.9066 52.0446 16.7845 51.8916 16.6967C51.7419 16.6055 51.5612 16.5599 51.3496 16.5599C51.1413 16.5599 50.9622 16.6055 50.8125 16.6967C50.6628 16.7845 50.5407 16.9066 50.4463 17.0629C50.3519 17.2159 50.2819 17.3933 50.2363 17.5951C50.1908 17.7937 50.168 18.0069 50.168 18.2347ZM56.0615 16.7211V20.9252H54.7725V15.642H55.9932L56.0615 16.7211ZM57.668 15.6078L57.6484 16.809C57.5768 16.7959 57.4954 16.7862 57.4043 16.7797C57.3164 16.7732 57.2334 16.7699 57.1553 16.7699C56.9567 16.7699 56.7826 16.7976 56.6328 16.8529C56.4831 16.905 56.3577 16.9815 56.2568 17.0824C56.1592 17.1833 56.0843 17.307 56.0322 17.4535C55.9801 17.5967 55.9508 17.7595 55.9443 17.9418L55.666 17.9076C55.666 17.5723 55.7002 17.2614 55.7686 16.975C55.8369 16.6885 55.9362 16.4379 56.0664 16.223C56.1966 16.0082 56.3594 15.8422 56.5547 15.725C56.7533 15.6045 56.9811 15.5443 57.2383 15.5443C57.3099 15.5443 57.3864 15.5508 57.4678 15.5638C57.5524 15.5736 57.6191 15.5883 57.668 15.6078ZM61.1201 15.642V16.5697H58.0928V15.642H61.1201ZM58.9033 14.3431H60.1973V19.4017C60.1973 19.558 60.2184 19.6784 60.2607 19.7631C60.3031 19.8477 60.3665 19.9047 60.4512 19.934C60.5358 19.9633 60.6367 19.9779 60.7539 19.9779C60.8385 19.9779 60.9167 19.973 60.9883 19.9633C61.0599 19.9535 61.1201 19.9437 61.1689 19.934L61.1738 20.9008C61.0664 20.9366 60.9443 20.9659 60.8076 20.9886C60.6742 21.0114 60.5228 21.0228 60.3535 21.0228C60.0638 21.0228 59.8099 20.974 59.5918 20.8763C59.3737 20.7754 59.2044 20.6143 59.084 20.3929C58.9635 20.1683 58.9033 19.8721 58.9033 19.5043V14.3431ZM64.3525 21.0228C63.9521 21.0228 63.5924 20.9577 63.2734 20.8275C62.9544 20.6973 62.6826 20.5166 62.458 20.2855C62.2367 20.0511 62.0658 19.7793 61.9453 19.4701C61.8281 19.1576 61.7695 18.8223 61.7695 18.4642V18.2689C61.7695 17.862 61.8281 17.4926 61.9453 17.1605C62.0625 16.8252 62.2285 16.5372 62.4434 16.2963C62.6582 16.0554 62.9154 15.8698 63.2148 15.7396C63.5143 15.6094 63.8447 15.5443 64.2061 15.5443C64.5804 15.5443 64.9108 15.6078 65.1973 15.7347C65.4837 15.8584 65.723 16.0342 65.915 16.2621C66.1071 16.4899 66.252 16.7634 66.3496 17.0824C66.4473 17.3982 66.4961 17.7481 66.4961 18.1322V18.6742H62.3555V17.7855H65.2266V17.6879C65.2201 17.4828 65.181 17.2956 65.1094 17.1263C65.0378 16.9538 64.9271 16.8171 64.7773 16.7162C64.6276 16.612 64.4339 16.5599 64.1963 16.5599C64.0042 16.5599 63.8366 16.6023 63.6934 16.6869C63.5534 16.7683 63.4362 16.8855 63.3418 17.0385C63.2507 17.1882 63.1823 17.3672 63.1367 17.5756C63.0911 17.7839 63.0684 18.015 63.0684 18.2689V18.4642C63.0684 18.6856 63.0977 18.8907 63.1562 19.0795C63.2181 19.2683 63.3076 19.4327 63.4248 19.5726C63.5452 19.7094 63.6885 19.8168 63.8545 19.8949C64.0238 19.9698 64.2158 20.0072 64.4307 20.0072C64.7008 20.0072 64.945 19.9551 65.1631 19.851C65.3844 19.7435 65.5765 19.5857 65.7393 19.3773L66.3887 20.0511C66.278 20.2139 66.1283 20.3702 65.9395 20.5199C65.7539 20.6696 65.5293 20.7917 65.2656 20.8861C65.002 20.9773 64.6976 21.0228 64.3525 21.0228ZM70.5293 19.8021V13.4252H71.8281V20.9252H70.6562L70.5293 19.8021ZM67.1357 18.347V18.2445C67.1357 17.8409 67.1813 17.4747 67.2725 17.1459C67.3669 16.8138 67.5036 16.529 67.6826 16.2914C67.8617 16.0538 68.0781 15.8698 68.332 15.7396C68.5892 15.6094 68.8805 15.5443 69.2061 15.5443C69.5218 15.5443 69.7969 15.6078 70.0312 15.7347C70.2689 15.8617 70.4707 16.0424 70.6367 16.2767C70.806 16.5111 70.9411 16.7894 71.042 17.1117C71.1429 17.4307 71.2161 17.7823 71.2617 18.1664V18.4447C71.2161 18.8191 71.1429 19.1625 71.042 19.475C70.9411 19.7875 70.806 20.0609 70.6367 20.2953C70.4707 20.5264 70.2689 20.7054 70.0312 20.8324C69.7936 20.9594 69.5153 21.0228 69.1963 21.0228C68.874 21.0228 68.5843 20.9561 68.3271 20.8226C68.0732 20.6892 67.8568 20.502 67.6777 20.2611C67.502 20.0202 67.3669 19.737 67.2725 19.4115C67.1813 19.086 67.1357 18.7312 67.1357 18.347ZM68.4297 18.2445V18.347C68.4297 18.5749 68.4492 18.7881 68.4883 18.9867C68.5273 19.1853 68.5908 19.361 68.6787 19.514C68.7666 19.6638 68.8789 19.781 69.0156 19.8656C69.1556 19.9502 69.3249 19.9926 69.5234 19.9926C69.7773 19.9926 69.9857 19.9372 70.1484 19.8265C70.3145 19.7126 70.443 19.558 70.5342 19.3627C70.6253 19.1641 70.6839 18.9411 70.71 18.6937V17.9271C70.6969 17.7318 70.6628 17.5511 70.6074 17.3851C70.5553 17.2191 70.4805 17.0759 70.3828 16.9554C70.2884 16.835 70.1712 16.7406 70.0312 16.6722C69.8913 16.6039 69.7253 16.5697 69.5332 16.5697C69.3346 16.5697 69.1654 16.6136 69.0254 16.7015C68.8854 16.7862 68.7715 16.905 68.6836 17.058C68.5957 17.211 68.5306 17.3884 68.4883 17.5902C68.4492 17.792 68.4297 18.0101 68.4297 18.2445Z" fill="black"/>
</svg>
