<svg id="prefix__Layer_2" xmlns="http://www.w3.org/2000/svg" viewBox="0 0 1816.34 1816.86">
    <defs>
        <style>
            .prefix__cls-1 {
                fill: #f2f2f3
            }
        </style>
    </defs>
    <g id="prefix__Layer_1-2" data-name="Layer_1">
        <path class="prefix__cls-1"
            d="M1364.43 540.98c6.27-1.04 14.41-9.69 19.19-15.46 45.93-54.44 86.92-114.89 136.37-165.71 21.35-16.19 46.51 5.76 36.38 30.45-37.66 72.14-94.53 133.95-136.22 204.48-13.09 40.95 78.9-8.27 97.79 12.24 13.5 9.35 14.47 29.67 6.13 44.71-19.15 35.46-78.6 44.31-122.23 53.05-36.65 7.92-86.44 9.28-115.12 33.37-38.74 33.85-5.67 95.7-6.05 174.19 1.34 18.55-2.75 45.3 11.35 57.96 26.75 21.3 103.4-38.92 155.54-81.16 19.55-15.94 36.48-29.41 55.81-44.33 18.41-13.99 43.9-35.03 65.69-28.3 18.14 4.76 30.19 26.97 20.16 43.6-13.2 21.02-37.67 35.87-55.28 54.12-20.53 18.8-46.39 38.04-6.33 38.91 87.68 1.06 169.08-42.91 254.59-58.27 17.54-3.87 40.14 9.05 32.68 28-27.95 49.75-212.91 83.74-287.15 101.94-47.93 11.35-21.25 33.55 9.34 47.5 29.07 12.39 62.51 42.61 28.16 70.22-71.07 37.24-139.65-31.33-200.66-66.26-110.89-69.87-113.35.58-171.61 78.21-15.63 20.35-44.83 40.66-52.59 58.08-17.75 38.91 72.89 53.5 138.27 61.72 23.04 2.83 42.33 5.3 64.44 7.86 35.25 3.16 92.32 8.16 84.21 54.11-9.33 44.12-76.61 18.29-107.17 20.75-28.97-2.51-57.29-6.72-27.54 21.92 43.51 42.13 89.49 75.06 132.74 110.4 17.08 15.11 52.88 33.03 37.12 59.81-17.83 22.64-47.82 2.28-66.01-10.51-54.38-37.86-107.31-77.73-161.35-115.27-19.17-11.63-32.42-3.35-26.45 19.85 4.95 20.2 13.39 43.16 11.23 61.54-1.67 21.45-22.12 33.56-41.24 24.48-84.6-45.68-50.38-222.22-111.6-262.65-31.85-16.29-83.61 12.7-135.52 15.62-16.58 1.29-34.81.33-50.93 2.93-102.84 17.43 112.2 234.44 124.58 282.74 6.6 16.31-.76 38.11-18.52 40.06-37.48-1.05-67-51.45-92.44-78.78-23.49-29.63-33.33-32.06-27.97 4.41 9.92 70.68 26.2 131.54 42.31 195.01 5.11 21.67 18.98 45.09 16.6 67.82-3.11 20.68-30.53 27.29-44.7 12.56-7.94-7.65-12.83-19.15-16.71-29.86-29.35-86.84-57.22-171.54-70.38-265.13-2.38-24.46-11.56-40.27-31.74-13.56-26.01 34.89-47.91 97.95-87.4 46.95-45.27-64.67 44.45-151.09 84.91-214.33 59.02-81.46-34.52-92.02-85.15-133.44-24.66-18.2-45.57-46.85-63.73-53.04-72.25-19.94-71.49 203.37-98.37 274.82-7.61 18.25-33.55 25.67-47.45 9.74-19.86-24.51-10.22-58.61-10.68-90.36 1.64-32.74-5.92-52.85-30.98-27.59-43.15 44.44-75.65 90.27-114.23 135.63-16.65 23.87-52.04 20.96-50.66-13.03 1.29-10.49 7.23-20.42 13.13-29.43 40.09-57.19 81.71-112.6 124.35-170.18 10.67-13.14 19.88-33.57-7.19-33.28-28.97-.81-67.63 21.24-87.19-7.13-23.33-79.7 113.83-87.25 182.17-96.24 24.86-3.55 63.36-5.58 74.33-29.76 14.75-32.97-21.41-94.23-22.54-146.38 19.05-187.88-201.6 49.15-283.76 82.71-37.42 9.85-52.43-24.59-25.24-52.53 12.42-14.93 30.89-30.14 47.63-44.65 11.34-9.7 21.68-19.16 21.82-25.11-.93-9.67-16.07-8.36-24.6-9.01-76.58-.07-141 23.66-208.75 43.89-19.75 6.79-57.01 12.62-62.05-13.37 10.57-61.22 242.76-98.36 322.58-114.96 43.18-7.64-25.16-43.98-41.55-54.81-34.1-18.64-40.22-49.82-.88-67.71 80.03-26.16 143.11 54.23 206.6 91.11 72.02 52.97 71.35-.37 126.13-69.67 14.08-19.18 30.98-37.72 45.04-54.21 9.65-11.7 17.4-24.59 16.8-35.25-1.73-51.21-156.96-63.75-231.61-76.29-20.58-3.92-43.89-6.21-58.18-23.56-15.35-18.96.25-42.73 24.09-45.59 29.73-4.01 58.34 1.64 87.78 2.84 17.02 1.16 39.37 3.89 43.09-.93 3.49-6.39-7.84-13.68-12.94-18.73-47.68-39.32-90.62-74.58-132.41-109.96-12.82-11.5-30-21.2-37.19-37.36-7-16.18 6.43-33.95 24-32.32 11.35.74 22.16 7.33 31.85 13.59 56.33 39.09 111.01 79.92 168.08 121.42 7.46 4.93 20.09 15.45 28.51 10.2 12.89-11.71.33-46.77-.67-66.06-7.03-44.76 39.35-51.12 65.19-21.94 68.47 67.44 13.44 245.43 92.26 245.9 22.97-.36 46.83-12.39 69.64-17.15 58-16.74 141.77 15.98 137.11-30.52-20.09-88.06-103.36-144.75-144.74-220.76-5.86-10.98-11.24-22.96-12.52-35.24-3.15-20.41 12.67-41.08 33.6-30.61 26.2 13.21 47.1 41.52 67.32 64.12 13.92 14.73 35.21 46.94 36.81 18.63-4.36-79.34-26.59-154.06-50.09-225.45-6.05-19.97-16.23-42.86-11.55-63.65 57.43-106.41 124.16 236.52 138.14 299.04 10.74 59.2 48.69-87.13 86.51-79.13 12.67.16 25.76 12.42 32.1 27.37 40.79 98.39-159.23 228.15-84.67 299.36 17.31 15.21 39.86 23.38 58.95 37.33 16.82 11.75 31.7 26.73 44.98 40.71 21.03 22.13 38.07 41.74 52.51 41.99 43.69-7.23 55.09-162.89 60.68-202.64 3.78-26.57 2.83-58.51 20.19-80.31 11.28-13.45 34.37-16.3 47.83-4.26 29.58 19.51-14.14 135.68 14.4 141.29l.69-.1zm-454.6 681.22c177.5.55 302.59-134.28 306.32-299.17 6.81-155.77-99.48-298.25-259.96-317.88-437.7-58.17-484.53 611.36-48.01 617.05h1.65z" />
        <path class="prefix__cls-1"
            d="M1750.92 550.76c4.93 42.2-.05 100.31-33.71 132.14-9.49 8.86-30.01 21.13-40.38 10.06-13.97-23.96-1.35-73.09 6.25-115.77 6.42-38.23 17.24-68.88 18.4-106.49-.02-12.71-.18-29.51 9.75-38.32 5.1-4.65 12.37-4.48 17.05.62 18.4 20.64 18.42 85.02 22.51 116.57l.12 1.19zM426.98 84.13c3.67-4.47 11.94-7.38 18.43-8.71 72.37-16.49 149.97-34.85 220.07 6.75 16.96 8.48 40.12 32.14 29.1 50.41-21.19 18.65-105.02-3.33-142.25-9.54-34.62-7.16-63.69-13.93-93.93-19.97-15.23-3.98-39.7-2.64-31.95-18.28l.53-.65zM1382.61 1722.22c-74.49 37.76-226.02 55.7-264.27-18.25-18.53-38.41 28.85-33.23 61.44-29.36 44.31 6.4 98.33 21.98 141.75 32.81 21.66 5.51 38.77 9.14 55.03 11.72 2.29.56 5.75.9 6.11 2.81l-.06.28zM88.53 1403.32c-3.27.88-5.77-8.99-7.05-12.75-25.6-84.58-46.89-237.13 24.47-271.27 13.73-7.34 33.13-3.44 35.52 14.33-6.6 82.13-29.84 158.85-46.41 250.6-1.2 5.56-3.31 16.81-6.18 18.91l-.35.19zM1118.35 88.71c2.3-2.34 8.48-.03 12.16 1.12 55 18.33 112.2 61.73 137.21 112.12 11.47 23.41 18.24 46.21 12.97 68.36-5.42 19.28-23.03 23.36-46.81-.15-46.79-48.27-71.45-112.39-109.64-167.26-2.49-3.89-7.27-10.5-6.11-13.82l.21-.36zM1733.87 1108.81c2.33 2.97-.9 9.9-2.6 14.08-25.15 54.22-56.43 102.55-105.25 137.13-25.77 17.47-57.38 30.3-84.11 20.79-22.07-8.77-24.55-34.18 9.41-59.93 56.45-35.3 102.98-65.05 165.19-105.88 4.61-2.77 13.42-8.38 16.98-6.49l.38.29zM88.77 692.55c-2.35-2.88 1.1-12.14 2.81-16.84 19.3-51.37 53.53-91.25 93.02-125.37 22.19-20.87 77.15-31.49 97.74-6.88 12.92 50.02-143.09 112.59-178.52 142.6-4 2.67-11.46 8.5-14.71 6.76l-.34-.28zM693.67 1724.99c-73.3-16.18-192.9-116.71-158.59-181.57 16.79-30.49 40.11-8.91 59.75 15.64 31.43 40.06 58.87 94.57 84.86 138.52 7.37 13.14 16.9 24.82 14.25 27.19l-.26.22z" />
        <path
            d="M1191.2 908.38c-.55-161.85-125.17-274.69-275.53-276.13-141.35-4.42-269.94 93.07-285.96 238.99-49.5 396.44 558.02 435.92 561.5 38.78v-1.65z"
            fill="#415065" />
        <path class="prefix__cls-1"
            d="M1191.21 910.03c-3.57 397.17-611.07 357.61-561.5-38.82C645.76 725.29 774.33 627.8 915.7 632.25c150.32 1.47 275 114.28 275.49 276.13v1.65z" />
    </g>
</svg>