<svg width="61" height="57" viewBox="0 0 61 57" fill="none" xmlns="http://www.w3.org/2000/svg">
<path fill-rule="evenodd" clip-rule="evenodd" d="M10.0404 24.1028L15.9353 9.63234C15.9353 9.63234 12.7604 6.35451 15.9353 2.39712C19.112 -1.56028 28.228 2.02115 25.9888 7.69424C24.0176 11.7381 20.1456 11.2386 20.1456 11.2386L14.2508 25.709L10.0404 24.101V24.1028Z" fill="#FDE897"/>
<path fill-rule="evenodd" clip-rule="evenodd" d="M19.4305 1.91697C21.5791 1.75634 22.0636 4.19927 20.9449 5.28834C20.0832 6.26269 17.1247 6.85047 16.9083 4.32459C16.0763 7.12936 18.9275 9.13983 18.9275 9.13983L13.3766 22.1435C13.3766 22.1435 14.1273 23.0454 15.3958 22.6253C15.4383 22.6112 15.4845 22.59 15.5308 22.5724L20.1479 11.2386C20.1479 11.2386 23.0288 11.6075 25.085 9.11336C25.2385 8.60853 25.3753 8.13018 25.4862 7.6942C26.3165 4.43226 23.2137 0.354838 19.4323 1.9152L19.4305 1.91697Z" fill="#C59D50"/>
<path d="M19.8311 1.58964e-05C18.1429 -0.00351434 16.4362 0.580741 15.3323 1.9593C14.1803 3.38904 13.7606 4.80996 13.7643 6.03496C13.7753 7.83361 14.6037 9.15392 15.0697 9.75936L9.06018 24.5122L9.75913 24.7787L14.6814 26.6586L20.6576 11.9869C21.9076 11.9834 24.9974 11.4786 26.6764 8.00306L26.6894 7.97835L26.7005 7.95188C26.9704 7.26877 27.0998 6.5945 27.098 5.94846C27.0388 2.28937 23.2427 0.00884149 19.8329 1.58964e-05H19.8311ZM20.5559 10.536C20.3377 10.536 20.249 10.5201 20.2471 10.5237L19.6536 10.4478L13.8197 24.7682L11.0202 23.6985L16.8152 9.47517L16.4935 9.14333C16.4935 9.14333 15.2694 7.86362 15.2842 6.03496C15.2879 5.11533 15.5727 4.0492 16.5397 2.84009C17.2997 1.89399 18.4831 1.45447 19.8329 1.45094C22.6195 1.45447 25.5744 3.42258 25.5799 5.94846C25.5799 6.4021 25.4911 6.88927 25.2896 7.41175C23.8529 10.3118 21.4694 10.5148 20.5559 10.5378V10.536Z" fill="black"/>
<path fill-rule="evenodd" clip-rule="evenodd" d="M16.754 50.2075L28.0057 50.0804C28.0057 50.0804 26.6559 25.6176 18.9248 20.7C16.1494 20.5994 12.6231 20.7 9.84212 20.7C7.0611 20.7 0.672516 35.5852 0.759423 42.8558C0.759423 47.0091 1.22539 55.9724 1.22539 55.9724C1.22539 55.9724 2.76568 34.5473 9.84027 25.9989C13.8121 28.5918 16.7522 50.2075 16.7522 50.2075H16.754Z" fill="#C59D50"/>
<path fill-rule="evenodd" clip-rule="evenodd" d="M19.992 50.1702C19.8274 42.5326 17.7934 29.1441 10.6837 20.6963C10.3989 20.6963 10.116 20.6998 9.8442 20.6998C7.06318 20.6998 0.674591 35.5851 0.761498 42.8556C0.761498 47.0089 1.22747 55.9722 1.22747 55.9722C1.22747 55.9722 2.76776 34.5472 9.84235 25.9987C13.8142 28.5917 16.7542 50.2073 16.7542 50.2073L19.992 50.1702Z" fill="#ABB4C7"/>
<path d="M16.7546 50.2074L16.7638 50.9329L28.0155 50.8058C28.2207 50.8041 28.4204 50.7211 28.5591 50.5764C28.6996 50.4334 28.7754 50.2392 28.7644 50.0433C28.659 49.955 27.6531 25.6299 19.3451 20.0981L18.9531 19.978C18.0138 19.9427 16.9968 19.9321 15.9539 19.9321C13.87 19.9321 11.6825 19.978 9.84083 19.978C7.41483 20.3205 5.67484 24.0519 3.55949 28.6906C1.6124 33.3417 0.00739634 38.8648 0 42.7092V42.8681L0.759977 42.8575H0C0 47.0496 0.467818 56.0023 0.467818 56.0094C0.486309 56.3924 0.817295 56.696 1.21855 56.6978C1.61795 56.7013 1.95448 56.4048 1.98222 56.0235C1.95263 55.9917 3.60202 34.6161 10.4362 26.4507L9.84083 26.0006L9.41184 26.599C10.9188 27.4268 12.8937 33.5641 14.0419 39.2231C15.2679 44.9192 15.9964 50.2922 16.0001 50.3028C16.0501 50.6681 16.3773 50.9382 16.7619 50.9347L16.7527 50.2092L17.5071 50.1157C17.3758 49.9868 14.85 28.7101 10.2698 25.4022C9.94068 25.1869 9.4932 25.2522 9.24542 25.5505C1.93044 34.4785 0.5048 55.8611 0.467818 55.9247L1.22594 55.9741L1.98407 55.9388C1.98407 55.9247 1.5181 46.9737 1.51995 42.8575V42.8487C1.51995 42.8028 1.51995 42.7551 1.51995 42.7075C1.5107 39.2302 3.06578 33.7477 4.97219 29.229C5.92077 26.9661 6.95811 24.9309 7.90299 23.4977C8.7961 22.0326 9.77981 21.3936 9.84453 21.429C11.7103 21.429 13.894 21.3831 15.9576 21.3831C16.9875 21.3831 17.9879 21.3936 18.8976 21.4272L18.9272 20.7017L18.5056 21.3054C21.9727 23.4271 24.3672 30.6941 25.6209 37.368C26.9153 44.0454 27.2463 50.1086 27.25 50.121L28.0081 50.0821L27.9988 49.3567L16.7472 49.4837L16.7564 50.2092L16.7546 50.2074Z" fill="black"/>
<path fill-rule="evenodd" clip-rule="evenodd" d="M19.9719 49.4463L17.398 49.4746C16.8507 45.902 14.3932 28.3761 10.2716 25.4001C9.94248 25.1848 9.495 25.2501 9.24722 25.5484C5.02576 30.7008 2.76618 39.9976 1.6031 46.954C1.55503 45.4165 1.5199 43.9603 1.52174 42.8536V42.8448C1.52174 42.7989 1.52174 42.7512 1.52174 42.7036C1.5125 39.2263 3.06758 33.7438 4.97398 29.2251C5.92256 26.9622 6.9599 24.927 7.90478 23.4938C8.79789 22.0287 9.7816 21.3897 9.84632 21.425C10.3049 21.425 10.7838 21.4215 11.2738 21.418C10.8837 20.9202 10.4787 20.4401 10.0553 19.9741C9.98685 19.9741 9.91474 19.9741 9.84632 19.9741C7.42032 20.3166 5.68033 24.048 3.56498 28.6867C1.61789 33.3378 0.0128895 38.8609 0.00549316 42.7053V42.8642C0.00549316 47.0599 0.473311 56.0002 0.473311 56.0073C0.473311 56.0373 0.480709 56.0673 0.486256 56.0973C0.913395 56.2208 1.34978 56.3409 1.79356 56.4521C1.90266 56.3356 1.97477 56.1873 1.98771 56.0214C1.95813 55.9896 3.528 35.6572 9.94617 27.077C11.3626 28.8121 13.0304 34.2027 14.0474 39.221C15.2734 44.917 16.0019 50.29 16.0056 50.3006C16.0555 50.666 16.3828 50.9361 16.7674 50.9325L20.0052 50.8955C20.0015 50.4365 19.9922 49.9511 19.9738 49.4463H19.9719Z" fill="black"/>
<path d="M9.23047 21.2344C14.7703 21.9228 19.5428 42.4158 19.3912 49.6616C19.3912 49.9794 19.3838 50.2706 19.3671 50.5301L20.5043 50.5936C20.5228 50.3077 20.5302 49.9952 20.5302 49.6599C20.3805 42.0752 16.5436 21.8204 9.44866 20.1665L9.23047 21.2326V21.2344Z" fill="black"/>
<path d="M60.5547 9.23807V19.7852C60.5547 21.6127 58.8331 23.0936 56.7111 23.0936H27.5114L19.5547 27.9297V14.7381L19.5603 14.7429V9.23807C19.5603 7.41064 21.2819 5.92969 23.4039 5.92969H56.7111C58.8331 5.92969 60.5547 7.41064 60.5547 9.23807Z" fill="#ABB4C7"/>
<path d="M28.3927 16.0845C28.3927 15.9478 28.3715 15.8257 28.3292 15.7183C28.2902 15.6076 28.2169 15.5083 28.1095 15.4204C28.0053 15.3293 27.8572 15.2414 27.6652 15.1567C27.4764 15.0688 27.2322 14.9777 26.9327 14.8833C26.6007 14.7791 26.2915 14.6619 26.005 14.5317C25.7185 14.4015 25.4663 14.2502 25.2482 14.0776C25.0333 13.9051 24.8657 13.7065 24.7452 13.4819C24.6248 13.2541 24.5646 12.9904 24.5646 12.6909C24.5646 12.3979 24.6264 12.131 24.7501 11.8901C24.8771 11.6493 25.0561 11.4425 25.2872 11.27C25.5184 11.0942 25.7902 10.9591 26.1027 10.8647C26.4184 10.7703 26.7667 10.7231 27.1476 10.7231C27.6749 10.7231 28.1307 10.8192 28.5148 11.0112C28.9021 11.2033 29.2016 11.4637 29.4132 11.7925C29.6248 12.1213 29.7306 12.4907 29.7306 12.9009H28.3927C28.3927 12.6795 28.3455 12.4842 28.2511 12.3149C28.16 12.1457 28.02 12.0122 27.8312 11.9146C27.6456 11.8169 27.4113 11.7681 27.1281 11.7681C26.8546 11.7681 26.6267 11.8088 26.4445 11.8901C26.2654 11.9715 26.1303 12.0822 26.0392 12.2222C25.9513 12.3621 25.9073 12.5184 25.9073 12.6909C25.9073 12.8211 25.9383 12.9383 26.0001 13.0425C26.062 13.1434 26.1547 13.2394 26.2784 13.3306C26.4021 13.4185 26.5551 13.5015 26.7374 13.5796C26.923 13.6545 27.1378 13.7293 27.382 13.8042C27.7726 13.9214 28.1144 14.0516 28.4073 14.1948C28.7036 14.3381 28.9493 14.5008 29.1447 14.6831C29.3432 14.8654 29.4913 15.0705 29.589 15.2983C29.6899 15.5262 29.7404 15.785 29.7404 16.0747C29.7404 16.3807 29.6801 16.6541 29.5597 16.895C29.4392 17.1359 29.2667 17.341 29.0421 17.5103C28.8175 17.6795 28.5473 17.8081 28.2316 17.896C27.9191 17.9839 27.5691 18.0278 27.1818 18.0278C26.8367 18.0278 26.4949 17.9823 26.1564 17.8911C25.8211 17.7967 25.5167 17.6567 25.2433 17.4712C24.9698 17.2824 24.7517 17.0448 24.589 16.7583C24.4262 16.4686 24.3448 16.13 24.3448 15.7427H25.6925C25.6925 15.9673 25.7283 16.1593 25.7999 16.3188C25.8748 16.4751 25.979 16.6037 26.1124 16.7046C26.2491 16.8022 26.4087 16.8739 26.5909 16.9194C26.7732 16.965 26.9702 16.9878 27.1818 16.9878C27.4552 16.9878 27.6798 16.9504 27.8556 16.8755C28.0346 16.7974 28.1681 16.6899 28.256 16.5532C28.3471 16.4165 28.3927 16.2603 28.3927 16.0845ZM30.4484 15.3423V15.2397C30.4484 14.8524 30.5037 14.4959 30.6144 14.1704C30.7251 13.8416 30.8862 13.5568 31.0978 13.3159C31.3094 13.075 31.5682 12.8879 31.8741 12.7544C32.1801 12.6177 32.5284 12.5493 32.9191 12.5493C33.3162 12.5493 33.6678 12.6177 33.9738 12.7544C34.283 12.8879 34.5434 13.075 34.755 13.3159C34.9666 13.5568 35.1277 13.8416 35.2384 14.1704C35.3491 14.4959 35.4044 14.8524 35.4044 15.2397V15.3423C35.4044 15.7264 35.3491 16.0828 35.2384 16.4116C35.1277 16.7371 34.9666 17.022 34.755 17.2661C34.5434 17.507 34.2846 17.6942 33.9786 17.8276C33.6726 17.9611 33.3227 18.0278 32.9288 18.0278C32.5382 18.0278 32.1883 17.9611 31.879 17.8276C31.5698 17.6942 31.3094 17.507 31.0978 17.2661C30.8862 17.022 30.7251 16.7371 30.6144 16.4116C30.5037 16.0828 30.4484 15.7264 30.4484 15.3423ZM31.7374 15.2397V15.3423C31.7374 15.5734 31.7602 15.7899 31.8058 15.9917C31.8514 16.1935 31.9213 16.3709 32.0157 16.5239C32.1101 16.6769 32.2322 16.7974 32.382 16.8853C32.535 16.9699 32.7172 17.0122 32.9288 17.0122C33.1372 17.0122 33.3162 16.9699 33.4659 16.8853C33.6157 16.7974 33.7378 16.6769 33.8322 16.5239C33.9298 16.3709 34.0014 16.1935 34.047 15.9917C34.0926 15.7899 34.1154 15.5734 34.1154 15.3423V15.2397C34.1154 15.0119 34.0926 14.7987 34.047 14.6001C34.0014 14.3983 33.9298 14.2209 33.8322 14.0679C33.7378 13.9116 33.6141 13.7896 33.4611 13.7017C33.3113 13.6105 33.1307 13.5649 32.9191 13.5649C32.7107 13.5649 32.5317 13.6105 32.382 13.7017C32.2322 13.7896 32.1101 13.9116 32.0157 14.0679C31.9213 14.2209 31.8514 14.3983 31.8058 14.6001C31.7602 14.7987 31.7374 15.0119 31.7374 15.2397ZM37.631 13.7261V17.9302H36.3419V12.647H37.5626L37.631 13.7261ZM39.2374 12.6128L39.2179 13.814C39.1463 13.8009 39.0649 13.7912 38.9738 13.7847C38.8859 13.7782 38.8029 13.7749 38.7247 13.7749C38.5262 13.7749 38.352 13.8026 38.2023 13.8579C38.0525 13.91 37.9272 13.9865 37.8263 14.0874C37.7286 14.1883 37.6538 14.312 37.6017 14.4585C37.5496 14.6017 37.5203 14.7645 37.5138 14.9468L37.2355 14.9126C37.2355 14.5773 37.2697 14.2664 37.338 13.98C37.4064 13.6935 37.5057 13.4429 37.6359 13.228C37.7661 13.0132 37.9288 12.8472 38.1241 12.73C38.3227 12.6095 38.5506 12.5493 38.8077 12.5493C38.8794 12.5493 38.9559 12.5558 39.0372 12.5688C39.1219 12.5786 39.1886 12.5933 39.2374 12.6128ZM42.6896 12.647V13.5747H39.6622V12.647H42.6896ZM40.4728 11.3481H41.7667V16.4067C41.7667 16.563 41.7879 16.6834 41.8302 16.7681C41.8725 16.8527 41.936 16.9097 42.0206 16.939C42.1053 16.9683 42.2062 16.9829 42.3234 16.9829C42.408 16.9829 42.4861 16.978 42.5577 16.9683C42.6294 16.9585 42.6896 16.9487 42.7384 16.939L42.7433 17.9058C42.6359 17.9416 42.5138 17.9709 42.3771 17.9937C42.2436 18.0164 42.0922 18.0278 41.923 18.0278C41.6333 18.0278 41.3794 17.979 41.1613 17.8813C40.9432 17.7804 40.7739 17.6193 40.6534 17.3979C40.533 17.1733 40.4728 16.8771 40.4728 16.5093V11.3481ZM45.922 18.0278C45.5216 18.0278 45.1619 17.9627 44.8429 17.8325C44.5239 17.7023 44.2521 17.5216 44.0275 17.2905C43.8061 17.0562 43.6352 16.7843 43.5148 16.4751C43.3976 16.1626 43.339 15.8273 43.339 15.4692V15.2739C43.339 14.867 43.3976 14.4976 43.5148 14.1655C43.632 13.8302 43.798 13.5422 44.0128 13.3013C44.2277 13.0604 44.4848 12.8748 44.7843 12.7446C45.0838 12.6144 45.4142 12.5493 45.7755 12.5493C46.1499 12.5493 46.4803 12.6128 46.7667 12.7397C47.0532 12.8634 47.2924 13.0392 47.4845 13.2671C47.6766 13.495 47.8214 13.7684 47.9191 14.0874C48.0167 14.4032 48.0656 14.7531 48.0656 15.1372V15.6792H43.9249V14.7905H46.796V14.6929C46.7895 14.4878 46.7504 14.3006 46.6788 14.1313C46.6072 13.9588 46.4965 13.8221 46.3468 13.7212C46.1971 13.617 46.0034 13.5649 45.7657 13.5649C45.5737 13.5649 45.406 13.6073 45.2628 13.6919C45.1228 13.7733 45.0057 13.8905 44.9113 14.0435C44.8201 14.1932 44.7517 14.3722 44.7062 14.5806C44.6606 14.7889 44.6378 15.02 44.6378 15.2739V15.4692C44.6378 15.6906 44.6671 15.8957 44.7257 16.0845C44.7876 16.2733 44.8771 16.4377 44.9943 16.5776C45.1147 16.7144 45.2579 16.8218 45.424 16.8999C45.5932 16.9748 45.7853 17.0122 46.0001 17.0122C46.2703 17.0122 46.5144 16.9601 46.7325 16.856C46.9539 16.7485 47.146 16.5907 47.3087 16.3823L47.9581 17.0562C47.8475 17.2189 47.6977 17.3752 47.5089 17.5249C47.3234 17.6746 47.0988 17.7967 46.8351 17.8911C46.5714 17.9823 46.267 18.0278 45.922 18.0278ZM52.0988 16.8071V10.4302H53.3976V17.9302H52.2257L52.0988 16.8071ZM48.7052 15.3521V15.2495C48.7052 14.8459 48.7508 14.4797 48.8419 14.1509C48.9363 13.8188 49.073 13.534 49.2521 13.2964C49.4311 13.0588 49.6476 12.8748 49.9015 12.7446C50.1587 12.6144 50.45 12.5493 50.7755 12.5493C51.0913 12.5493 51.3663 12.6128 51.6007 12.7397C51.8383 12.8667 52.0402 13.0474 52.2062 13.2817C52.3754 13.5161 52.5105 13.7944 52.6115 14.1167C52.7124 14.4357 52.7856 14.7873 52.8312 15.1714V15.4497C52.7856 15.8241 52.7124 16.1675 52.6115 16.48C52.5105 16.7925 52.3754 17.0659 52.2062 17.3003C52.0402 17.5314 51.8383 17.7104 51.6007 17.8374C51.3631 17.9644 51.0848 18.0278 50.7657 18.0278C50.4435 18.0278 50.1538 17.9611 49.8966 17.8276C49.6427 17.6942 49.4262 17.507 49.2472 17.2661C49.0714 17.0252 48.9363 16.742 48.8419 16.4165C48.7508 16.091 48.7052 15.7362 48.7052 15.3521ZM49.9991 15.2495V15.3521C49.9991 15.5799 50.0187 15.7931 50.0577 15.9917C50.0968 16.1903 50.1603 16.366 50.2482 16.519C50.3361 16.6688 50.4484 16.786 50.5851 16.8706C50.7251 16.9552 50.8943 16.9976 51.0929 16.9976C51.3468 16.9976 51.5551 16.9422 51.7179 16.8315C51.8839 16.7176 52.0125 16.563 52.1036 16.3677C52.1948 16.1691 52.2534 15.9461 52.2794 15.6987V14.9321C52.2664 14.7368 52.2322 14.5562 52.1769 14.3901C52.1248 14.2241 52.0499 14.0809 51.9523 13.9604C51.8579 13.84 51.7407 13.7456 51.6007 13.6772C51.4607 13.6089 51.2947 13.5747 51.1027 13.5747C50.9041 13.5747 50.7348 13.6187 50.5948 13.7065C50.4549 13.7912 50.3409 13.91 50.2531 14.063C50.1652 14.216 50.1001 14.3934 50.0577 14.5952C50.0187 14.797 49.9991 15.0151 49.9991 15.2495Z" fill="black"/>
</svg>
