<svg width="47" height="37" viewBox="0 0 47 37" fill="none" xmlns="http://www.w3.org/2000/svg">
<path fill-rule="evenodd" clip-rule="evenodd" d="M24.4169 12.6405L26.509 15.3895C26.595 15.5819 26.595 15.7743 26.509 15.9667C26.423 16.2141 26.2224 16.3791 25.9645 16.434L24.7895 16.5715C24.5029 16.6265 24.2737 16.7914 24.159 17.0388C24.1017 17.2038 24.1017 17.3412 24.159 17.5061C24.2163 17.836 24.3023 18.1384 24.4169 18.4408C24.5602 18.6057 24.5602 18.8531 24.4169 19.018H24.073C24.073 19.018 24.7608 19.6778 23.7005 20.2825V22.1243C23.9011 23.0865 23.2133 24.0211 22.2103 24.2135C21.981 24.241 21.7804 24.241 21.5511 24.2135L18.6853 23.9111C17.9115 23.8287 17.1664 24.2685 16.9371 24.9832C16.4212 26.4401 16.0487 27.9521 15.8194 29.4915C15.7334 31.1958 16.02 32.8726 16.6219 34.467C16.8798 35.1817 16.4786 35.9789 15.7334 36.1988C15.5902 36.2538 15.4469 36.2813 15.2749 36.2813H2.32132C1.0317 36.2813 0 35.2917 0 34.0547C0 33.6698 0.0859708 33.3125 0.28658 32.9826C1.63352 30.6185 3.15241 28.3369 4.84325 26.1653C5.87496 24.8733 6.41947 23.2789 6.39081 21.657C6.44813 21.1897 6.44813 20.7499 6.39081 20.2825C6.16154 18.9906 2.26401 13.2728 2.43596 9.80913C2.69388 5.13595 6.24752 1.25996 11.0335 0.380306C16.7938 -0.52684 24.4169 4.97102 24.1017 9.8916C24.1304 10.2215 24.1304 10.5788 24.1017 10.9087C23.9297 11.5135 24.0444 12.1457 24.4169 12.6405Z" fill="#FC4F00"/>
<path d="M25.8503 18.4132C26.0509 18.4132 26.1942 18.5507 26.1942 18.7431V21.9044C26.1942 22.0968 26.0509 22.2342 25.8503 22.2342C25.6496 22.2342 25.5063 22.0968 25.5063 21.9044V18.7431C25.5063 18.5507 25.6496 18.4132 25.8503 18.4132Z" fill="#00C3B6"/>
<path d="M26.881 16.7639C27.0816 16.7639 27.2249 16.9013 27.2249 17.0938V23.5263C27.2249 23.7187 27.0816 23.8561 26.881 23.8561C26.6804 23.8561 26.5371 23.7187 26.5371 23.5263V17.0938C26.5371 16.9013 26.6804 16.7639 26.881 16.7639Z" fill="#00C3B6"/>
<path d="M27.9133 17.3962C28.1139 17.3962 28.2571 17.5336 28.2571 17.726V22.9215C28.2571 23.1139 28.1139 23.2514 27.9133 23.2514C27.7126 23.2514 27.5693 23.1139 27.5693 22.9215V17.726C27.5693 17.5336 27.7126 17.3962 27.9133 17.3962Z" fill="#00C3B6"/>
<path d="M28.9738 16.434C29.1744 16.434 29.3177 16.5715 29.3177 16.7639V23.8836C29.3177 24.076 29.1744 24.2135 28.9738 24.2135C28.7732 24.2135 28.6299 24.076 28.6299 23.8836V16.7639C28.6299 16.5715 28.7732 16.434 28.9738 16.434Z" fill="#00C3B6"/>
<path d="M30.004 15.7193C30.2046 15.7193 30.3479 15.8568 30.3479 16.0492V24.5984C30.3479 24.7908 30.2046 24.9282 30.004 24.9282C29.8034 24.9282 29.6602 24.7908 29.6602 24.5984V16.0492C29.6602 15.8568 29.8034 15.7193 30.004 15.7193Z" fill="#00C3B6"/>
<path d="M34.1603 17.3962C34.3609 17.3962 34.5042 17.5336 34.5042 17.726V22.9215C34.5042 23.1139 34.3609 23.2514 34.1603 23.2514C33.9597 23.2514 33.8164 23.1139 33.8164 22.9215V17.726C33.8164 17.5336 33.9597 17.3962 34.1603 17.3962Z" fill="#00C3B6"/>
<path d="M33.1295 16.434C33.3302 16.434 33.4735 16.5715 33.4735 16.7639V23.8836C33.4735 24.076 33.3302 24.2135 33.1295 24.2135C32.9289 24.2135 32.7856 24.076 32.7856 23.8836V16.7639C32.7856 16.5715 32.9289 16.434 33.1295 16.434Z" fill="#00C3B6"/>
<path d="M32.069 15.7193C32.2696 15.7193 32.4129 15.8568 32.4129 16.0492V24.5984C32.4129 24.7908 32.2696 24.9282 32.069 24.9282C31.8684 24.9282 31.7251 24.7908 31.7251 24.5984V16.0492C31.7251 15.8568 31.8684 15.7193 32.069 15.7193Z" fill="#00C3B6"/>
<path d="M31.0368 14.7297C31.2374 14.7297 31.3807 14.8671 31.3807 15.0596V25.5605C31.3807 25.7529 31.2374 25.8903 31.0368 25.8903C30.8362 25.8903 30.6929 25.7529 30.6929 25.5605V15.0596C30.6929 14.8671 30.8362 14.7297 31.0368 14.7297Z" fill="#00C3B6"/>
<path d="M35.1925 17.9184C35.3931 17.9184 35.5364 18.0559 35.5364 18.2483V22.3992C35.5364 22.5916 35.3931 22.7291 35.1925 22.7291C34.9919 22.7291 34.8486 22.5916 34.8486 22.3992V18.2483C34.8486 18.0559 34.9919 17.9184 35.1925 17.9184Z" fill="#00C3B6"/>
<path d="M36.2531 17.9184C36.4537 17.9184 36.597 18.0559 36.597 18.2483V22.3992C36.597 22.5916 36.4537 22.7291 36.2531 22.7291C36.0525 22.7291 35.9092 22.5916 35.9092 22.3992V18.2483C35.9092 18.0559 36.0525 17.9184 36.2531 17.9184Z" fill="#00C3B6"/>
<path d="M40.4074 17.3962C40.608 17.3962 40.7513 17.5336 40.7513 17.726V22.9215C40.7513 23.1139 40.608 23.2514 40.4074 23.2514C40.2068 23.2514 40.0635 23.1139 40.0635 22.9215V17.726C40.0635 17.5336 40.2068 17.3962 40.4074 17.3962Z" fill="#00C3B6"/>
<path d="M41.4396 16.434C41.6402 16.434 41.7835 16.5715 41.7835 16.7639V23.8836C41.7835 24.076 41.6402 24.2135 41.4396 24.2135C41.239 24.2135 41.0957 24.076 41.0957 23.8836V16.7639C41.0957 16.5715 41.239 16.434 41.4396 16.434Z" fill="#00C3B6"/>
<path d="M42.5001 15.7193C42.7008 15.7193 42.8441 15.8568 42.8441 16.0492V24.5984C42.8441 24.7908 42.7008 24.9282 42.5001 24.9282C42.2995 24.9282 42.1562 24.7908 42.1562 24.5984V16.0492C42.1562 15.8568 42.2995 15.7193 42.5001 15.7193Z" fill="#00C3B6"/>
<path d="M38.316 17.9184C38.5167 17.9184 38.66 18.0559 38.66 18.2483V22.3992C38.66 22.5916 38.5167 22.7291 38.316 22.7291C38.1154 22.7291 37.9722 22.5916 37.9722 22.3992V18.2483C37.9722 18.0559 38.1154 17.9184 38.316 17.9184Z" fill="#00C3B6"/>
<path d="M39.3766 17.9184C39.5772 17.9184 39.7205 18.0559 39.7205 18.2483V22.3992C39.7205 22.5916 39.5772 22.7291 39.3766 22.7291C39.176 22.7291 39.0327 22.5916 39.0327 22.3992V18.2483C39.0327 18.0559 39.176 17.9184 39.3766 17.9184Z" fill="#00C3B6"/>
<path d="M37.2838 18.6882C37.4844 18.6882 37.6278 18.8257 37.6278 19.0181V21.6021C37.6278 21.7945 37.4844 21.932 37.2838 21.932C37.0832 21.932 36.9399 21.7945 36.9399 21.6021V19.0181C36.9399 18.8257 37.0832 18.6882 37.2838 18.6882Z" fill="#00C3B6"/>
<path d="M43.5324 17.3962C43.733 17.3962 43.8763 17.5336 43.8763 17.726V22.9215C43.8763 23.1139 43.733 23.2514 43.5324 23.2514C43.3318 23.2514 43.1885 23.1139 43.1885 22.9215V17.726C43.1885 17.5336 43.3318 17.3962 43.5324 17.3962Z" fill="#00C3B6"/>
<path d="M44.5631 17.9184C44.7637 17.9184 44.907 18.0559 44.907 18.2483V22.3992C44.907 22.5916 44.7637 22.7291 44.5631 22.7291C44.3625 22.7291 44.2192 22.5916 44.2192 22.3992V18.2483C44.2192 18.0559 44.3625 17.9184 44.5631 17.9184Z" fill="#00C3B6"/>
<path d="M45.5959 17.9184C45.7965 17.9184 45.9398 18.0559 45.9398 18.2483V22.3992C45.9398 22.5916 45.7965 22.7291 45.5959 22.7291C45.3953 22.7291 45.252 22.5916 45.252 22.3992V18.2483C45.252 18.0559 45.3953 17.9184 45.5959 17.9184Z" fill="#00C3B6"/>
<path d="M46.6559 18.6882C46.8565 18.6882 46.9998 18.8257 46.9998 19.0181V21.6021C46.9998 21.7945 46.8565 21.932 46.6559 21.932C46.4553 21.932 46.312 21.7945 46.312 21.6021V19.0181C46.312 18.8257 46.4553 18.6882 46.6559 18.6882Z" fill="#00C3B6"/>
</svg>
