<svg width="66" height="62" viewBox="0 0 66 62" fill="none" xmlns="http://www.w3.org/2000/svg">
<path fill-rule="evenodd" clip-rule="evenodd" d="M18.2271 29.1028L12.3322 14.6323C12.3322 14.6323 15.5071 11.3545 12.3322 7.39712C9.15545 3.43972 0.039463 7.02115 2.2787 12.6942C4.24983 16.7381 8.12181 16.2386 8.12181 16.2386L14.0167 30.709L18.2271 29.101V29.1028Z" fill="#FDE897"/>
<path fill-rule="evenodd" clip-rule="evenodd" d="M8.83733 6.91697C6.68869 6.75634 6.20423 9.19927 7.32293 10.2883C8.1846 11.2627 11.1431 11.8505 11.3595 9.32459C12.1916 12.1294 9.34029 14.1398 9.34029 14.1398L14.8912 27.1435C14.8912 27.1435 14.1405 28.0454 12.872 27.6253C12.8295 27.6112 12.7833 27.59 12.737 27.5724L8.11988 16.2386C8.11988 16.2386 5.23901 16.6075 3.18283 14.1134C3.02935 13.6085 2.89252 13.1302 2.78158 12.6942C1.95134 9.43226 5.0541 5.35484 8.83548 6.9152L8.83733 6.91697Z" fill="#C59D50"/>
<path d="M8.43636 5.00002C10.1246 4.99649 11.8313 5.58074 12.9352 6.9593C14.0872 8.38904 14.5069 9.80996 14.5032 11.035C14.4921 12.8336 13.6637 14.1539 13.1978 14.7594L19.2073 29.5122L18.5083 29.7787L13.5861 31.6586L7.60981 16.9869C6.35983 16.9834 3.27001 16.4786 1.59104 13.0031L1.5781 12.9784L1.567 12.9519C1.29704 12.2688 1.16761 11.5945 1.16946 10.9485C1.22863 7.28937 5.02479 5.00884 8.43451 5.00002H8.43636ZM7.71152 15.536C7.92971 15.536 8.01847 15.5201 8.02031 15.5237L8.61387 15.4478L14.4477 29.7682L17.2472 28.6985L11.4522 14.4752L11.774 14.1433C11.774 14.1433 12.998 12.8636 12.9833 11.035C12.9796 10.1153 12.6948 9.0492 11.7277 7.84009C10.9678 6.89399 9.78434 6.45447 8.43451 6.45094C5.64794 6.45447 2.6931 8.42258 2.68755 10.9485C2.68755 11.4021 2.77631 11.8893 2.97786 12.4118C4.41459 15.3118 6.79807 15.5148 7.71152 15.5378V15.536Z" fill="black"/>
<path fill-rule="evenodd" clip-rule="evenodd" d="M16.7549 55.2075L28.0065 55.0804C28.0065 55.0804 26.6567 30.6176 18.9257 25.7C16.1502 25.5994 12.624 25.7 9.84298 25.7C7.06196 25.7 0.67337 40.5852 0.760277 47.8558C0.760277 52.0091 1.22624 60.9724 1.22624 60.9724C1.22624 60.9724 2.76653 39.5473 9.84113 30.9989C13.813 33.5918 16.753 55.2075 16.753 55.2075H16.7549Z" fill="#C59D50"/>
<path fill-rule="evenodd" clip-rule="evenodd" d="M19.9921 55.1702C19.8275 47.5326 17.7935 34.1441 10.6838 25.6963C10.399 25.6963 10.1161 25.6998 9.84433 25.6998C7.0633 25.6998 0.674713 40.5851 0.76162 47.8556C0.76162 52.0089 1.22759 60.9722 1.22759 60.9722C1.22759 60.9722 2.76788 39.5472 9.84247 30.9987C13.8143 33.5917 16.7544 55.2073 16.7544 55.2073L19.9921 55.1702Z" fill="#ABB4C7"/>
<path d="M16.7546 55.2074L16.7638 55.9329L28.0155 55.8058C28.2207 55.8041 28.4204 55.7211 28.5591 55.5764C28.6996 55.4334 28.7754 55.2392 28.7644 55.0433C28.659 54.955 27.6531 30.6299 19.3451 25.0981L18.9531 24.978C18.0138 24.9427 16.9968 24.9321 15.9539 24.9321C13.87 24.9321 11.6825 24.978 9.84083 24.978C7.41483 25.3205 5.67484 29.0519 3.55949 33.6906C1.6124 38.3417 0.00739634 43.8648 0 47.7092V47.8681L0.759977 47.8575H0C0 52.0496 0.467818 61.0023 0.467818 61.0094C0.486309 61.3924 0.817295 61.696 1.21855 61.6978C1.61795 61.7013 1.95448 61.4048 1.98222 61.0235C1.95263 60.9917 3.60202 39.6161 10.4362 31.4507L9.84083 31.0006L9.41184 31.599C10.9188 32.4268 12.8937 38.5641 14.0419 44.2231C15.2679 49.9192 15.9964 55.2922 16.0001 55.3028C16.0501 55.6681 16.3773 55.9382 16.7619 55.9347L16.7527 55.2092L17.5071 55.1157C17.3758 54.9868 14.85 33.7101 10.2698 30.4022C9.94068 30.1869 9.4932 30.2522 9.24542 30.5505C1.93044 39.4785 0.5048 60.8611 0.467818 60.9247L1.22594 60.9741L1.98407 60.9388C1.98407 60.9247 1.5181 51.9737 1.51995 47.8575V47.8487C1.51995 47.8028 1.51995 47.7551 1.51995 47.7075C1.5107 44.2302 3.06578 38.7477 4.97219 34.229C5.92077 31.9661 6.95811 29.9309 7.90299 28.4977C8.7961 27.0326 9.77981 26.3936 9.84453 26.429C11.7103 26.429 13.894 26.3831 15.9576 26.3831C16.9875 26.3831 17.9879 26.3936 18.8976 26.4272L18.9272 25.7017L18.5056 26.3054C21.9727 28.4271 24.3672 35.6941 25.6209 42.368C26.9153 49.0454 27.2463 55.1086 27.25 55.121L28.0081 55.0821L27.9988 54.3567L16.7472 54.4837L16.7564 55.2092L16.7546 55.2074Z" fill="black"/>
<path fill-rule="evenodd" clip-rule="evenodd" d="M19.972 54.4468L17.3981 54.475C16.8508 50.9024 14.3933 33.3766 10.2717 30.4006C9.9426 30.1852 9.49512 30.2506 9.24734 30.5489C5.02588 35.7012 2.7663 44.9981 1.60323 51.9544C1.55515 50.417 1.52002 48.9608 1.52187 47.8541V47.8453C1.52187 47.7994 1.52187 47.7517 1.52187 47.704C1.51262 44.2268 3.0677 38.7443 4.9741 34.2256C5.92268 31.9627 6.96002 29.9275 7.9049 28.4943C8.79801 27.0292 9.78172 26.3902 9.84644 26.4255C10.305 26.4255 10.7839 26.422 11.2739 26.4185C10.8838 25.9207 10.4788 25.4406 10.0554 24.9746C9.98697 24.9746 9.91486 24.9746 9.84644 24.9746C7.42044 25.317 5.68045 29.0485 3.5651 33.6872C1.61802 38.3383 0.0130116 43.8614 0.00561523 47.7058V47.8647C0.00561523 52.0604 0.473433 61.0007 0.473433 61.0077C0.473433 61.0378 0.480831 61.0678 0.486378 61.0978C0.913517 61.2213 1.3499 61.3414 1.79368 61.4526C1.90278 61.3361 1.97489 61.1878 1.98783 61.0219C1.95825 60.9901 3.52812 40.6577 9.94629 32.0775C11.3627 33.8126 13.0306 39.2032 14.0476 44.2215C15.2735 49.9175 16.002 55.2905 16.0057 55.3011C16.0557 55.6665 16.383 55.9366 16.7676 55.933L20.0053 55.896C20.0016 55.437 19.9924 54.9516 19.9739 54.4468H19.972Z" fill="black"/>
<path d="M9.23096 26.2349C14.7708 26.9233 19.5433 47.4163 19.3917 54.6621C19.3917 54.9798 19.3843 55.2711 19.3676 55.5306L20.5048 55.5941C20.5233 55.3082 20.5307 54.9957 20.5307 54.6604C20.3809 47.0756 16.5441 26.8209 9.44915 25.167L9.23096 26.2331V26.2349Z" fill="black"/>
<path d="M66.0001 3.85471V15.9319C66.0001 18.0244 63.8819 19.7202 61.271 19.7202H25.3444L15.5547 25.2578V10.1526L15.5616 10.1581V3.85471C15.5616 1.76219 17.6798 0.0664062 20.2907 0.0664062H61.271C63.8819 0.0664062 66.0001 1.76219 66.0001 3.85471Z" fill="#ABB4C7"/>
<path d="M24.4111 6.55371H25.7539V11.2754C25.7539 11.819 25.6367 12.2764 25.4023 12.6475C25.168 13.0153 24.849 13.2936 24.4453 13.4824C24.0417 13.668 23.5827 13.7607 23.0684 13.7607C22.5475 13.7607 22.0837 13.668 21.6768 13.4824C21.2699 13.2936 20.9508 13.0153 20.7197 12.6475C20.4886 12.2764 20.373 11.819 20.373 11.2754V6.55371H21.7158V11.2754C21.7158 11.6074 21.7712 11.8792 21.8818 12.0908C21.9925 12.2992 22.1488 12.4538 22.3506 12.5547C22.5524 12.6556 22.7917 12.7061 23.0684 12.7061C23.3483 12.7061 23.5876 12.6556 23.7861 12.5547C23.988 12.4538 24.1426 12.2992 24.25 12.0908C24.3574 11.8792 24.4111 11.6074 24.4111 11.2754V6.55371ZM28.1953 9.50781V13.6631H26.9062V8.37988H28.1172L28.1953 9.50781ZM27.9902 10.8311H27.6094C27.6126 10.4469 27.6647 10.0986 27.7656 9.78613C27.8665 9.47363 28.0081 9.20508 28.1904 8.98047C28.376 8.75586 28.5957 8.58333 28.8496 8.46289C29.1035 8.34245 29.3867 8.28223 29.6992 8.28223C29.9531 8.28223 30.1826 8.31803 30.3877 8.38965C30.5928 8.46126 30.7686 8.5752 30.915 8.73145C31.0648 8.8877 31.1787 9.09277 31.2568 9.34668C31.3382 9.59733 31.3789 9.90658 31.3789 10.2744V13.6631H30.0801V10.2646C30.0801 10.0238 30.0443 9.83333 29.9727 9.69336C29.9043 9.55339 29.8034 9.4541 29.6699 9.39551C29.5397 9.33691 29.3786 9.30762 29.1865 9.30762C28.988 9.30762 28.8138 9.34831 28.6641 9.42969C28.5176 9.50781 28.3939 9.61686 28.293 9.75684C28.1953 9.89681 28.1204 10.0579 28.0684 10.2402C28.0163 10.4225 27.9902 10.6195 27.9902 10.8311ZM35.4219 12.2178C35.4219 12.1071 35.3926 12.0078 35.334 11.9199C35.2754 11.832 35.1647 11.7523 35.002 11.6807C34.8424 11.6058 34.6081 11.5358 34.2988 11.4707C34.0254 11.4121 33.7731 11.3389 33.542 11.251C33.3109 11.1631 33.1123 11.0573 32.9463 10.9336C32.7803 10.8066 32.6501 10.6585 32.5557 10.4893C32.4645 10.3167 32.4189 10.1182 32.4189 9.89355C32.4189 9.67546 32.4661 9.47038 32.5605 9.27832C32.6549 9.08301 32.7917 8.91211 32.9707 8.76562C33.1497 8.61589 33.3678 8.4987 33.625 8.41406C33.8822 8.32617 34.1719 8.28223 34.4941 8.28223C34.9434 8.28223 35.3291 8.35547 35.6514 8.50195C35.9769 8.64844 36.2259 8.85026 36.3984 9.10742C36.571 9.36133 36.6572 9.64779 36.6572 9.9668H35.3682C35.3682 9.82682 35.3356 9.69987 35.2705 9.58594C35.2087 9.47201 35.1126 9.38086 34.9824 9.3125C34.8522 9.24089 34.6878 9.20508 34.4893 9.20508C34.3102 9.20508 34.1589 9.23438 34.0352 9.29297C33.9147 9.35156 33.8236 9.42806 33.7617 9.52246C33.6999 9.61686 33.6689 9.72103 33.6689 9.83496C33.6689 9.9196 33.6852 9.99609 33.7178 10.0645C33.7536 10.1296 33.8105 10.1898 33.8887 10.2451C33.9668 10.3005 34.0726 10.3509 34.2061 10.3965C34.3428 10.4421 34.5104 10.486 34.709 10.5283C35.1029 10.6064 35.4463 10.7106 35.7393 10.8408C36.0355 10.9678 36.2666 11.137 36.4326 11.3486C36.5986 11.5602 36.6816 11.8304 36.6816 12.1592C36.6816 12.3936 36.6312 12.6084 36.5303 12.8037C36.4294 12.9958 36.2829 13.1634 36.0908 13.3066C35.8988 13.4499 35.6693 13.5622 35.4023 13.6436C35.1354 13.7217 34.8343 13.7607 34.499 13.7607C34.014 13.7607 33.6038 13.6745 33.2686 13.502C32.9333 13.3262 32.6794 13.1048 32.5068 12.8379C32.3343 12.5677 32.248 12.2878 32.248 11.998H33.4834C33.4932 12.2031 33.5485 12.3675 33.6494 12.4912C33.7503 12.6149 33.8773 12.7044 34.0303 12.7598C34.1865 12.8118 34.3509 12.8379 34.5234 12.8379C34.7188 12.8379 34.8831 12.8118 35.0166 12.7598C35.1501 12.7044 35.251 12.6312 35.3193 12.54C35.3877 12.4456 35.4219 12.3382 35.4219 12.2178ZM37.4336 11.0752V10.9727C37.4336 10.5853 37.4889 10.2288 37.5996 9.90332C37.7103 9.57454 37.8714 9.28971 38.083 9.04883C38.2946 8.80794 38.5534 8.62077 38.8594 8.4873C39.1654 8.35059 39.5137 8.28223 39.9043 8.28223C40.3014 8.28223 40.653 8.35059 40.959 8.4873C41.2682 8.62077 41.5286 8.80794 41.7402 9.04883C41.9518 9.28971 42.113 9.57454 42.2236 9.90332C42.3343 10.2288 42.3896 10.5853 42.3896 10.9727V11.0752C42.3896 11.4593 42.3343 11.8158 42.2236 12.1445C42.113 12.4701 41.9518 12.7549 41.7402 12.999C41.5286 13.2399 41.2699 13.4271 40.9639 13.5605C40.6579 13.694 40.3079 13.7607 39.9141 13.7607C39.5234 13.7607 39.1735 13.694 38.8643 13.5605C38.555 13.4271 38.2946 13.2399 38.083 12.999C37.8714 12.7549 37.7103 12.4701 37.5996 12.1445C37.4889 11.8158 37.4336 11.4593 37.4336 11.0752ZM38.7227 10.9727V11.0752C38.7227 11.3063 38.7454 11.5228 38.791 11.7246C38.8366 11.9264 38.9066 12.1038 39.001 12.2568C39.0954 12.4098 39.2174 12.5303 39.3672 12.6182C39.5202 12.7028 39.7025 12.7451 39.9141 12.7451C40.1224 12.7451 40.3014 12.7028 40.4512 12.6182C40.6009 12.5303 40.723 12.4098 40.8174 12.2568C40.915 12.1038 40.9867 11.9264 41.0322 11.7246C41.0778 11.5228 41.1006 11.3063 41.1006 11.0752V10.9727C41.1006 10.7448 41.0778 10.5316 41.0322 10.333C40.9867 10.1312 40.915 9.95378 40.8174 9.80078C40.723 9.64453 40.5993 9.52246 40.4463 9.43457C40.2965 9.34342 40.1159 9.29785 39.9043 9.29785C39.696 9.29785 39.5169 9.34342 39.3672 9.43457C39.2174 9.52246 39.0954 9.64453 39.001 9.80078C38.9066 9.95378 38.8366 10.1312 38.791 10.333C38.7454 10.5316 38.7227 10.7448 38.7227 10.9727ZM44.6162 9.45898V13.6631H43.3271V8.37988H44.5479L44.6162 9.45898ZM46.2227 8.3457L46.2031 9.54688C46.1315 9.53385 46.0501 9.52409 45.959 9.51758C45.8711 9.51107 45.7881 9.50781 45.71 9.50781C45.5114 9.50781 45.3372 9.53548 45.1875 9.59082C45.0378 9.6429 44.9124 9.7194 44.8115 9.82031C44.7139 9.92122 44.639 10.0449 44.5869 10.1914C44.5348 10.3346 44.5055 10.4974 44.499 10.6797L44.2207 10.6455C44.2207 10.3102 44.2549 9.99935 44.3232 9.71289C44.3916 9.42643 44.4909 9.17578 44.6211 8.96094C44.7513 8.74609 44.9141 8.58008 45.1094 8.46289C45.3079 8.34245 45.5358 8.28223 45.793 8.28223C45.8646 8.28223 45.9411 8.28874 46.0225 8.30176C46.1071 8.31152 46.1738 8.32617 46.2227 8.3457ZM49.6748 8.37988V9.30762H46.6475V8.37988H49.6748ZM47.458 7.08105H48.752V12.1396C48.752 12.2959 48.7731 12.4163 48.8154 12.501C48.8577 12.5856 48.9212 12.6426 49.0059 12.6719C49.0905 12.7012 49.1914 12.7158 49.3086 12.7158C49.3932 12.7158 49.4714 12.7109 49.543 12.7012C49.6146 12.6914 49.6748 12.6816 49.7236 12.6719L49.7285 13.6387C49.6211 13.6745 49.499 13.7038 49.3623 13.7266C49.2288 13.7493 49.0775 13.7607 48.9082 13.7607C48.6185 13.7607 48.3646 13.7119 48.1465 13.6143C47.9284 13.5133 47.7591 13.3522 47.6387 13.1309C47.5182 12.9062 47.458 12.61 47.458 12.2422V7.08105ZM52.9072 13.7607C52.5068 13.7607 52.1471 13.6956 51.8281 13.5654C51.5091 13.4352 51.2373 13.2546 51.0127 13.0234C50.7913 12.7891 50.6204 12.5173 50.5 12.208C50.3828 11.8955 50.3242 11.5602 50.3242 11.2021V11.0068C50.3242 10.5999 50.3828 10.2305 50.5 9.89844C50.6172 9.56315 50.7832 9.27507 50.998 9.03418C51.2129 8.79329 51.4701 8.60775 51.7695 8.47754C52.069 8.34733 52.3994 8.28223 52.7607 8.28223C53.1351 8.28223 53.4655 8.3457 53.752 8.47266C54.0384 8.59635 54.2777 8.77214 54.4697 9C54.6618 9.22786 54.8066 9.5013 54.9043 9.82031C55.002 10.1361 55.0508 10.486 55.0508 10.8701V11.4121H50.9102V10.5234H53.7812V10.4258C53.7747 10.2207 53.7357 10.0335 53.6641 9.86426C53.5924 9.69173 53.4818 9.55501 53.332 9.4541C53.1823 9.34993 52.9886 9.29785 52.751 9.29785C52.5589 9.29785 52.3913 9.34017 52.248 9.4248C52.1081 9.50618 51.9909 9.62337 51.8965 9.77637C51.8053 9.92611 51.737 10.1051 51.6914 10.3135C51.6458 10.5218 51.623 10.7529 51.623 11.0068V11.2021C51.623 11.4235 51.6523 11.6286 51.7109 11.8174C51.7728 12.0062 51.8623 12.1706 51.9795 12.3105C52.0999 12.4473 52.2432 12.5547 52.4092 12.6328C52.5785 12.7077 52.7705 12.7451 52.9854 12.7451C53.2555 12.7451 53.4997 12.693 53.7178 12.5889C53.9391 12.4814 54.1312 12.3236 54.2939 12.1152L54.9434 12.7891C54.8327 12.9518 54.6829 13.1081 54.4941 13.2578C54.3086 13.4076 54.084 13.5296 53.8203 13.624C53.5566 13.7152 53.2523 13.7607 52.9072 13.7607ZM59.084 12.54V6.16309H60.3828V13.6631H59.2109L59.084 12.54ZM55.6904 11.085V10.9824C55.6904 10.5788 55.736 10.2126 55.8271 9.88379C55.9215 9.55176 56.0583 9.26693 56.2373 9.0293C56.4163 8.79167 56.6328 8.60775 56.8867 8.47754C57.1439 8.34733 57.4352 8.28223 57.7607 8.28223C58.0765 8.28223 58.3516 8.3457 58.5859 8.47266C58.8236 8.59961 59.0254 8.78027 59.1914 9.01465C59.3607 9.24902 59.4958 9.52734 59.5967 9.84961C59.6976 10.1686 59.7708 10.5202 59.8164 10.9043V11.1826C59.7708 11.557 59.6976 11.9004 59.5967 12.2129C59.4958 12.5254 59.3607 12.7988 59.1914 13.0332C59.0254 13.2643 58.8236 13.4434 58.5859 13.5703C58.3483 13.6973 58.07 13.7607 57.751 13.7607C57.4287 13.7607 57.139 13.694 56.8818 13.5605C56.6279 13.4271 56.4115 13.2399 56.2324 12.999C56.0566 12.7581 55.9215 12.4749 55.8271 12.1494C55.736 11.8239 55.6904 11.4691 55.6904 11.085ZM56.9844 10.9824V11.085C56.9844 11.3128 57.0039 11.526 57.043 11.7246C57.082 11.9232 57.1455 12.099 57.2334 12.252C57.3213 12.4017 57.4336 12.5189 57.5703 12.6035C57.7103 12.6882 57.8796 12.7305 58.0781 12.7305C58.332 12.7305 58.5404 12.6751 58.7031 12.5645C58.8691 12.4505 58.9977 12.2959 59.0889 12.1006C59.18 11.902 59.2386 11.679 59.2646 11.4316V10.665C59.2516 10.4697 59.2174 10.2891 59.1621 10.123C59.11 9.95703 59.0352 9.8138 58.9375 9.69336C58.8431 9.57292 58.7259 9.47852 58.5859 9.41016C58.446 9.3418 58.2799 9.30762 58.0879 9.30762C57.8893 9.30762 57.7201 9.35156 57.5801 9.43945C57.4401 9.52409 57.3262 9.6429 57.2383 9.7959C57.1504 9.94889 57.0853 10.1263 57.043 10.3281C57.0039 10.5299 56.9844 10.748 56.9844 10.9824Z" fill="black"/>
</svg>
