<svg width="165" height="149" viewBox="0 0 165 149" fill="none" xmlns="http://www.w3.org/2000/svg">
<path d="M60.9322 1.17564L63.4083 1.09511C65.0658 0.53815 66.8306 1.283 68.4813 0.672363C76.1042 0.826701 83.7339 0.719335 91.3367 1.19577C102.744 1.91377 114.212 2.53784 125.472 4.69857C138.774 7.32835 151.628 11.8643 163.634 18.1662C164.862 19.2667 163.936 20.3471 163.506 21.3402C159.809 29.9093 156.346 38.5656 153.441 47.43C151.931 51.762 150.808 56.2195 150.086 60.75C150.066 61.0379 150.018 61.3232 149.945 61.6022C148.658 68.338 147.886 75.162 147.636 82.0151C147.321 92.5503 147.73 103.072 147.791 113.601C147.838 121.19 148.905 128.753 149.415 136.335C149.616 139.295 150.844 142.227 149.797 145.24C146.241 145.401 146.241 145.401 144.476 140.415C143.711 133.597 142.865 126.793 142.194 119.969C141.235 110.299 140.47 100.636 141.221 90.8861C141.812 83.2162 142.208 75.5329 143.295 67.8965C145.59 51.7917 150.918 36.7471 158.178 22.2662C159.843 18.9513 159.843 18.8574 156.494 17.4079C147.335 13.4689 137.775 10.5394 127.982 8.67108C113.568 5.88629 98.9798 4.87974 84.3647 4.05437C74.0509 3.47728 63.7639 3.34307 53.4971 4.67843C47.2022 5.52283 40.9588 6.71462 34.7954 8.24833C33.4868 8.58588 32.2989 9.28326 31.3664 10.2614C17.013 24.5276 8.86667 41.8604 6.03491 61.7633C4.47202 72.9195 5.36052 84.2823 8.63851 95.06C12.1346 106.77 17.4358 117.553 26.025 126.659C32.6548 133.698 39.2645 140.65 47.2632 146.152C48.1423 146.756 48.9811 147.495 50.1084 147.682C46.7819 148.416 43.3661 148.66 39.9691 148.407C40.0966 147.166 41.2306 147.736 41.9151 147.401C30.0713 138.006 19.9521 127.162 12.2285 114.218C7.58499 106.434 5.23637 97.7307 2.99512 89.0341C2.37106 86.6049 1.73358 84.1691 1.2974 81.6863C1.22359 80.9347 0.921627 80.163 1.45174 79.4584C1.5378 79.1491 1.55292 78.8243 1.49599 78.5082C1.43906 78.1922 1.31154 77.8931 1.12293 77.6332C0.371375 77.1568 0.357956 76.3784 0.337825 75.6201C0.0492805 66.6216 0.686761 57.7505 3.30379 49.0606C6.01163 39.9896 10.1454 31.4072 15.5502 23.6351C18.9053 18.8238 22.1129 13.9655 26.0183 9.57697C28.6443 6.60081 32.2474 4.66119 36.1777 4.10805C40.1436 3.48399 44.0624 2.61836 48.0416 2.09495C49.585 2.43718 51.0613 1.90035 52.4906 1.57825C55.3022 0.954191 58.1474 1.81983 60.9322 1.17564Z" fill="white"/>
</svg>
