<svg width="239" height="357" viewBox="0 0 239 357" fill="none" xmlns="http://www.w3.org/2000/svg">
<path d="M238.16 19.9135C238.465 19.2789 238.623 18.5841 238.623 17.8802C238.623 17.1764 238.465 16.4815 238.16 15.847C236.65 12.5791 235.207 9.28428 233.738 5.99621C232.953 4.22469 231.805 3.04366 229.712 2.84906C227.47 2.63433 225.263 2.11764 223.001 1.80225C221.753 1.62778 220.586 1.64791 219.519 2.67459C212.064 9.83453 205.608 17.8869 199.133 25.8789C195.361 30.5762 192.456 35.9445 189.181 40.9705C188.638 41.816 188.249 42.4266 187.054 41.6818C179.673 37.112 171.459 34.8372 163.179 32.7503C161.676 32.3745 160.803 31.8646 160.776 30.2205C160.829 29.8111 160.731 29.3966 160.5 29.0545C160.269 28.7123 159.921 28.4661 159.522 28.3618C149.261 24.7449 138.652 22.9935 127.855 22.1614C125.534 21.9802 123.38 22.356 121.615 24.1208C120.877 24.859 120.112 25.5568 118.817 25.5233C113.878 25.3757 108.932 25.2549 104.014 25.946C102.672 26.1339 101.551 25.8521 100.793 24.604C99.8197 22.9734 98.2025 22.5909 96.4578 22.6714C91.4334 22.7913 86.4327 23.4027 81.5273 24.4966C79.0982 25.0603 76.4543 25.1677 74.3204 26.5097C70.3903 28.941 66.9157 32.0409 64.0536 35.6693C61.0876 39.6284 56.2495 40.172 52.4246 43.346C52.1092 39.1855 51.8945 35.6089 51.5657 32.0457C50.5856 22.2721 51.6319 12.4014 54.639 3.05038C55.2094 1.29227 54.686 0.681626 52.9413 0.835963C47.7743 1.29898 42.6074 1.78883 37.4337 2.17803C36.4943 2.25184 36.2325 2.84907 35.7762 3.42615C32.8304 7.2846 31.5219 11.9483 29.4014 16.2161C25.9548 23.3059 23.3167 30.761 21.5369 38.4407C21.3356 39.2191 20.933 40.0243 21.8523 40.6417C23.0736 40.0176 23.1608 38.7292 23.4628 37.6556C25.6493 29.47 28.829 21.5827 32.9311 14.1694C34.206 11.9147 34.9442 9.37152 36.1453 7.07658C37.125 5.24466 38.4872 4.09048 41.064 4.32534C38.3848 8.22256 36.2344 12.4579 34.669 16.9206C31.75 24.859 28.5895 32.7168 27.0729 41.0779C25.7309 48.3317 24.3418 55.5722 23.2682 62.8596C22.3824 68.8519 20.7786 74.4014 16.5176 78.9644C15.4654 80.1726 14.564 81.5043 13.8334 82.9302C12.8202 84.742 11.3506 86.3324 11.0084 88.4931C11.0051 88.8107 10.9737 89.1273 10.9144 89.4393C10.9144 88.4327 11.1225 87.198 11.2634 85.9499C11.2683 85.721 11.2295 85.4933 11.1493 85.2789C10.8339 84.8695 10.4783 84.534 9.90789 84.789C9.32409 85.8962 10.1763 87.2249 9.39791 88.3052C8.82082 89.6137 9.68646 91.1034 8.88793 92.3784C6.87482 98.2164 4.57989 103.96 3.12374 109.993C-1.98953 131.184 0.359084 151.557 9.83408 171.057C17.1282 186.028 28.4284 197.342 42.7147 205.763C43.218 206.058 44.1105 206.031 43.9763 207.045C43.9535 207.208 43.9036 207.367 43.8286 207.514C43.8513 208.168 43.8334 208.822 43.775 209.474C44.2715 215.855 42.7886 222.539 42.4329 228.887C42.1846 233.765 42.0907 238.63 42.0705 243.495C42.802 244.005 42.3188 244.931 42.3188 245.589C42.3725 253.802 42.3188 262.016 42.3725 270.229C42.3725 272.732 42.1242 275.249 42.547 277.745C42.5192 277.761 42.4962 277.785 42.4802 277.813C42.4643 277.842 42.4559 277.873 42.4559 277.906C42.4559 277.938 42.4643 277.97 42.4802 277.998C42.4962 278.027 42.5192 278.05 42.547 278.067C43.1174 278.798 42.7885 279.651 42.8355 280.442C42.9697 282.717 42.6141 285.019 43.0435 287.287C43.0435 287.575 43.0435 287.857 43.0771 288.139C43.8085 290.078 42.8825 292.206 43.6005 294.111C44.1709 294.152 44.4393 293.883 44.4863 293.568C45.258 287.985 43.8152 282.429 44.2782 276.846C44.2783 276.393 44.2219 275.942 44.1105 275.504C43.6128 271.619 43.6016 267.688 44.0769 263.801C44.4863 262.19 45.0768 260.607 44.4997 258.949C45.6762 260.348 46.7654 261.818 47.7609 263.351C51.1161 269.028 54.6591 274.604 57.974 280.301C58.9806 282.033 60.1348 282.684 62.215 282.563C67.3752 282.261 72.5221 281.704 77.7091 281.791C84.0169 281.892 83.0774 281.435 83.1445 287.112C83.527 292.541 82.4735 297.936 82.7553 303.365C83.4264 305.224 83.064 307.176 83.3324 309.075C84.7684 319.141 87.835 328.723 91.3244 338.205C91.5593 338.816 91.774 339.433 91.9954 340.037C92.3243 340.802 92.6061 341.594 92.9685 342.332C95.3573 347.163 97.5046 352.142 101.236 356.169C102.37 356.84 103.356 357.121 103.423 355.242C103.261 354.416 102.907 353.639 102.39 352.974C98.8049 347.421 95.8945 341.461 93.72 335.219C89.0563 322.207 85.3052 309.048 86.1977 295.017C86.3722 292.259 86.2514 289.488 86.1977 286.723C86.1977 285.723 86.1977 284.71 86.1977 283.717C86.144 282.06 86.8151 281.214 88.5598 281.281C93.4113 281.482 98.2428 280.865 103.081 280.818C115.2 280.711 127.319 280.664 139.431 281.321C141.444 281.429 143.289 281.18 144.638 279.469C147.745 274.873 151.59 270.894 155.307 266.827C158.156 263.535 161.284 260.495 164.655 257.741C166.642 256.068 168.765 254.564 171.003 253.245C174.251 251.152 174.15 251.172 176.787 253.916C178.29 255.473 177.116 256.882 176.942 258.365C175.606 265.953 175.412 273.697 176.365 281.341C176.687 283.965 176.365 286.039 174.707 288.287C170.426 294.158 166.158 300.077 163.159 306.76C162.535 308.143 162.085 309.579 162.528 311.142C162.655 311.35 162.716 311.592 162.944 311.719C162.848 311.649 162.747 311.587 162.642 311.531C161.729 311.491 161.011 311.739 160.823 312.773C161.884 314.658 164.058 315.115 165.574 316.423C165.836 316.645 166.165 316.302 166.333 315.994C166.641 314.732 166.272 313.497 166.01 312.303C165.495 310.18 165.81 307.941 166.89 306.042C174.123 293.406 182.94 281.746 193.127 271.343C194.37 270.016 195.911 269.005 197.623 268.392C199.335 267.78 201.168 267.583 202.971 267.82C206.048 268.271 209.034 269.201 211.822 270.578C213.292 271.316 215.13 271.974 215.586 273.685C216.378 276.658 217.512 279.563 217.72 282.677C217.781 283.402 217.774 284.153 218.438 284.69C219.606 284.509 220.337 285.193 221.015 285.992C221.65 286.427 222.141 287.041 222.424 287.757C222.78 289.656 222.189 291.474 221.921 293.319C221.64 295.303 221.127 297.247 220.391 299.111C218.485 306.042 215.633 312.625 212.922 319.242C212.406 321.416 210.748 323.268 211.064 325.657C211.976 326.234 212.976 325.522 213.902 325.865C213.587 324.08 214.573 322.624 215.13 321.073C218.264 312.692 222.283 304.6 224.021 295.755C224.726 292.179 226.263 288.421 223.578 284.905C223.176 284.368 223.672 283.764 223.907 283.254C226.068 278.624 225.793 273.638 225.779 268.773C225.732 257.037 220.337 247.065 214.479 237.409C211.547 232.577 207.809 228.269 204.125 223.908C200.218 219.124 195.88 214.708 191.168 210.715C190.818 210.433 190.546 210.066 190.379 209.649C190.212 209.232 190.156 208.779 190.215 208.333C190.215 205.736 190.725 202.965 190 200.583C189.107 197.63 190.497 197.053 192.597 196.033C212.99 186.149 227.625 171.205 232.684 148.51C236.321 132 236.307 114.895 232.644 98.3909C231 90.788 229.926 82.7289 225.189 76.4548C221.794 71.9588 222.082 68.2078 223.404 63.383C227.446 48.6102 232.374 34.0941 238.16 19.9135Z" fill="#002355"/>
</svg>
